M48
; DRILL file {KiCad (6.0.9)} date 2022年11月14日 星期一 09时52分40秒
; FORMAT={-:-/ absolute / inch / decimal}
; #@! TF.CreationDate,2022-11-14T09:52:40+08:00
; #@! TF.GenerationSoftware,Kicad,Pcbnew,(6.0.9)
; #@! TF.FileFunction,Plated,1,2,PTH
FMAT,2
INCH
; #@! TA.AperFunction,Plated,PTH,ViaDrill
T1C0.0157
; #@! TA.AperFunction,Plated,PTH,ComponentDrill
T2C0.0394
%
G90
G05
T1
X3.57Y-2.45
X3.57Y-2.5
X3.57Y-2.55
X3.57Y-2.6
X3.57Y-2.65
X3.57Y-2.94
X3.57Y-2.99
X3.57Y-3.04
X3.57Y-3.09
X3.57Y-3.14
X3.57Y-3.66
X3.57Y-3.71
X3.57Y-3.76
X3.57Y-3.81
X3.57Y-3.86
X3.84Y-3.11
X3.87Y-3.84
X3.89Y-3.11
X3.92Y-3.67
X3.92Y-3.84
X3.94Y-3.11
X3.97Y-3.67
X3.97Y-3.84
X3.99Y-3.11
X4.02Y-3.67
X4.02Y-3.84
X4.03Y-2.67
X4.04Y-3.11
X4.07Y-3.67
X4.07Y-3.84
X4.08Y-2.34
X4.08Y-2.67
X4.12Y-3.67
X4.13Y-2.34
X4.13Y-2.67
X4.15Y-2.96
X4.18Y-2.34
X4.18Y-2.67
X4.23Y-2.34
X4.23Y-2.67
X4.25Y-3.2017
X4.25Y-3.2411
X4.25Y-3.2805
X4.28Y-2.34
X4.282Y-3.182
X4.282Y-3.2214
X4.282Y-3.2608
X4.32Y-3.96
X4.32Y-4.02
X4.32Y-4.08
X4.37Y-3.96
X4.37Y-4.02
X4.37Y-4.08
X4.38Y-3.3986
X4.38Y-3.438
X4.38Y-3.497
X4.38Y-3.5374
X4.38Y-3.6151
X4.38Y-3.6545
X4.3997Y-3.4183
X4.3997Y-3.4576
X4.41Y-2.99
X4.42Y-3.96
X4.42Y-4.02
X4.42Y-4.08
X4.47Y-3.96
X4.47Y-4.02
X4.47Y-4.08
X4.52Y-3.96
X4.52Y-4.02
X4.52Y-4.08
X4.53Y-3.3874
X4.6Y-3.35
X4.62Y-3.38
X4.64Y-3.5
X4.64Y-3.55
X4.64Y-3.6
X4.64Y-3.65
X4.64Y-3.7
X4.68Y-2.67
X4.68Y-2.72
X4.68Y-2.77
X4.68Y-2.82
X4.68Y-2.87
T2
X3.6492Y-2.3612
X3.6492Y-2.4612
X3.6492Y-2.5612
X3.6492Y-2.6612
X3.6492Y-2.7612
X3.6492Y-2.8612
X3.6492Y-2.9612
X3.6492Y-3.0612
X3.6492Y-3.1612
X3.6492Y-3.2612
X3.6492Y-3.3612
X3.6492Y-3.4612
X3.6492Y-3.5612
X3.6492Y-3.6612
X3.6492Y-3.7612
X3.6492Y-3.8612
X3.6492Y-3.9612
X3.6492Y-4.0612
X3.6492Y-4.1612
X3.6492Y-4.2612
X3.7492Y-2.3612
X3.7492Y-2.4612
X3.7492Y-2.5612
X3.7492Y-2.6612
X3.7492Y-2.7612
X3.7492Y-2.8612
X3.7492Y-2.9612
X3.7492Y-3.0612
X3.7492Y-3.1612
X3.7492Y-3.2612
X3.7492Y-3.3612
X3.7492Y-3.4612
X3.7492Y-3.5612
X3.7492Y-3.6612
X3.7492Y-3.7612
X3.7492Y-3.8612
X3.7492Y-3.9612
X3.7492Y-4.0612
X3.7492Y-4.1612
X3.7492Y-4.2612
T0
M30
