%TF.GenerationSoftware,KiCad,Pcbnew,(6.0.9)*%
%TF.CreationDate,2022-11-14T09:52:40+08:00*%
%TF.ProjectId,ZDYZ_7''_RGB,5a44595a-5f37-4272-975f-5247422e6b69,rev?*%
%TF.SameCoordinates,Original*%
%TF.FileFunction,Legend,Top*%
%TF.FilePolarity,Positive*%
%FSLAX46Y46*%
G04 Gerber Fmt 4.6, Leading zero omitted, Abs format (unit mm)*
G04 Created by KiCad (PCBNEW (6.0.9)) date 2022-11-14 09:52:40*
%MOMM*%
%LPD*%
G01*
G04 APERTURE LIST*
%ADD10C,0.150000*%
%ADD11C,0.120000*%
%ADD12R,1.300000X0.300000*%
%ADD13R,2.200000X1.800000*%
%ADD14R,1.700000X1.700000*%
%ADD15O,1.700000X1.700000*%
G04 APERTURE END LIST*
D10*
X104521619Y-107402380D02*
X105188285Y-107402380D01*
X104521619Y-108402380D01*
X105188285Y-108402380D01*
X105569238Y-108402380D02*
X105569238Y-107402380D01*
X105807333Y-107402380D01*
X105950190Y-107450000D01*
X106045428Y-107545238D01*
X106093047Y-107640476D01*
X106140666Y-107830952D01*
X106140666Y-107973809D01*
X106093047Y-108164285D01*
X106045428Y-108259523D01*
X105950190Y-108354761D01*
X105807333Y-108402380D01*
X105569238Y-108402380D01*
X106759714Y-107926190D02*
X106759714Y-108402380D01*
X106426380Y-107402380D02*
X106759714Y-107926190D01*
X107093047Y-107402380D01*
X107331142Y-107402380D02*
X107997809Y-107402380D01*
X107331142Y-108402380D01*
X107997809Y-108402380D01*
X108140666Y-108497619D02*
X108902571Y-108497619D01*
X109045428Y-107402380D02*
X109712095Y-107402380D01*
X109283523Y-108402380D01*
X110140666Y-107402380D02*
X110045428Y-107592857D01*
X110616857Y-107402380D02*
X110521619Y-107592857D01*
X110807333Y-108497619D02*
X111569238Y-108497619D01*
X112378761Y-108402380D02*
X112045428Y-107926190D01*
X111807333Y-108402380D02*
X111807333Y-107402380D01*
X112188285Y-107402380D01*
X112283523Y-107450000D01*
X112331142Y-107497619D01*
X112378761Y-107592857D01*
X112378761Y-107735714D01*
X112331142Y-107830952D01*
X112283523Y-107878571D01*
X112188285Y-107926190D01*
X111807333Y-107926190D01*
X113331142Y-107450000D02*
X113235904Y-107402380D01*
X113093047Y-107402380D01*
X112950190Y-107450000D01*
X112854952Y-107545238D01*
X112807333Y-107640476D01*
X112759714Y-107830952D01*
X112759714Y-107973809D01*
X112807333Y-108164285D01*
X112854952Y-108259523D01*
X112950190Y-108354761D01*
X113093047Y-108402380D01*
X113188285Y-108402380D01*
X113331142Y-108354761D01*
X113378761Y-108307142D01*
X113378761Y-107973809D01*
X113188285Y-107973809D01*
X114140666Y-107878571D02*
X114283523Y-107926190D01*
X114331142Y-107973809D01*
X114378761Y-108069047D01*
X114378761Y-108211904D01*
X114331142Y-108307142D01*
X114283523Y-108354761D01*
X114188285Y-108402380D01*
X113807333Y-108402380D01*
X113807333Y-107402380D01*
X114140666Y-107402380D01*
X114235904Y-107450000D01*
X114283523Y-107497619D01*
X114331142Y-107592857D01*
X114331142Y-107688095D01*
X114283523Y-107783333D01*
X114235904Y-107830952D01*
X114140666Y-107878571D01*
X113807333Y-107878571D01*
%TO.C,J2*%
X115490666Y-96480380D02*
X115490666Y-97194666D01*
X115443047Y-97337523D01*
X115347809Y-97432761D01*
X115204952Y-97480380D01*
X115109714Y-97480380D01*
X115919238Y-96575619D02*
X115966857Y-96528000D01*
X116062095Y-96480380D01*
X116300190Y-96480380D01*
X116395428Y-96528000D01*
X116443047Y-96575619D01*
X116490666Y-96670857D01*
X116490666Y-96766095D01*
X116443047Y-96908952D01*
X115871619Y-97480380D01*
X116490666Y-97480380D01*
D11*
X110526000Y-94234000D02*
X110526000Y-95724000D01*
X116326000Y-72424000D02*
X114586000Y-72424000D01*
X110526000Y-95724000D02*
X111866000Y-95724000D01*
X110526000Y-72424000D02*
X111866000Y-72424000D01*
X110526000Y-73914000D02*
X110526000Y-72424000D01*
X110526000Y-94234000D02*
X109326000Y-94234000D01*
X116326000Y-95724000D02*
X116326000Y-72424000D01*
X114586000Y-95724000D02*
X116326000Y-95724000D01*
%TD*%
%LPC*%
D12*
%TO.C,J2*%
X109976000Y-93824000D03*
X109976000Y-93324000D03*
X109976000Y-92824000D03*
X109976000Y-92324000D03*
X109976000Y-91824000D03*
X109976000Y-91324000D03*
X109976000Y-90824000D03*
X109976000Y-90324000D03*
X109976000Y-89824000D03*
X109976000Y-89324000D03*
X109976000Y-88824000D03*
X109976000Y-88324000D03*
X109976000Y-87824000D03*
X109976000Y-87324000D03*
X109976000Y-86824000D03*
X109976000Y-86324000D03*
X109976000Y-85824000D03*
X109976000Y-85324000D03*
X109976000Y-84824000D03*
X109976000Y-84324000D03*
X109976000Y-83824000D03*
X109976000Y-83324000D03*
X109976000Y-82824000D03*
X109976000Y-82324000D03*
X109976000Y-81824000D03*
X109976000Y-81324000D03*
X109976000Y-80824000D03*
X109976000Y-80324000D03*
X109976000Y-79824000D03*
X109976000Y-79324000D03*
X109976000Y-78824000D03*
X109976000Y-78324000D03*
X109976000Y-77824000D03*
X109976000Y-77324000D03*
X109976000Y-76824000D03*
X109976000Y-76324000D03*
X109976000Y-75824000D03*
X109976000Y-75324000D03*
X109976000Y-74824000D03*
X109976000Y-74324000D03*
D13*
X113226000Y-95724000D03*
X113226000Y-72424000D03*
%TD*%
D14*
%TO.C,J1*%
X92690000Y-59974000D03*
D15*
X95230000Y-59974000D03*
X92690000Y-62514000D03*
X95230000Y-62514000D03*
X92690000Y-65054000D03*
X95230000Y-65054000D03*
X92690000Y-67594000D03*
X95230000Y-67594000D03*
X92690000Y-70134000D03*
X95230000Y-70134000D03*
X92690000Y-72674000D03*
X95230000Y-72674000D03*
X92690000Y-75214000D03*
X95230000Y-75214000D03*
X92690000Y-77754000D03*
X95230000Y-77754000D03*
X92690000Y-80294000D03*
X95230000Y-80294000D03*
X92690000Y-82834000D03*
X95230000Y-82834000D03*
X92690000Y-85374000D03*
X95230000Y-85374000D03*
X92690000Y-87914000D03*
X95230000Y-87914000D03*
X92690000Y-90454000D03*
X95230000Y-90454000D03*
X92690000Y-92994000D03*
X95230000Y-92994000D03*
X92690000Y-95534000D03*
X95230000Y-95534000D03*
X92690000Y-98074000D03*
X95230000Y-98074000D03*
X92690000Y-100614000D03*
X95230000Y-100614000D03*
X92690000Y-103154000D03*
X95230000Y-103154000D03*
X92690000Y-105694000D03*
X95230000Y-105694000D03*
X92690000Y-108234000D03*
X95230000Y-108234000D03*
%TD*%
M02*
