%TF.GenerationSoftware,KiCad,Pcbnew,(6.0.9)*%
%TF.CreationDate,2022-11-14T09:52:40+08:00*%
%TF.ProjectId,ZDYZ_7''_RGB,5a44595a-5f37-4272-975f-5247422e6b69,rev?*%
%TF.SameCoordinates,Original*%
%TF.FileFunction,Soldermask,Top*%
%TF.FilePolarity,Negative*%
%FSLAX46Y46*%
G04 Gerber Fmt 4.6, Leading zero omitted, Abs format (unit mm)*
G04 Created by KiCad (PCBNEW (6.0.9)) date 2022-11-14 09:52:40*
%MOMM*%
%LPD*%
G01*
G04 APERTURE LIST*
%ADD10R,1.300000X0.300000*%
%ADD11R,2.200000X1.800000*%
%ADD12R,1.700000X1.700000*%
%ADD13O,1.700000X1.700000*%
G04 APERTURE END LIST*
D10*
%TO.C,J2*%
X109976000Y-93824000D03*
X109976000Y-93324000D03*
X109976000Y-92824000D03*
X109976000Y-92324000D03*
X109976000Y-91824000D03*
X109976000Y-91324000D03*
X109976000Y-90824000D03*
X109976000Y-90324000D03*
X109976000Y-89824000D03*
X109976000Y-89324000D03*
X109976000Y-88824000D03*
X109976000Y-88324000D03*
X109976000Y-87824000D03*
X109976000Y-87324000D03*
X109976000Y-86824000D03*
X109976000Y-86324000D03*
X109976000Y-85824000D03*
X109976000Y-85324000D03*
X109976000Y-84824000D03*
X109976000Y-84324000D03*
X109976000Y-83824000D03*
X109976000Y-83324000D03*
X109976000Y-82824000D03*
X109976000Y-82324000D03*
X109976000Y-81824000D03*
X109976000Y-81324000D03*
X109976000Y-80824000D03*
X109976000Y-80324000D03*
X109976000Y-79824000D03*
X109976000Y-79324000D03*
X109976000Y-78824000D03*
X109976000Y-78324000D03*
X109976000Y-77824000D03*
X109976000Y-77324000D03*
X109976000Y-76824000D03*
X109976000Y-76324000D03*
X109976000Y-75824000D03*
X109976000Y-75324000D03*
X109976000Y-74824000D03*
X109976000Y-74324000D03*
D11*
X113226000Y-95724000D03*
X113226000Y-72424000D03*
%TD*%
D12*
%TO.C,J1*%
X92690000Y-59974000D03*
D13*
X95230000Y-59974000D03*
X92690000Y-62514000D03*
X95230000Y-62514000D03*
X92690000Y-65054000D03*
X95230000Y-65054000D03*
X92690000Y-67594000D03*
X95230000Y-67594000D03*
X92690000Y-70134000D03*
X95230000Y-70134000D03*
X92690000Y-72674000D03*
X95230000Y-72674000D03*
X92690000Y-75214000D03*
X95230000Y-75214000D03*
X92690000Y-77754000D03*
X95230000Y-77754000D03*
X92690000Y-80294000D03*
X95230000Y-80294000D03*
X92690000Y-82834000D03*
X95230000Y-82834000D03*
X92690000Y-85374000D03*
X95230000Y-85374000D03*
X92690000Y-87914000D03*
X95230000Y-87914000D03*
X92690000Y-90454000D03*
X95230000Y-90454000D03*
X92690000Y-92994000D03*
X95230000Y-92994000D03*
X92690000Y-95534000D03*
X95230000Y-95534000D03*
X92690000Y-98074000D03*
X95230000Y-98074000D03*
X92690000Y-100614000D03*
X95230000Y-100614000D03*
X92690000Y-103154000D03*
X95230000Y-103154000D03*
X92690000Y-105694000D03*
X95230000Y-105694000D03*
X92690000Y-108234000D03*
X95230000Y-108234000D03*
%TD*%
M02*
