%TF.GenerationSoftware,KiCad,Pcbnew,(6.0.9)*%
%TF.CreationDate,2022-11-14T09:52:40+08:00*%
%TF.ProjectId,ZDYZ_7''_RGB,5a44595a-5f37-4272-975f-5247422e6b69,rev?*%
%TF.SameCoordinates,Original*%
%TF.FileFunction,Paste,Top*%
%TF.FilePolarity,Positive*%
%FSLAX46Y46*%
G04 Gerber Fmt 4.6, Leading zero omitted, Abs format (unit mm)*
G04 Created by KiCad (PCBNEW (6.0.9)) date 2022-11-14 09:52:40*
%MOMM*%
%LPD*%
G01*
G04 APERTURE LIST*
%ADD10R,1.300000X0.300000*%
%ADD11R,2.200000X1.800000*%
G04 APERTURE END LIST*
D10*
%TO.C,J2*%
X109976000Y-93824000D03*
X109976000Y-93324000D03*
X109976000Y-92824000D03*
X109976000Y-92324000D03*
X109976000Y-91824000D03*
X109976000Y-91324000D03*
X109976000Y-90824000D03*
X109976000Y-90324000D03*
X109976000Y-89824000D03*
X109976000Y-89324000D03*
X109976000Y-88824000D03*
X109976000Y-88324000D03*
X109976000Y-87824000D03*
X109976000Y-87324000D03*
X109976000Y-86824000D03*
X109976000Y-86324000D03*
X109976000Y-85824000D03*
X109976000Y-85324000D03*
X109976000Y-84824000D03*
X109976000Y-84324000D03*
X109976000Y-83824000D03*
X109976000Y-83324000D03*
X109976000Y-82824000D03*
X109976000Y-82324000D03*
X109976000Y-81824000D03*
X109976000Y-81324000D03*
X109976000Y-80824000D03*
X109976000Y-80324000D03*
X109976000Y-79824000D03*
X109976000Y-79324000D03*
X109976000Y-78824000D03*
X109976000Y-78324000D03*
X109976000Y-77824000D03*
X109976000Y-77324000D03*
X109976000Y-76824000D03*
X109976000Y-76324000D03*
X109976000Y-75824000D03*
X109976000Y-75324000D03*
X109976000Y-74824000D03*
X109976000Y-74324000D03*
D11*
X113226000Y-95724000D03*
X113226000Y-72424000D03*
%TD*%
M02*
