%TF.GenerationSoftware,KiCad,Pcbnew,(6.0.9)*%
%TF.CreationDate,2022-11-14T09:52:40+08:00*%
%TF.ProjectId,ZDYZ_7''_RGB,5a44595a-5f37-4272-975f-5247422e6b69,rev?*%
%TF.SameCoordinates,Original*%
%TF.FileFunction,Copper,L1,Top*%
%TF.FilePolarity,Positive*%
%FSLAX46Y46*%
G04 Gerber Fmt 4.6, Leading zero omitted, Abs format (unit mm)*
G04 Created by KiCad (PCBNEW (6.0.9)) date 2022-11-14 09:52:40*
%MOMM*%
%LPD*%
G01*
G04 APERTURE LIST*
%TA.AperFunction,SMDPad,CuDef*%
%ADD10R,1.300000X0.300000*%
%TD*%
%TA.AperFunction,SMDPad,CuDef*%
%ADD11R,2.200000X1.800000*%
%TD*%
%TA.AperFunction,ComponentPad*%
%ADD12R,1.700000X1.700000*%
%TD*%
%TA.AperFunction,ComponentPad*%
%ADD13O,1.700000X1.700000*%
%TD*%
%TA.AperFunction,ViaPad*%
%ADD14C,0.500000*%
%TD*%
%TA.AperFunction,Conductor*%
%ADD15C,0.200000*%
%TD*%
%TA.AperFunction,Conductor*%
%ADD16C,0.150000*%
%TD*%
G04 APERTURE END LIST*
D10*
%TO.P,J2,1,Pin_1*%
%TO.N,unconnected-(J2-Pad1)*%
X109976000Y-93824000D03*
%TO.P,J2,2,Pin_2*%
%TO.N,unconnected-(J2-Pad2)*%
X109976000Y-93324000D03*
%TO.P,J2,3,Pin_3*%
%TO.N,/TP_SCL*%
X109976000Y-92824000D03*
%TO.P,J2,4,Pin_4*%
%TO.N,unconnected-(J2-Pad4)*%
X109976000Y-92324000D03*
%TO.P,J2,5,Pin_5*%
%TO.N,/TP_SDA*%
X109976000Y-91824000D03*
%TO.P,J2,6,Pin_6*%
%TO.N,unconnected-(J2-Pad6)*%
X109976000Y-91324000D03*
%TO.P,J2,7,Pin_7*%
%TO.N,/LCD_BL*%
X109976000Y-90824000D03*
%TO.P,J2,8,Pin_8*%
%TO.N,/LCD_DE*%
X109976000Y-90324000D03*
%TO.P,J2,9,Pin_9*%
%TO.N,/LCD_VSYNC*%
X109976000Y-89824000D03*
%TO.P,J2,10,Pin_10*%
%TO.N,/LCD_HSYNC*%
X109976000Y-89324000D03*
%TO.P,J2,11,Pin_11*%
%TO.N,/LCD_CLK*%
X109976000Y-88824000D03*
%TO.P,J2,12,Pin_12*%
%TO.N,/GND*%
X109976000Y-88324000D03*
%TO.P,J2,13,Pin_13*%
%TO.N,/LCD_B7*%
X109976000Y-87824000D03*
%TO.P,J2,14,Pin_14*%
%TO.N,/LCD_B6*%
X109976000Y-87324000D03*
%TO.P,J2,15,Pin_15*%
%TO.N,/LCD_B5*%
X109976000Y-86824000D03*
%TO.P,J2,16,Pin_16*%
%TO.N,/LCD_B4*%
X109976000Y-86324000D03*
%TO.P,J2,17,Pin_17*%
%TO.N,/LCD_B3*%
X109976000Y-85824000D03*
%TO.P,J2,18,Pin_18*%
X109976000Y-85324000D03*
%TO.P,J2,19,Pin_19*%
X109976000Y-84824000D03*
%TO.P,J2,20,Pin_20*%
X109976000Y-84324000D03*
%TO.P,J2,21,Pin_21*%
%TO.N,/GND*%
X109976000Y-83824000D03*
%TO.P,J2,22,Pin_22*%
%TO.N,/LCD_G7*%
X109976000Y-83324000D03*
%TO.P,J2,23,Pin_23*%
%TO.N,/LCD_G6*%
X109976000Y-82824000D03*
%TO.P,J2,24,Pin_24*%
%TO.N,/LCD_G5*%
X109976000Y-82324000D03*
%TO.P,J2,25,Pin_25*%
%TO.N,/LCD_G4*%
X109976000Y-81824000D03*
%TO.P,J2,26,Pin_26*%
%TO.N,/LCD_G3*%
X109976000Y-81324000D03*
%TO.P,J2,27,Pin_27*%
%TO.N,/LCD_G2*%
X109976000Y-80824000D03*
%TO.P,J2,28,Pin_28*%
X109976000Y-80324000D03*
%TO.P,J2,29,Pin_29*%
X109976000Y-79824000D03*
%TO.P,J2,30,Pin_30*%
%TO.N,/GND*%
X109976000Y-79324000D03*
%TO.P,J2,31,Pin_31*%
%TO.N,/LCD_R7*%
X109976000Y-78824000D03*
%TO.P,J2,32,Pin_32*%
%TO.N,/LCD_R6*%
X109976000Y-78324000D03*
%TO.P,J2,33,Pin_33*%
%TO.N,/LCD_R5*%
X109976000Y-77824000D03*
%TO.P,J2,34,Pin_34*%
%TO.N,/LCD_R4*%
X109976000Y-77324000D03*
%TO.P,J2,35,Pin_35*%
%TO.N,/LCD_R3*%
X109976000Y-76824000D03*
%TO.P,J2,36,Pin_36*%
X109976000Y-76324000D03*
%TO.P,J2,37,Pin_37*%
X109976000Y-75824000D03*
%TO.P,J2,38,Pin_38*%
X109976000Y-75324000D03*
%TO.P,J2,39,Pin_39*%
%TO.N,/VCC5V*%
X109976000Y-74824000D03*
%TO.P,J2,40,Pin_40*%
X109976000Y-74324000D03*
D11*
%TO.P,J2,MP*%
%TO.N,N/C*%
X113226000Y-95724000D03*
X113226000Y-72424000D03*
%TD*%
D12*
%TO.P,J1,1,GND*%
%TO.N,/GND*%
X92690000Y-59974000D03*
D13*
%TO.P,J1,2,GND*%
X95230000Y-59974000D03*
%TO.P,J1,3,IO4*%
%TO.N,/LCD_BL*%
X92690000Y-62514000D03*
%TO.P,J1,4,IO19*%
%TO.N,unconnected-(J1-Pad4)*%
X95230000Y-62514000D03*
%TO.P,J1,5,I2C_SDA*%
%TO.N,/TP_SDA*%
X92690000Y-65054000D03*
%TO.P,J1,6,IO20*%
%TO.N,unconnected-(J1-Pad6)*%
X95230000Y-65054000D03*
%TO.P,J1,7,I2C_SCL*%
%TO.N,/TP_SCL*%
X92690000Y-67594000D03*
%TO.P,J1,8,GND*%
%TO.N,/GND*%
X95230000Y-67594000D03*
%TO.P,J1,9,LCD_DE*%
%TO.N,/LCD_DE*%
X92690000Y-70134000D03*
%TO.P,J1,10,IO0*%
%TO.N,unconnected-(J1-Pad10)*%
X95230000Y-70134000D03*
%TO.P,J1,11,LCD_HSYNC*%
%TO.N,/LCD_HSYNC*%
X92690000Y-72674000D03*
%TO.P,J1,12,LCD_VSYNC*%
%TO.N,/LCD_VSYNC*%
X95230000Y-72674000D03*
%TO.P,J1,13,LCD_B3*%
%TO.N,/LCD_B3*%
X92690000Y-75214000D03*
%TO.P,J1,14,LCD_PCLK*%
%TO.N,/LCD_CLK*%
X95230000Y-75214000D03*
%TO.P,J1,15,LCD_B5*%
%TO.N,/LCD_B5*%
X92690000Y-77754000D03*
%TO.P,J1,16,LCD_B4*%
%TO.N,/LCD_B4*%
X95230000Y-77754000D03*
%TO.P,J1,17,LCD_B7*%
%TO.N,/LCD_B7*%
X92690000Y-80294000D03*
%TO.P,J1,18,LCD_B6*%
%TO.N,/LCD_B6*%
X95230000Y-80294000D03*
%TO.P,J1,19,LCD_G3*%
%TO.N,/LCD_G3*%
X92690000Y-82834000D03*
%TO.P,J1,20,LCD_G2*%
%TO.N,/LCD_G2*%
X95230000Y-82834000D03*
%TO.P,J1,21,LCD_G5*%
%TO.N,/LCD_G5*%
X92690000Y-85374000D03*
%TO.P,J1,22,LCD_G4*%
%TO.N,/LCD_G4*%
X95230000Y-85374000D03*
%TO.P,J1,23,LCD_G6*%
%TO.N,/LCD_G6*%
X92690000Y-87914000D03*
%TO.P,J1,24,LCD_G7*%
%TO.N,/LCD_G7*%
X95230000Y-87914000D03*
%TO.P,J1,25,LCD_R3*%
%TO.N,/LCD_R3*%
X92690000Y-90454000D03*
%TO.P,J1,26,LCD_R4*%
%TO.N,/LCD_R4*%
X95230000Y-90454000D03*
%TO.P,J1,27,LCD_R5*%
%TO.N,/LCD_R5*%
X92690000Y-92994000D03*
%TO.P,J1,28,LCD_R6*%
%TO.N,/LCD_R6*%
X95230000Y-92994000D03*
%TO.P,J1,29,LCD_R7*%
%TO.N,/LCD_R7*%
X92690000Y-95534000D03*
%TO.P,J1,30,SPI_MOSI*%
%TO.N,unconnected-(J1-Pad30)*%
X95230000Y-95534000D03*
%TO.P,J1,31,SPI_CS*%
%TO.N,unconnected-(J1-Pad31)*%
X92690000Y-98074000D03*
%TO.P,J1,32,SPI_SCK*%
%TO.N,unconnected-(J1-Pad32)*%
X95230000Y-98074000D03*
%TO.P,J1,33,GND*%
%TO.N,/GND*%
X92690000Y-100614000D03*
%TO.P,J1,34,GND*%
X95230000Y-100614000D03*
%TO.P,J1,35,VCC3.3V*%
%TO.N,unconnected-(J1-Pad35)*%
X92690000Y-103154000D03*
%TO.P,J1,36,VCC3.3V*%
%TO.N,unconnected-(J1-Pad36)*%
X95230000Y-103154000D03*
%TO.P,J1,37,GND*%
%TO.N,/GND*%
X92690000Y-105694000D03*
%TO.P,J1,38,GND*%
X95230000Y-105694000D03*
%TO.P,J1,39,VCC5V*%
%TO.N,/VCC5V*%
X92690000Y-108234000D03*
%TO.P,J1,40,VCC5V*%
X95230000Y-108234000D03*
%TD*%
D14*
%TO.N,/GND*%
X90678000Y-79756000D03*
X118872000Y-67818000D03*
X113538000Y-100584000D03*
X100838000Y-93218000D03*
X90678000Y-75946000D03*
X103378000Y-93218000D03*
X107442000Y-67818000D03*
X113538000Y-102108000D03*
X90678000Y-77216000D03*
X103378000Y-97536000D03*
X114808000Y-103632000D03*
X90678000Y-67310000D03*
X100076000Y-78994000D03*
X102362000Y-67818000D03*
X98298000Y-97536000D03*
X106172000Y-59436000D03*
X90678000Y-96774000D03*
X90678000Y-92964000D03*
X118872000Y-69088000D03*
X90678000Y-74676000D03*
X108712000Y-59436000D03*
X118872000Y-71628000D03*
X100838000Y-97536000D03*
X90678000Y-95504000D03*
X98806000Y-78994000D03*
X106172000Y-67818000D03*
X117856000Y-88900000D03*
X112268000Y-103632000D03*
X103632000Y-59436000D03*
X104902000Y-59436000D03*
X102616000Y-78994000D03*
X110998000Y-100584000D03*
X112268000Y-100584000D03*
X90678000Y-98044000D03*
X117856000Y-90170000D03*
X118872000Y-70358000D03*
X118872000Y-72898000D03*
X117856000Y-91440000D03*
X112268000Y-102108000D03*
X90678000Y-94234000D03*
X99568000Y-93218000D03*
X90678000Y-63500000D03*
X117856000Y-92710000D03*
X90678000Y-66040000D03*
X114808000Y-102108000D03*
X104648000Y-93218000D03*
X97536000Y-78994000D03*
X102108000Y-93218000D03*
X90678000Y-64770000D03*
X107442000Y-59436000D03*
X110998000Y-103632000D03*
X109728000Y-100584000D03*
X104902000Y-67818000D03*
X90678000Y-62230000D03*
X117856000Y-93980000D03*
X103632000Y-67818000D03*
X110998000Y-102108000D03*
X109728000Y-103632000D03*
X109728000Y-102108000D03*
X113538000Y-103632000D03*
X99568000Y-97536000D03*
X101346000Y-78994000D03*
X90678000Y-78486000D03*
X114808000Y-100584000D03*
X102108000Y-97536000D03*
%TO.N,/TP_SDA*%
X111252000Y-91824000D03*
X117348000Y-85852000D03*
%TO.N,/TP_SCL*%
X111252000Y-92824000D03*
X116840000Y-85090000D03*
%TO.N,/LCD_VSYNC*%
X115062000Y-86039500D03*
X111252000Y-89849500D03*
%TO.N,/LCD_CLK*%
X105410000Y-75184000D03*
X111252000Y-88824000D03*
%TO.N,/LCD_B5*%
X111752000Y-86824000D03*
%TO.N,/LCD_B4*%
X111252000Y-86324000D03*
%TO.N,/LCD_B7*%
X111752000Y-87824000D03*
%TO.N,/LCD_B6*%
X111252000Y-87324000D03*
%TO.N,/LCD_G3*%
X107950000Y-81324000D03*
%TO.N,/LCD_G2*%
X108764000Y-80824000D03*
%TO.N,/LCD_G5*%
X107950000Y-82324000D03*
%TO.N,/LCD_G4*%
X108764000Y-81824000D03*
%TO.N,/LCD_G6*%
X108764000Y-82824000D03*
%TO.N,/LCD_G7*%
X107950000Y-83324000D03*
%TO.N,/VCC5V*%
X112014000Y-75946000D03*
%TD*%
D15*
%TO.N,/GND*%
X109976000Y-88324000D02*
X108272000Y-88324000D01*
X109976000Y-79324000D02*
X110922000Y-79324000D01*
X109976000Y-83824000D02*
X108970000Y-83824000D01*
X109976000Y-79324000D02*
X109144000Y-79324000D01*
X108970000Y-83824000D02*
X108966000Y-83820000D01*
X109976000Y-83824000D02*
X110994000Y-83824000D01*
D16*
%TO.N,/LCD_BL*%
X113138000Y-90824000D02*
X109976000Y-90824000D01*
X113030000Y-61214000D02*
X117856000Y-66040000D01*
X117856000Y-66040000D02*
X117856000Y-86106000D01*
X117856000Y-86106000D02*
X113138000Y-90824000D01*
X92690000Y-62514000D02*
X93990000Y-61214000D01*
X93990000Y-61214000D02*
X113030000Y-61214000D01*
%TO.N,/TP_SDA*%
X117094000Y-66040000D02*
X117348000Y-66294000D01*
X93765000Y-63979000D02*
X93765000Y-63969000D01*
X109976000Y-91824000D02*
X111252000Y-91824000D01*
X117348000Y-66294000D02*
X117348000Y-85852000D01*
X92690000Y-65054000D02*
X93765000Y-63979000D01*
X93980000Y-63754000D02*
X114808000Y-63754000D01*
X93765000Y-63969000D02*
X93980000Y-63754000D01*
X114808000Y-63754000D02*
X117094000Y-66040000D01*
%TO.N,/TP_SCL*%
X93990000Y-66294000D02*
X95504000Y-66294000D01*
X95504000Y-66294000D02*
X115316000Y-66294000D01*
X109976000Y-92824000D02*
X111252000Y-92824000D01*
X116840000Y-67818000D02*
X116840000Y-85090000D01*
X115316000Y-66294000D02*
X116840000Y-67818000D01*
X92690000Y-67594000D02*
X93990000Y-66294000D01*
%TO.N,/LCD_DE*%
X114779000Y-69059000D02*
X116332000Y-70612000D01*
X92690000Y-70134000D02*
X93765000Y-69059000D01*
X93765000Y-69059000D02*
X114779000Y-69059000D01*
X116332000Y-86868000D02*
X112876000Y-90324000D01*
X116332000Y-70612000D02*
X116332000Y-86868000D01*
X112876000Y-90324000D02*
X109976000Y-90324000D01*
%TO.N,/LCD_HSYNC*%
X93765000Y-71599000D02*
X93765000Y-71589000D01*
X93980000Y-71374000D02*
X104140000Y-71374000D01*
X92690000Y-72674000D02*
X93765000Y-71599000D01*
X104140000Y-71374000D02*
X105156000Y-70358000D01*
X105156000Y-70358000D02*
X114808000Y-70358000D01*
X115824000Y-86106000D02*
X112606000Y-89324000D01*
X114808000Y-70358000D02*
X115824000Y-71374000D01*
X112606000Y-89324000D02*
X109976000Y-89324000D01*
X93765000Y-71589000D02*
X93980000Y-71374000D01*
X115824000Y-71374000D02*
X115824000Y-86106000D01*
%TO.N,/LCD_VSYNC*%
X111252000Y-89849500D02*
X110001500Y-89849500D01*
X110001500Y-89849500D02*
X109976000Y-89824000D01*
X105410000Y-70866000D02*
X103602000Y-72674000D01*
X115062000Y-86039500D02*
X115062000Y-71374000D01*
X115062000Y-71374000D02*
X114554000Y-70866000D01*
X103602000Y-72674000D02*
X95230000Y-72674000D01*
X114554000Y-70866000D02*
X105410000Y-70866000D01*
%TO.N,/LCD_B3*%
X112776000Y-83312000D02*
X111764000Y-84324000D01*
X112776000Y-74930000D02*
X112776000Y-83312000D01*
X93765000Y-74139000D02*
X93765000Y-74129000D01*
X93980000Y-73914000D02*
X106680000Y-73914000D01*
X93765000Y-74129000D02*
X93980000Y-73914000D01*
X110998000Y-73152000D02*
X112776000Y-74930000D01*
X109976000Y-84324000D02*
X109976000Y-85824000D01*
X106680000Y-73914000D02*
X107442000Y-73152000D01*
X107442000Y-73152000D02*
X110998000Y-73152000D01*
X92690000Y-75214000D02*
X93765000Y-74139000D01*
X111764000Y-84324000D02*
X109976000Y-84324000D01*
%TO.N,/LCD_CLK*%
X105380000Y-75214000D02*
X105410000Y-75184000D01*
X95230000Y-75214000D02*
X105380000Y-75214000D01*
X111252000Y-88824000D02*
X109976000Y-88824000D01*
%TO.N,/LCD_B5*%
X109976000Y-86824000D02*
X111752000Y-86824000D01*
%TO.N,/LCD_B4*%
X109976000Y-86324000D02*
X111252000Y-86324000D01*
%TO.N,/LCD_B7*%
X109976000Y-87824000D02*
X111752000Y-87824000D01*
%TO.N,/LCD_B6*%
X109976000Y-87324000D02*
X111252000Y-87324000D01*
%TO.N,/LCD_G3*%
X107950000Y-81324000D02*
X109976000Y-81324000D01*
%TO.N,/LCD_G2*%
X109976000Y-80824000D02*
X108764000Y-80824000D01*
X109976000Y-79824000D02*
X109976000Y-80824000D01*
%TO.N,/LCD_G5*%
X107950000Y-82324000D02*
X109976000Y-82324000D01*
%TO.N,/LCD_G4*%
X108764000Y-81824000D02*
X109976000Y-81824000D01*
%TO.N,/LCD_G6*%
X108764000Y-82824000D02*
X109976000Y-82824000D01*
%TO.N,/LCD_G7*%
X107950000Y-83324000D02*
X109976000Y-83324000D01*
%TO.N,/LCD_R3*%
X96177000Y-88989000D02*
X108342000Y-76824000D01*
X109976000Y-76824000D02*
X109976000Y-75324000D01*
X94155000Y-88989000D02*
X96177000Y-88989000D01*
X108342000Y-76824000D02*
X109976000Y-76824000D01*
X92690000Y-90454000D02*
X94155000Y-88989000D01*
%TO.N,/LCD_R4*%
X108360000Y-77324000D02*
X109976000Y-77324000D01*
X95230000Y-90454000D02*
X108360000Y-77324000D01*
%TO.N,/LCD_R5*%
X93980000Y-91694000D02*
X93980000Y-91704000D01*
X108485000Y-77824000D02*
X96774000Y-89535000D01*
X96774000Y-89535000D02*
X96774000Y-90678000D01*
X95758000Y-91694000D02*
X93980000Y-91694000D01*
X93980000Y-91704000D02*
X92690000Y-92994000D01*
X109976000Y-77824000D02*
X108485000Y-77824000D01*
X96774000Y-90678000D02*
X95758000Y-91694000D01*
%TO.N,/LCD_R6*%
X97282000Y-90932000D02*
X95230000Y-92984000D01*
X95230000Y-92984000D02*
X95230000Y-92994000D01*
X108620000Y-78324000D02*
X97282000Y-89662000D01*
X97282000Y-89662000D02*
X97282000Y-90932000D01*
X109976000Y-78324000D02*
X108620000Y-78324000D01*
%TO.N,/LCD_R7*%
X97790000Y-92456000D02*
X96012000Y-94234000D01*
X93990000Y-94234000D02*
X92690000Y-95534000D01*
X96012000Y-94234000D02*
X93990000Y-94234000D01*
X108882000Y-78824000D02*
X97790000Y-89916000D01*
X109976000Y-78824000D02*
X108882000Y-78824000D01*
X97790000Y-89916000D02*
X97790000Y-92456000D01*
%TD*%
%TA.AperFunction,Conductor*%
%TO.N,/LCD_B5*%
G36*
X111649101Y-86604840D02*
G01*
X111810723Y-86760264D01*
X111868231Y-86815567D01*
X111871819Y-86823771D01*
X111868231Y-86832433D01*
X111649101Y-87043160D01*
X111640762Y-87046425D01*
X111635565Y-87045092D01*
X111599810Y-87026370D01*
X111599232Y-87026047D01*
X111562572Y-87004125D01*
X111562212Y-87003900D01*
X111529809Y-86982891D01*
X111529768Y-86982865D01*
X111499718Y-86963204D01*
X111499696Y-86963190D01*
X111499639Y-86963153D01*
X111470063Y-86945313D01*
X111439083Y-86929768D01*
X111438789Y-86929658D01*
X111438784Y-86929656D01*
X111405075Y-86917066D01*
X111405069Y-86917064D01*
X111404742Y-86916942D01*
X111365086Y-86907256D01*
X111318157Y-86901134D01*
X111273255Y-86899428D01*
X111265119Y-86895689D01*
X111262000Y-86887736D01*
X111262000Y-86760264D01*
X111265427Y-86751991D01*
X111273256Y-86748572D01*
X111318157Y-86746865D01*
X111365086Y-86740743D01*
X111404742Y-86731057D01*
X111405069Y-86730935D01*
X111405075Y-86730933D01*
X111438784Y-86718343D01*
X111438789Y-86718341D01*
X111439083Y-86718231D01*
X111470063Y-86702686D01*
X111499639Y-86684846D01*
X111499696Y-86684809D01*
X111499718Y-86684795D01*
X111529768Y-86665134D01*
X111529809Y-86665108D01*
X111562212Y-86644099D01*
X111562572Y-86643874D01*
X111599232Y-86621952D01*
X111599810Y-86621629D01*
X111635564Y-86602908D01*
X111644483Y-86602106D01*
X111649101Y-86604840D01*
G37*
%TD.AperFunction*%
%TD*%
%TA.AperFunction,Conductor*%
%TO.N,/TP_SCL*%
G36*
X111149101Y-92604840D02*
G01*
X111310723Y-92760264D01*
X111368231Y-92815567D01*
X111371819Y-92823771D01*
X111368231Y-92832433D01*
X111149101Y-93043160D01*
X111140762Y-93046425D01*
X111135565Y-93045092D01*
X111099810Y-93026370D01*
X111099232Y-93026047D01*
X111062572Y-93004125D01*
X111062212Y-93003900D01*
X111029809Y-92982891D01*
X111029768Y-92982865D01*
X110999718Y-92963204D01*
X110999696Y-92963190D01*
X110999639Y-92963153D01*
X110970063Y-92945313D01*
X110939083Y-92929768D01*
X110938789Y-92929658D01*
X110938784Y-92929656D01*
X110905075Y-92917066D01*
X110905069Y-92917064D01*
X110904742Y-92916942D01*
X110865086Y-92907256D01*
X110818157Y-92901134D01*
X110773255Y-92899428D01*
X110765119Y-92895689D01*
X110762000Y-92887736D01*
X110762000Y-92760264D01*
X110765427Y-92751991D01*
X110773256Y-92748572D01*
X110818157Y-92746865D01*
X110865086Y-92740743D01*
X110904742Y-92731057D01*
X110905069Y-92730935D01*
X110905075Y-92730933D01*
X110938784Y-92718343D01*
X110938789Y-92718341D01*
X110939083Y-92718231D01*
X110970063Y-92702686D01*
X110999639Y-92684846D01*
X110999696Y-92684809D01*
X110999718Y-92684795D01*
X111029768Y-92665134D01*
X111029809Y-92665108D01*
X111062212Y-92644099D01*
X111062572Y-92643874D01*
X111099232Y-92621952D01*
X111099810Y-92621629D01*
X111135564Y-92602908D01*
X111144483Y-92602106D01*
X111149101Y-92604840D01*
G37*
%TD.AperFunction*%
%TD*%
%TA.AperFunction,Conductor*%
%TO.N,/LCD_R7*%
G36*
X93839790Y-94293772D02*
G01*
X93930228Y-94384210D01*
X93933655Y-94392483D01*
X93930686Y-94400271D01*
X93803525Y-94542830D01*
X93710477Y-94681845D01*
X93650847Y-94812765D01*
X93616585Y-94939285D01*
X93599640Y-95065101D01*
X93599627Y-95065316D01*
X93599627Y-95065318D01*
X93591963Y-95193883D01*
X93591962Y-95193907D01*
X93591959Y-95193970D01*
X93585514Y-95329145D01*
X93585479Y-95329650D01*
X93572253Y-95474785D01*
X93572124Y-95475753D01*
X93544139Y-95634622D01*
X93543860Y-95635826D01*
X93495309Y-95804655D01*
X93489730Y-95811657D01*
X93484296Y-95813118D01*
X92808775Y-95826323D01*
X92401645Y-95834282D01*
X92393306Y-95831017D01*
X92389718Y-95822355D01*
X92399350Y-95329650D01*
X92410882Y-94739704D01*
X92414470Y-94731501D01*
X92419344Y-94728691D01*
X92508510Y-94703049D01*
X92588174Y-94680139D01*
X92589378Y-94679860D01*
X92748246Y-94651875D01*
X92749214Y-94651746D01*
X92894349Y-94638520D01*
X92894854Y-94638485D01*
X93030029Y-94632040D01*
X93030092Y-94632037D01*
X93030116Y-94632036D01*
X93158681Y-94624372D01*
X93158683Y-94624372D01*
X93158898Y-94624359D01*
X93284714Y-94607414D01*
X93285091Y-94607312D01*
X93410770Y-94573278D01*
X93410774Y-94573277D01*
X93411234Y-94573152D01*
X93542154Y-94513522D01*
X93681169Y-94420474D01*
X93823729Y-94293314D01*
X93832184Y-94290364D01*
X93839790Y-94293772D01*
G37*
%TD.AperFunction*%
%TD*%
%TA.AperFunction,Conductor*%
%TO.N,/LCD_G5*%
G36*
X108066435Y-82102908D02*
G01*
X108086228Y-82113271D01*
X108102189Y-82121629D01*
X108102767Y-82121952D01*
X108139427Y-82143874D01*
X108139787Y-82144099D01*
X108172190Y-82165108D01*
X108172231Y-82165134D01*
X108202281Y-82184795D01*
X108202303Y-82184809D01*
X108202360Y-82184846D01*
X108231936Y-82202686D01*
X108262916Y-82218231D01*
X108263210Y-82218341D01*
X108263215Y-82218343D01*
X108296924Y-82230933D01*
X108296930Y-82230935D01*
X108297257Y-82231057D01*
X108336913Y-82240743D01*
X108383842Y-82246865D01*
X108428744Y-82248572D01*
X108436881Y-82252311D01*
X108440000Y-82260264D01*
X108440000Y-82387736D01*
X108436573Y-82396009D01*
X108428745Y-82399428D01*
X108383842Y-82401134D01*
X108336913Y-82407256D01*
X108297257Y-82416942D01*
X108296930Y-82417064D01*
X108296924Y-82417066D01*
X108263215Y-82429656D01*
X108263210Y-82429658D01*
X108262916Y-82429768D01*
X108231936Y-82445313D01*
X108202360Y-82463153D01*
X108202303Y-82463190D01*
X108202281Y-82463204D01*
X108172231Y-82482865D01*
X108172190Y-82482891D01*
X108139787Y-82503900D01*
X108139427Y-82504125D01*
X108102767Y-82526047D01*
X108102199Y-82526365D01*
X108066435Y-82545092D01*
X108057518Y-82545894D01*
X108052899Y-82543160D01*
X107833769Y-82332433D01*
X107830181Y-82324229D01*
X107833769Y-82315567D01*
X107891278Y-82260264D01*
X108052899Y-82104840D01*
X108061238Y-82101575D01*
X108066435Y-82102908D01*
G37*
%TD.AperFunction*%
%TD*%
%TA.AperFunction,Conductor*%
%TO.N,/LCD_G2*%
G36*
X108880435Y-80602908D02*
G01*
X108900228Y-80613271D01*
X108916189Y-80621629D01*
X108916767Y-80621952D01*
X108953427Y-80643874D01*
X108953787Y-80644099D01*
X108986190Y-80665108D01*
X108986231Y-80665134D01*
X109016281Y-80684795D01*
X109016303Y-80684809D01*
X109016360Y-80684846D01*
X109045936Y-80702686D01*
X109076916Y-80718231D01*
X109077210Y-80718341D01*
X109077215Y-80718343D01*
X109110924Y-80730933D01*
X109110930Y-80730935D01*
X109111257Y-80731057D01*
X109150913Y-80740743D01*
X109197842Y-80746865D01*
X109242744Y-80748572D01*
X109250881Y-80752311D01*
X109254000Y-80760264D01*
X109254000Y-80887736D01*
X109250573Y-80896009D01*
X109242745Y-80899428D01*
X109197842Y-80901134D01*
X109150913Y-80907256D01*
X109111257Y-80916942D01*
X109110930Y-80917064D01*
X109110924Y-80917066D01*
X109077215Y-80929656D01*
X109077210Y-80929658D01*
X109076916Y-80929768D01*
X109045936Y-80945313D01*
X109016360Y-80963153D01*
X109016303Y-80963190D01*
X109016281Y-80963204D01*
X108986231Y-80982865D01*
X108986190Y-80982891D01*
X108953787Y-81003900D01*
X108953427Y-81004125D01*
X108916767Y-81026047D01*
X108916199Y-81026365D01*
X108880435Y-81045092D01*
X108871518Y-81045894D01*
X108866899Y-81043160D01*
X108647769Y-80832433D01*
X108644181Y-80824229D01*
X108647769Y-80815567D01*
X108705278Y-80760264D01*
X108866899Y-80604840D01*
X108875238Y-80601575D01*
X108880435Y-80602908D01*
G37*
%TD.AperFunction*%
%TD*%
%TA.AperFunction,Conductor*%
%TO.N,/LCD_R4*%
G36*
X96379790Y-89213772D02*
G01*
X96470228Y-89304210D01*
X96473655Y-89312483D01*
X96470686Y-89320271D01*
X96343525Y-89462830D01*
X96250477Y-89601845D01*
X96190847Y-89732765D01*
X96156585Y-89859285D01*
X96139640Y-89985101D01*
X96139627Y-89985316D01*
X96139627Y-89985318D01*
X96131963Y-90113883D01*
X96131962Y-90113907D01*
X96131959Y-90113970D01*
X96125514Y-90249145D01*
X96125479Y-90249650D01*
X96112253Y-90394785D01*
X96112124Y-90395753D01*
X96084139Y-90554622D01*
X96083860Y-90555826D01*
X96035309Y-90724655D01*
X96029730Y-90731657D01*
X96024296Y-90733118D01*
X95348775Y-90746323D01*
X94941645Y-90754282D01*
X94933306Y-90751017D01*
X94929718Y-90742355D01*
X94939350Y-90249650D01*
X94950882Y-89659704D01*
X94954470Y-89651501D01*
X94959344Y-89648691D01*
X95048510Y-89623049D01*
X95128174Y-89600139D01*
X95129378Y-89599860D01*
X95288246Y-89571875D01*
X95289214Y-89571746D01*
X95434349Y-89558520D01*
X95434854Y-89558485D01*
X95570029Y-89552040D01*
X95570092Y-89552037D01*
X95570116Y-89552036D01*
X95698681Y-89544372D01*
X95698683Y-89544372D01*
X95698898Y-89544359D01*
X95824714Y-89527414D01*
X95825091Y-89527312D01*
X95950770Y-89493278D01*
X95950774Y-89493277D01*
X95951234Y-89493152D01*
X96082154Y-89433522D01*
X96221169Y-89340474D01*
X96363729Y-89213314D01*
X96372184Y-89210364D01*
X96379790Y-89213772D01*
G37*
%TD.AperFunction*%
%TD*%
%TA.AperFunction,Conductor*%
%TO.N,/TP_SDA*%
G36*
X117420009Y-85365427D02*
G01*
X117423428Y-85373255D01*
X117425134Y-85418157D01*
X117431256Y-85465086D01*
X117440942Y-85504742D01*
X117453768Y-85539083D01*
X117469313Y-85570063D01*
X117487153Y-85599639D01*
X117487190Y-85599696D01*
X117487204Y-85599718D01*
X117506865Y-85629768D01*
X117506891Y-85629809D01*
X117527900Y-85662212D01*
X117528125Y-85662572D01*
X117550047Y-85699232D01*
X117550370Y-85699810D01*
X117569092Y-85735564D01*
X117569894Y-85744482D01*
X117567160Y-85749101D01*
X117356433Y-85968231D01*
X117348229Y-85971819D01*
X117339567Y-85968231D01*
X117128840Y-85749101D01*
X117125575Y-85740762D01*
X117126908Y-85735564D01*
X117145629Y-85699810D01*
X117145952Y-85699232D01*
X117167874Y-85662572D01*
X117168099Y-85662212D01*
X117189108Y-85629809D01*
X117189134Y-85629768D01*
X117208795Y-85599718D01*
X117208809Y-85599696D01*
X117208846Y-85599639D01*
X117226686Y-85570063D01*
X117242231Y-85539083D01*
X117255057Y-85504742D01*
X117264743Y-85465086D01*
X117270865Y-85418157D01*
X117272572Y-85373256D01*
X117276311Y-85365119D01*
X117284264Y-85362000D01*
X117411736Y-85362000D01*
X117420009Y-85365427D01*
G37*
%TD.AperFunction*%
%TD*%
%TA.AperFunction,Conductor*%
%TO.N,/LCD_R6*%
G36*
X96379795Y-91743777D02*
G01*
X96470225Y-91834207D01*
X96473652Y-91842480D01*
X96470681Y-91850271D01*
X96380686Y-91951107D01*
X96343247Y-91993056D01*
X96343023Y-91993390D01*
X96250177Y-92131856D01*
X96250174Y-92131861D01*
X96249914Y-92132249D01*
X96190038Y-92263324D01*
X96155613Y-92390003D01*
X96138633Y-92516009D01*
X96131093Y-92645065D01*
X96131090Y-92645135D01*
X96124998Y-92780654D01*
X96124966Y-92781139D01*
X96112353Y-92926737D01*
X96112232Y-92927685D01*
X96085160Y-93087157D01*
X96084894Y-93088345D01*
X96037544Y-93257929D01*
X96032019Y-93264976D01*
X96026603Y-93266478D01*
X94944159Y-93296679D01*
X94935795Y-93293485D01*
X94932135Y-93284853D01*
X94932341Y-93266478D01*
X94944262Y-92202060D01*
X94947781Y-92193827D01*
X94952628Y-92190977D01*
X95122177Y-92140610D01*
X95123367Y-92140325D01*
X95282836Y-92110708D01*
X95283785Y-92110572D01*
X95353023Y-92103608D01*
X95429482Y-92095918D01*
X95429990Y-92095878D01*
X95565719Y-92088169D01*
X95565764Y-92088166D01*
X95695112Y-92079354D01*
X95821505Y-92061370D01*
X95821870Y-92061269D01*
X95821874Y-92061268D01*
X95892167Y-92041785D01*
X95948665Y-92026126D01*
X95983835Y-92009939D01*
X96079895Y-91965728D01*
X96079902Y-91965724D01*
X96080315Y-91965534D01*
X96220178Y-91871507D01*
X96261949Y-91834207D01*
X96363729Y-91743323D01*
X96372183Y-91740369D01*
X96379795Y-91743777D01*
G37*
%TD.AperFunction*%
%TD*%
%TA.AperFunction,Conductor*%
%TO.N,/LCD_DE*%
G36*
X93940890Y-68987614D02*
G01*
X93944720Y-68996271D01*
X93944720Y-69123605D01*
X93941293Y-69131878D01*
X93934398Y-69135224D01*
X93861352Y-69143887D01*
X93772616Y-69154410D01*
X93656326Y-69212254D01*
X93631388Y-69244012D01*
X93586167Y-69301597D01*
X93586166Y-69301599D01*
X93585497Y-69302451D01*
X93585181Y-69303490D01*
X93549959Y-69419311D01*
X93549958Y-69419315D01*
X93549774Y-69419921D01*
X93538805Y-69559583D01*
X93542238Y-69716356D01*
X93542240Y-69716405D01*
X93542241Y-69716435D01*
X93549710Y-69884945D01*
X93549721Y-69885385D01*
X93550892Y-70060366D01*
X93550848Y-70061460D01*
X93535492Y-70237647D01*
X93535204Y-70239400D01*
X93495056Y-70404196D01*
X93489768Y-70411423D01*
X93483917Y-70413125D01*
X93154591Y-70419563D01*
X92404936Y-70434218D01*
X92396597Y-70430953D01*
X92393009Y-70422749D01*
X92393387Y-70419563D01*
X92687840Y-69292270D01*
X92693246Y-69285132D01*
X92698536Y-69283544D01*
X92741383Y-69281256D01*
X92846918Y-69275619D01*
X92846921Y-69275619D01*
X92847270Y-69275600D01*
X92847608Y-69275542D01*
X92847613Y-69275541D01*
X92904605Y-69265684D01*
X92979096Y-69252800D01*
X92979420Y-69252704D01*
X93092106Y-69219279D01*
X93092114Y-69219276D01*
X93092371Y-69219200D01*
X93092623Y-69219099D01*
X93092634Y-69219095D01*
X93193847Y-69178456D01*
X93193868Y-69178447D01*
X93193985Y-69178400D01*
X93290830Y-69134000D01*
X93389485Y-69089740D01*
X93390105Y-69089484D01*
X93497266Y-69048992D01*
X93498318Y-69048653D01*
X93563693Y-69030922D01*
X93621040Y-69015370D01*
X93622305Y-69015101D01*
X93767727Y-68992497D01*
X93768967Y-68992371D01*
X93932463Y-68984584D01*
X93940890Y-68987614D01*
G37*
%TD.AperFunction*%
%TD*%
%TA.AperFunction,Conductor*%
%TO.N,/LCD_CLK*%
G36*
X111149101Y-88604840D02*
G01*
X111310723Y-88760264D01*
X111368231Y-88815567D01*
X111371819Y-88823771D01*
X111368231Y-88832433D01*
X111149101Y-89043160D01*
X111140762Y-89046425D01*
X111135565Y-89045092D01*
X111099810Y-89026370D01*
X111099232Y-89026047D01*
X111062572Y-89004125D01*
X111062212Y-89003900D01*
X111029809Y-88982891D01*
X111029768Y-88982865D01*
X110999718Y-88963204D01*
X110999696Y-88963190D01*
X110999639Y-88963153D01*
X110970063Y-88945313D01*
X110939083Y-88929768D01*
X110938789Y-88929658D01*
X110938784Y-88929656D01*
X110905075Y-88917066D01*
X110905069Y-88917064D01*
X110904742Y-88916942D01*
X110865086Y-88907256D01*
X110818157Y-88901134D01*
X110773255Y-88899428D01*
X110765119Y-88895689D01*
X110762000Y-88887736D01*
X110762000Y-88760264D01*
X110765427Y-88751991D01*
X110773256Y-88748572D01*
X110818157Y-88746865D01*
X110865086Y-88740743D01*
X110904742Y-88731057D01*
X110905069Y-88730935D01*
X110905075Y-88730933D01*
X110938784Y-88718343D01*
X110938789Y-88718341D01*
X110939083Y-88718231D01*
X110970063Y-88702686D01*
X110999639Y-88684846D01*
X110999696Y-88684809D01*
X110999718Y-88684795D01*
X111029768Y-88665134D01*
X111029809Y-88665108D01*
X111062212Y-88644099D01*
X111062572Y-88643874D01*
X111099232Y-88621952D01*
X111099810Y-88621629D01*
X111135564Y-88602908D01*
X111144483Y-88602106D01*
X111149101Y-88604840D01*
G37*
%TD.AperFunction*%
%TD*%
%TA.AperFunction,Conductor*%
%TO.N,/LCD_B6*%
G36*
X111149101Y-87104840D02*
G01*
X111310723Y-87260264D01*
X111368231Y-87315567D01*
X111371819Y-87323771D01*
X111368231Y-87332433D01*
X111149101Y-87543160D01*
X111140762Y-87546425D01*
X111135565Y-87545092D01*
X111099810Y-87526370D01*
X111099232Y-87526047D01*
X111062572Y-87504125D01*
X111062212Y-87503900D01*
X111029809Y-87482891D01*
X111029768Y-87482865D01*
X110999718Y-87463204D01*
X110999696Y-87463190D01*
X110999639Y-87463153D01*
X110970063Y-87445313D01*
X110939083Y-87429768D01*
X110938789Y-87429658D01*
X110938784Y-87429656D01*
X110905075Y-87417066D01*
X110905069Y-87417064D01*
X110904742Y-87416942D01*
X110865086Y-87407256D01*
X110818157Y-87401134D01*
X110773255Y-87399428D01*
X110765119Y-87395689D01*
X110762000Y-87387736D01*
X110762000Y-87260264D01*
X110765427Y-87251991D01*
X110773256Y-87248572D01*
X110818157Y-87246865D01*
X110865086Y-87240743D01*
X110904742Y-87231057D01*
X110905069Y-87230935D01*
X110905075Y-87230933D01*
X110938784Y-87218343D01*
X110938789Y-87218341D01*
X110939083Y-87218231D01*
X110970063Y-87202686D01*
X110999639Y-87184846D01*
X110999696Y-87184809D01*
X110999718Y-87184795D01*
X111029768Y-87165134D01*
X111029809Y-87165108D01*
X111062212Y-87144099D01*
X111062572Y-87143874D01*
X111099232Y-87121952D01*
X111099810Y-87121629D01*
X111135564Y-87102908D01*
X111144483Y-87102106D01*
X111149101Y-87104840D01*
G37*
%TD.AperFunction*%
%TD*%
%TA.AperFunction,Conductor*%
%TO.N,/LCD_CLK*%
G36*
X105281692Y-74978639D02*
G01*
X105524397Y-75161779D01*
X105528937Y-75169497D01*
X105526407Y-75178525D01*
X105333939Y-75413866D01*
X105326051Y-75418100D01*
X105320742Y-75417400D01*
X105302913Y-75410649D01*
X105279929Y-75401946D01*
X105279307Y-75401690D01*
X105238093Y-75383312D01*
X105237649Y-75383103D01*
X105201290Y-75365027D01*
X105201141Y-75364951D01*
X105167700Y-75347723D01*
X105167634Y-75347689D01*
X105167586Y-75347666D01*
X105167555Y-75347650D01*
X105135059Y-75331812D01*
X105134899Y-75331734D01*
X105134745Y-75331670D01*
X105101158Y-75317715D01*
X105101148Y-75317711D01*
X105100916Y-75317615D01*
X105085217Y-75312653D01*
X105063828Y-75305892D01*
X105063821Y-75305890D01*
X105063561Y-75305808D01*
X105063288Y-75305751D01*
X105063286Y-75305750D01*
X105020964Y-75296840D01*
X105020958Y-75296839D01*
X105020706Y-75296786D01*
X104970228Y-75291025D01*
X104969992Y-75291017D01*
X104969991Y-75291017D01*
X104921307Y-75289380D01*
X104913153Y-75285677D01*
X104910000Y-75277687D01*
X104910000Y-75150256D01*
X104913427Y-75141983D01*
X104921248Y-75138565D01*
X104958522Y-75137123D01*
X104965005Y-75136872D01*
X105011023Y-75130700D01*
X105049880Y-75120799D01*
X105083407Y-75107484D01*
X105113430Y-75091071D01*
X105141779Y-75071877D01*
X105170281Y-75050215D01*
X105200683Y-75026468D01*
X105200866Y-75026328D01*
X105234852Y-75000911D01*
X105235278Y-75000607D01*
X105268064Y-74978304D01*
X105276832Y-74976484D01*
X105281692Y-74978639D01*
G37*
%TD.AperFunction*%
%TD*%
%TA.AperFunction,Conductor*%
%TO.N,/TP_SCL*%
G36*
X93839790Y-66353772D02*
G01*
X93930228Y-66444210D01*
X93933655Y-66452483D01*
X93930686Y-66460271D01*
X93803525Y-66602830D01*
X93710477Y-66741845D01*
X93650847Y-66872765D01*
X93616585Y-66999285D01*
X93599640Y-67125101D01*
X93599627Y-67125316D01*
X93599627Y-67125318D01*
X93591963Y-67253883D01*
X93591962Y-67253907D01*
X93591959Y-67253970D01*
X93585514Y-67389145D01*
X93585479Y-67389650D01*
X93572253Y-67534785D01*
X93572124Y-67535753D01*
X93544139Y-67694622D01*
X93543860Y-67695826D01*
X93495309Y-67864655D01*
X93489730Y-67871657D01*
X93484296Y-67873118D01*
X92808775Y-67886323D01*
X92401645Y-67894282D01*
X92393306Y-67891017D01*
X92389718Y-67882355D01*
X92399350Y-67389650D01*
X92410882Y-66799704D01*
X92414470Y-66791501D01*
X92419344Y-66788691D01*
X92508510Y-66763049D01*
X92588174Y-66740139D01*
X92589378Y-66739860D01*
X92748246Y-66711875D01*
X92749214Y-66711746D01*
X92894349Y-66698520D01*
X92894854Y-66698485D01*
X93030029Y-66692040D01*
X93030092Y-66692037D01*
X93030116Y-66692036D01*
X93158681Y-66684372D01*
X93158683Y-66684372D01*
X93158898Y-66684359D01*
X93284714Y-66667414D01*
X93285091Y-66667312D01*
X93410770Y-66633278D01*
X93410774Y-66633277D01*
X93411234Y-66633152D01*
X93542154Y-66573522D01*
X93681169Y-66480474D01*
X93823729Y-66353314D01*
X93832184Y-66350364D01*
X93839790Y-66353772D01*
G37*
%TD.AperFunction*%
%TD*%
%TA.AperFunction,Conductor*%
%TO.N,/LCD_HSYNC*%
G36*
X93839801Y-71423781D02*
G01*
X93930232Y-71514212D01*
X93933659Y-71522485D01*
X93930693Y-71530269D01*
X93802744Y-71673821D01*
X93802520Y-71674156D01*
X93802515Y-71674163D01*
X93709583Y-71813394D01*
X93709580Y-71813400D01*
X93709316Y-71813795D01*
X93649623Y-71945654D01*
X93615529Y-72073107D01*
X93598897Y-72199860D01*
X93598886Y-72200053D01*
X93598885Y-72200065D01*
X93591593Y-72329624D01*
X93585491Y-72465845D01*
X93585457Y-72466358D01*
X93572464Y-72612528D01*
X93572335Y-72613506D01*
X93544390Y-72773439D01*
X93544113Y-72774645D01*
X93495307Y-72944649D01*
X93489730Y-72951655D01*
X93484291Y-72953118D01*
X92907122Y-72964401D01*
X92401645Y-72974282D01*
X92393306Y-72971017D01*
X92389718Y-72962355D01*
X92410883Y-71879693D01*
X92414471Y-71871489D01*
X92419331Y-71868682D01*
X92449358Y-71860000D01*
X92588483Y-71819773D01*
X92589637Y-71819503D01*
X92748657Y-71790765D01*
X92749579Y-71790637D01*
X92894724Y-71776367D01*
X92895204Y-71776330D01*
X92907029Y-71775656D01*
X93030334Y-71768633D01*
X93079521Y-71765177D01*
X93158754Y-71759610D01*
X93158766Y-71759609D01*
X93158975Y-71759594D01*
X93159187Y-71759563D01*
X93159197Y-71759562D01*
X93284238Y-71741324D01*
X93284244Y-71741323D01*
X93284619Y-71741268D01*
X93411004Y-71705699D01*
X93541866Y-71644929D01*
X93542252Y-71644668D01*
X93542256Y-71644666D01*
X93680613Y-71551224D01*
X93680945Y-71551000D01*
X93681237Y-71550739D01*
X93681242Y-71550735D01*
X93823729Y-71423332D01*
X93832181Y-71420372D01*
X93839801Y-71423781D01*
G37*
%TD.AperFunction*%
%TD*%
%TA.AperFunction,Conductor*%
%TO.N,/LCD_CLK*%
G36*
X95608059Y-74453179D02*
G01*
X95761771Y-74538228D01*
X95762819Y-74538882D01*
X95894939Y-74631427D01*
X95895715Y-74632020D01*
X96007690Y-74725291D01*
X96008072Y-74725623D01*
X96108231Y-74816666D01*
X96108262Y-74816693D01*
X96108266Y-74816697D01*
X96204775Y-74902348D01*
X96204932Y-74902468D01*
X96204942Y-74902476D01*
X96305412Y-74979095D01*
X96305416Y-74979098D01*
X96305722Y-74979331D01*
X96419412Y-75044567D01*
X96419852Y-75044732D01*
X96419857Y-75044734D01*
X96553702Y-75094809D01*
X96553706Y-75094810D01*
X96554152Y-75094977D01*
X96621162Y-75108250D01*
X96717845Y-75127402D01*
X96717851Y-75127403D01*
X96718246Y-75127481D01*
X96908967Y-75138370D01*
X96917031Y-75142263D01*
X96920000Y-75150051D01*
X96920000Y-75277949D01*
X96916573Y-75286222D01*
X96908967Y-75289630D01*
X96718246Y-75300518D01*
X96717851Y-75300596D01*
X96717845Y-75300597D01*
X96621162Y-75319749D01*
X96554152Y-75333022D01*
X96553706Y-75333189D01*
X96553702Y-75333190D01*
X96419857Y-75383265D01*
X96419852Y-75383267D01*
X96419412Y-75383432D01*
X96305722Y-75448668D01*
X96305416Y-75448901D01*
X96305412Y-75448904D01*
X96204942Y-75525523D01*
X96204932Y-75525531D01*
X96204775Y-75525651D01*
X96204620Y-75525789D01*
X96108299Y-75611273D01*
X96108231Y-75611333D01*
X96008072Y-75702376D01*
X96007690Y-75702708D01*
X95895715Y-75795979D01*
X95894939Y-75796572D01*
X95762819Y-75889117D01*
X95761771Y-75889771D01*
X95608059Y-75974821D01*
X95599161Y-75975828D01*
X95594285Y-75973017D01*
X94928768Y-75333022D01*
X94813769Y-75222433D01*
X94810181Y-75214229D01*
X94813769Y-75205567D01*
X94879598Y-75142263D01*
X95313024Y-74725458D01*
X95594285Y-74454983D01*
X95602624Y-74451718D01*
X95608059Y-74453179D01*
G37*
%TD.AperFunction*%
%TD*%
%TA.AperFunction,Conductor*%
%TO.N,/LCD_G6*%
G36*
X108880435Y-82602908D02*
G01*
X108900228Y-82613271D01*
X108916189Y-82621629D01*
X108916767Y-82621952D01*
X108953427Y-82643874D01*
X108953787Y-82644099D01*
X108986190Y-82665108D01*
X108986231Y-82665134D01*
X109016281Y-82684795D01*
X109016303Y-82684809D01*
X109016360Y-82684846D01*
X109045936Y-82702686D01*
X109076916Y-82718231D01*
X109077210Y-82718341D01*
X109077215Y-82718343D01*
X109110924Y-82730933D01*
X109110930Y-82730935D01*
X109111257Y-82731057D01*
X109150913Y-82740743D01*
X109197842Y-82746865D01*
X109242744Y-82748572D01*
X109250881Y-82752311D01*
X109254000Y-82760264D01*
X109254000Y-82887736D01*
X109250573Y-82896009D01*
X109242745Y-82899428D01*
X109197842Y-82901134D01*
X109150913Y-82907256D01*
X109111257Y-82916942D01*
X109110930Y-82917064D01*
X109110924Y-82917066D01*
X109077215Y-82929656D01*
X109077210Y-82929658D01*
X109076916Y-82929768D01*
X109045936Y-82945313D01*
X109016360Y-82963153D01*
X109016303Y-82963190D01*
X109016281Y-82963204D01*
X108986231Y-82982865D01*
X108986190Y-82982891D01*
X108953787Y-83003900D01*
X108953427Y-83004125D01*
X108916767Y-83026047D01*
X108916199Y-83026365D01*
X108880435Y-83045092D01*
X108871518Y-83045894D01*
X108866899Y-83043160D01*
X108647769Y-82832433D01*
X108644181Y-82824229D01*
X108647769Y-82815567D01*
X108705278Y-82760264D01*
X108866899Y-82604840D01*
X108875238Y-82601575D01*
X108880435Y-82602908D01*
G37*
%TD.AperFunction*%
%TD*%
%TA.AperFunction,Conductor*%
%TO.N,/LCD_R5*%
G36*
X93839790Y-91753772D02*
G01*
X93930228Y-91844210D01*
X93933655Y-91852483D01*
X93930686Y-91860271D01*
X93803525Y-92002830D01*
X93710477Y-92141845D01*
X93650847Y-92272765D01*
X93616585Y-92399285D01*
X93599640Y-92525101D01*
X93599627Y-92525316D01*
X93599627Y-92525318D01*
X93591963Y-92653883D01*
X93591962Y-92653907D01*
X93591959Y-92653970D01*
X93585514Y-92789145D01*
X93585479Y-92789650D01*
X93572253Y-92934785D01*
X93572124Y-92935753D01*
X93544139Y-93094622D01*
X93543860Y-93095826D01*
X93495309Y-93264655D01*
X93489730Y-93271657D01*
X93484296Y-93273118D01*
X92808775Y-93286323D01*
X92401645Y-93294282D01*
X92393306Y-93291017D01*
X92389718Y-93282355D01*
X92399350Y-92789650D01*
X92410882Y-92199704D01*
X92414470Y-92191501D01*
X92419344Y-92188691D01*
X92508510Y-92163049D01*
X92588174Y-92140139D01*
X92589378Y-92139860D01*
X92748246Y-92111875D01*
X92749214Y-92111746D01*
X92894349Y-92098520D01*
X92894854Y-92098485D01*
X93030029Y-92092040D01*
X93030092Y-92092037D01*
X93030116Y-92092036D01*
X93158681Y-92084372D01*
X93158683Y-92084372D01*
X93158898Y-92084359D01*
X93284714Y-92067414D01*
X93285091Y-92067312D01*
X93410770Y-92033278D01*
X93410774Y-92033277D01*
X93411234Y-92033152D01*
X93542154Y-91973522D01*
X93681169Y-91880474D01*
X93823729Y-91753314D01*
X93832184Y-91750364D01*
X93839790Y-91753772D01*
G37*
%TD.AperFunction*%
%TD*%
%TA.AperFunction,Conductor*%
%TO.N,/LCD_G4*%
G36*
X108880435Y-81602908D02*
G01*
X108900228Y-81613271D01*
X108916189Y-81621629D01*
X108916767Y-81621952D01*
X108953427Y-81643874D01*
X108953787Y-81644099D01*
X108986190Y-81665108D01*
X108986231Y-81665134D01*
X109016281Y-81684795D01*
X109016303Y-81684809D01*
X109016360Y-81684846D01*
X109045936Y-81702686D01*
X109076916Y-81718231D01*
X109077210Y-81718341D01*
X109077215Y-81718343D01*
X109110924Y-81730933D01*
X109110930Y-81730935D01*
X109111257Y-81731057D01*
X109150913Y-81740743D01*
X109197842Y-81746865D01*
X109242744Y-81748572D01*
X109250881Y-81752311D01*
X109254000Y-81760264D01*
X109254000Y-81887736D01*
X109250573Y-81896009D01*
X109242745Y-81899428D01*
X109197842Y-81901134D01*
X109150913Y-81907256D01*
X109111257Y-81916942D01*
X109110930Y-81917064D01*
X109110924Y-81917066D01*
X109077215Y-81929656D01*
X109077210Y-81929658D01*
X109076916Y-81929768D01*
X109045936Y-81945313D01*
X109016360Y-81963153D01*
X109016303Y-81963190D01*
X109016281Y-81963204D01*
X108986231Y-81982865D01*
X108986190Y-81982891D01*
X108953787Y-82003900D01*
X108953427Y-82004125D01*
X108916767Y-82026047D01*
X108916199Y-82026365D01*
X108880435Y-82045092D01*
X108871518Y-82045894D01*
X108866899Y-82043160D01*
X108647769Y-81832433D01*
X108644181Y-81824229D01*
X108647769Y-81815567D01*
X108705278Y-81760264D01*
X108866899Y-81604840D01*
X108875238Y-81601575D01*
X108880435Y-81602908D01*
G37*
%TD.AperFunction*%
%TD*%
%TA.AperFunction,Conductor*%
%TO.N,/LCD_VSYNC*%
G36*
X115134009Y-85552927D02*
G01*
X115137428Y-85560755D01*
X115139134Y-85605657D01*
X115145256Y-85652586D01*
X115154942Y-85692242D01*
X115167768Y-85726583D01*
X115183313Y-85757563D01*
X115201153Y-85787139D01*
X115201190Y-85787196D01*
X115201204Y-85787218D01*
X115220865Y-85817268D01*
X115220891Y-85817309D01*
X115241900Y-85849712D01*
X115242125Y-85850072D01*
X115264047Y-85886732D01*
X115264370Y-85887310D01*
X115283092Y-85923064D01*
X115283894Y-85931982D01*
X115281160Y-85936601D01*
X115070433Y-86155731D01*
X115062229Y-86159319D01*
X115053567Y-86155731D01*
X114842840Y-85936601D01*
X114839575Y-85928262D01*
X114840908Y-85923064D01*
X114859629Y-85887310D01*
X114859952Y-85886732D01*
X114881874Y-85850072D01*
X114882099Y-85849712D01*
X114903108Y-85817309D01*
X114903134Y-85817268D01*
X114922795Y-85787218D01*
X114922809Y-85787196D01*
X114922846Y-85787139D01*
X114940686Y-85757563D01*
X114956231Y-85726583D01*
X114969057Y-85692242D01*
X114978743Y-85652586D01*
X114984865Y-85605657D01*
X114986572Y-85560756D01*
X114990311Y-85552619D01*
X114998264Y-85549500D01*
X115125736Y-85549500D01*
X115134009Y-85552927D01*
G37*
%TD.AperFunction*%
%TD*%
%TA.AperFunction,Conductor*%
%TO.N,/LCD_VSYNC*%
G36*
X95608059Y-71913179D02*
G01*
X95761771Y-71998228D01*
X95762819Y-71998882D01*
X95894939Y-72091427D01*
X95895715Y-72092020D01*
X96007690Y-72185291D01*
X96008072Y-72185623D01*
X96108231Y-72276666D01*
X96108262Y-72276693D01*
X96108266Y-72276697D01*
X96204775Y-72362348D01*
X96204932Y-72362468D01*
X96204942Y-72362476D01*
X96305412Y-72439095D01*
X96305416Y-72439098D01*
X96305722Y-72439331D01*
X96419412Y-72504567D01*
X96419852Y-72504732D01*
X96419857Y-72504734D01*
X96553702Y-72554809D01*
X96553706Y-72554810D01*
X96554152Y-72554977D01*
X96621162Y-72568250D01*
X96717845Y-72587402D01*
X96717851Y-72587403D01*
X96718246Y-72587481D01*
X96908967Y-72598370D01*
X96917031Y-72602263D01*
X96920000Y-72610051D01*
X96920000Y-72737949D01*
X96916573Y-72746222D01*
X96908967Y-72749630D01*
X96718246Y-72760518D01*
X96717851Y-72760596D01*
X96717845Y-72760597D01*
X96621162Y-72779749D01*
X96554152Y-72793022D01*
X96553706Y-72793189D01*
X96553702Y-72793190D01*
X96419857Y-72843265D01*
X96419852Y-72843267D01*
X96419412Y-72843432D01*
X96305722Y-72908668D01*
X96305416Y-72908901D01*
X96305412Y-72908904D01*
X96204942Y-72985523D01*
X96204932Y-72985531D01*
X96204775Y-72985651D01*
X96204620Y-72985789D01*
X96108299Y-73071273D01*
X96108231Y-73071333D01*
X96008072Y-73162376D01*
X96007690Y-73162708D01*
X95895715Y-73255979D01*
X95894939Y-73256572D01*
X95762819Y-73349117D01*
X95761771Y-73349771D01*
X95608059Y-73434821D01*
X95599161Y-73435828D01*
X95594285Y-73433017D01*
X94928768Y-72793022D01*
X94813769Y-72682433D01*
X94810181Y-72674229D01*
X94813769Y-72665567D01*
X94879598Y-72602263D01*
X95313024Y-72185458D01*
X95594285Y-71914983D01*
X95602624Y-71911718D01*
X95608059Y-71913179D01*
G37*
%TD.AperFunction*%
%TD*%
%TA.AperFunction,Conductor*%
%TO.N,/LCD_B7*%
G36*
X111649101Y-87604840D02*
G01*
X111810723Y-87760264D01*
X111868231Y-87815567D01*
X111871819Y-87823771D01*
X111868231Y-87832433D01*
X111649101Y-88043160D01*
X111640762Y-88046425D01*
X111635565Y-88045092D01*
X111599810Y-88026370D01*
X111599232Y-88026047D01*
X111562572Y-88004125D01*
X111562212Y-88003900D01*
X111529809Y-87982891D01*
X111529768Y-87982865D01*
X111499718Y-87963204D01*
X111499696Y-87963190D01*
X111499639Y-87963153D01*
X111470063Y-87945313D01*
X111439083Y-87929768D01*
X111438789Y-87929658D01*
X111438784Y-87929656D01*
X111405075Y-87917066D01*
X111405069Y-87917064D01*
X111404742Y-87916942D01*
X111365086Y-87907256D01*
X111318157Y-87901134D01*
X111273255Y-87899428D01*
X111265119Y-87895689D01*
X111262000Y-87887736D01*
X111262000Y-87760264D01*
X111265427Y-87751991D01*
X111273256Y-87748572D01*
X111318157Y-87746865D01*
X111365086Y-87740743D01*
X111404742Y-87731057D01*
X111405069Y-87730935D01*
X111405075Y-87730933D01*
X111438784Y-87718343D01*
X111438789Y-87718341D01*
X111439083Y-87718231D01*
X111470063Y-87702686D01*
X111499639Y-87684846D01*
X111499696Y-87684809D01*
X111499718Y-87684795D01*
X111529768Y-87665134D01*
X111529809Y-87665108D01*
X111562212Y-87644099D01*
X111562572Y-87643874D01*
X111599232Y-87621952D01*
X111599810Y-87621629D01*
X111635564Y-87602908D01*
X111644483Y-87602106D01*
X111649101Y-87604840D01*
G37*
%TD.AperFunction*%
%TD*%
%TA.AperFunction,Conductor*%
%TO.N,/TP_SDA*%
G36*
X111149101Y-91604840D02*
G01*
X111310723Y-91760264D01*
X111368231Y-91815567D01*
X111371819Y-91823771D01*
X111368231Y-91832433D01*
X111149101Y-92043160D01*
X111140762Y-92046425D01*
X111135565Y-92045092D01*
X111099810Y-92026370D01*
X111099232Y-92026047D01*
X111062572Y-92004125D01*
X111062212Y-92003900D01*
X111029809Y-91982891D01*
X111029768Y-91982865D01*
X110999718Y-91963204D01*
X110999696Y-91963190D01*
X110999639Y-91963153D01*
X110970063Y-91945313D01*
X110939083Y-91929768D01*
X110938789Y-91929658D01*
X110938784Y-91929656D01*
X110905075Y-91917066D01*
X110905069Y-91917064D01*
X110904742Y-91916942D01*
X110865086Y-91907256D01*
X110818157Y-91901134D01*
X110773255Y-91899428D01*
X110765119Y-91895689D01*
X110762000Y-91887736D01*
X110762000Y-91760264D01*
X110765427Y-91751991D01*
X110773256Y-91748572D01*
X110818157Y-91746865D01*
X110865086Y-91740743D01*
X110904742Y-91731057D01*
X110905069Y-91730935D01*
X110905075Y-91730933D01*
X110938784Y-91718343D01*
X110938789Y-91718341D01*
X110939083Y-91718231D01*
X110970063Y-91702686D01*
X110999639Y-91684846D01*
X110999696Y-91684809D01*
X110999718Y-91684795D01*
X111029768Y-91665134D01*
X111029809Y-91665108D01*
X111062212Y-91644099D01*
X111062572Y-91643874D01*
X111099232Y-91621952D01*
X111099810Y-91621629D01*
X111135564Y-91602908D01*
X111144483Y-91602106D01*
X111149101Y-91604840D01*
G37*
%TD.AperFunction*%
%TD*%
%TA.AperFunction,Conductor*%
%TO.N,/LCD_G7*%
G36*
X108066435Y-83102908D02*
G01*
X108086228Y-83113271D01*
X108102189Y-83121629D01*
X108102767Y-83121952D01*
X108139427Y-83143874D01*
X108139787Y-83144099D01*
X108172190Y-83165108D01*
X108172231Y-83165134D01*
X108202281Y-83184795D01*
X108202303Y-83184809D01*
X108202360Y-83184846D01*
X108231936Y-83202686D01*
X108262916Y-83218231D01*
X108263210Y-83218341D01*
X108263215Y-83218343D01*
X108296924Y-83230933D01*
X108296930Y-83230935D01*
X108297257Y-83231057D01*
X108336913Y-83240743D01*
X108383842Y-83246865D01*
X108428744Y-83248572D01*
X108436881Y-83252311D01*
X108440000Y-83260264D01*
X108440000Y-83387736D01*
X108436573Y-83396009D01*
X108428745Y-83399428D01*
X108383842Y-83401134D01*
X108336913Y-83407256D01*
X108297257Y-83416942D01*
X108296930Y-83417064D01*
X108296924Y-83417066D01*
X108263215Y-83429656D01*
X108263210Y-83429658D01*
X108262916Y-83429768D01*
X108231936Y-83445313D01*
X108202360Y-83463153D01*
X108202303Y-83463190D01*
X108202281Y-83463204D01*
X108172231Y-83482865D01*
X108172190Y-83482891D01*
X108139787Y-83503900D01*
X108139427Y-83504125D01*
X108102767Y-83526047D01*
X108102199Y-83526365D01*
X108066435Y-83545092D01*
X108057518Y-83545894D01*
X108052899Y-83543160D01*
X107833769Y-83332433D01*
X107830181Y-83324229D01*
X107833769Y-83315567D01*
X107891278Y-83260264D01*
X108052899Y-83104840D01*
X108061238Y-83101575D01*
X108066435Y-83102908D01*
G37*
%TD.AperFunction*%
%TD*%
%TA.AperFunction,Conductor*%
%TO.N,/LCD_VSYNC*%
G36*
X111149101Y-89630340D02*
G01*
X111310723Y-89785764D01*
X111368231Y-89841067D01*
X111371819Y-89849271D01*
X111368231Y-89857933D01*
X111149101Y-90068660D01*
X111140762Y-90071925D01*
X111135565Y-90070592D01*
X111099810Y-90051870D01*
X111099232Y-90051547D01*
X111062572Y-90029625D01*
X111062212Y-90029400D01*
X111029809Y-90008391D01*
X111029768Y-90008365D01*
X110999718Y-89988704D01*
X110999696Y-89988690D01*
X110999639Y-89988653D01*
X110970063Y-89970813D01*
X110939083Y-89955268D01*
X110938789Y-89955158D01*
X110938784Y-89955156D01*
X110905075Y-89942566D01*
X110905069Y-89942564D01*
X110904742Y-89942442D01*
X110865086Y-89932756D01*
X110818157Y-89926634D01*
X110773255Y-89924928D01*
X110765119Y-89921189D01*
X110762000Y-89913236D01*
X110762000Y-89785764D01*
X110765427Y-89777491D01*
X110773256Y-89774072D01*
X110818157Y-89772365D01*
X110865086Y-89766243D01*
X110904742Y-89756557D01*
X110905069Y-89756435D01*
X110905075Y-89756433D01*
X110938784Y-89743843D01*
X110938789Y-89743841D01*
X110939083Y-89743731D01*
X110970063Y-89728186D01*
X110999639Y-89710346D01*
X110999696Y-89710309D01*
X110999718Y-89710295D01*
X111029768Y-89690634D01*
X111029809Y-89690608D01*
X111062212Y-89669599D01*
X111062572Y-89669374D01*
X111099232Y-89647452D01*
X111099810Y-89647129D01*
X111135564Y-89628408D01*
X111144483Y-89627606D01*
X111149101Y-89630340D01*
G37*
%TD.AperFunction*%
%TD*%
%TA.AperFunction,Conductor*%
%TO.N,/LCD_G3*%
G36*
X108066435Y-81102908D02*
G01*
X108086228Y-81113271D01*
X108102189Y-81121629D01*
X108102767Y-81121952D01*
X108139427Y-81143874D01*
X108139787Y-81144099D01*
X108172190Y-81165108D01*
X108172231Y-81165134D01*
X108202281Y-81184795D01*
X108202303Y-81184809D01*
X108202360Y-81184846D01*
X108231936Y-81202686D01*
X108262916Y-81218231D01*
X108263210Y-81218341D01*
X108263215Y-81218343D01*
X108296924Y-81230933D01*
X108296930Y-81230935D01*
X108297257Y-81231057D01*
X108336913Y-81240743D01*
X108383842Y-81246865D01*
X108428744Y-81248572D01*
X108436881Y-81252311D01*
X108440000Y-81260264D01*
X108440000Y-81387736D01*
X108436573Y-81396009D01*
X108428745Y-81399428D01*
X108383842Y-81401134D01*
X108336913Y-81407256D01*
X108297257Y-81416942D01*
X108296930Y-81417064D01*
X108296924Y-81417066D01*
X108263215Y-81429656D01*
X108263210Y-81429658D01*
X108262916Y-81429768D01*
X108231936Y-81445313D01*
X108202360Y-81463153D01*
X108202303Y-81463190D01*
X108202281Y-81463204D01*
X108172231Y-81482865D01*
X108172190Y-81482891D01*
X108139787Y-81503900D01*
X108139427Y-81504125D01*
X108102767Y-81526047D01*
X108102199Y-81526365D01*
X108066435Y-81545092D01*
X108057518Y-81545894D01*
X108052899Y-81543160D01*
X107833769Y-81332433D01*
X107830181Y-81324229D01*
X107833769Y-81315567D01*
X107891278Y-81260264D01*
X108052899Y-81104840D01*
X108061238Y-81101575D01*
X108066435Y-81102908D01*
G37*
%TD.AperFunction*%
%TD*%
%TA.AperFunction,Conductor*%
%TO.N,/LCD_B4*%
G36*
X111149101Y-86104840D02*
G01*
X111310723Y-86260264D01*
X111368231Y-86315567D01*
X111371819Y-86323771D01*
X111368231Y-86332433D01*
X111149101Y-86543160D01*
X111140762Y-86546425D01*
X111135565Y-86545092D01*
X111099810Y-86526370D01*
X111099232Y-86526047D01*
X111062572Y-86504125D01*
X111062212Y-86503900D01*
X111029809Y-86482891D01*
X111029768Y-86482865D01*
X110999718Y-86463204D01*
X110999696Y-86463190D01*
X110999639Y-86463153D01*
X110970063Y-86445313D01*
X110939083Y-86429768D01*
X110938789Y-86429658D01*
X110938784Y-86429656D01*
X110905075Y-86417066D01*
X110905069Y-86417064D01*
X110904742Y-86416942D01*
X110865086Y-86407256D01*
X110818157Y-86401134D01*
X110773255Y-86399428D01*
X110765119Y-86395689D01*
X110762000Y-86387736D01*
X110762000Y-86260264D01*
X110765427Y-86251991D01*
X110773256Y-86248572D01*
X110818157Y-86246865D01*
X110865086Y-86240743D01*
X110904742Y-86231057D01*
X110905069Y-86230935D01*
X110905075Y-86230933D01*
X110938784Y-86218343D01*
X110938789Y-86218341D01*
X110939083Y-86218231D01*
X110970063Y-86202686D01*
X110999639Y-86184846D01*
X110999696Y-86184809D01*
X110999718Y-86184795D01*
X111029768Y-86165134D01*
X111029809Y-86165108D01*
X111062212Y-86144099D01*
X111062572Y-86143874D01*
X111099232Y-86121952D01*
X111099810Y-86121629D01*
X111135564Y-86102908D01*
X111144483Y-86102106D01*
X111149101Y-86104840D01*
G37*
%TD.AperFunction*%
%TD*%
%TA.AperFunction,Conductor*%
%TO.N,/LCD_BL*%
G36*
X93839790Y-61273772D02*
G01*
X93930228Y-61364210D01*
X93933655Y-61372483D01*
X93930686Y-61380271D01*
X93803525Y-61522830D01*
X93710477Y-61661845D01*
X93650847Y-61792765D01*
X93616585Y-61919285D01*
X93599640Y-62045101D01*
X93599627Y-62045316D01*
X93599627Y-62045318D01*
X93591963Y-62173883D01*
X93591962Y-62173907D01*
X93591959Y-62173970D01*
X93585514Y-62309145D01*
X93585479Y-62309650D01*
X93572253Y-62454785D01*
X93572124Y-62455753D01*
X93544139Y-62614622D01*
X93543860Y-62615826D01*
X93495309Y-62784655D01*
X93489730Y-62791657D01*
X93484296Y-62793118D01*
X92808775Y-62806323D01*
X92401645Y-62814282D01*
X92393306Y-62811017D01*
X92389718Y-62802355D01*
X92399350Y-62309650D01*
X92410882Y-61719704D01*
X92414470Y-61711501D01*
X92419344Y-61708691D01*
X92508510Y-61683049D01*
X92588174Y-61660139D01*
X92589378Y-61659860D01*
X92748246Y-61631875D01*
X92749214Y-61631746D01*
X92894349Y-61618520D01*
X92894854Y-61618485D01*
X93030029Y-61612040D01*
X93030092Y-61612037D01*
X93030116Y-61612036D01*
X93158681Y-61604372D01*
X93158683Y-61604372D01*
X93158898Y-61604359D01*
X93284714Y-61587414D01*
X93285091Y-61587312D01*
X93410770Y-61553278D01*
X93410774Y-61553277D01*
X93411234Y-61553152D01*
X93542154Y-61493522D01*
X93681169Y-61400474D01*
X93823729Y-61273314D01*
X93832184Y-61270364D01*
X93839790Y-61273772D01*
G37*
%TD.AperFunction*%
%TD*%
%TA.AperFunction,Conductor*%
%TO.N,/LCD_R3*%
G36*
X93839790Y-89213772D02*
G01*
X93930228Y-89304210D01*
X93933655Y-89312483D01*
X93930686Y-89320271D01*
X93803525Y-89462830D01*
X93710477Y-89601845D01*
X93650847Y-89732765D01*
X93616585Y-89859285D01*
X93599640Y-89985101D01*
X93599627Y-89985316D01*
X93599627Y-89985318D01*
X93591963Y-90113883D01*
X93591962Y-90113907D01*
X93591959Y-90113970D01*
X93585514Y-90249145D01*
X93585479Y-90249650D01*
X93572253Y-90394785D01*
X93572124Y-90395753D01*
X93544139Y-90554622D01*
X93543860Y-90555826D01*
X93495309Y-90724655D01*
X93489730Y-90731657D01*
X93484296Y-90733118D01*
X92808775Y-90746323D01*
X92401645Y-90754282D01*
X92393306Y-90751017D01*
X92389718Y-90742355D01*
X92399350Y-90249650D01*
X92410882Y-89659704D01*
X92414470Y-89651501D01*
X92419344Y-89648691D01*
X92508510Y-89623049D01*
X92588174Y-89600139D01*
X92589378Y-89599860D01*
X92748246Y-89571875D01*
X92749214Y-89571746D01*
X92894349Y-89558520D01*
X92894854Y-89558485D01*
X93030029Y-89552040D01*
X93030092Y-89552037D01*
X93030116Y-89552036D01*
X93158681Y-89544372D01*
X93158683Y-89544372D01*
X93158898Y-89544359D01*
X93284714Y-89527414D01*
X93285091Y-89527312D01*
X93410770Y-89493278D01*
X93410774Y-89493277D01*
X93411234Y-89493152D01*
X93542154Y-89433522D01*
X93681169Y-89340474D01*
X93823729Y-89213314D01*
X93832184Y-89210364D01*
X93839790Y-89213772D01*
G37*
%TD.AperFunction*%
%TD*%
%TA.AperFunction,Conductor*%
%TO.N,/LCD_B3*%
G36*
X93839801Y-73963781D02*
G01*
X93930232Y-74054212D01*
X93933659Y-74062485D01*
X93930693Y-74070269D01*
X93802744Y-74213821D01*
X93802520Y-74214156D01*
X93802515Y-74214163D01*
X93709583Y-74353394D01*
X93709580Y-74353400D01*
X93709316Y-74353795D01*
X93649623Y-74485654D01*
X93615529Y-74613107D01*
X93598897Y-74739860D01*
X93598886Y-74740053D01*
X93598885Y-74740065D01*
X93591593Y-74869624D01*
X93585491Y-75005845D01*
X93585457Y-75006358D01*
X93572464Y-75152528D01*
X93572335Y-75153506D01*
X93544390Y-75313439D01*
X93544113Y-75314645D01*
X93495307Y-75484649D01*
X93489730Y-75491655D01*
X93484291Y-75493118D01*
X92907122Y-75504401D01*
X92401645Y-75514282D01*
X92393306Y-75511017D01*
X92389718Y-75502355D01*
X92410883Y-74419693D01*
X92414471Y-74411489D01*
X92419331Y-74408682D01*
X92449358Y-74400000D01*
X92588483Y-74359773D01*
X92589637Y-74359503D01*
X92748657Y-74330765D01*
X92749579Y-74330637D01*
X92894724Y-74316367D01*
X92895204Y-74316330D01*
X92907029Y-74315656D01*
X93030334Y-74308633D01*
X93079521Y-74305177D01*
X93158754Y-74299610D01*
X93158766Y-74299609D01*
X93158975Y-74299594D01*
X93159187Y-74299563D01*
X93159197Y-74299562D01*
X93284238Y-74281324D01*
X93284244Y-74281323D01*
X93284619Y-74281268D01*
X93411004Y-74245699D01*
X93541866Y-74184929D01*
X93542252Y-74184668D01*
X93542256Y-74184666D01*
X93680613Y-74091224D01*
X93680945Y-74091000D01*
X93681237Y-74090739D01*
X93681242Y-74090735D01*
X93823729Y-73963332D01*
X93832181Y-73960372D01*
X93839801Y-73963781D01*
G37*
%TD.AperFunction*%
%TD*%
%TA.AperFunction,Conductor*%
%TO.N,/TP_SDA*%
G36*
X93839801Y-63803781D02*
G01*
X93930232Y-63894212D01*
X93933659Y-63902485D01*
X93930693Y-63910269D01*
X93802744Y-64053821D01*
X93802520Y-64054156D01*
X93802515Y-64054163D01*
X93709583Y-64193394D01*
X93709580Y-64193400D01*
X93709316Y-64193795D01*
X93649623Y-64325654D01*
X93615529Y-64453107D01*
X93598897Y-64579860D01*
X93598886Y-64580053D01*
X93598885Y-64580065D01*
X93591593Y-64709624D01*
X93585491Y-64845845D01*
X93585457Y-64846358D01*
X93572464Y-64992528D01*
X93572335Y-64993506D01*
X93544390Y-65153439D01*
X93544113Y-65154645D01*
X93495307Y-65324649D01*
X93489730Y-65331655D01*
X93484291Y-65333118D01*
X92907122Y-65344401D01*
X92401645Y-65354282D01*
X92393306Y-65351017D01*
X92389718Y-65342355D01*
X92410883Y-64259693D01*
X92414471Y-64251489D01*
X92419331Y-64248682D01*
X92449358Y-64240000D01*
X92588483Y-64199773D01*
X92589637Y-64199503D01*
X92748657Y-64170765D01*
X92749579Y-64170637D01*
X92894724Y-64156367D01*
X92895204Y-64156330D01*
X92907029Y-64155656D01*
X93030334Y-64148633D01*
X93079521Y-64145177D01*
X93158754Y-64139610D01*
X93158766Y-64139609D01*
X93158975Y-64139594D01*
X93159187Y-64139563D01*
X93159197Y-64139562D01*
X93284238Y-64121324D01*
X93284244Y-64121323D01*
X93284619Y-64121268D01*
X93411004Y-64085699D01*
X93541866Y-64024929D01*
X93542252Y-64024668D01*
X93542256Y-64024666D01*
X93680613Y-63931224D01*
X93680945Y-63931000D01*
X93681237Y-63930739D01*
X93681242Y-63930735D01*
X93823729Y-63803332D01*
X93832181Y-63800372D01*
X93839801Y-63803781D01*
G37*
%TD.AperFunction*%
%TD*%
%TA.AperFunction,Conductor*%
%TO.N,/TP_SCL*%
G36*
X116912009Y-84603427D02*
G01*
X116915428Y-84611255D01*
X116917134Y-84656157D01*
X116923256Y-84703086D01*
X116932942Y-84742742D01*
X116945768Y-84777083D01*
X116961313Y-84808063D01*
X116979153Y-84837639D01*
X116979190Y-84837696D01*
X116979204Y-84837718D01*
X116998865Y-84867768D01*
X116998891Y-84867809D01*
X117019900Y-84900212D01*
X117020125Y-84900572D01*
X117042047Y-84937232D01*
X117042370Y-84937810D01*
X117061092Y-84973564D01*
X117061894Y-84982482D01*
X117059160Y-84987101D01*
X116848433Y-85206231D01*
X116840229Y-85209819D01*
X116831567Y-85206231D01*
X116620840Y-84987101D01*
X116617575Y-84978762D01*
X116618908Y-84973564D01*
X116637629Y-84937810D01*
X116637952Y-84937232D01*
X116659874Y-84900572D01*
X116660099Y-84900212D01*
X116681108Y-84867809D01*
X116681134Y-84867768D01*
X116700795Y-84837718D01*
X116700809Y-84837696D01*
X116700846Y-84837639D01*
X116718686Y-84808063D01*
X116734231Y-84777083D01*
X116747057Y-84742742D01*
X116756743Y-84703086D01*
X116762865Y-84656157D01*
X116764572Y-84611256D01*
X116768311Y-84603119D01*
X116776264Y-84600000D01*
X116903736Y-84600000D01*
X116912009Y-84603427D01*
G37*
%TD.AperFunction*%
%TD*%
%TA.AperFunction,Conductor*%
%TO.N,/VCC5V*%
G36*
X111521931Y-74188002D02*
G01*
X111542905Y-74204905D01*
X112409595Y-75071595D01*
X112443621Y-75133907D01*
X112446500Y-75160690D01*
X112446500Y-76074000D01*
X112426498Y-76142121D01*
X112372842Y-76188614D01*
X112320500Y-76200000D01*
X111632000Y-76200000D01*
X111563879Y-76179998D01*
X111517386Y-76126342D01*
X111506000Y-76074000D01*
X111506000Y-75692000D01*
X110828265Y-75014265D01*
X110821192Y-75005647D01*
X110816377Y-75000832D01*
X110809484Y-74990516D01*
X110799168Y-74983623D01*
X110794353Y-74978808D01*
X110785735Y-74971735D01*
X110744000Y-74930000D01*
X110716264Y-74930000D01*
X110691683Y-74927579D01*
X110657135Y-74920707D01*
X110651067Y-74919500D01*
X110488086Y-74919500D01*
X109346000Y-74919501D01*
X109277879Y-74899499D01*
X109231386Y-74845843D01*
X109220000Y-74793501D01*
X109220000Y-74294000D01*
X109240002Y-74225879D01*
X109293658Y-74179386D01*
X109346000Y-74168000D01*
X111453810Y-74168000D01*
X111521931Y-74188002D01*
G37*
%TD.AperFunction*%
%TD*%
%TA.AperFunction,Conductor*%
%TO.N,/GND*%
G36*
X119321621Y-58186502D02*
G01*
X119368114Y-58240158D01*
X119379500Y-58292500D01*
X119379500Y-109855500D01*
X119359498Y-109923621D01*
X119305842Y-109970114D01*
X119253500Y-109981500D01*
X90042500Y-109981500D01*
X89974379Y-109961498D01*
X89927886Y-109907842D01*
X89916500Y-109855500D01*
X89916500Y-108204964D01*
X91581148Y-108204964D01*
X91594424Y-108407522D01*
X91595845Y-108413118D01*
X91595846Y-108413123D01*
X91616119Y-108492945D01*
X91644392Y-108604269D01*
X91646809Y-108609512D01*
X91684010Y-108690208D01*
X91729377Y-108788616D01*
X91846533Y-108954389D01*
X91991938Y-109096035D01*
X92160720Y-109208812D01*
X92166023Y-109211090D01*
X92166026Y-109211092D01*
X92254707Y-109249192D01*
X92347228Y-109288942D01*
X92420244Y-109305464D01*
X92539579Y-109332467D01*
X92539584Y-109332468D01*
X92545216Y-109333742D01*
X92550987Y-109333969D01*
X92550989Y-109333969D01*
X92610756Y-109336317D01*
X92748053Y-109341712D01*
X92848499Y-109327148D01*
X92943231Y-109313413D01*
X92943236Y-109313412D01*
X92948945Y-109312584D01*
X92954409Y-109310729D01*
X92954414Y-109310728D01*
X93135693Y-109249192D01*
X93135698Y-109249190D01*
X93141165Y-109247334D01*
X93318276Y-109148147D01*
X93380934Y-109096035D01*
X93469913Y-109022031D01*
X93474345Y-109018345D01*
X93604147Y-108862276D01*
X93703334Y-108685165D01*
X93705190Y-108679698D01*
X93705192Y-108679693D01*
X93766728Y-108498414D01*
X93766729Y-108498409D01*
X93768584Y-108492945D01*
X93769412Y-108487236D01*
X93769413Y-108487231D01*
X93797179Y-108295727D01*
X93797712Y-108292053D01*
X93799232Y-108234000D01*
X93796564Y-108204964D01*
X94121148Y-108204964D01*
X94134424Y-108407522D01*
X94135845Y-108413118D01*
X94135846Y-108413123D01*
X94156119Y-108492945D01*
X94184392Y-108604269D01*
X94186809Y-108609512D01*
X94224010Y-108690208D01*
X94269377Y-108788616D01*
X94386533Y-108954389D01*
X94531938Y-109096035D01*
X94700720Y-109208812D01*
X94706023Y-109211090D01*
X94706026Y-109211092D01*
X94794707Y-109249192D01*
X94887228Y-109288942D01*
X94960244Y-109305464D01*
X95079579Y-109332467D01*
X95079584Y-109332468D01*
X95085216Y-109333742D01*
X95090987Y-109333969D01*
X95090989Y-109333969D01*
X95150756Y-109336317D01*
X95288053Y-109341712D01*
X95388499Y-109327148D01*
X95483231Y-109313413D01*
X95483236Y-109313412D01*
X95488945Y-109312584D01*
X95494409Y-109310729D01*
X95494414Y-109310728D01*
X95675693Y-109249192D01*
X95675698Y-109249190D01*
X95681165Y-109247334D01*
X95858276Y-109148147D01*
X95920934Y-109096035D01*
X96009913Y-109022031D01*
X96014345Y-109018345D01*
X96144147Y-108862276D01*
X96243334Y-108685165D01*
X96245190Y-108679698D01*
X96245192Y-108679693D01*
X96306728Y-108498414D01*
X96306729Y-108498409D01*
X96308584Y-108492945D01*
X96309412Y-108487236D01*
X96309413Y-108487231D01*
X96337179Y-108295727D01*
X96337712Y-108292053D01*
X96339232Y-108234000D01*
X96320658Y-108031859D01*
X96319090Y-108026299D01*
X96267125Y-107842046D01*
X96267124Y-107842044D01*
X96265557Y-107836487D01*
X96254978Y-107815033D01*
X96178331Y-107659609D01*
X96175776Y-107654428D01*
X96054320Y-107491779D01*
X95905258Y-107353987D01*
X95900375Y-107350906D01*
X95900371Y-107350903D01*
X95738464Y-107248748D01*
X95733581Y-107245667D01*
X95545039Y-107170446D01*
X95539379Y-107169320D01*
X95539375Y-107169319D01*
X95351613Y-107131971D01*
X95351610Y-107131971D01*
X95345946Y-107130844D01*
X95340171Y-107130768D01*
X95340167Y-107130768D01*
X95238793Y-107129441D01*
X95142971Y-107128187D01*
X95137274Y-107129166D01*
X95137273Y-107129166D01*
X94948607Y-107161585D01*
X94942910Y-107162564D01*
X94752463Y-107232824D01*
X94578010Y-107336612D01*
X94573670Y-107340418D01*
X94573666Y-107340421D01*
X94553723Y-107357911D01*
X94425392Y-107470455D01*
X94299720Y-107629869D01*
X94297031Y-107634980D01*
X94297029Y-107634983D01*
X94284073Y-107659609D01*
X94205203Y-107809515D01*
X94145007Y-108003378D01*
X94121148Y-108204964D01*
X93796564Y-108204964D01*
X93780658Y-108031859D01*
X93779090Y-108026299D01*
X93727125Y-107842046D01*
X93727124Y-107842044D01*
X93725557Y-107836487D01*
X93714978Y-107815033D01*
X93638331Y-107659609D01*
X93635776Y-107654428D01*
X93514320Y-107491779D01*
X93365258Y-107353987D01*
X93360375Y-107350906D01*
X93360371Y-107350903D01*
X93198464Y-107248748D01*
X93193581Y-107245667D01*
X93005039Y-107170446D01*
X92999379Y-107169320D01*
X92999375Y-107169319D01*
X92811613Y-107131971D01*
X92811610Y-107131971D01*
X92805946Y-107130844D01*
X92800171Y-107130768D01*
X92800167Y-107130768D01*
X92698793Y-107129441D01*
X92602971Y-107128187D01*
X92597274Y-107129166D01*
X92597273Y-107129166D01*
X92408607Y-107161585D01*
X92402910Y-107162564D01*
X92212463Y-107232824D01*
X92038010Y-107336612D01*
X92033670Y-107340418D01*
X92033666Y-107340421D01*
X92013723Y-107357911D01*
X91885392Y-107470455D01*
X91759720Y-107629869D01*
X91757031Y-107634980D01*
X91757029Y-107634983D01*
X91744073Y-107659609D01*
X91665203Y-107809515D01*
X91605007Y-108003378D01*
X91581148Y-108204964D01*
X89916500Y-108204964D01*
X89916500Y-103124964D01*
X91581148Y-103124964D01*
X91594424Y-103327522D01*
X91595845Y-103333118D01*
X91595846Y-103333123D01*
X91616119Y-103412945D01*
X91644392Y-103524269D01*
X91646809Y-103529512D01*
X91684010Y-103610208D01*
X91729377Y-103708616D01*
X91846533Y-103874389D01*
X91991938Y-104016035D01*
X92160720Y-104128812D01*
X92166023Y-104131090D01*
X92166026Y-104131092D01*
X92254707Y-104169192D01*
X92347228Y-104208942D01*
X92420244Y-104225464D01*
X92539579Y-104252467D01*
X92539584Y-104252468D01*
X92545216Y-104253742D01*
X92550987Y-104253969D01*
X92550989Y-104253969D01*
X92610756Y-104256317D01*
X92748053Y-104261712D01*
X92848499Y-104247148D01*
X92943231Y-104233413D01*
X92943236Y-104233412D01*
X92948945Y-104232584D01*
X92954409Y-104230729D01*
X92954414Y-104230728D01*
X93135693Y-104169192D01*
X93135698Y-104169190D01*
X93141165Y-104167334D01*
X93318276Y-104068147D01*
X93380934Y-104016035D01*
X93469913Y-103942031D01*
X93474345Y-103938345D01*
X93604147Y-103782276D01*
X93703334Y-103605165D01*
X93705190Y-103599698D01*
X93705192Y-103599693D01*
X93766728Y-103418414D01*
X93766729Y-103418409D01*
X93768584Y-103412945D01*
X93769412Y-103407236D01*
X93769413Y-103407231D01*
X93797179Y-103215727D01*
X93797712Y-103212053D01*
X93799232Y-103154000D01*
X93796564Y-103124964D01*
X94121148Y-103124964D01*
X94134424Y-103327522D01*
X94135845Y-103333118D01*
X94135846Y-103333123D01*
X94156119Y-103412945D01*
X94184392Y-103524269D01*
X94186809Y-103529512D01*
X94224010Y-103610208D01*
X94269377Y-103708616D01*
X94386533Y-103874389D01*
X94531938Y-104016035D01*
X94700720Y-104128812D01*
X94706023Y-104131090D01*
X94706026Y-104131092D01*
X94794707Y-104169192D01*
X94887228Y-104208942D01*
X94960244Y-104225464D01*
X95079579Y-104252467D01*
X95079584Y-104252468D01*
X95085216Y-104253742D01*
X95090987Y-104253969D01*
X95090989Y-104253969D01*
X95150756Y-104256317D01*
X95288053Y-104261712D01*
X95388499Y-104247148D01*
X95483231Y-104233413D01*
X95483236Y-104233412D01*
X95488945Y-104232584D01*
X95494409Y-104230729D01*
X95494414Y-104230728D01*
X95675693Y-104169192D01*
X95675698Y-104169190D01*
X95681165Y-104167334D01*
X95858276Y-104068147D01*
X95920934Y-104016035D01*
X96009913Y-103942031D01*
X96014345Y-103938345D01*
X96144147Y-103782276D01*
X96243334Y-103605165D01*
X96245190Y-103599698D01*
X96245192Y-103599693D01*
X96306728Y-103418414D01*
X96306729Y-103418409D01*
X96308584Y-103412945D01*
X96309412Y-103407236D01*
X96309413Y-103407231D01*
X96337179Y-103215727D01*
X96337712Y-103212053D01*
X96339232Y-103154000D01*
X96320658Y-102951859D01*
X96319090Y-102946299D01*
X96267125Y-102762046D01*
X96267124Y-102762044D01*
X96265557Y-102756487D01*
X96254978Y-102735033D01*
X96178331Y-102579609D01*
X96175776Y-102574428D01*
X96054320Y-102411779D01*
X95905258Y-102273987D01*
X95900375Y-102270906D01*
X95900371Y-102270903D01*
X95738464Y-102168748D01*
X95733581Y-102165667D01*
X95545039Y-102090446D01*
X95539379Y-102089320D01*
X95539375Y-102089319D01*
X95351613Y-102051971D01*
X95351610Y-102051971D01*
X95345946Y-102050844D01*
X95340171Y-102050768D01*
X95340167Y-102050768D01*
X95238793Y-102049441D01*
X95142971Y-102048187D01*
X95137274Y-102049166D01*
X95137273Y-102049166D01*
X94948607Y-102081585D01*
X94942910Y-102082564D01*
X94752463Y-102152824D01*
X94578010Y-102256612D01*
X94573670Y-102260418D01*
X94573666Y-102260421D01*
X94553723Y-102277911D01*
X94425392Y-102390455D01*
X94299720Y-102549869D01*
X94297031Y-102554980D01*
X94297029Y-102554983D01*
X94284073Y-102579609D01*
X94205203Y-102729515D01*
X94145007Y-102923378D01*
X94121148Y-103124964D01*
X93796564Y-103124964D01*
X93780658Y-102951859D01*
X93779090Y-102946299D01*
X93727125Y-102762046D01*
X93727124Y-102762044D01*
X93725557Y-102756487D01*
X93714978Y-102735033D01*
X93638331Y-102579609D01*
X93635776Y-102574428D01*
X93514320Y-102411779D01*
X93365258Y-102273987D01*
X93360375Y-102270906D01*
X93360371Y-102270903D01*
X93198464Y-102168748D01*
X93193581Y-102165667D01*
X93005039Y-102090446D01*
X92999379Y-102089320D01*
X92999375Y-102089319D01*
X92811613Y-102051971D01*
X92811610Y-102051971D01*
X92805946Y-102050844D01*
X92800171Y-102050768D01*
X92800167Y-102050768D01*
X92698793Y-102049441D01*
X92602971Y-102048187D01*
X92597274Y-102049166D01*
X92597273Y-102049166D01*
X92408607Y-102081585D01*
X92402910Y-102082564D01*
X92212463Y-102152824D01*
X92038010Y-102256612D01*
X92033670Y-102260418D01*
X92033666Y-102260421D01*
X92013723Y-102277911D01*
X91885392Y-102390455D01*
X91759720Y-102549869D01*
X91757031Y-102554980D01*
X91757029Y-102554983D01*
X91744073Y-102579609D01*
X91665203Y-102729515D01*
X91605007Y-102923378D01*
X91581148Y-103124964D01*
X89916500Y-103124964D01*
X89916500Y-98044964D01*
X91581148Y-98044964D01*
X91594424Y-98247522D01*
X91595845Y-98253118D01*
X91595846Y-98253123D01*
X91616119Y-98332945D01*
X91644392Y-98444269D01*
X91646809Y-98449512D01*
X91684010Y-98530208D01*
X91729377Y-98628616D01*
X91846533Y-98794389D01*
X91991938Y-98936035D01*
X92160720Y-99048812D01*
X92166023Y-99051090D01*
X92166026Y-99051092D01*
X92254707Y-99089192D01*
X92347228Y-99128942D01*
X92420244Y-99145464D01*
X92539579Y-99172467D01*
X92539584Y-99172468D01*
X92545216Y-99173742D01*
X92550987Y-99173969D01*
X92550989Y-99173969D01*
X92610756Y-99176317D01*
X92748053Y-99181712D01*
X92848499Y-99167148D01*
X92943231Y-99153413D01*
X92943236Y-99153412D01*
X92948945Y-99152584D01*
X92954409Y-99150729D01*
X92954414Y-99150728D01*
X93135693Y-99089192D01*
X93135698Y-99089190D01*
X93141165Y-99087334D01*
X93318276Y-98988147D01*
X93380934Y-98936035D01*
X93469913Y-98862031D01*
X93474345Y-98858345D01*
X93604147Y-98702276D01*
X93703334Y-98525165D01*
X93705190Y-98519698D01*
X93705192Y-98519693D01*
X93766728Y-98338414D01*
X93766729Y-98338409D01*
X93768584Y-98332945D01*
X93769412Y-98327236D01*
X93769413Y-98327231D01*
X93797179Y-98135727D01*
X93797712Y-98132053D01*
X93799232Y-98074000D01*
X93796564Y-98044964D01*
X94121148Y-98044964D01*
X94134424Y-98247522D01*
X94135845Y-98253118D01*
X94135846Y-98253123D01*
X94156119Y-98332945D01*
X94184392Y-98444269D01*
X94186809Y-98449512D01*
X94224010Y-98530208D01*
X94269377Y-98628616D01*
X94386533Y-98794389D01*
X94531938Y-98936035D01*
X94700720Y-99048812D01*
X94706023Y-99051090D01*
X94706026Y-99051092D01*
X94794707Y-99089192D01*
X94887228Y-99128942D01*
X94960244Y-99145464D01*
X95079579Y-99172467D01*
X95079584Y-99172468D01*
X95085216Y-99173742D01*
X95090987Y-99173969D01*
X95090989Y-99173969D01*
X95150756Y-99176317D01*
X95288053Y-99181712D01*
X95388499Y-99167148D01*
X95483231Y-99153413D01*
X95483236Y-99153412D01*
X95488945Y-99152584D01*
X95494409Y-99150729D01*
X95494414Y-99150728D01*
X95675693Y-99089192D01*
X95675698Y-99089190D01*
X95681165Y-99087334D01*
X95858276Y-98988147D01*
X95920934Y-98936035D01*
X96009913Y-98862031D01*
X96014345Y-98858345D01*
X96144147Y-98702276D01*
X96243334Y-98525165D01*
X96245190Y-98519698D01*
X96245192Y-98519693D01*
X96306728Y-98338414D01*
X96306729Y-98338409D01*
X96308584Y-98332945D01*
X96309412Y-98327236D01*
X96309413Y-98327231D01*
X96337179Y-98135727D01*
X96337712Y-98132053D01*
X96339232Y-98074000D01*
X96320658Y-97871859D01*
X96319090Y-97866299D01*
X96267125Y-97682046D01*
X96267124Y-97682044D01*
X96265557Y-97676487D01*
X96254978Y-97655033D01*
X96178331Y-97499609D01*
X96175776Y-97494428D01*
X96054320Y-97331779D01*
X95905258Y-97193987D01*
X95900375Y-97190906D01*
X95900371Y-97190903D01*
X95738464Y-97088748D01*
X95733581Y-97085667D01*
X95545039Y-97010446D01*
X95539379Y-97009320D01*
X95539375Y-97009319D01*
X95351613Y-96971971D01*
X95351610Y-96971971D01*
X95345946Y-96970844D01*
X95340171Y-96970768D01*
X95340167Y-96970768D01*
X95238793Y-96969441D01*
X95142971Y-96968187D01*
X95137274Y-96969166D01*
X95137273Y-96969166D01*
X94948607Y-97001585D01*
X94942910Y-97002564D01*
X94752463Y-97072824D01*
X94578010Y-97176612D01*
X94573670Y-97180418D01*
X94573666Y-97180421D01*
X94553723Y-97197911D01*
X94425392Y-97310455D01*
X94299720Y-97469869D01*
X94297031Y-97474980D01*
X94297029Y-97474983D01*
X94284073Y-97499609D01*
X94205203Y-97649515D01*
X94145007Y-97843378D01*
X94121148Y-98044964D01*
X93796564Y-98044964D01*
X93780658Y-97871859D01*
X93779090Y-97866299D01*
X93727125Y-97682046D01*
X93727124Y-97682044D01*
X93725557Y-97676487D01*
X93714978Y-97655033D01*
X93638331Y-97499609D01*
X93635776Y-97494428D01*
X93514320Y-97331779D01*
X93365258Y-97193987D01*
X93360375Y-97190906D01*
X93360371Y-97190903D01*
X93198464Y-97088748D01*
X93193581Y-97085667D01*
X93005039Y-97010446D01*
X92999379Y-97009320D01*
X92999375Y-97009319D01*
X92811613Y-96971971D01*
X92811610Y-96971971D01*
X92805946Y-96970844D01*
X92800171Y-96970768D01*
X92800167Y-96970768D01*
X92698793Y-96969441D01*
X92602971Y-96968187D01*
X92597274Y-96969166D01*
X92597273Y-96969166D01*
X92408607Y-97001585D01*
X92402910Y-97002564D01*
X92212463Y-97072824D01*
X92038010Y-97176612D01*
X92033670Y-97180418D01*
X92033666Y-97180421D01*
X92013723Y-97197911D01*
X91885392Y-97310455D01*
X91759720Y-97469869D01*
X91757031Y-97474980D01*
X91757029Y-97474983D01*
X91744073Y-97499609D01*
X91665203Y-97649515D01*
X91605007Y-97843378D01*
X91581148Y-98044964D01*
X89916500Y-98044964D01*
X89916500Y-95504964D01*
X91581148Y-95504964D01*
X91581526Y-95510730D01*
X91593486Y-95693203D01*
X91594424Y-95707522D01*
X91595845Y-95713118D01*
X91595846Y-95713123D01*
X91616119Y-95792945D01*
X91644392Y-95904269D01*
X91646809Y-95909512D01*
X91684010Y-95990208D01*
X91729377Y-96088616D01*
X91846533Y-96254389D01*
X91991938Y-96396035D01*
X92160720Y-96508812D01*
X92166023Y-96511090D01*
X92166026Y-96511092D01*
X92254707Y-96549192D01*
X92347228Y-96588942D01*
X92420244Y-96605464D01*
X92539579Y-96632467D01*
X92539584Y-96632468D01*
X92545216Y-96633742D01*
X92550987Y-96633969D01*
X92550989Y-96633969D01*
X92610756Y-96636317D01*
X92748053Y-96641712D01*
X92848499Y-96627148D01*
X92943231Y-96613413D01*
X92943236Y-96613412D01*
X92948945Y-96612584D01*
X92954409Y-96610729D01*
X92954414Y-96610728D01*
X93135693Y-96549192D01*
X93135698Y-96549190D01*
X93141165Y-96547334D01*
X93318276Y-96448147D01*
X93380934Y-96396035D01*
X93469913Y-96322031D01*
X93474345Y-96318345D01*
X93604147Y-96162276D01*
X93703334Y-95985165D01*
X93705190Y-95979698D01*
X93705192Y-95979693D01*
X93728704Y-95910427D01*
X93736047Y-95893147D01*
X93741862Y-95881879D01*
X93741865Y-95881872D01*
X93744702Y-95876374D01*
X93793253Y-95707545D01*
X93796661Y-95694407D01*
X93796940Y-95693203D01*
X93799704Y-95679640D01*
X93799848Y-95678823D01*
X93827580Y-95521391D01*
X93827583Y-95521373D01*
X93827689Y-95520771D01*
X93829350Y-95510032D01*
X93829479Y-95509064D01*
X93830682Y-95498335D01*
X93843908Y-95353200D01*
X93844358Y-95347592D01*
X93844393Y-95347087D01*
X93844720Y-95341504D01*
X93851057Y-95208587D01*
X93851137Y-95207090D01*
X93857827Y-95094854D01*
X93858731Y-95085533D01*
X93870399Y-94998897D01*
X93873653Y-94982780D01*
X93893098Y-94910976D01*
X93900046Y-94891695D01*
X93933632Y-94817956D01*
X93943576Y-94800119D01*
X94004310Y-94709383D01*
X94014984Y-94695606D01*
X94054922Y-94650832D01*
X94095244Y-94605627D01*
X94155515Y-94568106D01*
X94189272Y-94563500D01*
X94329240Y-94563500D01*
X94397361Y-94583502D01*
X94443854Y-94637158D01*
X94453958Y-94707432D01*
X94423979Y-94769341D01*
X94425392Y-94770455D01*
X94299720Y-94929869D01*
X94297031Y-94934980D01*
X94297029Y-94934983D01*
X94284073Y-94959609D01*
X94205203Y-95109515D01*
X94145007Y-95303378D01*
X94121148Y-95504964D01*
X94121526Y-95510730D01*
X94133486Y-95693203D01*
X94134424Y-95707522D01*
X94135845Y-95713118D01*
X94135846Y-95713123D01*
X94156119Y-95792945D01*
X94184392Y-95904269D01*
X94186809Y-95909512D01*
X94224010Y-95990208D01*
X94269377Y-96088616D01*
X94386533Y-96254389D01*
X94531938Y-96396035D01*
X94700720Y-96508812D01*
X94706023Y-96511090D01*
X94706026Y-96511092D01*
X94794707Y-96549192D01*
X94887228Y-96588942D01*
X94960244Y-96605464D01*
X95079579Y-96632467D01*
X95079584Y-96632468D01*
X95085216Y-96633742D01*
X95090987Y-96633969D01*
X95090989Y-96633969D01*
X95150756Y-96636317D01*
X95288053Y-96641712D01*
X95388499Y-96627148D01*
X95483231Y-96613413D01*
X95483236Y-96613412D01*
X95488945Y-96612584D01*
X95494409Y-96610729D01*
X95494414Y-96610728D01*
X95675693Y-96549192D01*
X95675698Y-96549190D01*
X95681165Y-96547334D01*
X95858276Y-96448147D01*
X95920934Y-96396035D01*
X96009913Y-96322031D01*
X96014345Y-96318345D01*
X96144147Y-96162276D01*
X96243334Y-95985165D01*
X96245190Y-95979698D01*
X96245192Y-95979693D01*
X96306728Y-95798414D01*
X96306729Y-95798409D01*
X96308584Y-95792945D01*
X96309412Y-95787236D01*
X96309413Y-95787231D01*
X96337179Y-95595727D01*
X96337712Y-95592053D01*
X96339232Y-95534000D01*
X96322104Y-95347592D01*
X96321187Y-95337613D01*
X96321186Y-95337610D01*
X96320658Y-95331859D01*
X96319090Y-95326299D01*
X96267125Y-95142046D01*
X96267124Y-95142044D01*
X96265557Y-95136487D01*
X96254978Y-95115033D01*
X96178331Y-94959609D01*
X96175776Y-94954428D01*
X96059662Y-94798933D01*
X111871500Y-94798933D01*
X111871501Y-96649066D01*
X111886266Y-96723301D01*
X111942516Y-96807484D01*
X112026699Y-96863734D01*
X112100933Y-96878500D01*
X113225818Y-96878500D01*
X114351066Y-96878499D01*
X114386818Y-96871388D01*
X114413126Y-96866156D01*
X114413128Y-96866155D01*
X114425301Y-96863734D01*
X114435621Y-96856839D01*
X114435622Y-96856838D01*
X114499168Y-96814377D01*
X114509484Y-96807484D01*
X114565734Y-96723301D01*
X114580500Y-96649067D01*
X114580499Y-94798934D01*
X114565734Y-94724699D01*
X114555506Y-94709391D01*
X114516377Y-94650832D01*
X114509484Y-94640516D01*
X114425301Y-94584266D01*
X114351067Y-94569500D01*
X113226182Y-94569500D01*
X112100934Y-94569501D01*
X112065182Y-94576612D01*
X112038874Y-94581844D01*
X112038872Y-94581845D01*
X112026699Y-94584266D01*
X112016379Y-94591161D01*
X112016378Y-94591162D01*
X111994729Y-94605628D01*
X111942516Y-94640516D01*
X111886266Y-94724699D01*
X111871500Y-94798933D01*
X96059662Y-94798933D01*
X96054320Y-94791779D01*
X96031359Y-94770554D01*
X95994916Y-94709628D01*
X95997197Y-94638669D01*
X96037479Y-94580206D01*
X96095011Y-94553946D01*
X96115581Y-94550319D01*
X96115582Y-94550319D01*
X96126434Y-94548405D01*
X96135979Y-94542894D01*
X96139433Y-94541637D01*
X96142757Y-94540087D01*
X96153401Y-94537235D01*
X96162427Y-94530915D01*
X96162429Y-94530914D01*
X96184700Y-94515319D01*
X96193971Y-94509413D01*
X96217515Y-94495820D01*
X96217518Y-94495818D01*
X96227066Y-94490305D01*
X96251640Y-94461019D01*
X96259055Y-94452928D01*
X98008929Y-92703055D01*
X98017033Y-92695628D01*
X98037860Y-92678152D01*
X98046305Y-92671066D01*
X98051816Y-92661521D01*
X98051819Y-92661517D01*
X98065410Y-92637976D01*
X98071315Y-92628706D01*
X98086914Y-92606428D01*
X98093235Y-92597401D01*
X98096087Y-92586756D01*
X98097637Y-92583433D01*
X98098894Y-92579979D01*
X98104405Y-92570434D01*
X98109315Y-92542592D01*
X98111041Y-92532801D01*
X98113420Y-92522070D01*
X98120458Y-92495803D01*
X98123310Y-92485160D01*
X98119979Y-92447085D01*
X98119500Y-92436104D01*
X98119500Y-90104673D01*
X98139502Y-90036552D01*
X98156405Y-90015578D01*
X108981579Y-79190405D01*
X109043891Y-79156379D01*
X109070674Y-79153500D01*
X109098332Y-79153500D01*
X109168332Y-79174734D01*
X109226699Y-79213734D01*
X109226700Y-79213734D01*
X109226391Y-79214196D01*
X109273476Y-79252138D01*
X109295898Y-79319501D01*
X109278340Y-79388293D01*
X109229578Y-79433693D01*
X109226699Y-79434266D01*
X109216382Y-79441159D01*
X109216381Y-79441160D01*
X109156024Y-79481490D01*
X109142516Y-79490516D01*
X109086266Y-79574699D01*
X109071500Y-79648933D01*
X109071501Y-79999066D01*
X109081516Y-80049418D01*
X109081516Y-80098578D01*
X109071500Y-80148933D01*
X109071500Y-80220146D01*
X109051498Y-80288267D01*
X108997842Y-80334760D01*
X108927568Y-80344864D01*
X108909400Y-80340864D01*
X108882607Y-80332851D01*
X108847938Y-80322482D01*
X108847936Y-80322482D01*
X108839337Y-80319910D01*
X108830363Y-80319855D01*
X108830361Y-80319855D01*
X108767082Y-80319469D01*
X108694827Y-80319028D01*
X108686196Y-80321495D01*
X108686194Y-80321495D01*
X108564509Y-80356272D01*
X108564505Y-80356274D01*
X108555879Y-80358739D01*
X108548292Y-80363526D01*
X108548290Y-80363527D01*
X108491698Y-80399234D01*
X108433661Y-80435853D01*
X108337999Y-80544170D01*
X108334185Y-80552293D01*
X108334184Y-80552295D01*
X108304524Y-80615469D01*
X108276583Y-80674982D01*
X108275203Y-80683844D01*
X108275202Y-80683848D01*
X108266064Y-80742541D01*
X108235820Y-80806773D01*
X108175650Y-80844458D01*
X108105462Y-80843873D01*
X108025337Y-80819910D01*
X108016363Y-80819855D01*
X108016361Y-80819855D01*
X107953082Y-80819469D01*
X107880827Y-80819028D01*
X107872196Y-80821495D01*
X107872194Y-80821495D01*
X107750509Y-80856272D01*
X107750505Y-80856274D01*
X107741879Y-80858739D01*
X107734292Y-80863526D01*
X107734290Y-80863527D01*
X107677698Y-80899234D01*
X107619661Y-80935853D01*
X107523999Y-81044170D01*
X107520185Y-81052293D01*
X107520184Y-81052295D01*
X107490524Y-81115469D01*
X107462583Y-81174982D01*
X107440350Y-81317773D01*
X107441514Y-81326675D01*
X107441514Y-81326678D01*
X107457924Y-81452164D01*
X107459088Y-81461065D01*
X107517289Y-81593339D01*
X107610276Y-81703960D01*
X107631867Y-81718332D01*
X107677489Y-81772728D01*
X107686461Y-81843156D01*
X107655932Y-81907254D01*
X107629286Y-81929779D01*
X107627258Y-81931059D01*
X107627255Y-81931061D01*
X107619661Y-81935853D01*
X107613718Y-81942582D01*
X107613717Y-81942583D01*
X107600180Y-81957911D01*
X107523999Y-82044170D01*
X107520185Y-82052293D01*
X107520184Y-82052295D01*
X107490524Y-82115469D01*
X107462583Y-82174982D01*
X107461203Y-82183846D01*
X107461202Y-82183849D01*
X107453241Y-82234983D01*
X107440350Y-82317773D01*
X107441514Y-82326675D01*
X107441514Y-82326678D01*
X107455874Y-82436487D01*
X107459088Y-82461065D01*
X107517289Y-82593339D01*
X107610276Y-82703960D01*
X107631867Y-82718332D01*
X107677489Y-82772728D01*
X107686461Y-82843156D01*
X107655932Y-82907254D01*
X107629286Y-82929779D01*
X107627258Y-82931059D01*
X107627255Y-82931061D01*
X107619661Y-82935853D01*
X107613718Y-82942582D01*
X107613717Y-82942583D01*
X107558475Y-83005133D01*
X107523999Y-83044170D01*
X107520185Y-83052293D01*
X107520184Y-83052295D01*
X107490524Y-83115469D01*
X107462583Y-83174982D01*
X107461203Y-83183846D01*
X107461202Y-83183849D01*
X107442635Y-83303100D01*
X107440350Y-83317773D01*
X107441514Y-83326675D01*
X107441514Y-83326678D01*
X107453140Y-83415581D01*
X107459088Y-83461065D01*
X107517289Y-83593339D01*
X107610276Y-83703960D01*
X107617747Y-83708933D01*
X107617748Y-83708934D01*
X107723101Y-83779063D01*
X107723103Y-83779064D01*
X107730574Y-83784037D01*
X107739138Y-83786713D01*
X107739141Y-83786714D01*
X107799542Y-83805585D01*
X107868510Y-83827132D01*
X108012998Y-83829780D01*
X108152422Y-83791769D01*
X108160329Y-83786914D01*
X108179038Y-83777471D01*
X108180870Y-83776730D01*
X108186812Y-83774983D01*
X108192295Y-83772112D01*
X108222189Y-83756459D01*
X108222226Y-83756439D01*
X108222576Y-83756256D01*
X108228967Y-83752794D01*
X108229535Y-83752476D01*
X108235948Y-83748765D01*
X108272608Y-83726843D01*
X108276962Y-83724181D01*
X108277176Y-83724047D01*
X108277225Y-83724017D01*
X108277407Y-83723902D01*
X108280734Y-83721784D01*
X108280794Y-83721745D01*
X108280961Y-83721639D01*
X108298474Y-83710284D01*
X108313147Y-83700771D01*
X108313180Y-83700749D01*
X108313364Y-83700630D01*
X108314259Y-83700047D01*
X108338544Y-83684159D01*
X108342420Y-83681724D01*
X108348349Y-83678148D01*
X108397106Y-83661103D01*
X108398136Y-83660968D01*
X108399854Y-83660744D01*
X108411376Y-83659775D01*
X108422651Y-83659347D01*
X108432709Y-83658965D01*
X108432712Y-83658965D01*
X108438597Y-83658741D01*
X108447638Y-83656673D01*
X108475734Y-83653500D01*
X109098332Y-83653500D01*
X109168332Y-83674734D01*
X109226699Y-83713734D01*
X109226700Y-83713734D01*
X109226391Y-83714196D01*
X109273476Y-83752138D01*
X109295898Y-83819501D01*
X109278340Y-83888293D01*
X109229578Y-83933693D01*
X109226699Y-83934266D01*
X109216382Y-83941159D01*
X109216381Y-83941160D01*
X109215895Y-83941485D01*
X109142516Y-83990516D01*
X109086266Y-84074699D01*
X109071500Y-84148933D01*
X109071501Y-84499066D01*
X109080225Y-84542928D01*
X109081516Y-84549419D01*
X109081516Y-84598579D01*
X109071500Y-84648933D01*
X109071501Y-84999066D01*
X109081516Y-85049418D01*
X109081516Y-85098578D01*
X109071500Y-85148933D01*
X109071501Y-85499066D01*
X109077444Y-85528947D01*
X109081516Y-85549419D01*
X109081516Y-85598578D01*
X109071500Y-85648933D01*
X109071501Y-85999066D01*
X109078305Y-86033273D01*
X109081516Y-86049419D01*
X109081516Y-86098579D01*
X109071500Y-86148933D01*
X109071501Y-86499066D01*
X109079506Y-86539315D01*
X109081516Y-86549419D01*
X109081516Y-86598579D01*
X109071500Y-86648933D01*
X109071501Y-86999066D01*
X109077833Y-87030903D01*
X109081516Y-87049419D01*
X109081516Y-87098579D01*
X109071500Y-87148933D01*
X109071501Y-87499066D01*
X109073936Y-87511307D01*
X109081516Y-87549419D01*
X109081516Y-87598579D01*
X109071500Y-87648933D01*
X109071501Y-87999066D01*
X109078612Y-88034818D01*
X109082246Y-88053088D01*
X109086266Y-88073301D01*
X109142516Y-88157484D01*
X109152832Y-88164377D01*
X109216381Y-88206840D01*
X109216382Y-88206841D01*
X109221542Y-88210288D01*
X109226699Y-88213734D01*
X109226391Y-88214195D01*
X109273476Y-88252138D01*
X109295898Y-88319501D01*
X109278340Y-88388293D01*
X109229578Y-88433693D01*
X109226699Y-88434266D01*
X109216382Y-88441159D01*
X109216381Y-88441160D01*
X109173482Y-88469825D01*
X109142516Y-88490516D01*
X109086266Y-88574699D01*
X109071500Y-88648933D01*
X109071501Y-88999066D01*
X109081516Y-89049419D01*
X109081516Y-89098579D01*
X109071500Y-89148933D01*
X109071501Y-89499066D01*
X109080999Y-89546818D01*
X109081516Y-89549419D01*
X109081516Y-89598579D01*
X109071500Y-89648933D01*
X109071501Y-89999066D01*
X109076540Y-90024399D01*
X109081516Y-90049419D01*
X109081516Y-90098579D01*
X109071500Y-90148933D01*
X109071501Y-90499066D01*
X109079944Y-90541517D01*
X109081516Y-90549419D01*
X109081516Y-90598579D01*
X109071500Y-90648933D01*
X109071501Y-90999066D01*
X109080225Y-91042928D01*
X109081516Y-91049419D01*
X109081516Y-91098579D01*
X109071500Y-91148933D01*
X109071501Y-91499066D01*
X109078794Y-91535732D01*
X109081516Y-91549419D01*
X109081516Y-91598579D01*
X109071500Y-91648933D01*
X109071501Y-91999066D01*
X109076274Y-92023062D01*
X109081516Y-92049419D01*
X109081516Y-92098579D01*
X109071500Y-92148933D01*
X109071501Y-92499066D01*
X109077134Y-92527385D01*
X109081516Y-92549419D01*
X109081516Y-92598579D01*
X109071500Y-92648933D01*
X109071501Y-92999066D01*
X109081516Y-93049419D01*
X109081516Y-93098579D01*
X109071500Y-93148933D01*
X109071501Y-93499066D01*
X109080313Y-93543371D01*
X109081516Y-93549419D01*
X109081516Y-93598578D01*
X109071500Y-93648933D01*
X109071501Y-93999066D01*
X109078612Y-94034818D01*
X109081675Y-94050217D01*
X109086266Y-94073301D01*
X109093161Y-94083620D01*
X109093162Y-94083622D01*
X109099072Y-94092467D01*
X109142516Y-94157484D01*
X109226699Y-94213734D01*
X109300933Y-94228500D01*
X109975890Y-94228500D01*
X110651066Y-94228499D01*
X110686818Y-94221388D01*
X110713126Y-94216156D01*
X110713128Y-94216155D01*
X110725301Y-94213734D01*
X110735621Y-94206839D01*
X110735622Y-94206838D01*
X110799168Y-94164377D01*
X110809484Y-94157484D01*
X110865734Y-94073301D01*
X110880500Y-93999067D01*
X110880499Y-93648934D01*
X110870483Y-93598576D01*
X110870484Y-93549419D01*
X110880500Y-93499067D01*
X110880500Y-93407898D01*
X110900502Y-93339777D01*
X110954158Y-93293284D01*
X111024432Y-93283180D01*
X111044072Y-93287630D01*
X111061892Y-93293197D01*
X111065435Y-93294430D01*
X111067703Y-93295154D01*
X111071092Y-93296455D01*
X111074784Y-93297402D01*
X111081044Y-93299180D01*
X111170510Y-93327132D01*
X111314998Y-93329780D01*
X111427217Y-93299186D01*
X111445763Y-93294130D01*
X111445765Y-93294129D01*
X111454422Y-93291769D01*
X111577572Y-93216154D01*
X111584020Y-93209031D01*
X111646060Y-93140490D01*
X111674551Y-93109014D01*
X111706056Y-93043988D01*
X111733645Y-92987043D01*
X111733645Y-92987042D01*
X111737560Y-92978962D01*
X111761536Y-92836453D01*
X111761688Y-92824000D01*
X111743809Y-92699158D01*
X111742474Y-92689835D01*
X111742473Y-92689833D01*
X111741201Y-92680948D01*
X111681388Y-92549395D01*
X111675530Y-92542596D01*
X111675527Y-92542592D01*
X111592916Y-92446718D01*
X111592913Y-92446716D01*
X111587056Y-92439918D01*
X111579524Y-92435036D01*
X111579523Y-92435035D01*
X111572731Y-92430633D01*
X111526448Y-92376797D01*
X111516618Y-92306484D01*
X111546363Y-92242019D01*
X111563679Y-92227381D01*
X111563017Y-92226584D01*
X111569923Y-92220850D01*
X111577572Y-92216154D01*
X111674551Y-92109014D01*
X111719044Y-92017179D01*
X111733645Y-91987043D01*
X111733645Y-91987042D01*
X111737560Y-91978962D01*
X111761536Y-91836453D01*
X111761688Y-91824000D01*
X111741201Y-91680948D01*
X111681388Y-91549395D01*
X111675530Y-91542596D01*
X111675527Y-91542592D01*
X111592916Y-91446718D01*
X111592913Y-91446716D01*
X111587056Y-91439918D01*
X111502686Y-91385232D01*
X111456402Y-91331396D01*
X111446571Y-91261084D01*
X111476315Y-91196618D01*
X111536190Y-91158467D01*
X111571218Y-91153500D01*
X113118118Y-91153500D01*
X113129100Y-91153980D01*
X113156175Y-91156349D01*
X113156176Y-91156349D01*
X113167160Y-91157310D01*
X113177807Y-91154457D01*
X113177809Y-91154457D01*
X113204070Y-91147420D01*
X113214801Y-91145041D01*
X113241581Y-91140319D01*
X113241582Y-91140319D01*
X113252434Y-91138405D01*
X113261979Y-91132894D01*
X113265433Y-91131637D01*
X113268757Y-91130087D01*
X113279401Y-91127235D01*
X113288427Y-91120915D01*
X113288429Y-91120914D01*
X113310700Y-91105319D01*
X113319971Y-91099413D01*
X113343515Y-91085820D01*
X113343518Y-91085818D01*
X113353066Y-91080305D01*
X113377640Y-91051019D01*
X113385055Y-91042928D01*
X118074929Y-86353055D01*
X118083033Y-86345628D01*
X118103860Y-86328152D01*
X118112305Y-86321066D01*
X118117816Y-86311521D01*
X118117819Y-86311517D01*
X118131410Y-86287976D01*
X118137315Y-86278706D01*
X118152914Y-86256428D01*
X118159235Y-86247401D01*
X118162087Y-86236756D01*
X118163637Y-86233433D01*
X118164894Y-86229979D01*
X118170405Y-86220434D01*
X118177041Y-86182801D01*
X118179420Y-86172070D01*
X118182110Y-86162031D01*
X118189310Y-86135160D01*
X118185979Y-86097085D01*
X118185500Y-86086104D01*
X118185500Y-66059882D01*
X118185980Y-66048900D01*
X118187538Y-66031092D01*
X118189310Y-66010840D01*
X118182752Y-65986363D01*
X118179420Y-65973930D01*
X118177041Y-65963199D01*
X118172319Y-65936419D01*
X118172319Y-65936418D01*
X118170405Y-65925566D01*
X118164894Y-65916021D01*
X118163637Y-65912567D01*
X118162087Y-65909244D01*
X118159235Y-65898599D01*
X118137315Y-65867294D01*
X118131410Y-65858024D01*
X118117819Y-65834483D01*
X118117816Y-65834479D01*
X118112305Y-65824934D01*
X118083038Y-65800376D01*
X118074934Y-65792950D01*
X113277060Y-60995077D01*
X113269633Y-60986973D01*
X113252151Y-60966139D01*
X113245066Y-60957695D01*
X113235523Y-60952185D01*
X113235519Y-60952182D01*
X113211971Y-60938587D01*
X113202700Y-60932681D01*
X113180429Y-60917086D01*
X113180427Y-60917085D01*
X113171401Y-60910765D01*
X113160757Y-60907913D01*
X113157433Y-60906363D01*
X113153979Y-60905106D01*
X113144434Y-60899595D01*
X113133582Y-60897681D01*
X113133581Y-60897681D01*
X113106801Y-60892959D01*
X113096070Y-60890580D01*
X113069809Y-60883543D01*
X113069807Y-60883543D01*
X113059160Y-60880690D01*
X113048176Y-60881651D01*
X113048175Y-60881651D01*
X113021100Y-60884020D01*
X113010118Y-60884500D01*
X94009882Y-60884500D01*
X93998900Y-60884020D01*
X93971825Y-60881651D01*
X93971824Y-60881651D01*
X93960840Y-60880690D01*
X93950193Y-60883543D01*
X93950191Y-60883543D01*
X93923930Y-60890580D01*
X93913199Y-60892959D01*
X93886419Y-60897681D01*
X93886418Y-60897681D01*
X93875566Y-60899595D01*
X93866021Y-60905106D01*
X93862567Y-60906363D01*
X93859244Y-60907913D01*
X93848599Y-60910765D01*
X93839571Y-60917086D01*
X93839572Y-60917086D01*
X93817294Y-60932685D01*
X93808024Y-60938590D01*
X93784483Y-60952181D01*
X93784479Y-60952184D01*
X93774934Y-60957695D01*
X93767846Y-60966142D01*
X93750376Y-60986962D01*
X93742950Y-60995066D01*
X93680246Y-61057770D01*
X93661113Y-61072580D01*
X93661326Y-61072872D01*
X93656329Y-61076517D01*
X93650993Y-61079658D01*
X93646373Y-61083779D01*
X93528389Y-61189018D01*
X93514605Y-61199696D01*
X93423885Y-61260419D01*
X93406043Y-61270367D01*
X93332304Y-61303953D01*
X93313023Y-61310901D01*
X93241219Y-61330346D01*
X93225101Y-61333600D01*
X93138455Y-61345269D01*
X93129153Y-61346171D01*
X93016970Y-61352859D01*
X93015506Y-61352937D01*
X92992532Y-61354033D01*
X92882801Y-61359264D01*
X92882732Y-61359268D01*
X92882496Y-61359279D01*
X92876912Y-61359606D01*
X92876407Y-61359641D01*
X92876075Y-61359668D01*
X92876043Y-61359670D01*
X92873603Y-61359866D01*
X92870799Y-61360091D01*
X92725664Y-61373317D01*
X92725015Y-61373390D01*
X92724993Y-61373392D01*
X92715603Y-61374445D01*
X92715594Y-61374446D01*
X92714935Y-61374520D01*
X92713967Y-61374649D01*
X92703228Y-61376310D01*
X92571329Y-61399544D01*
X92545228Y-61404142D01*
X92545221Y-61404143D01*
X92544360Y-61404295D01*
X92543515Y-61404467D01*
X92543495Y-61404471D01*
X92531669Y-61406881D01*
X92531648Y-61406886D01*
X92530797Y-61407059D01*
X92529593Y-61407338D01*
X92520225Y-61409769D01*
X92517259Y-61410538D01*
X92517249Y-61410541D01*
X92516454Y-61410747D01*
X92421468Y-61438063D01*
X92416791Y-61439408D01*
X92414162Y-61440010D01*
X92414183Y-61440090D01*
X92408599Y-61441586D01*
X92402910Y-61442564D01*
X92396964Y-61444758D01*
X92388186Y-61447634D01*
X92351313Y-61458238D01*
X92347624Y-61459299D01*
X92289733Y-61483877D01*
X92289713Y-61483831D01*
X92281898Y-61487208D01*
X92217882Y-61510824D01*
X92217874Y-61510828D01*
X92212463Y-61512824D01*
X92038010Y-61616612D01*
X92033670Y-61620418D01*
X92033666Y-61620421D01*
X91889733Y-61746648D01*
X91885392Y-61750455D01*
X91759720Y-61909869D01*
X91757031Y-61914980D01*
X91757029Y-61914983D01*
X91744073Y-61939609D01*
X91665203Y-62089515D01*
X91605007Y-62283378D01*
X91581148Y-62484964D01*
X91581526Y-62490730D01*
X91593486Y-62673203D01*
X91594424Y-62687522D01*
X91595845Y-62693118D01*
X91595846Y-62693123D01*
X91616119Y-62772945D01*
X91644392Y-62884269D01*
X91646809Y-62889512D01*
X91684010Y-62970208D01*
X91729377Y-63068616D01*
X91732710Y-63073332D01*
X91834902Y-63217931D01*
X91846533Y-63234389D01*
X91991938Y-63376035D01*
X92160720Y-63488812D01*
X92166023Y-63491090D01*
X92166026Y-63491092D01*
X92254707Y-63529192D01*
X92347228Y-63568942D01*
X92420244Y-63585464D01*
X92539579Y-63612467D01*
X92539584Y-63612468D01*
X92545216Y-63613742D01*
X92550987Y-63613969D01*
X92550989Y-63613969D01*
X92610756Y-63616317D01*
X92748053Y-63621712D01*
X92848499Y-63607148D01*
X92943231Y-63593413D01*
X92943236Y-63593412D01*
X92948945Y-63592584D01*
X92954409Y-63590729D01*
X92954414Y-63590728D01*
X93135693Y-63529192D01*
X93135698Y-63529190D01*
X93141165Y-63527334D01*
X93318276Y-63428147D01*
X93323239Y-63424020D01*
X93469913Y-63302031D01*
X93474345Y-63298345D01*
X93604147Y-63142276D01*
X93703334Y-62965165D01*
X93705190Y-62959698D01*
X93705192Y-62959693D01*
X93728704Y-62890427D01*
X93736047Y-62873147D01*
X93741862Y-62861879D01*
X93741865Y-62861872D01*
X93744702Y-62856374D01*
X93793253Y-62687545D01*
X93796661Y-62674407D01*
X93796940Y-62673203D01*
X93799704Y-62659640D01*
X93799848Y-62658823D01*
X93827580Y-62501391D01*
X93827583Y-62501373D01*
X93827689Y-62500771D01*
X93829350Y-62490032D01*
X93829479Y-62489064D01*
X93830682Y-62478335D01*
X93843908Y-62333200D01*
X93844358Y-62327592D01*
X93844393Y-62327087D01*
X93844720Y-62321504D01*
X93851057Y-62188587D01*
X93851137Y-62187090D01*
X93857827Y-62074854D01*
X93858731Y-62065533D01*
X93870399Y-61978897D01*
X93873653Y-61962780D01*
X93893098Y-61890976D01*
X93900046Y-61871695D01*
X93933632Y-61797956D01*
X93943576Y-61780119D01*
X94004310Y-61689383D01*
X94014984Y-61675606D01*
X94055542Y-61630137D01*
X94095244Y-61585627D01*
X94155515Y-61548106D01*
X94189272Y-61543500D01*
X94329240Y-61543500D01*
X94397361Y-61563502D01*
X94443854Y-61617158D01*
X94453958Y-61687432D01*
X94423979Y-61749341D01*
X94425392Y-61750455D01*
X94299720Y-61909869D01*
X94297031Y-61914980D01*
X94297029Y-61914983D01*
X94284073Y-61939609D01*
X94205203Y-62089515D01*
X94145007Y-62283378D01*
X94121148Y-62484964D01*
X94121526Y-62490730D01*
X94133486Y-62673203D01*
X94134424Y-62687522D01*
X94135845Y-62693118D01*
X94135846Y-62693123D01*
X94156119Y-62772945D01*
X94184392Y-62884269D01*
X94186809Y-62889512D01*
X94224010Y-62970208D01*
X94269377Y-63068616D01*
X94321435Y-63142276D01*
X94380449Y-63225780D01*
X94403430Y-63292954D01*
X94386445Y-63361889D01*
X94334888Y-63410699D01*
X94277552Y-63424500D01*
X93999882Y-63424500D01*
X93988900Y-63424020D01*
X93961825Y-63421651D01*
X93961824Y-63421651D01*
X93950840Y-63420690D01*
X93940193Y-63423543D01*
X93940191Y-63423543D01*
X93913930Y-63430580D01*
X93903199Y-63432959D01*
X93876419Y-63437681D01*
X93876418Y-63437681D01*
X93865566Y-63439595D01*
X93856021Y-63445106D01*
X93852567Y-63446363D01*
X93849244Y-63447913D01*
X93838599Y-63450765D01*
X93829571Y-63457086D01*
X93829572Y-63457086D01*
X93807294Y-63472685D01*
X93798024Y-63478590D01*
X93774483Y-63492181D01*
X93774479Y-63492184D01*
X93764934Y-63497695D01*
X93757848Y-63506140D01*
X93740370Y-63526970D01*
X93732942Y-63535075D01*
X93680048Y-63587969D01*
X93660894Y-63602813D01*
X93661091Y-63603082D01*
X93656093Y-63606737D01*
X93650761Y-63609884D01*
X93637533Y-63621712D01*
X93527491Y-63720104D01*
X93514026Y-63730593D01*
X93422119Y-63792664D01*
X93404667Y-63802526D01*
X93329809Y-63837288D01*
X93310880Y-63844296D01*
X93238377Y-63864701D01*
X93222431Y-63868093D01*
X93135771Y-63880732D01*
X93126419Y-63881741D01*
X93085581Y-63884611D01*
X93014619Y-63889597D01*
X93013049Y-63889697D01*
X92880447Y-63897250D01*
X92880039Y-63897277D01*
X92879964Y-63897282D01*
X92876755Y-63897498D01*
X92875260Y-63897598D01*
X92874780Y-63897635D01*
X92869334Y-63898112D01*
X92869001Y-63898145D01*
X92868944Y-63898150D01*
X92724877Y-63912314D01*
X92724843Y-63912318D01*
X92724189Y-63912382D01*
X92717072Y-63913226D01*
X92714594Y-63913519D01*
X92714579Y-63913521D01*
X92713895Y-63913602D01*
X92712973Y-63913730D01*
X92708011Y-63914523D01*
X92703093Y-63915308D01*
X92703041Y-63915317D01*
X92702508Y-63915402D01*
X92701999Y-63915494D01*
X92701946Y-63915503D01*
X92544216Y-63944008D01*
X92544183Y-63944014D01*
X92543488Y-63944140D01*
X92542777Y-63944287D01*
X92542758Y-63944291D01*
X92531295Y-63946666D01*
X92531279Y-63946670D01*
X92530519Y-63946827D01*
X92529365Y-63947097D01*
X92528633Y-63947288D01*
X92528602Y-63947296D01*
X92523357Y-63948667D01*
X92516403Y-63950485D01*
X92412980Y-63980389D01*
X92410647Y-63981038D01*
X92408603Y-63981586D01*
X92402910Y-63982564D01*
X92397490Y-63984563D01*
X92397193Y-63984643D01*
X92389329Y-63987226D01*
X92350926Y-63998331D01*
X92350920Y-63998333D01*
X92347251Y-63999394D01*
X92289544Y-64023970D01*
X92289517Y-64023908D01*
X92281833Y-64027232D01*
X92212463Y-64052824D01*
X92038010Y-64156612D01*
X92033670Y-64160418D01*
X92033666Y-64160421D01*
X91889733Y-64286648D01*
X91885392Y-64290455D01*
X91759720Y-64449869D01*
X91757031Y-64454980D01*
X91757029Y-64454983D01*
X91744073Y-64479609D01*
X91665203Y-64629515D01*
X91605007Y-64823378D01*
X91581148Y-65024964D01*
X91594424Y-65227522D01*
X91595845Y-65233118D01*
X91595846Y-65233123D01*
X91638674Y-65401754D01*
X91644392Y-65424269D01*
X91646809Y-65429512D01*
X91684010Y-65510208D01*
X91729377Y-65608616D01*
X91732710Y-65613332D01*
X91834902Y-65757931D01*
X91846533Y-65774389D01*
X91850675Y-65778424D01*
X91937277Y-65862787D01*
X91991938Y-65916035D01*
X92160720Y-66028812D01*
X92166023Y-66031090D01*
X92166026Y-66031092D01*
X92341921Y-66106662D01*
X92347228Y-66108942D01*
X92420244Y-66125464D01*
X92539579Y-66152467D01*
X92539584Y-66152468D01*
X92545216Y-66153742D01*
X92550987Y-66153969D01*
X92550989Y-66153969D01*
X92610756Y-66156317D01*
X92748053Y-66161712D01*
X92848499Y-66147148D01*
X92943231Y-66133413D01*
X92943236Y-66133412D01*
X92948945Y-66132584D01*
X92954409Y-66130729D01*
X92954414Y-66130728D01*
X93135693Y-66069192D01*
X93135698Y-66069190D01*
X93141165Y-66067334D01*
X93154472Y-66059882D01*
X93261057Y-66000191D01*
X93318276Y-65968147D01*
X93323239Y-65964020D01*
X93469913Y-65842031D01*
X93474345Y-65838345D01*
X93604147Y-65682276D01*
X93703334Y-65505165D01*
X93728745Y-65430306D01*
X93736061Y-65413078D01*
X93741898Y-65401754D01*
X93741898Y-65401753D01*
X93744732Y-65396256D01*
X93746439Y-65390311D01*
X93793298Y-65227089D01*
X93793303Y-65227069D01*
X93793538Y-65226252D01*
X93797027Y-65212736D01*
X93797304Y-65211530D01*
X93800017Y-65198105D01*
X93815701Y-65108344D01*
X93827859Y-65038764D01*
X93827865Y-65038725D01*
X93827962Y-65038172D01*
X93829607Y-65027441D01*
X93829736Y-65026463D01*
X93830945Y-65015504D01*
X93843938Y-64869334D01*
X93844389Y-64863519D01*
X93844423Y-64863006D01*
X93844731Y-64857458D01*
X93850734Y-64723447D01*
X93850807Y-64722004D01*
X93857183Y-64608726D01*
X93858055Y-64599414D01*
X93869535Y-64511926D01*
X93872744Y-64495759D01*
X93892135Y-64423270D01*
X93899069Y-64403866D01*
X93932699Y-64329579D01*
X93942685Y-64311593D01*
X94003636Y-64220276D01*
X94014376Y-64206389D01*
X94086328Y-64125663D01*
X94146585Y-64088119D01*
X94180388Y-64083500D01*
X94329240Y-64083500D01*
X94397361Y-64103502D01*
X94443854Y-64157158D01*
X94453958Y-64227432D01*
X94423979Y-64289341D01*
X94425392Y-64290455D01*
X94299720Y-64449869D01*
X94297031Y-64454980D01*
X94297029Y-64454983D01*
X94284073Y-64479609D01*
X94205203Y-64629515D01*
X94145007Y-64823378D01*
X94121148Y-65024964D01*
X94134424Y-65227522D01*
X94135845Y-65233118D01*
X94135846Y-65233123D01*
X94178674Y-65401754D01*
X94184392Y-65424269D01*
X94186809Y-65429512D01*
X94224010Y-65510208D01*
X94269377Y-65608616D01*
X94321435Y-65682276D01*
X94380449Y-65765780D01*
X94403430Y-65832954D01*
X94386445Y-65901889D01*
X94334888Y-65950699D01*
X94277552Y-65964500D01*
X94009882Y-65964500D01*
X93998900Y-65964020D01*
X93971825Y-65961651D01*
X93971824Y-65961651D01*
X93960840Y-65960690D01*
X93950193Y-65963543D01*
X93950191Y-65963543D01*
X93923930Y-65970580D01*
X93913199Y-65972959D01*
X93886419Y-65977681D01*
X93886418Y-65977681D01*
X93875566Y-65979595D01*
X93866021Y-65985106D01*
X93862567Y-65986363D01*
X93859244Y-65987913D01*
X93848599Y-65990765D01*
X93827048Y-66005855D01*
X93817294Y-66012685D01*
X93808024Y-66018590D01*
X93784483Y-66032181D01*
X93784479Y-66032184D01*
X93774934Y-66037695D01*
X93767846Y-66046142D01*
X93750376Y-66066962D01*
X93742950Y-66075066D01*
X93680246Y-66137770D01*
X93661113Y-66152580D01*
X93661326Y-66152872D01*
X93656329Y-66156517D01*
X93650993Y-66159658D01*
X93646373Y-66163779D01*
X93528389Y-66269018D01*
X93514605Y-66279696D01*
X93423885Y-66340419D01*
X93406043Y-66350367D01*
X93332304Y-66383953D01*
X93313023Y-66390901D01*
X93241219Y-66410346D01*
X93225101Y-66413600D01*
X93138455Y-66425269D01*
X93129153Y-66426171D01*
X93016970Y-66432859D01*
X93015506Y-66432937D01*
X92992532Y-66434032D01*
X92882801Y-66439264D01*
X92882732Y-66439268D01*
X92882496Y-66439279D01*
X92876912Y-66439606D01*
X92876407Y-66439641D01*
X92876075Y-66439668D01*
X92876043Y-66439670D01*
X92873603Y-66439866D01*
X92870799Y-66440091D01*
X92725664Y-66453317D01*
X92725015Y-66453390D01*
X92724993Y-66453392D01*
X92715603Y-66454445D01*
X92715594Y-66454446D01*
X92714935Y-66454520D01*
X92713967Y-66454649D01*
X92703228Y-66456310D01*
X92571329Y-66479544D01*
X92545228Y-66484142D01*
X92545221Y-66484143D01*
X92544360Y-66484295D01*
X92543515Y-66484467D01*
X92543495Y-66484471D01*
X92531669Y-66486881D01*
X92531648Y-66486886D01*
X92530797Y-66487059D01*
X92529593Y-66487338D01*
X92520225Y-66489769D01*
X92517259Y-66490538D01*
X92517249Y-66490541D01*
X92516454Y-66490747D01*
X92421468Y-66518063D01*
X92416791Y-66519408D01*
X92414162Y-66520010D01*
X92414183Y-66520090D01*
X92408599Y-66521586D01*
X92402910Y-66522564D01*
X92396964Y-66524758D01*
X92388186Y-66527634D01*
X92351313Y-66538238D01*
X92347624Y-66539299D01*
X92289733Y-66563877D01*
X92289713Y-66563831D01*
X92281898Y-66567208D01*
X92217882Y-66590824D01*
X92217874Y-66590828D01*
X92212463Y-66592824D01*
X92038010Y-66696612D01*
X92033670Y-66700418D01*
X92033666Y-66700421D01*
X91963301Y-66762130D01*
X91885392Y-66830455D01*
X91759720Y-66989869D01*
X91665203Y-67169515D01*
X91605007Y-67363378D01*
X91581148Y-67564964D01*
X91581526Y-67570730D01*
X91593486Y-67753203D01*
X91594424Y-67767522D01*
X91644392Y-67964269D01*
X91646809Y-67969512D01*
X91684010Y-68050208D01*
X91729377Y-68148616D01*
X91846533Y-68314389D01*
X91991938Y-68456035D01*
X92160720Y-68568812D01*
X92166023Y-68571090D01*
X92166026Y-68571092D01*
X92254707Y-68609192D01*
X92347228Y-68648942D01*
X92420244Y-68665464D01*
X92539579Y-68692467D01*
X92539584Y-68692468D01*
X92545216Y-68693742D01*
X92550987Y-68693969D01*
X92550989Y-68693969D01*
X92610756Y-68696317D01*
X92748053Y-68701712D01*
X92848499Y-68687148D01*
X92943231Y-68673413D01*
X92943236Y-68673412D01*
X92948945Y-68672584D01*
X92954409Y-68670729D01*
X92954414Y-68670728D01*
X93135693Y-68609192D01*
X93135698Y-68609190D01*
X93141165Y-68607334D01*
X93318276Y-68508147D01*
X93380934Y-68456035D01*
X93469913Y-68382031D01*
X93474345Y-68378345D01*
X93604147Y-68222276D01*
X93703334Y-68045165D01*
X93705190Y-68039698D01*
X93705192Y-68039693D01*
X93728704Y-67970427D01*
X93736047Y-67953147D01*
X93741862Y-67941879D01*
X93741865Y-67941872D01*
X93744702Y-67936374D01*
X93793253Y-67767545D01*
X93796661Y-67754407D01*
X93796940Y-67753203D01*
X93799704Y-67739640D01*
X93827689Y-67580771D01*
X93829350Y-67570032D01*
X93829479Y-67569064D01*
X93830682Y-67558335D01*
X93843908Y-67413200D01*
X93844358Y-67407592D01*
X93844393Y-67407087D01*
X93844720Y-67401504D01*
X93851057Y-67268587D01*
X93851137Y-67267090D01*
X93857827Y-67154854D01*
X93858731Y-67145533D01*
X93870399Y-67058897D01*
X93873653Y-67042780D01*
X93893098Y-66970976D01*
X93900046Y-66951695D01*
X93933632Y-66877956D01*
X93943576Y-66860119D01*
X94004310Y-66769383D01*
X94014984Y-66755606D01*
X94095244Y-66665627D01*
X94155515Y-66628106D01*
X94189272Y-66623500D01*
X115127327Y-66623500D01*
X115195448Y-66643502D01*
X115216422Y-66660405D01*
X116473595Y-67917578D01*
X116507621Y-67979890D01*
X116510500Y-68006673D01*
X116510500Y-70020326D01*
X116490498Y-70088447D01*
X116436842Y-70134940D01*
X116366568Y-70145044D01*
X116301988Y-70115550D01*
X116295405Y-70109421D01*
X115026060Y-68840077D01*
X115018633Y-68831973D01*
X115001151Y-68811139D01*
X114994066Y-68802695D01*
X114984523Y-68797185D01*
X114984519Y-68797182D01*
X114960971Y-68783587D01*
X114951700Y-68777681D01*
X114929429Y-68762086D01*
X114929427Y-68762085D01*
X114920401Y-68755765D01*
X114909757Y-68752913D01*
X114906433Y-68751363D01*
X114902979Y-68750106D01*
X114893434Y-68744595D01*
X114882582Y-68742681D01*
X114882581Y-68742681D01*
X114855801Y-68737959D01*
X114845070Y-68735580D01*
X114818809Y-68728543D01*
X114818807Y-68728543D01*
X114808160Y-68725690D01*
X114797176Y-68726651D01*
X114797175Y-68726651D01*
X114770100Y-68729020D01*
X114759118Y-68729500D01*
X93957009Y-68729500D01*
X93938331Y-68728108D01*
X93920118Y-68725378D01*
X93843650Y-68729020D01*
X93836574Y-68729357D01*
X93830580Y-68729500D01*
X93784882Y-68729500D01*
X93773900Y-68729020D01*
X93746825Y-68726651D01*
X93746824Y-68726651D01*
X93735840Y-68725690D01*
X93725193Y-68728543D01*
X93725191Y-68728543D01*
X93698930Y-68735580D01*
X93688199Y-68737959D01*
X93661419Y-68742681D01*
X93661418Y-68742681D01*
X93650566Y-68744595D01*
X93645733Y-68747385D01*
X93631396Y-68751072D01*
X93616841Y-68753334D01*
X93583288Y-68758549D01*
X93583258Y-68758554D01*
X93582448Y-68758680D01*
X93581606Y-68758835D01*
X93581605Y-68758835D01*
X93569204Y-68761115D01*
X93569184Y-68761119D01*
X93568330Y-68761276D01*
X93567065Y-68761545D01*
X93553116Y-68764917D01*
X93552297Y-68765139D01*
X93552274Y-68765145D01*
X93506052Y-68777681D01*
X93430394Y-68798200D01*
X93429766Y-68798386D01*
X93429735Y-68798395D01*
X93423775Y-68800163D01*
X93418726Y-68801660D01*
X93417674Y-68801999D01*
X93415685Y-68802695D01*
X93406260Y-68805992D01*
X93406229Y-68806003D01*
X93405541Y-68806244D01*
X93404826Y-68806514D01*
X93404810Y-68806520D01*
X93298882Y-68846546D01*
X93298846Y-68846560D01*
X93298380Y-68846736D01*
X93291067Y-68849626D01*
X93290447Y-68849882D01*
X93283264Y-68852976D01*
X93184609Y-68897236D01*
X93182683Y-68898109D01*
X93094233Y-68938660D01*
X93088696Y-68941039D01*
X93053645Y-68955113D01*
X93012411Y-68971669D01*
X93001305Y-68975536D01*
X92926958Y-68997590D01*
X92912613Y-69000946D01*
X92825458Y-69016020D01*
X92810717Y-69017682D01*
X92684696Y-69024413D01*
X92670381Y-69026907D01*
X92647117Y-69028765D01*
X92602971Y-69028187D01*
X92597274Y-69029166D01*
X92597273Y-69029166D01*
X92408607Y-69061585D01*
X92402910Y-69062564D01*
X92212463Y-69132824D01*
X92038010Y-69236612D01*
X92033670Y-69240418D01*
X92033666Y-69240421D01*
X91889733Y-69366648D01*
X91885392Y-69370455D01*
X91881817Y-69374990D01*
X91881816Y-69374991D01*
X91864537Y-69396909D01*
X91759720Y-69529869D01*
X91757031Y-69534980D01*
X91757029Y-69534983D01*
X91709128Y-69626027D01*
X91665203Y-69709515D01*
X91605007Y-69903378D01*
X91581148Y-70104964D01*
X91594424Y-70307522D01*
X91595845Y-70313118D01*
X91595846Y-70313123D01*
X91633047Y-70459600D01*
X91644392Y-70504269D01*
X91646809Y-70509512D01*
X91684009Y-70590206D01*
X91729377Y-70688616D01*
X91732710Y-70693332D01*
X91834902Y-70837931D01*
X91846533Y-70854389D01*
X91991938Y-70996035D01*
X92160720Y-71108812D01*
X92166023Y-71111090D01*
X92166026Y-71111092D01*
X92254707Y-71149192D01*
X92347228Y-71188942D01*
X92388934Y-71198379D01*
X92539579Y-71232467D01*
X92539584Y-71232468D01*
X92545216Y-71233742D01*
X92550987Y-71233969D01*
X92550989Y-71233969D01*
X92610756Y-71236317D01*
X92748053Y-71241712D01*
X92848499Y-71227148D01*
X92943231Y-71213413D01*
X92943236Y-71213412D01*
X92948945Y-71212584D01*
X92954409Y-71210729D01*
X92954414Y-71210728D01*
X93135693Y-71149192D01*
X93135698Y-71149190D01*
X93141165Y-71147334D01*
X93318276Y-71048147D01*
X93323239Y-71044020D01*
X93469913Y-70922031D01*
X93474345Y-70918345D01*
X93604147Y-70762276D01*
X93703334Y-70585165D01*
X93732895Y-70498083D01*
X93737959Y-70485453D01*
X93744568Y-70471242D01*
X93744571Y-70471233D01*
X93747182Y-70465619D01*
X93748647Y-70459605D01*
X93748649Y-70459600D01*
X93754171Y-70436933D01*
X93757277Y-70426257D01*
X93766728Y-70398415D01*
X93766730Y-70398407D01*
X93768584Y-70392945D01*
X93773161Y-70361380D01*
X93775435Y-70349650D01*
X93787330Y-70300823D01*
X93791271Y-70281469D01*
X93791559Y-70279716D01*
X93794012Y-70260179D01*
X93809368Y-70083992D01*
X93809417Y-70083226D01*
X93810094Y-70072586D01*
X93810096Y-70072552D01*
X93810138Y-70071888D01*
X93810182Y-70070794D01*
X93810228Y-70068093D01*
X93810374Y-70059358D01*
X93810374Y-70059339D01*
X93810386Y-70058629D01*
X93809215Y-69883648D01*
X93809140Y-69878900D01*
X93809129Y-69878460D01*
X93808955Y-69873454D01*
X93803131Y-69742046D01*
X93801680Y-69709316D01*
X93801586Y-69706497D01*
X93798666Y-69573230D01*
X93799023Y-69560614D01*
X93801319Y-69531375D01*
X93826595Y-69465030D01*
X93837834Y-69452150D01*
X93847252Y-69442731D01*
X93857045Y-69432938D01*
X93919356Y-69398912D01*
X93931300Y-69396910D01*
X93964958Y-69392918D01*
X93970001Y-69391441D01*
X93971920Y-69391049D01*
X93997134Y-69388500D01*
X94165431Y-69388500D01*
X94233552Y-69408502D01*
X94280045Y-69462158D01*
X94290149Y-69532432D01*
X94276939Y-69573168D01*
X94256780Y-69611484D01*
X94205203Y-69709515D01*
X94145007Y-69903378D01*
X94121148Y-70104964D01*
X94134424Y-70307522D01*
X94135845Y-70313118D01*
X94135846Y-70313123D01*
X94173047Y-70459600D01*
X94184392Y-70504269D01*
X94186809Y-70509512D01*
X94224009Y-70590206D01*
X94269377Y-70688616D01*
X94321435Y-70762276D01*
X94380449Y-70845780D01*
X94403430Y-70912954D01*
X94386445Y-70981889D01*
X94334888Y-71030699D01*
X94277552Y-71044500D01*
X93999882Y-71044500D01*
X93988900Y-71044020D01*
X93961825Y-71041651D01*
X93961824Y-71041651D01*
X93950840Y-71040690D01*
X93940193Y-71043543D01*
X93940191Y-71043543D01*
X93913930Y-71050580D01*
X93903199Y-71052959D01*
X93876419Y-71057681D01*
X93876418Y-71057681D01*
X93865566Y-71059595D01*
X93856021Y-71065106D01*
X93852567Y-71066363D01*
X93849244Y-71067913D01*
X93838599Y-71070765D01*
X93829571Y-71077086D01*
X93829572Y-71077086D01*
X93807294Y-71092685D01*
X93798024Y-71098590D01*
X93774483Y-71112181D01*
X93774479Y-71112184D01*
X93764934Y-71117695D01*
X93757848Y-71126140D01*
X93740370Y-71146970D01*
X93732942Y-71155075D01*
X93680048Y-71207969D01*
X93660894Y-71222813D01*
X93661091Y-71223082D01*
X93656093Y-71226737D01*
X93650761Y-71229884D01*
X93564348Y-71307149D01*
X93527491Y-71340104D01*
X93514026Y-71350593D01*
X93422119Y-71412664D01*
X93404667Y-71422526D01*
X93329809Y-71457288D01*
X93310880Y-71464296D01*
X93238377Y-71484701D01*
X93222431Y-71488093D01*
X93135771Y-71500732D01*
X93126419Y-71501741D01*
X93085581Y-71504611D01*
X93014619Y-71509597D01*
X93013049Y-71509697D01*
X92880447Y-71517250D01*
X92880039Y-71517277D01*
X92879964Y-71517282D01*
X92876755Y-71517498D01*
X92875260Y-71517598D01*
X92874780Y-71517635D01*
X92869334Y-71518112D01*
X92869001Y-71518145D01*
X92868944Y-71518150D01*
X92724877Y-71532314D01*
X92724843Y-71532318D01*
X92724189Y-71532382D01*
X92717072Y-71533226D01*
X92714594Y-71533519D01*
X92714579Y-71533521D01*
X92713895Y-71533602D01*
X92712973Y-71533730D01*
X92708011Y-71534523D01*
X92703093Y-71535308D01*
X92703041Y-71535317D01*
X92702508Y-71535402D01*
X92701999Y-71535494D01*
X92701946Y-71535503D01*
X92544216Y-71564008D01*
X92544183Y-71564014D01*
X92543488Y-71564140D01*
X92542777Y-71564287D01*
X92542758Y-71564291D01*
X92531295Y-71566666D01*
X92531279Y-71566670D01*
X92530519Y-71566827D01*
X92529365Y-71567097D01*
X92528633Y-71567288D01*
X92528602Y-71567296D01*
X92523357Y-71568667D01*
X92516403Y-71570485D01*
X92412980Y-71600389D01*
X92410647Y-71601038D01*
X92408603Y-71601586D01*
X92402910Y-71602564D01*
X92397490Y-71604563D01*
X92397193Y-71604643D01*
X92389329Y-71607226D01*
X92350926Y-71618331D01*
X92350920Y-71618333D01*
X92347251Y-71619394D01*
X92289544Y-71643970D01*
X92289517Y-71643908D01*
X92281833Y-71647232D01*
X92212463Y-71672824D01*
X92038010Y-71776612D01*
X92033670Y-71780418D01*
X92033666Y-71780421D01*
X91934548Y-71867346D01*
X91885392Y-71910455D01*
X91881817Y-71914990D01*
X91881816Y-71914991D01*
X91868728Y-71931593D01*
X91759720Y-72069869D01*
X91757031Y-72074980D01*
X91757029Y-72074983D01*
X91752473Y-72083643D01*
X91665203Y-72249515D01*
X91605007Y-72443378D01*
X91581148Y-72644964D01*
X91591609Y-72804569D01*
X91593183Y-72828580D01*
X91594424Y-72847522D01*
X91595845Y-72853118D01*
X91595846Y-72853123D01*
X91637739Y-73018072D01*
X91644392Y-73044269D01*
X91646809Y-73049512D01*
X91681747Y-73125299D01*
X91729377Y-73228616D01*
X91732710Y-73233332D01*
X91833529Y-73375988D01*
X91846533Y-73394389D01*
X91991938Y-73536035D01*
X91996742Y-73539245D01*
X92058769Y-73580690D01*
X92160720Y-73648812D01*
X92166023Y-73651090D01*
X92166026Y-73651092D01*
X92254707Y-73689192D01*
X92347228Y-73728942D01*
X92420244Y-73745464D01*
X92539579Y-73772467D01*
X92539584Y-73772468D01*
X92545216Y-73773742D01*
X92550987Y-73773969D01*
X92550989Y-73773969D01*
X92610756Y-73776317D01*
X92748053Y-73781712D01*
X92848499Y-73767148D01*
X92943231Y-73753413D01*
X92943236Y-73753412D01*
X92948945Y-73752584D01*
X92954409Y-73750729D01*
X92954414Y-73750728D01*
X93135693Y-73689192D01*
X93135698Y-73689190D01*
X93141165Y-73687334D01*
X93318276Y-73588147D01*
X93323239Y-73584020D01*
X93469913Y-73462031D01*
X93474345Y-73458345D01*
X93542841Y-73375988D01*
X93600453Y-73306718D01*
X93600455Y-73306715D01*
X93604147Y-73302276D01*
X93703334Y-73125165D01*
X93728745Y-73050306D01*
X93736061Y-73033078D01*
X93741898Y-73021754D01*
X93741898Y-73021753D01*
X93744732Y-73016256D01*
X93747290Y-73007347D01*
X93793298Y-72847089D01*
X93793303Y-72847069D01*
X93793538Y-72846252D01*
X93797027Y-72832736D01*
X93797304Y-72831530D01*
X93800017Y-72818105D01*
X93827962Y-72658172D01*
X93829607Y-72647441D01*
X93829736Y-72646463D01*
X93830945Y-72635504D01*
X93843938Y-72489334D01*
X93844389Y-72483519D01*
X93844423Y-72483006D01*
X93844731Y-72477458D01*
X93850734Y-72343447D01*
X93850807Y-72342004D01*
X93854919Y-72268943D01*
X93857184Y-72228720D01*
X93858055Y-72219414D01*
X93858280Y-72217704D01*
X93864974Y-72166685D01*
X93869535Y-72131926D01*
X93872744Y-72115759D01*
X93892135Y-72043270D01*
X93899069Y-72023866D01*
X93932699Y-71949579D01*
X93942685Y-71931593D01*
X94003636Y-71840276D01*
X94014376Y-71826389D01*
X94086328Y-71745663D01*
X94146585Y-71708119D01*
X94180388Y-71703500D01*
X94329240Y-71703500D01*
X94397361Y-71723502D01*
X94443854Y-71777158D01*
X94453958Y-71847432D01*
X94423979Y-71909341D01*
X94425392Y-71910455D01*
X94299720Y-72069869D01*
X94297031Y-72074980D01*
X94297029Y-72074983D01*
X94292473Y-72083643D01*
X94205203Y-72249515D01*
X94145007Y-72443378D01*
X94121148Y-72644964D01*
X94131609Y-72804569D01*
X94133183Y-72828580D01*
X94134424Y-72847522D01*
X94135845Y-72853118D01*
X94135846Y-72853123D01*
X94177739Y-73018072D01*
X94184392Y-73044269D01*
X94186809Y-73049512D01*
X94221747Y-73125299D01*
X94269377Y-73228616D01*
X94376397Y-73380046D01*
X94380449Y-73385780D01*
X94403430Y-73452954D01*
X94386445Y-73521889D01*
X94334888Y-73570699D01*
X94277552Y-73584500D01*
X93999882Y-73584500D01*
X93988900Y-73584020D01*
X93961825Y-73581651D01*
X93961824Y-73581651D01*
X93950840Y-73580690D01*
X93940193Y-73583543D01*
X93940191Y-73583543D01*
X93913930Y-73590580D01*
X93903199Y-73592959D01*
X93876419Y-73597681D01*
X93876418Y-73597681D01*
X93865566Y-73599595D01*
X93856021Y-73605106D01*
X93852567Y-73606363D01*
X93849244Y-73607913D01*
X93838599Y-73610765D01*
X93829571Y-73617086D01*
X93829572Y-73617086D01*
X93807294Y-73632685D01*
X93798024Y-73638590D01*
X93774483Y-73652181D01*
X93774479Y-73652184D01*
X93764934Y-73657695D01*
X93757848Y-73666140D01*
X93740370Y-73686970D01*
X93732942Y-73695075D01*
X93680048Y-73747969D01*
X93660894Y-73762813D01*
X93661091Y-73763082D01*
X93656093Y-73766737D01*
X93650761Y-73769884D01*
X93637533Y-73781712D01*
X93527491Y-73880104D01*
X93514026Y-73890593D01*
X93422119Y-73952664D01*
X93404667Y-73962526D01*
X93329809Y-73997288D01*
X93310880Y-74004296D01*
X93238377Y-74024701D01*
X93222431Y-74028093D01*
X93135771Y-74040732D01*
X93126419Y-74041741D01*
X93085581Y-74044611D01*
X93014619Y-74049597D01*
X93013049Y-74049697D01*
X92880447Y-74057250D01*
X92880039Y-74057277D01*
X92879964Y-74057282D01*
X92876755Y-74057498D01*
X92875260Y-74057598D01*
X92874780Y-74057635D01*
X92869334Y-74058112D01*
X92869001Y-74058145D01*
X92868944Y-74058150D01*
X92724877Y-74072314D01*
X92724843Y-74072318D01*
X92724189Y-74072382D01*
X92717072Y-74073226D01*
X92714594Y-74073519D01*
X92714579Y-74073521D01*
X92713895Y-74073602D01*
X92712973Y-74073730D01*
X92708011Y-74074523D01*
X92703093Y-74075308D01*
X92703041Y-74075317D01*
X92702508Y-74075402D01*
X92701999Y-74075494D01*
X92701946Y-74075503D01*
X92544216Y-74104008D01*
X92544183Y-74104014D01*
X92543488Y-74104140D01*
X92542777Y-74104287D01*
X92542758Y-74104291D01*
X92531295Y-74106666D01*
X92531279Y-74106670D01*
X92530519Y-74106827D01*
X92529365Y-74107097D01*
X92528633Y-74107288D01*
X92528602Y-74107296D01*
X92523357Y-74108667D01*
X92516403Y-74110485D01*
X92412980Y-74140389D01*
X92410647Y-74141038D01*
X92408603Y-74141586D01*
X92402910Y-74142564D01*
X92397490Y-74144563D01*
X92397193Y-74144643D01*
X92389329Y-74147226D01*
X92350926Y-74158331D01*
X92350920Y-74158333D01*
X92347251Y-74159394D01*
X92289544Y-74183970D01*
X92289517Y-74183908D01*
X92281833Y-74187232D01*
X92212463Y-74212824D01*
X92038010Y-74316612D01*
X92033670Y-74320418D01*
X92033666Y-74320421D01*
X91934548Y-74407346D01*
X91885392Y-74450455D01*
X91881817Y-74454990D01*
X91881816Y-74454991D01*
X91868728Y-74471593D01*
X91759720Y-74609869D01*
X91757031Y-74614980D01*
X91757029Y-74614983D01*
X91752473Y-74623643D01*
X91665203Y-74789515D01*
X91605007Y-74983378D01*
X91581148Y-75184964D01*
X91594424Y-75387522D01*
X91595845Y-75393118D01*
X91595846Y-75393123D01*
X91637493Y-75557104D01*
X91644392Y-75584269D01*
X91646809Y-75589512D01*
X91681747Y-75665299D01*
X91729377Y-75768616D01*
X91732710Y-75773332D01*
X91823492Y-75901786D01*
X91846533Y-75934389D01*
X91850675Y-75938424D01*
X91922864Y-76008747D01*
X91991938Y-76076035D01*
X92160720Y-76188812D01*
X92166023Y-76191090D01*
X92166026Y-76191092D01*
X92254707Y-76229192D01*
X92347228Y-76268942D01*
X92420244Y-76285464D01*
X92539579Y-76312467D01*
X92539584Y-76312468D01*
X92545216Y-76313742D01*
X92550987Y-76313969D01*
X92550989Y-76313969D01*
X92610756Y-76316317D01*
X92748053Y-76321712D01*
X92848499Y-76307148D01*
X92943231Y-76293413D01*
X92943236Y-76293412D01*
X92948945Y-76292584D01*
X92954409Y-76290729D01*
X92954414Y-76290728D01*
X93135693Y-76229192D01*
X93135698Y-76229190D01*
X93141165Y-76227334D01*
X93318276Y-76128147D01*
X93332365Y-76116430D01*
X93461838Y-76008747D01*
X93474345Y-75998345D01*
X93560972Y-75894188D01*
X93600453Y-75846718D01*
X93600455Y-75846715D01*
X93604147Y-75842276D01*
X93703334Y-75665165D01*
X93728745Y-75590306D01*
X93736061Y-75573078D01*
X93741898Y-75561754D01*
X93741898Y-75561753D01*
X93744732Y-75556256D01*
X93746520Y-75550029D01*
X93793298Y-75387089D01*
X93793303Y-75387069D01*
X93793538Y-75386252D01*
X93797027Y-75372736D01*
X93797304Y-75371530D01*
X93800017Y-75358105D01*
X93827962Y-75198172D01*
X93829607Y-75187441D01*
X93829736Y-75186463D01*
X93830945Y-75175504D01*
X93843938Y-75029334D01*
X93844039Y-75028040D01*
X93844375Y-75023694D01*
X93844389Y-75023519D01*
X93844423Y-75023006D01*
X93844731Y-75017458D01*
X93850734Y-74883447D01*
X93850807Y-74882004D01*
X93852873Y-74845296D01*
X93857184Y-74768720D01*
X93858055Y-74759414D01*
X93858280Y-74757704D01*
X93864974Y-74706685D01*
X93869535Y-74671926D01*
X93872744Y-74655759D01*
X93892135Y-74583270D01*
X93899069Y-74563866D01*
X93932699Y-74489579D01*
X93942685Y-74471593D01*
X94003636Y-74380276D01*
X94014376Y-74366389D01*
X94086328Y-74285663D01*
X94146585Y-74248119D01*
X94180388Y-74243500D01*
X94329240Y-74243500D01*
X94397361Y-74263502D01*
X94443854Y-74317158D01*
X94453958Y-74387432D01*
X94423979Y-74449341D01*
X94425392Y-74450455D01*
X94299720Y-74609869D01*
X94297031Y-74614980D01*
X94297029Y-74614983D01*
X94292473Y-74623643D01*
X94205203Y-74789515D01*
X94145007Y-74983378D01*
X94121148Y-75184964D01*
X94134424Y-75387522D01*
X94135845Y-75393118D01*
X94135846Y-75393123D01*
X94177493Y-75557104D01*
X94184392Y-75584269D01*
X94186809Y-75589512D01*
X94221747Y-75665299D01*
X94269377Y-75768616D01*
X94272710Y-75773332D01*
X94363492Y-75901786D01*
X94386533Y-75934389D01*
X94390675Y-75938424D01*
X94462864Y-76008747D01*
X94531938Y-76076035D01*
X94700720Y-76188812D01*
X94706023Y-76191090D01*
X94706026Y-76191092D01*
X94794707Y-76229192D01*
X94887228Y-76268942D01*
X94960244Y-76285464D01*
X95079579Y-76312467D01*
X95079584Y-76312468D01*
X95085216Y-76313742D01*
X95090987Y-76313969D01*
X95090989Y-76313969D01*
X95150756Y-76316317D01*
X95288053Y-76321712D01*
X95388499Y-76307148D01*
X95483231Y-76293413D01*
X95483236Y-76293412D01*
X95488945Y-76292584D01*
X95494409Y-76290729D01*
X95494414Y-76290728D01*
X95634919Y-76243032D01*
X95681165Y-76227334D01*
X95686201Y-76224514D01*
X95686205Y-76224512D01*
X95706121Y-76213359D01*
X95722189Y-76206379D01*
X95722117Y-76206213D01*
X95727795Y-76203764D01*
X95733693Y-76201881D01*
X95767588Y-76183127D01*
X95829385Y-76148934D01*
X95887405Y-76116831D01*
X95888051Y-76116451D01*
X95888088Y-76116430D01*
X95898443Y-76110340D01*
X95898459Y-76110330D01*
X95899155Y-76109921D01*
X95900203Y-76109267D01*
X95911698Y-76101662D01*
X95916100Y-76098579D01*
X96043287Y-76009489D01*
X96043290Y-76009487D01*
X96043818Y-76009117D01*
X96052503Y-76002761D01*
X96053279Y-76002168D01*
X96061799Y-75995369D01*
X96173774Y-75902098D01*
X96177918Y-75898572D01*
X96178300Y-75898240D01*
X96178526Y-75898039D01*
X96178583Y-75897989D01*
X96182357Y-75894634D01*
X96182371Y-75894622D01*
X96182619Y-75894401D01*
X96182801Y-75894235D01*
X96182854Y-75894188D01*
X96281120Y-75804866D01*
X96282234Y-75803866D01*
X96366291Y-75729265D01*
X96373522Y-75723313D01*
X96443044Y-75670295D01*
X96456741Y-75661198D01*
X96521265Y-75624174D01*
X96539822Y-75615450D01*
X96540127Y-75615336D01*
X96615691Y-75587066D01*
X96635356Y-75581479D01*
X96742440Y-75560268D01*
X96759740Y-75558072D01*
X96837253Y-75553646D01*
X96923757Y-75548708D01*
X96929332Y-75547349D01*
X96929344Y-75547347D01*
X96930413Y-75547086D01*
X96933904Y-75546666D01*
X96935014Y-75546501D01*
X96935019Y-75546533D01*
X96960258Y-75543500D01*
X104875678Y-75543500D01*
X104904397Y-75546817D01*
X104906552Y-75547321D01*
X104906557Y-75547322D01*
X104912586Y-75548733D01*
X104946088Y-75549860D01*
X104956118Y-75550599D01*
X104973298Y-75552559D01*
X104984957Y-75554448D01*
X104991494Y-75555824D01*
X105003506Y-75558980D01*
X105006612Y-75559961D01*
X105016955Y-75563738D01*
X105024703Y-75566957D01*
X105031564Y-75570051D01*
X105050003Y-75579038D01*
X105052484Y-75580280D01*
X105082306Y-75595642D01*
X105085609Y-75597314D01*
X105085672Y-75597345D01*
X105085717Y-75597368D01*
X105121855Y-75615336D01*
X105121888Y-75615352D01*
X105122117Y-75615466D01*
X105122448Y-75615626D01*
X105126818Y-75617741D01*
X105126886Y-75617773D01*
X105127129Y-75617891D01*
X105127573Y-75618100D01*
X105132409Y-75620316D01*
X105138572Y-75623064D01*
X105173158Y-75638487D01*
X105173196Y-75638504D01*
X105173623Y-75638694D01*
X105180541Y-75641660D01*
X105181163Y-75641916D01*
X105184330Y-75643167D01*
X105187602Y-75644460D01*
X105187653Y-75644480D01*
X105188036Y-75644631D01*
X105188466Y-75644794D01*
X105188482Y-75644800D01*
X105225441Y-75658795D01*
X105225448Y-75658797D01*
X105228849Y-75660085D01*
X105232379Y-75660973D01*
X105232378Y-75660973D01*
X105286820Y-75674673D01*
X105286812Y-75674706D01*
X105296590Y-75677159D01*
X105328510Y-75687132D01*
X105472998Y-75689780D01*
X105482711Y-75687132D01*
X105603763Y-75654130D01*
X105603765Y-75654129D01*
X105612422Y-75651769D01*
X105735572Y-75576154D01*
X105746811Y-75563738D01*
X105826526Y-75475670D01*
X105832551Y-75469014D01*
X105864055Y-75403988D01*
X105891645Y-75347043D01*
X105891645Y-75347042D01*
X105895560Y-75338962D01*
X105919536Y-75196453D01*
X105919688Y-75184000D01*
X105899201Y-75040948D01*
X105893921Y-75029334D01*
X105850868Y-74934645D01*
X105839388Y-74909395D01*
X105833530Y-74902596D01*
X105833527Y-74902592D01*
X105750916Y-74806718D01*
X105750913Y-74806716D01*
X105745056Y-74799918D01*
X105679928Y-74757704D01*
X105631324Y-74726200D01*
X105631322Y-74726199D01*
X105623790Y-74721317D01*
X105568201Y-74704692D01*
X105493938Y-74682482D01*
X105493936Y-74682482D01*
X105485337Y-74679910D01*
X105476363Y-74679855D01*
X105476361Y-74679855D01*
X105413082Y-74679469D01*
X105340827Y-74679028D01*
X105332196Y-74681495D01*
X105332194Y-74681495D01*
X105210510Y-74716272D01*
X105210508Y-74716273D01*
X105201879Y-74718739D01*
X105156490Y-74747378D01*
X105138448Y-74756814D01*
X105122106Y-74763743D01*
X105089320Y-74786046D01*
X105084541Y-74789376D01*
X105084115Y-74789680D01*
X105083756Y-74789942D01*
X105083712Y-74789974D01*
X105083496Y-74790132D01*
X105079436Y-74793098D01*
X105079080Y-74793364D01*
X105079060Y-74793379D01*
X105065093Y-74803825D01*
X105045450Y-74818515D01*
X105043191Y-74820224D01*
X105043008Y-74820364D01*
X105040942Y-74821961D01*
X105040709Y-74822143D01*
X105012556Y-74844133D01*
X105011239Y-74845148D01*
X105000966Y-74852956D01*
X104929593Y-74878548D01*
X104911215Y-74879259D01*
X104902243Y-74881316D01*
X104874097Y-74884500D01*
X96959918Y-74884500D01*
X96935922Y-74881443D01*
X96935866Y-74881801D01*
X96929755Y-74880845D01*
X96923759Y-74879292D01*
X96917577Y-74878939D01*
X96901848Y-74878041D01*
X96759733Y-74869927D01*
X96742439Y-74867731D01*
X96635355Y-74846519D01*
X96615691Y-74840933D01*
X96539820Y-74812548D01*
X96521265Y-74803825D01*
X96456741Y-74766801D01*
X96443044Y-74757704D01*
X96373530Y-74704692D01*
X96366299Y-74698741D01*
X96282221Y-74624122D01*
X96281107Y-74623121D01*
X96182854Y-74533811D01*
X96182801Y-74533764D01*
X96182619Y-74533598D01*
X96182357Y-74533365D01*
X96178583Y-74530010D01*
X96178526Y-74529960D01*
X96178300Y-74529759D01*
X96177918Y-74529427D01*
X96173774Y-74525901D01*
X96173490Y-74525664D01*
X96173353Y-74525549D01*
X96102238Y-74466313D01*
X96062698Y-74407346D01*
X96061315Y-74336363D01*
X96098529Y-74275901D01*
X96162523Y-74245155D01*
X96182880Y-74243500D01*
X106660118Y-74243500D01*
X106671100Y-74243980D01*
X106698175Y-74246349D01*
X106698176Y-74246349D01*
X106709160Y-74247310D01*
X106719807Y-74244457D01*
X106719809Y-74244457D01*
X106746070Y-74237420D01*
X106756801Y-74235041D01*
X106783581Y-74230319D01*
X106783582Y-74230319D01*
X106794434Y-74228405D01*
X106803979Y-74222894D01*
X106807433Y-74221637D01*
X106810757Y-74220087D01*
X106821401Y-74217235D01*
X106830427Y-74210915D01*
X106830429Y-74210914D01*
X106852700Y-74195319D01*
X106861971Y-74189413D01*
X106885515Y-74175820D01*
X106885518Y-74175818D01*
X106895066Y-74170305D01*
X106904222Y-74159394D01*
X106919624Y-74141038D01*
X106927050Y-74132933D01*
X107541580Y-73518404D01*
X107603892Y-73484379D01*
X107630675Y-73481500D01*
X110809327Y-73481500D01*
X110877448Y-73501502D01*
X110898422Y-73518405D01*
X111073422Y-73693405D01*
X111107448Y-73755717D01*
X111102383Y-73826532D01*
X111059836Y-73883368D01*
X110993316Y-73908179D01*
X110984327Y-73908500D01*
X109346000Y-73908500D01*
X109342654Y-73908860D01*
X109342649Y-73908860D01*
X109294205Y-73914068D01*
X109294199Y-73914069D01*
X109290841Y-73914430D01*
X109238499Y-73925816D01*
X109211709Y-73933166D01*
X109204858Y-73937067D01*
X109204856Y-73937068D01*
X109177468Y-73952664D01*
X109123722Y-73983269D01*
X109119046Y-73987321D01*
X109073353Y-74026914D01*
X109070066Y-74029762D01*
X109037944Y-74063051D01*
X108991013Y-74152770D01*
X108989270Y-74158706D01*
X108972513Y-74215777D01*
X108971011Y-74220891D01*
X108970371Y-74225339D01*
X108970370Y-74225346D01*
X108961139Y-74289552D01*
X108960500Y-74294000D01*
X108960500Y-74793501D01*
X108960860Y-74796847D01*
X108960860Y-74796852D01*
X108965986Y-74844528D01*
X108966430Y-74848660D01*
X108967148Y-74851960D01*
X108967148Y-74851961D01*
X108969108Y-74860971D01*
X108977816Y-74901002D01*
X108978261Y-74902624D01*
X108978262Y-74902628D01*
X108982361Y-74917569D01*
X108985166Y-74927792D01*
X108989067Y-74934643D01*
X108989068Y-74934645D01*
X109032206Y-75010400D01*
X109035269Y-75015779D01*
X109039321Y-75020455D01*
X109039325Y-75020461D01*
X109045892Y-75028040D01*
X109075384Y-75092621D01*
X109074246Y-75135128D01*
X109071500Y-75148933D01*
X109071501Y-75499066D01*
X109081052Y-75547086D01*
X109081516Y-75549419D01*
X109081516Y-75598579D01*
X109071500Y-75648933D01*
X109071501Y-75999066D01*
X109081516Y-76049418D01*
X109081516Y-76098578D01*
X109071500Y-76148933D01*
X109071501Y-76321712D01*
X109071501Y-76368499D01*
X109051499Y-76436620D01*
X108997844Y-76483113D01*
X108945501Y-76494500D01*
X108361882Y-76494500D01*
X108350900Y-76494020D01*
X108323825Y-76491651D01*
X108323824Y-76491651D01*
X108312840Y-76490690D01*
X108302193Y-76493543D01*
X108302191Y-76493543D01*
X108275930Y-76500580D01*
X108265199Y-76502959D01*
X108238419Y-76507681D01*
X108238418Y-76507681D01*
X108227566Y-76509595D01*
X108218021Y-76515106D01*
X108214567Y-76516363D01*
X108211243Y-76517913D01*
X108200599Y-76520765D01*
X108191573Y-76527085D01*
X108191571Y-76527086D01*
X108169300Y-76542681D01*
X108160029Y-76548587D01*
X108136485Y-76562180D01*
X108136482Y-76562182D01*
X108126934Y-76567695D01*
X108102360Y-76596981D01*
X108094945Y-76605072D01*
X96539753Y-88160264D01*
X96477441Y-88194290D01*
X96406626Y-88189225D01*
X96349790Y-88146678D01*
X96324979Y-88080158D01*
X96325962Y-88053088D01*
X96337180Y-87975724D01*
X96337180Y-87975719D01*
X96337712Y-87972053D01*
X96339232Y-87914000D01*
X96320658Y-87711859D01*
X96314447Y-87689835D01*
X96267125Y-87522046D01*
X96267124Y-87522044D01*
X96265557Y-87516487D01*
X96254978Y-87495033D01*
X96178331Y-87339609D01*
X96175776Y-87334428D01*
X96054320Y-87171779D01*
X95948544Y-87074000D01*
X95909503Y-87037911D01*
X95905258Y-87033987D01*
X95900375Y-87030906D01*
X95900371Y-87030903D01*
X95738464Y-86928748D01*
X95733581Y-86925667D01*
X95545039Y-86850446D01*
X95539379Y-86849320D01*
X95539375Y-86849319D01*
X95351613Y-86811971D01*
X95351610Y-86811971D01*
X95345946Y-86810844D01*
X95340171Y-86810768D01*
X95340167Y-86810768D01*
X95238793Y-86809441D01*
X95142971Y-86808187D01*
X95137274Y-86809166D01*
X95137273Y-86809166D01*
X94950574Y-86841247D01*
X94942910Y-86842564D01*
X94752463Y-86912824D01*
X94578010Y-87016612D01*
X94573670Y-87020418D01*
X94573666Y-87020421D01*
X94434047Y-87142865D01*
X94425392Y-87150455D01*
X94299720Y-87309869D01*
X94297031Y-87314980D01*
X94297029Y-87314983D01*
X94284073Y-87339609D01*
X94205203Y-87489515D01*
X94145007Y-87683378D01*
X94121148Y-87884964D01*
X94134424Y-88087522D01*
X94135845Y-88093118D01*
X94135846Y-88093123D01*
X94164918Y-88207591D01*
X94184392Y-88284269D01*
X94186809Y-88289512D01*
X94266958Y-88463370D01*
X94266959Y-88463371D01*
X94269377Y-88468616D01*
X94270661Y-88470433D01*
X94287125Y-88538307D01*
X94263903Y-88605399D01*
X94208095Y-88649285D01*
X94150286Y-88657829D01*
X94125840Y-88655690D01*
X94115193Y-88658543D01*
X94115191Y-88658543D01*
X94088930Y-88665580D01*
X94078199Y-88667959D01*
X94051419Y-88672681D01*
X94051418Y-88672681D01*
X94040566Y-88674595D01*
X94031021Y-88680106D01*
X94027567Y-88681363D01*
X94024244Y-88682913D01*
X94013599Y-88685765D01*
X94004571Y-88692086D01*
X94004572Y-88692086D01*
X93982294Y-88707685D01*
X93973024Y-88713590D01*
X93949483Y-88727181D01*
X93949479Y-88727184D01*
X93939934Y-88732695D01*
X93932846Y-88741142D01*
X93915376Y-88761962D01*
X93907950Y-88770066D01*
X93680246Y-88997770D01*
X93661113Y-89012580D01*
X93661326Y-89012872D01*
X93656329Y-89016517D01*
X93650993Y-89019658D01*
X93590854Y-89073301D01*
X93528389Y-89129018D01*
X93514605Y-89139696D01*
X93423885Y-89200419D01*
X93406043Y-89210367D01*
X93332304Y-89243953D01*
X93313023Y-89250901D01*
X93241219Y-89270346D01*
X93225101Y-89273600D01*
X93138455Y-89285269D01*
X93129153Y-89286171D01*
X93016970Y-89292859D01*
X93015506Y-89292937D01*
X92992532Y-89294032D01*
X92882801Y-89299264D01*
X92882732Y-89299268D01*
X92882496Y-89299279D01*
X92876912Y-89299606D01*
X92876407Y-89299641D01*
X92876075Y-89299668D01*
X92876043Y-89299670D01*
X92873603Y-89299866D01*
X92870799Y-89300091D01*
X92725664Y-89313317D01*
X92725015Y-89313390D01*
X92724993Y-89313392D01*
X92715603Y-89314445D01*
X92715594Y-89314446D01*
X92714935Y-89314520D01*
X92713967Y-89314649D01*
X92703228Y-89316310D01*
X92577246Y-89338502D01*
X92545228Y-89344142D01*
X92545221Y-89344143D01*
X92544360Y-89344295D01*
X92543515Y-89344467D01*
X92543495Y-89344471D01*
X92531669Y-89346881D01*
X92531648Y-89346886D01*
X92530797Y-89347059D01*
X92529593Y-89347338D01*
X92520225Y-89349769D01*
X92517259Y-89350538D01*
X92517249Y-89350541D01*
X92516454Y-89350747D01*
X92500257Y-89355405D01*
X92416791Y-89379408D01*
X92414162Y-89380010D01*
X92414183Y-89380090D01*
X92408599Y-89381586D01*
X92402910Y-89382564D01*
X92396964Y-89384758D01*
X92388186Y-89387634D01*
X92372455Y-89392158D01*
X92347624Y-89399299D01*
X92289733Y-89423877D01*
X92289713Y-89423831D01*
X92281898Y-89427208D01*
X92217882Y-89450824D01*
X92217874Y-89450828D01*
X92212463Y-89452824D01*
X92038010Y-89556612D01*
X92033670Y-89560418D01*
X92033666Y-89560421D01*
X91924282Y-89656349D01*
X91885392Y-89690455D01*
X91759720Y-89849869D01*
X91665203Y-90029515D01*
X91605007Y-90223378D01*
X91581148Y-90424964D01*
X91581526Y-90430730D01*
X91593486Y-90613203D01*
X91594424Y-90627522D01*
X91595845Y-90633118D01*
X91595846Y-90633123D01*
X91601433Y-90655120D01*
X91644392Y-90824269D01*
X91646809Y-90829512D01*
X91684010Y-90910208D01*
X91729377Y-91008616D01*
X91732710Y-91013332D01*
X91835281Y-91158467D01*
X91846533Y-91174389D01*
X91991938Y-91316035D01*
X92160720Y-91428812D01*
X92166023Y-91431090D01*
X92166026Y-91431092D01*
X92341921Y-91506662D01*
X92347228Y-91508942D01*
X92412330Y-91523673D01*
X92539579Y-91552467D01*
X92539584Y-91552468D01*
X92545216Y-91553742D01*
X92550987Y-91553969D01*
X92550989Y-91553969D01*
X92610756Y-91556317D01*
X92748053Y-91561712D01*
X92848499Y-91547148D01*
X92943231Y-91533413D01*
X92943236Y-91533412D01*
X92948945Y-91532584D01*
X92954409Y-91530729D01*
X92954414Y-91530728D01*
X93135693Y-91469192D01*
X93135698Y-91469190D01*
X93141165Y-91467334D01*
X93154049Y-91460119D01*
X93241171Y-91411328D01*
X93318276Y-91368147D01*
X93326489Y-91361317D01*
X93469913Y-91242031D01*
X93474345Y-91238345D01*
X93543563Y-91155120D01*
X93600453Y-91086718D01*
X93600455Y-91086715D01*
X93604147Y-91082276D01*
X93703334Y-90905165D01*
X93705190Y-90899698D01*
X93705192Y-90899693D01*
X93728704Y-90830427D01*
X93736047Y-90813147D01*
X93741862Y-90801879D01*
X93741865Y-90801872D01*
X93744702Y-90796374D01*
X93793253Y-90627545D01*
X93796661Y-90614407D01*
X93796940Y-90613203D01*
X93799704Y-90599640D01*
X93808551Y-90549419D01*
X93827580Y-90441391D01*
X93827583Y-90441373D01*
X93827689Y-90440771D01*
X93829350Y-90430032D01*
X93829479Y-90429064D01*
X93830682Y-90418335D01*
X93843908Y-90273200D01*
X93844358Y-90267592D01*
X93844393Y-90267087D01*
X93844720Y-90261504D01*
X93851057Y-90128587D01*
X93851137Y-90127090D01*
X93857827Y-90014854D01*
X93858731Y-90005533D01*
X93858785Y-90005137D01*
X93870399Y-89918897D01*
X93873653Y-89902780D01*
X93893098Y-89830976D01*
X93900046Y-89811695D01*
X93933632Y-89737956D01*
X93943576Y-89720119D01*
X94004310Y-89629383D01*
X94014976Y-89615615D01*
X94124340Y-89493008D01*
X94127903Y-89487148D01*
X94130117Y-89484330D01*
X94130738Y-89483491D01*
X94130762Y-89483509D01*
X94146468Y-89463516D01*
X94254579Y-89355405D01*
X94316891Y-89321379D01*
X94343674Y-89318500D01*
X94520020Y-89318500D01*
X94588141Y-89338502D01*
X94634634Y-89392158D01*
X94644738Y-89462432D01*
X94615244Y-89527012D01*
X94587573Y-89550165D01*
X94587646Y-89550265D01*
X94586189Y-89551323D01*
X94584442Y-89552786D01*
X94578010Y-89556612D01*
X94573670Y-89560418D01*
X94573666Y-89560421D01*
X94464282Y-89656349D01*
X94425392Y-89690455D01*
X94299720Y-89849869D01*
X94205203Y-90029515D01*
X94145007Y-90223378D01*
X94121148Y-90424964D01*
X94121526Y-90430730D01*
X94133486Y-90613203D01*
X94134424Y-90627522D01*
X94135845Y-90633118D01*
X94135846Y-90633123D01*
X94141433Y-90655120D01*
X94184392Y-90824269D01*
X94186809Y-90829512D01*
X94224010Y-90910208D01*
X94269377Y-91008616D01*
X94372110Y-91153980D01*
X94380449Y-91165780D01*
X94403430Y-91232954D01*
X94386445Y-91301889D01*
X94334888Y-91350699D01*
X94277552Y-91364500D01*
X93921900Y-91364500D01*
X93911541Y-91368270D01*
X93911538Y-91368271D01*
X93904752Y-91370741D01*
X93883538Y-91376426D01*
X93865566Y-91379595D01*
X93856021Y-91385106D01*
X93856020Y-91385106D01*
X93849756Y-91388722D01*
X93829855Y-91398002D01*
X93812709Y-91404243D01*
X93798731Y-91415972D01*
X93780747Y-91428566D01*
X93764934Y-91437695D01*
X93757847Y-91446141D01*
X93753203Y-91451675D01*
X93737674Y-91467204D01*
X93732139Y-91471848D01*
X93732137Y-91471850D01*
X93723695Y-91478934D01*
X93718185Y-91488477D01*
X93718182Y-91488481D01*
X93714570Y-91494738D01*
X93701972Y-91512730D01*
X93690242Y-91526709D01*
X93689613Y-91526181D01*
X93682285Y-91535732D01*
X93680249Y-91537768D01*
X93661115Y-91552579D01*
X93661328Y-91552870D01*
X93656325Y-91556519D01*
X93650993Y-91559658D01*
X93646376Y-91563776D01*
X93646375Y-91563777D01*
X93528389Y-91669018D01*
X93514605Y-91679696D01*
X93423885Y-91740419D01*
X93406043Y-91750367D01*
X93332304Y-91783953D01*
X93313023Y-91790901D01*
X93241219Y-91810346D01*
X93225101Y-91813600D01*
X93138455Y-91825269D01*
X93129153Y-91826171D01*
X93016970Y-91832859D01*
X93015506Y-91832937D01*
X92992532Y-91834032D01*
X92882801Y-91839264D01*
X92882732Y-91839268D01*
X92882496Y-91839279D01*
X92876912Y-91839606D01*
X92876407Y-91839641D01*
X92876075Y-91839668D01*
X92876043Y-91839670D01*
X92873603Y-91839866D01*
X92870799Y-91840091D01*
X92725664Y-91853317D01*
X92725015Y-91853390D01*
X92724993Y-91853392D01*
X92715603Y-91854445D01*
X92715594Y-91854446D01*
X92714935Y-91854520D01*
X92713967Y-91854649D01*
X92703228Y-91856310D01*
X92571329Y-91879544D01*
X92545228Y-91884142D01*
X92545221Y-91884143D01*
X92544360Y-91884295D01*
X92543515Y-91884467D01*
X92543495Y-91884471D01*
X92531669Y-91886881D01*
X92531648Y-91886886D01*
X92530797Y-91887059D01*
X92529593Y-91887338D01*
X92520225Y-91889769D01*
X92517259Y-91890538D01*
X92517249Y-91890541D01*
X92516454Y-91890747D01*
X92421468Y-91918063D01*
X92416791Y-91919408D01*
X92414162Y-91920010D01*
X92414183Y-91920090D01*
X92408599Y-91921586D01*
X92402910Y-91922564D01*
X92396964Y-91924758D01*
X92388186Y-91927634D01*
X92351313Y-91938238D01*
X92347624Y-91939299D01*
X92289733Y-91963877D01*
X92289713Y-91963831D01*
X92281898Y-91967208D01*
X92217882Y-91990824D01*
X92217874Y-91990828D01*
X92212463Y-91992824D01*
X92038010Y-92096612D01*
X92033670Y-92100418D01*
X92033666Y-92100421D01*
X91892803Y-92223956D01*
X91885392Y-92230455D01*
X91881817Y-92234990D01*
X91881816Y-92234991D01*
X91869393Y-92250750D01*
X91759720Y-92389869D01*
X91757031Y-92394980D01*
X91757029Y-92394983D01*
X91723402Y-92458897D01*
X91665203Y-92569515D01*
X91605007Y-92763378D01*
X91581148Y-92964964D01*
X91583383Y-92999066D01*
X91593486Y-93153203D01*
X91594424Y-93167522D01*
X91595845Y-93173118D01*
X91595846Y-93173123D01*
X91642971Y-93358674D01*
X91644392Y-93364269D01*
X91646809Y-93369512D01*
X91684010Y-93450208D01*
X91729377Y-93548616D01*
X91732710Y-93553332D01*
X91838517Y-93703046D01*
X91846533Y-93714389D01*
X91991938Y-93856035D01*
X92160720Y-93968812D01*
X92166023Y-93971090D01*
X92166026Y-93971092D01*
X92254707Y-94009192D01*
X92347228Y-94048942D01*
X92401074Y-94061126D01*
X92539579Y-94092467D01*
X92539584Y-94092468D01*
X92545216Y-94093742D01*
X92550987Y-94093969D01*
X92550989Y-94093969D01*
X92610756Y-94096317D01*
X92748053Y-94101712D01*
X92848499Y-94087148D01*
X92943231Y-94073413D01*
X92943236Y-94073412D01*
X92948945Y-94072584D01*
X92954409Y-94070729D01*
X92954414Y-94070728D01*
X93135693Y-94009192D01*
X93135698Y-94009190D01*
X93141165Y-94007334D01*
X93166975Y-93992880D01*
X93238748Y-93952685D01*
X93318276Y-93908147D01*
X93323239Y-93904020D01*
X93469913Y-93782031D01*
X93474345Y-93778345D01*
X93536971Y-93703046D01*
X93600453Y-93626718D01*
X93600455Y-93626715D01*
X93604147Y-93622276D01*
X93703334Y-93445165D01*
X93705190Y-93439698D01*
X93705192Y-93439693D01*
X93728704Y-93370427D01*
X93736047Y-93353147D01*
X93741862Y-93341879D01*
X93741865Y-93341872D01*
X93744702Y-93336374D01*
X93793253Y-93167545D01*
X93796661Y-93154407D01*
X93796940Y-93153203D01*
X93799704Y-93139640D01*
X93806937Y-93098579D01*
X93827580Y-92981391D01*
X93827583Y-92981373D01*
X93827689Y-92980771D01*
X93829350Y-92970032D01*
X93829479Y-92969064D01*
X93830682Y-92958335D01*
X93843908Y-92813200D01*
X93844358Y-92807592D01*
X93844393Y-92807087D01*
X93844720Y-92801504D01*
X93844889Y-92797966D01*
X93851057Y-92668587D01*
X93851137Y-92667090D01*
X93856124Y-92583433D01*
X93857828Y-92554849D01*
X93858731Y-92545533D01*
X93859988Y-92536205D01*
X93870399Y-92458897D01*
X93873653Y-92442780D01*
X93893098Y-92370976D01*
X93900046Y-92351695D01*
X93933632Y-92277956D01*
X93943576Y-92260119D01*
X94004310Y-92169383D01*
X94014984Y-92155606D01*
X94017785Y-92152466D01*
X94095244Y-92065627D01*
X94155515Y-92028106D01*
X94189272Y-92023500D01*
X94329240Y-92023500D01*
X94397361Y-92043502D01*
X94443854Y-92097158D01*
X94453958Y-92167432D01*
X94423979Y-92229341D01*
X94425392Y-92230455D01*
X94299720Y-92389869D01*
X94297031Y-92394980D01*
X94297029Y-92394983D01*
X94263402Y-92458897D01*
X94205203Y-92569515D01*
X94145007Y-92763378D01*
X94121148Y-92964964D01*
X94123383Y-92999066D01*
X94133486Y-93153203D01*
X94134424Y-93167522D01*
X94135845Y-93173118D01*
X94135846Y-93173123D01*
X94182971Y-93358674D01*
X94184392Y-93364269D01*
X94186809Y-93369512D01*
X94224010Y-93450208D01*
X94269377Y-93548616D01*
X94321435Y-93622276D01*
X94380449Y-93705780D01*
X94403430Y-93772954D01*
X94386445Y-93841889D01*
X94334888Y-93890699D01*
X94277552Y-93904500D01*
X94009882Y-93904500D01*
X93998900Y-93904020D01*
X93971825Y-93901651D01*
X93971824Y-93901651D01*
X93960840Y-93900690D01*
X93950193Y-93903543D01*
X93950191Y-93903543D01*
X93923930Y-93910580D01*
X93913199Y-93912959D01*
X93886419Y-93917681D01*
X93886418Y-93917681D01*
X93875566Y-93919595D01*
X93866021Y-93925106D01*
X93862567Y-93926363D01*
X93859244Y-93927913D01*
X93848599Y-93930765D01*
X93839571Y-93937086D01*
X93839572Y-93937086D01*
X93817294Y-93952685D01*
X93808024Y-93958590D01*
X93784483Y-93972181D01*
X93784479Y-93972184D01*
X93774934Y-93977695D01*
X93767846Y-93986142D01*
X93750376Y-94006962D01*
X93742950Y-94015066D01*
X93680246Y-94077770D01*
X93661113Y-94092580D01*
X93661326Y-94092872D01*
X93656329Y-94096517D01*
X93650993Y-94099658D01*
X93646373Y-94103779D01*
X93528389Y-94209018D01*
X93514605Y-94219696D01*
X93423885Y-94280419D01*
X93406043Y-94290367D01*
X93332304Y-94323953D01*
X93313023Y-94330901D01*
X93241219Y-94350346D01*
X93225101Y-94353600D01*
X93138455Y-94365269D01*
X93129153Y-94366171D01*
X93016970Y-94372859D01*
X93015506Y-94372937D01*
X92992532Y-94374033D01*
X92882801Y-94379264D01*
X92882732Y-94379268D01*
X92882496Y-94379279D01*
X92876912Y-94379606D01*
X92876407Y-94379641D01*
X92876075Y-94379668D01*
X92876043Y-94379670D01*
X92873603Y-94379866D01*
X92870799Y-94380091D01*
X92725664Y-94393317D01*
X92725015Y-94393390D01*
X92724993Y-94393392D01*
X92715603Y-94394445D01*
X92715594Y-94394446D01*
X92714935Y-94394520D01*
X92713967Y-94394649D01*
X92703228Y-94396310D01*
X92571329Y-94419544D01*
X92545228Y-94424142D01*
X92545221Y-94424143D01*
X92544360Y-94424295D01*
X92543515Y-94424467D01*
X92543495Y-94424471D01*
X92531669Y-94426881D01*
X92531648Y-94426886D01*
X92530797Y-94427059D01*
X92529593Y-94427338D01*
X92520225Y-94429769D01*
X92517259Y-94430538D01*
X92517249Y-94430541D01*
X92516454Y-94430747D01*
X92439324Y-94452928D01*
X92416791Y-94459408D01*
X92414162Y-94460010D01*
X92414183Y-94460090D01*
X92408599Y-94461586D01*
X92402910Y-94462564D01*
X92396964Y-94464758D01*
X92388186Y-94467634D01*
X92351313Y-94478238D01*
X92347624Y-94479299D01*
X92289733Y-94503877D01*
X92289713Y-94503831D01*
X92281898Y-94507208D01*
X92217882Y-94530824D01*
X92217874Y-94530828D01*
X92212463Y-94532824D01*
X92038010Y-94636612D01*
X92033670Y-94640418D01*
X92033666Y-94640421D01*
X91889733Y-94766648D01*
X91885392Y-94770455D01*
X91759720Y-94929869D01*
X91757031Y-94934980D01*
X91757029Y-94934983D01*
X91744073Y-94959609D01*
X91665203Y-95109515D01*
X91605007Y-95303378D01*
X91581148Y-95504964D01*
X89916500Y-95504964D01*
X89916500Y-87884964D01*
X91581148Y-87884964D01*
X91594424Y-88087522D01*
X91595845Y-88093118D01*
X91595846Y-88093123D01*
X91624918Y-88207591D01*
X91644392Y-88284269D01*
X91646809Y-88289512D01*
X91697521Y-88399515D01*
X91729377Y-88468616D01*
X91732710Y-88473332D01*
X91812952Y-88586872D01*
X91846533Y-88634389D01*
X91850675Y-88638424D01*
X91880994Y-88667959D01*
X91991938Y-88776035D01*
X92160720Y-88888812D01*
X92166023Y-88891090D01*
X92166026Y-88891092D01*
X92254707Y-88929192D01*
X92347228Y-88968942D01*
X92420244Y-88985464D01*
X92539579Y-89012467D01*
X92539584Y-89012468D01*
X92545216Y-89013742D01*
X92550987Y-89013969D01*
X92550989Y-89013969D01*
X92610756Y-89016317D01*
X92748053Y-89021712D01*
X92862369Y-89005137D01*
X92943231Y-88993413D01*
X92943236Y-88993412D01*
X92948945Y-88992584D01*
X92954409Y-88990729D01*
X92954414Y-88990728D01*
X93135693Y-88929192D01*
X93135698Y-88929190D01*
X93141165Y-88927334D01*
X93152758Y-88920842D01*
X93294884Y-88841247D01*
X93318276Y-88828147D01*
X93323263Y-88824000D01*
X93469913Y-88702031D01*
X93474345Y-88698345D01*
X93577181Y-88574699D01*
X93600453Y-88546718D01*
X93600455Y-88546715D01*
X93604147Y-88542276D01*
X93669144Y-88426215D01*
X93700510Y-88370208D01*
X93700511Y-88370206D01*
X93703334Y-88365165D01*
X93705190Y-88359698D01*
X93705192Y-88359693D01*
X93766728Y-88178414D01*
X93766729Y-88178409D01*
X93768584Y-88172945D01*
X93769412Y-88167236D01*
X93769413Y-88167231D01*
X93793795Y-87999066D01*
X93797712Y-87972053D01*
X93799232Y-87914000D01*
X93780658Y-87711859D01*
X93774447Y-87689835D01*
X93727125Y-87522046D01*
X93727124Y-87522044D01*
X93725557Y-87516487D01*
X93714978Y-87495033D01*
X93638331Y-87339609D01*
X93635776Y-87334428D01*
X93514320Y-87171779D01*
X93408544Y-87074000D01*
X93369503Y-87037911D01*
X93365258Y-87033987D01*
X93360375Y-87030906D01*
X93360371Y-87030903D01*
X93198464Y-86928748D01*
X93193581Y-86925667D01*
X93005039Y-86850446D01*
X92999379Y-86849320D01*
X92999375Y-86849319D01*
X92811613Y-86811971D01*
X92811610Y-86811971D01*
X92805946Y-86810844D01*
X92800171Y-86810768D01*
X92800167Y-86810768D01*
X92698793Y-86809441D01*
X92602971Y-86808187D01*
X92597274Y-86809166D01*
X92597273Y-86809166D01*
X92410574Y-86841247D01*
X92402910Y-86842564D01*
X92212463Y-86912824D01*
X92038010Y-87016612D01*
X92033670Y-87020418D01*
X92033666Y-87020421D01*
X91894047Y-87142865D01*
X91885392Y-87150455D01*
X91759720Y-87309869D01*
X91757031Y-87314980D01*
X91757029Y-87314983D01*
X91744073Y-87339609D01*
X91665203Y-87489515D01*
X91605007Y-87683378D01*
X91581148Y-87884964D01*
X89916500Y-87884964D01*
X89916500Y-85344964D01*
X91581148Y-85344964D01*
X91594424Y-85547522D01*
X91595845Y-85553118D01*
X91595846Y-85553123D01*
X91636296Y-85712393D01*
X91644392Y-85744269D01*
X91646809Y-85749512D01*
X91684010Y-85830208D01*
X91729377Y-85928616D01*
X91737364Y-85939918D01*
X91833288Y-86075647D01*
X91846533Y-86094389D01*
X91991938Y-86236035D01*
X92160720Y-86348812D01*
X92166023Y-86351090D01*
X92166026Y-86351092D01*
X92325158Y-86419460D01*
X92347228Y-86428942D01*
X92420244Y-86445464D01*
X92539579Y-86472467D01*
X92539584Y-86472468D01*
X92545216Y-86473742D01*
X92550987Y-86473969D01*
X92550989Y-86473969D01*
X92610756Y-86476317D01*
X92748053Y-86481712D01*
X92848499Y-86467148D01*
X92943231Y-86453413D01*
X92943236Y-86453412D01*
X92948945Y-86452584D01*
X92954409Y-86450729D01*
X92954414Y-86450728D01*
X93135693Y-86389192D01*
X93135698Y-86389190D01*
X93141165Y-86387334D01*
X93178903Y-86366200D01*
X93246842Y-86328152D01*
X93318276Y-86288147D01*
X93324209Y-86283213D01*
X93469913Y-86162031D01*
X93474345Y-86158345D01*
X93543913Y-86074699D01*
X93600453Y-86006718D01*
X93600455Y-86006715D01*
X93604147Y-86002276D01*
X93680353Y-85866200D01*
X93700510Y-85830208D01*
X93700511Y-85830206D01*
X93703334Y-85825165D01*
X93705190Y-85819698D01*
X93705192Y-85819693D01*
X93766728Y-85638414D01*
X93766729Y-85638409D01*
X93768584Y-85632945D01*
X93769412Y-85627236D01*
X93769413Y-85627231D01*
X93797179Y-85435727D01*
X93797712Y-85432053D01*
X93799232Y-85374000D01*
X93796564Y-85344964D01*
X94121148Y-85344964D01*
X94134424Y-85547522D01*
X94135845Y-85553118D01*
X94135846Y-85553123D01*
X94176296Y-85712393D01*
X94184392Y-85744269D01*
X94186809Y-85749512D01*
X94224010Y-85830208D01*
X94269377Y-85928616D01*
X94277364Y-85939918D01*
X94373288Y-86075647D01*
X94386533Y-86094389D01*
X94531938Y-86236035D01*
X94700720Y-86348812D01*
X94706023Y-86351090D01*
X94706026Y-86351092D01*
X94865158Y-86419460D01*
X94887228Y-86428942D01*
X94960244Y-86445464D01*
X95079579Y-86472467D01*
X95079584Y-86472468D01*
X95085216Y-86473742D01*
X95090987Y-86473969D01*
X95090989Y-86473969D01*
X95150756Y-86476317D01*
X95288053Y-86481712D01*
X95388499Y-86467148D01*
X95483231Y-86453413D01*
X95483236Y-86453412D01*
X95488945Y-86452584D01*
X95494409Y-86450729D01*
X95494414Y-86450728D01*
X95675693Y-86389192D01*
X95675698Y-86389190D01*
X95681165Y-86387334D01*
X95718903Y-86366200D01*
X95786842Y-86328152D01*
X95858276Y-86288147D01*
X95864209Y-86283213D01*
X96009913Y-86162031D01*
X96014345Y-86158345D01*
X96083913Y-86074699D01*
X96140453Y-86006718D01*
X96140455Y-86006715D01*
X96144147Y-86002276D01*
X96220353Y-85866200D01*
X96240510Y-85830208D01*
X96240511Y-85830206D01*
X96243334Y-85825165D01*
X96245190Y-85819698D01*
X96245192Y-85819693D01*
X96306728Y-85638414D01*
X96306729Y-85638409D01*
X96308584Y-85632945D01*
X96309412Y-85627236D01*
X96309413Y-85627231D01*
X96337179Y-85435727D01*
X96337712Y-85432053D01*
X96339232Y-85374000D01*
X96320658Y-85171859D01*
X96315937Y-85155120D01*
X96267125Y-84982046D01*
X96267124Y-84982044D01*
X96265557Y-84976487D01*
X96254978Y-84955033D01*
X96178331Y-84799609D01*
X96175776Y-84794428D01*
X96164630Y-84779501D01*
X96072667Y-84656349D01*
X96054320Y-84631779D01*
X95905258Y-84493987D01*
X95900375Y-84490906D01*
X95900371Y-84490903D01*
X95738464Y-84388748D01*
X95733581Y-84385667D01*
X95545039Y-84310446D01*
X95539379Y-84309320D01*
X95539375Y-84309319D01*
X95351613Y-84271971D01*
X95351610Y-84271971D01*
X95345946Y-84270844D01*
X95340171Y-84270768D01*
X95340167Y-84270768D01*
X95238793Y-84269441D01*
X95142971Y-84268187D01*
X95137274Y-84269166D01*
X95137273Y-84269166D01*
X94948607Y-84301585D01*
X94942910Y-84302564D01*
X94752463Y-84372824D01*
X94578010Y-84476612D01*
X94573670Y-84480418D01*
X94573666Y-84480421D01*
X94469401Y-84571860D01*
X94425392Y-84610455D01*
X94299720Y-84769869D01*
X94297031Y-84774980D01*
X94297029Y-84774983D01*
X94284073Y-84799609D01*
X94205203Y-84949515D01*
X94145007Y-85143378D01*
X94121148Y-85344964D01*
X93796564Y-85344964D01*
X93780658Y-85171859D01*
X93775937Y-85155120D01*
X93727125Y-84982046D01*
X93727124Y-84982044D01*
X93725557Y-84976487D01*
X93714978Y-84955033D01*
X93638331Y-84799609D01*
X93635776Y-84794428D01*
X93624630Y-84779501D01*
X93532667Y-84656349D01*
X93514320Y-84631779D01*
X93365258Y-84493987D01*
X93360375Y-84490906D01*
X93360371Y-84490903D01*
X93198464Y-84388748D01*
X93193581Y-84385667D01*
X93005039Y-84310446D01*
X92999379Y-84309320D01*
X92999375Y-84309319D01*
X92811613Y-84271971D01*
X92811610Y-84271971D01*
X92805946Y-84270844D01*
X92800171Y-84270768D01*
X92800167Y-84270768D01*
X92698793Y-84269441D01*
X92602971Y-84268187D01*
X92597274Y-84269166D01*
X92597273Y-84269166D01*
X92408607Y-84301585D01*
X92402910Y-84302564D01*
X92212463Y-84372824D01*
X92038010Y-84476612D01*
X92033670Y-84480418D01*
X92033666Y-84480421D01*
X91929401Y-84571860D01*
X91885392Y-84610455D01*
X91759720Y-84769869D01*
X91757031Y-84774980D01*
X91757029Y-84774983D01*
X91744073Y-84799609D01*
X91665203Y-84949515D01*
X91605007Y-85143378D01*
X91581148Y-85344964D01*
X89916500Y-85344964D01*
X89916500Y-82804964D01*
X91581148Y-82804964D01*
X91594424Y-83007522D01*
X91595845Y-83013118D01*
X91595846Y-83013123D01*
X91631910Y-83155123D01*
X91644392Y-83204269D01*
X91646809Y-83209512D01*
X91712409Y-83351809D01*
X91729377Y-83388616D01*
X91732710Y-83393332D01*
X91807436Y-83499067D01*
X91846533Y-83554389D01*
X91991938Y-83696035D01*
X91996742Y-83699245D01*
X92040524Y-83728499D01*
X92160720Y-83808812D01*
X92166023Y-83811090D01*
X92166026Y-83811092D01*
X92254707Y-83849192D01*
X92347228Y-83888942D01*
X92420244Y-83905464D01*
X92539579Y-83932467D01*
X92539584Y-83932468D01*
X92545216Y-83933742D01*
X92550987Y-83933969D01*
X92550989Y-83933969D01*
X92610756Y-83936317D01*
X92748053Y-83941712D01*
X92848499Y-83927148D01*
X92943231Y-83913413D01*
X92943236Y-83913412D01*
X92948945Y-83912584D01*
X92954409Y-83910729D01*
X92954414Y-83910728D01*
X93135693Y-83849192D01*
X93135698Y-83849190D01*
X93141165Y-83847334D01*
X93174798Y-83828499D01*
X93249051Y-83786915D01*
X93318276Y-83748147D01*
X93343644Y-83727049D01*
X93469913Y-83622031D01*
X93474345Y-83618345D01*
X93544369Y-83534151D01*
X93600453Y-83466718D01*
X93600455Y-83466715D01*
X93604147Y-83462276D01*
X93703334Y-83285165D01*
X93705190Y-83279698D01*
X93705192Y-83279693D01*
X93766728Y-83098414D01*
X93766729Y-83098409D01*
X93768584Y-83092945D01*
X93769412Y-83087236D01*
X93769413Y-83087231D01*
X93797179Y-82895727D01*
X93797712Y-82892053D01*
X93799232Y-82834000D01*
X93796564Y-82804964D01*
X94121148Y-82804964D01*
X94134424Y-83007522D01*
X94135845Y-83013118D01*
X94135846Y-83013123D01*
X94171910Y-83155123D01*
X94184392Y-83204269D01*
X94186809Y-83209512D01*
X94252409Y-83351809D01*
X94269377Y-83388616D01*
X94272710Y-83393332D01*
X94347436Y-83499067D01*
X94386533Y-83554389D01*
X94531938Y-83696035D01*
X94536742Y-83699245D01*
X94580524Y-83728499D01*
X94700720Y-83808812D01*
X94706023Y-83811090D01*
X94706026Y-83811092D01*
X94794707Y-83849192D01*
X94887228Y-83888942D01*
X94960244Y-83905464D01*
X95079579Y-83932467D01*
X95079584Y-83932468D01*
X95085216Y-83933742D01*
X95090987Y-83933969D01*
X95090989Y-83933969D01*
X95150756Y-83936317D01*
X95288053Y-83941712D01*
X95388499Y-83927148D01*
X95483231Y-83913413D01*
X95483236Y-83913412D01*
X95488945Y-83912584D01*
X95494409Y-83910729D01*
X95494414Y-83910728D01*
X95675693Y-83849192D01*
X95675698Y-83849190D01*
X95681165Y-83847334D01*
X95714798Y-83828499D01*
X95789051Y-83786915D01*
X95858276Y-83748147D01*
X95883644Y-83727049D01*
X96009913Y-83622031D01*
X96014345Y-83618345D01*
X96084369Y-83534151D01*
X96140453Y-83466718D01*
X96140455Y-83466715D01*
X96144147Y-83462276D01*
X96243334Y-83285165D01*
X96245190Y-83279698D01*
X96245192Y-83279693D01*
X96306728Y-83098414D01*
X96306729Y-83098409D01*
X96308584Y-83092945D01*
X96309412Y-83087236D01*
X96309413Y-83087231D01*
X96337179Y-82895727D01*
X96337712Y-82892053D01*
X96339232Y-82834000D01*
X96320658Y-82631859D01*
X96319090Y-82626299D01*
X96267125Y-82442046D01*
X96267124Y-82442044D01*
X96265557Y-82436487D01*
X96254978Y-82415033D01*
X96178331Y-82259609D01*
X96175776Y-82254428D01*
X96054320Y-82091779D01*
X95905258Y-81953987D01*
X95900375Y-81950906D01*
X95900371Y-81950903D01*
X95738464Y-81848748D01*
X95733581Y-81845667D01*
X95545039Y-81770446D01*
X95539379Y-81769320D01*
X95539375Y-81769319D01*
X95351613Y-81731971D01*
X95351610Y-81731971D01*
X95345946Y-81730844D01*
X95340171Y-81730768D01*
X95340167Y-81730768D01*
X95238793Y-81729441D01*
X95142971Y-81728187D01*
X95137274Y-81729166D01*
X95137273Y-81729166D01*
X94979620Y-81756256D01*
X94942910Y-81762564D01*
X94752463Y-81832824D01*
X94578010Y-81936612D01*
X94573670Y-81940418D01*
X94573666Y-81940421D01*
X94553723Y-81957911D01*
X94425392Y-82070455D01*
X94299720Y-82229869D01*
X94297031Y-82234980D01*
X94297029Y-82234983D01*
X94284073Y-82259609D01*
X94205203Y-82409515D01*
X94145007Y-82603378D01*
X94121148Y-82804964D01*
X93796564Y-82804964D01*
X93780658Y-82631859D01*
X93779090Y-82626299D01*
X93727125Y-82442046D01*
X93727124Y-82442044D01*
X93725557Y-82436487D01*
X93714978Y-82415033D01*
X93638331Y-82259609D01*
X93635776Y-82254428D01*
X93514320Y-82091779D01*
X93365258Y-81953987D01*
X93360375Y-81950906D01*
X93360371Y-81950903D01*
X93198464Y-81848748D01*
X93193581Y-81845667D01*
X93005039Y-81770446D01*
X92999379Y-81769320D01*
X92999375Y-81769319D01*
X92811613Y-81731971D01*
X92811610Y-81731971D01*
X92805946Y-81730844D01*
X92800171Y-81730768D01*
X92800167Y-81730768D01*
X92698793Y-81729441D01*
X92602971Y-81728187D01*
X92597274Y-81729166D01*
X92597273Y-81729166D01*
X92439620Y-81756256D01*
X92402910Y-81762564D01*
X92212463Y-81832824D01*
X92038010Y-81936612D01*
X92033670Y-81940418D01*
X92033666Y-81940421D01*
X92013723Y-81957911D01*
X91885392Y-82070455D01*
X91759720Y-82229869D01*
X91757031Y-82234980D01*
X91757029Y-82234983D01*
X91744073Y-82259609D01*
X91665203Y-82409515D01*
X91605007Y-82603378D01*
X91581148Y-82804964D01*
X89916500Y-82804964D01*
X89916500Y-80264964D01*
X91581148Y-80264964D01*
X91594424Y-80467522D01*
X91595845Y-80473118D01*
X91595846Y-80473123D01*
X91615223Y-80549418D01*
X91644392Y-80664269D01*
X91646809Y-80669512D01*
X91684010Y-80750208D01*
X91729377Y-80848616D01*
X91732710Y-80853332D01*
X91839992Y-81005133D01*
X91846533Y-81014389D01*
X91850675Y-81018424D01*
X91912186Y-81078345D01*
X91991938Y-81156035D01*
X92160720Y-81268812D01*
X92166023Y-81271090D01*
X92166026Y-81271092D01*
X92254707Y-81309192D01*
X92347228Y-81348942D01*
X92420244Y-81365464D01*
X92539579Y-81392467D01*
X92539584Y-81392468D01*
X92545216Y-81393742D01*
X92550987Y-81393969D01*
X92550989Y-81393969D01*
X92610756Y-81396317D01*
X92748053Y-81401712D01*
X92848499Y-81387148D01*
X92943231Y-81373413D01*
X92943236Y-81373412D01*
X92948945Y-81372584D01*
X92954409Y-81370729D01*
X92954414Y-81370728D01*
X93135693Y-81309192D01*
X93135698Y-81309190D01*
X93141165Y-81307334D01*
X93318276Y-81208147D01*
X93358153Y-81174982D01*
X93469913Y-81082031D01*
X93474345Y-81078345D01*
X93604147Y-80922276D01*
X93703334Y-80745165D01*
X93705190Y-80739698D01*
X93705192Y-80739693D01*
X93766728Y-80558414D01*
X93766729Y-80558409D01*
X93768584Y-80552945D01*
X93769412Y-80547236D01*
X93769413Y-80547231D01*
X93791958Y-80391736D01*
X93797712Y-80352053D01*
X93799232Y-80294000D01*
X93796564Y-80264964D01*
X94121148Y-80264964D01*
X94134424Y-80467522D01*
X94135845Y-80473118D01*
X94135846Y-80473123D01*
X94155223Y-80549418D01*
X94184392Y-80664269D01*
X94186809Y-80669512D01*
X94224010Y-80750208D01*
X94269377Y-80848616D01*
X94272710Y-80853332D01*
X94379992Y-81005133D01*
X94386533Y-81014389D01*
X94390675Y-81018424D01*
X94452186Y-81078345D01*
X94531938Y-81156035D01*
X94700720Y-81268812D01*
X94706023Y-81271090D01*
X94706026Y-81271092D01*
X94794707Y-81309192D01*
X94887228Y-81348942D01*
X94960244Y-81365464D01*
X95079579Y-81392467D01*
X95079584Y-81392468D01*
X95085216Y-81393742D01*
X95090987Y-81393969D01*
X95090989Y-81393969D01*
X95150756Y-81396317D01*
X95288053Y-81401712D01*
X95388499Y-81387148D01*
X95483231Y-81373413D01*
X95483236Y-81373412D01*
X95488945Y-81372584D01*
X95494409Y-81370729D01*
X95494414Y-81370728D01*
X95675693Y-81309192D01*
X95675698Y-81309190D01*
X95681165Y-81307334D01*
X95858276Y-81208147D01*
X95898153Y-81174982D01*
X96009913Y-81082031D01*
X96014345Y-81078345D01*
X96144147Y-80922276D01*
X96243334Y-80745165D01*
X96245190Y-80739698D01*
X96245192Y-80739693D01*
X96306728Y-80558414D01*
X96306729Y-80558409D01*
X96308584Y-80552945D01*
X96309412Y-80547236D01*
X96309413Y-80547231D01*
X96331958Y-80391736D01*
X96337712Y-80352053D01*
X96339232Y-80294000D01*
X96325345Y-80142865D01*
X96321187Y-80097613D01*
X96321186Y-80097610D01*
X96320658Y-80091859D01*
X96315424Y-80073301D01*
X96267125Y-79902046D01*
X96267124Y-79902044D01*
X96265557Y-79896487D01*
X96254978Y-79875033D01*
X96178331Y-79719609D01*
X96175776Y-79714428D01*
X96054320Y-79551779D01*
X95979789Y-79482883D01*
X95909503Y-79417911D01*
X95905258Y-79413987D01*
X95900375Y-79410906D01*
X95900371Y-79410903D01*
X95738464Y-79308748D01*
X95733581Y-79305667D01*
X95545039Y-79230446D01*
X95539379Y-79229320D01*
X95539375Y-79229319D01*
X95351613Y-79191971D01*
X95351610Y-79191971D01*
X95345946Y-79190844D01*
X95340171Y-79190768D01*
X95340167Y-79190768D01*
X95238793Y-79189441D01*
X95142971Y-79188187D01*
X95137274Y-79189166D01*
X95137273Y-79189166D01*
X94948607Y-79221585D01*
X94942910Y-79222564D01*
X94752463Y-79292824D01*
X94578010Y-79396612D01*
X94573670Y-79400418D01*
X94573666Y-79400421D01*
X94478793Y-79483623D01*
X94425392Y-79530455D01*
X94299720Y-79689869D01*
X94297031Y-79694980D01*
X94297029Y-79694983D01*
X94284073Y-79719609D01*
X94205203Y-79869515D01*
X94145007Y-80063378D01*
X94121148Y-80264964D01*
X93796564Y-80264964D01*
X93785345Y-80142865D01*
X93781187Y-80097613D01*
X93781186Y-80097610D01*
X93780658Y-80091859D01*
X93775424Y-80073301D01*
X93727125Y-79902046D01*
X93727124Y-79902044D01*
X93725557Y-79896487D01*
X93714978Y-79875033D01*
X93638331Y-79719609D01*
X93635776Y-79714428D01*
X93514320Y-79551779D01*
X93439789Y-79482883D01*
X93369503Y-79417911D01*
X93365258Y-79413987D01*
X93360375Y-79410906D01*
X93360371Y-79410903D01*
X93198464Y-79308748D01*
X93193581Y-79305667D01*
X93005039Y-79230446D01*
X92999379Y-79229320D01*
X92999375Y-79229319D01*
X92811613Y-79191971D01*
X92811610Y-79191971D01*
X92805946Y-79190844D01*
X92800171Y-79190768D01*
X92800167Y-79190768D01*
X92698793Y-79189441D01*
X92602971Y-79188187D01*
X92597274Y-79189166D01*
X92597273Y-79189166D01*
X92408607Y-79221585D01*
X92402910Y-79222564D01*
X92212463Y-79292824D01*
X92038010Y-79396612D01*
X92033670Y-79400418D01*
X92033666Y-79400421D01*
X91938793Y-79483623D01*
X91885392Y-79530455D01*
X91759720Y-79689869D01*
X91757031Y-79694980D01*
X91757029Y-79694983D01*
X91744073Y-79719609D01*
X91665203Y-79869515D01*
X91605007Y-80063378D01*
X91581148Y-80264964D01*
X89916500Y-80264964D01*
X89916500Y-77724964D01*
X91581148Y-77724964D01*
X91594424Y-77927522D01*
X91595845Y-77933118D01*
X91595846Y-77933123D01*
X91631625Y-78074000D01*
X91644392Y-78124269D01*
X91646809Y-78129512D01*
X91684010Y-78210208D01*
X91729377Y-78308616D01*
X91846533Y-78474389D01*
X91991938Y-78616035D01*
X92160720Y-78728812D01*
X92166023Y-78731090D01*
X92166026Y-78731092D01*
X92254707Y-78769192D01*
X92347228Y-78808942D01*
X92420244Y-78825464D01*
X92539579Y-78852467D01*
X92539584Y-78852468D01*
X92545216Y-78853742D01*
X92550987Y-78853969D01*
X92550989Y-78853969D01*
X92610756Y-78856317D01*
X92748053Y-78861712D01*
X92848499Y-78847148D01*
X92943231Y-78833413D01*
X92943236Y-78833412D01*
X92948945Y-78832584D01*
X92954409Y-78830729D01*
X92954414Y-78830728D01*
X93135693Y-78769192D01*
X93135698Y-78769190D01*
X93141165Y-78767334D01*
X93318276Y-78668147D01*
X93380934Y-78616035D01*
X93469913Y-78542031D01*
X93474345Y-78538345D01*
X93604147Y-78382276D01*
X93703334Y-78205165D01*
X93705190Y-78199698D01*
X93705192Y-78199693D01*
X93766728Y-78018414D01*
X93766729Y-78018409D01*
X93768584Y-78012945D01*
X93769412Y-78007236D01*
X93769413Y-78007231D01*
X93797179Y-77815727D01*
X93797712Y-77812053D01*
X93799232Y-77754000D01*
X93796564Y-77724964D01*
X94121148Y-77724964D01*
X94134424Y-77927522D01*
X94135845Y-77933118D01*
X94135846Y-77933123D01*
X94171625Y-78074000D01*
X94184392Y-78124269D01*
X94186809Y-78129512D01*
X94224010Y-78210208D01*
X94269377Y-78308616D01*
X94386533Y-78474389D01*
X94531938Y-78616035D01*
X94700720Y-78728812D01*
X94706023Y-78731090D01*
X94706026Y-78731092D01*
X94794707Y-78769192D01*
X94887228Y-78808942D01*
X94960244Y-78825464D01*
X95079579Y-78852467D01*
X95079584Y-78852468D01*
X95085216Y-78853742D01*
X95090987Y-78853969D01*
X95090989Y-78853969D01*
X95150756Y-78856317D01*
X95288053Y-78861712D01*
X95388499Y-78847148D01*
X95483231Y-78833413D01*
X95483236Y-78833412D01*
X95488945Y-78832584D01*
X95494409Y-78830729D01*
X95494414Y-78830728D01*
X95675693Y-78769192D01*
X95675698Y-78769190D01*
X95681165Y-78767334D01*
X95858276Y-78668147D01*
X95920934Y-78616035D01*
X96009913Y-78542031D01*
X96014345Y-78538345D01*
X96144147Y-78382276D01*
X96243334Y-78205165D01*
X96245190Y-78199698D01*
X96245192Y-78199693D01*
X96306728Y-78018414D01*
X96306729Y-78018409D01*
X96308584Y-78012945D01*
X96309412Y-78007236D01*
X96309413Y-78007231D01*
X96337179Y-77815727D01*
X96337712Y-77812053D01*
X96339232Y-77754000D01*
X96322757Y-77574699D01*
X96321187Y-77557613D01*
X96321186Y-77557610D01*
X96320658Y-77551859D01*
X96319090Y-77546299D01*
X96267125Y-77362046D01*
X96267124Y-77362044D01*
X96265557Y-77356487D01*
X96254978Y-77335033D01*
X96178331Y-77179609D01*
X96175776Y-77174428D01*
X96152211Y-77142870D01*
X96119136Y-77098578D01*
X96054320Y-77011779D01*
X95905258Y-76873987D01*
X95900375Y-76870906D01*
X95900371Y-76870903D01*
X95738464Y-76768748D01*
X95733581Y-76765667D01*
X95545039Y-76690446D01*
X95539379Y-76689320D01*
X95539375Y-76689319D01*
X95351613Y-76651971D01*
X95351610Y-76651971D01*
X95345946Y-76650844D01*
X95340171Y-76650768D01*
X95340167Y-76650768D01*
X95238793Y-76649441D01*
X95142971Y-76648187D01*
X95137274Y-76649166D01*
X95137273Y-76649166D01*
X95102606Y-76655123D01*
X94942910Y-76682564D01*
X94752463Y-76752824D01*
X94578010Y-76856612D01*
X94573670Y-76860418D01*
X94573666Y-76860421D01*
X94553723Y-76877911D01*
X94425392Y-76990455D01*
X94299720Y-77149869D01*
X94297031Y-77154980D01*
X94297029Y-77154983D01*
X94284073Y-77179609D01*
X94205203Y-77329515D01*
X94145007Y-77523378D01*
X94121148Y-77724964D01*
X93796564Y-77724964D01*
X93782757Y-77574699D01*
X93781187Y-77557613D01*
X93781186Y-77557610D01*
X93780658Y-77551859D01*
X93779090Y-77546299D01*
X93727125Y-77362046D01*
X93727124Y-77362044D01*
X93725557Y-77356487D01*
X93714978Y-77335033D01*
X93638331Y-77179609D01*
X93635776Y-77174428D01*
X93612211Y-77142870D01*
X93579136Y-77098578D01*
X93514320Y-77011779D01*
X93365258Y-76873987D01*
X93360375Y-76870906D01*
X93360371Y-76870903D01*
X93198464Y-76768748D01*
X93193581Y-76765667D01*
X93005039Y-76690446D01*
X92999379Y-76689320D01*
X92999375Y-76689319D01*
X92811613Y-76651971D01*
X92811610Y-76651971D01*
X92805946Y-76650844D01*
X92800171Y-76650768D01*
X92800167Y-76650768D01*
X92698793Y-76649441D01*
X92602971Y-76648187D01*
X92597274Y-76649166D01*
X92597273Y-76649166D01*
X92562606Y-76655123D01*
X92402910Y-76682564D01*
X92212463Y-76752824D01*
X92038010Y-76856612D01*
X92033670Y-76860418D01*
X92033666Y-76860421D01*
X92013723Y-76877911D01*
X91885392Y-76990455D01*
X91759720Y-77149869D01*
X91757031Y-77154980D01*
X91757029Y-77154983D01*
X91744073Y-77179609D01*
X91665203Y-77329515D01*
X91605007Y-77523378D01*
X91581148Y-77724964D01*
X89916500Y-77724964D01*
X89916500Y-58292500D01*
X89936502Y-58224379D01*
X89990158Y-58177886D01*
X90042500Y-58166500D01*
X119253500Y-58166500D01*
X119321621Y-58186502D01*
G37*
%TD.AperFunction*%
%TA.AperFunction,Conductor*%
G36*
X111089011Y-75642452D02*
G01*
X111095594Y-75648582D01*
X111209595Y-75762583D01*
X111243621Y-75824895D01*
X111246500Y-75851678D01*
X111246500Y-76074000D01*
X111246860Y-76077346D01*
X111246860Y-76077351D01*
X111251105Y-76116831D01*
X111252430Y-76129159D01*
X111263816Y-76181501D01*
X111271166Y-76208291D01*
X111275067Y-76215142D01*
X111275068Y-76215144D01*
X111305703Y-76268942D01*
X111321269Y-76296278D01*
X111367762Y-76349934D01*
X111401051Y-76382056D01*
X111490770Y-76428987D01*
X111496706Y-76430730D01*
X111554568Y-76447720D01*
X111554572Y-76447721D01*
X111558891Y-76448989D01*
X111563339Y-76449629D01*
X111563346Y-76449630D01*
X111627552Y-76458861D01*
X111627559Y-76458861D01*
X111632000Y-76459500D01*
X112320500Y-76459500D01*
X112388621Y-76479502D01*
X112435114Y-76533158D01*
X112446500Y-76585500D01*
X112446500Y-83123327D01*
X112426498Y-83191448D01*
X112409595Y-83212422D01*
X111664422Y-83957595D01*
X111602110Y-83991621D01*
X111575327Y-83994500D01*
X110853668Y-83994500D01*
X110783668Y-83973266D01*
X110725301Y-83934266D01*
X110725300Y-83934266D01*
X110725609Y-83933804D01*
X110678524Y-83895862D01*
X110656102Y-83828499D01*
X110673660Y-83759707D01*
X110722422Y-83714307D01*
X110725301Y-83713734D01*
X110735618Y-83706841D01*
X110735619Y-83706840D01*
X110799168Y-83664377D01*
X110809484Y-83657484D01*
X110865734Y-83573301D01*
X110880500Y-83499067D01*
X110880499Y-83148934D01*
X110870483Y-83098576D01*
X110870484Y-83049421D01*
X110880500Y-82999067D01*
X110880499Y-82648934D01*
X110870483Y-82598576D01*
X110870484Y-82549421D01*
X110880500Y-82499067D01*
X110880499Y-82148934D01*
X110870483Y-82098576D01*
X110870484Y-82049421D01*
X110880500Y-81999067D01*
X110880499Y-81648934D01*
X110870483Y-81598576D01*
X110870484Y-81549421D01*
X110880500Y-81499067D01*
X110880499Y-81148934D01*
X110870483Y-81098576D01*
X110870484Y-81049421D01*
X110880500Y-80999067D01*
X110880499Y-80648934D01*
X110870483Y-80598576D01*
X110870484Y-80549421D01*
X110880500Y-80499067D01*
X110880499Y-80148934D01*
X110870483Y-80098576D01*
X110870484Y-80049419D01*
X110880500Y-79999067D01*
X110880499Y-79648934D01*
X110865734Y-79574699D01*
X110809484Y-79490516D01*
X110795976Y-79481490D01*
X110735619Y-79441160D01*
X110735618Y-79441159D01*
X110725301Y-79434266D01*
X110725609Y-79433805D01*
X110678524Y-79395862D01*
X110656102Y-79328499D01*
X110673660Y-79259707D01*
X110722422Y-79214307D01*
X110725301Y-79213734D01*
X110735618Y-79206841D01*
X110735619Y-79206840D01*
X110799168Y-79164377D01*
X110809484Y-79157484D01*
X110865734Y-79073301D01*
X110880500Y-78999067D01*
X110880499Y-78648934D01*
X110870483Y-78598576D01*
X110870484Y-78549421D01*
X110880500Y-78499067D01*
X110880499Y-78148934D01*
X110870483Y-78098576D01*
X110870484Y-78049421D01*
X110880500Y-77999067D01*
X110880499Y-77648934D01*
X110870483Y-77598576D01*
X110870484Y-77549421D01*
X110880500Y-77499067D01*
X110880499Y-77148934D01*
X110870483Y-77098576D01*
X110870484Y-77049421D01*
X110880500Y-76999067D01*
X110880499Y-76648934D01*
X110870483Y-76598576D01*
X110870484Y-76549421D01*
X110880500Y-76499067D01*
X110880499Y-76148934D01*
X110870483Y-76098576D01*
X110870484Y-76049419D01*
X110880500Y-75999067D01*
X110880499Y-75737676D01*
X110900501Y-75669557D01*
X110954156Y-75623064D01*
X111024430Y-75612959D01*
X111089011Y-75642452D01*
G37*
%TD.AperFunction*%
%TD*%
M02*
