%TF.GenerationSoftware,KiCad,Pcbnew,(6.0.9)*%
%TF.CreationDate,2022-11-21T20:56:18+08:00*%
%TF.ProjectId,Sitronix_3.95''_480x480,53697472-6f6e-4697-985f-332e39352727,rev?*%
%TF.SameCoordinates,Original*%
%TF.FileFunction,Soldermask,Bot*%
%TF.FilePolarity,Negative*%
%FSLAX46Y46*%
G04 Gerber Fmt 4.6, Leading zero omitted, Abs format (unit mm)*
G04 Created by KiCad (PCBNEW (6.0.9)) date 2022-11-21 20:56:18*
%MOMM*%
%LPD*%
G01*
G04 APERTURE LIST*
%ADD10R,1.700000X1.700000*%
%ADD11O,1.700000X1.700000*%
G04 APERTURE END LIST*
D10*
%TO.C,J2*%
X90927000Y-72898000D03*
D11*
X93467000Y-72898000D03*
%TD*%
D10*
%TO.C,J1*%
X80538000Y-64800000D03*
D11*
X83078000Y-64800000D03*
X80538000Y-67340000D03*
X83078000Y-67340000D03*
X80538000Y-69880000D03*
X83078000Y-69880000D03*
X80538000Y-72420000D03*
X83078000Y-72420000D03*
X80538000Y-74960000D03*
X83078000Y-74960000D03*
X80538000Y-77500000D03*
X83078000Y-77500000D03*
X80538000Y-80040000D03*
X83078000Y-80040000D03*
X80538000Y-82580000D03*
X83078000Y-82580000D03*
X80538000Y-85120000D03*
X83078000Y-85120000D03*
X80538000Y-87660000D03*
X83078000Y-87660000D03*
X80538000Y-90200000D03*
X83078000Y-90200000D03*
X80538000Y-92740000D03*
X83078000Y-92740000D03*
X80538000Y-95280000D03*
X83078000Y-95280000D03*
X80538000Y-97820000D03*
X83078000Y-97820000D03*
X80538000Y-100360000D03*
X83078000Y-100360000D03*
X80538000Y-102900000D03*
X83078000Y-102900000D03*
X80538000Y-105440000D03*
X83078000Y-105440000D03*
X80538000Y-107980000D03*
X83078000Y-107980000D03*
X80538000Y-110520000D03*
X83078000Y-110520000D03*
X80538000Y-113060000D03*
X83078000Y-113060000D03*
%TD*%
M02*
