%TF.GenerationSoftware,KiCad,Pcbnew,(6.0.9)*%
%TF.CreationDate,2022-11-21T20:56:18+08:00*%
%TF.ProjectId,Sitronix_3.95''_480x480,53697472-6f6e-4697-985f-332e39352727,rev?*%
%TF.SameCoordinates,Original*%
%TF.FileFunction,Copper,L2,Bot*%
%TF.FilePolarity,Positive*%
%FSLAX46Y46*%
G04 Gerber Fmt 4.6, Leading zero omitted, Abs format (unit mm)*
G04 Created by KiCad (PCBNEW (6.0.9)) date 2022-11-21 20:56:18*
%MOMM*%
%LPD*%
G01*
G04 APERTURE LIST*
%TA.AperFunction,ComponentPad*%
%ADD10R,1.700000X1.700000*%
%TD*%
%TA.AperFunction,ComponentPad*%
%ADD11O,1.700000X1.700000*%
%TD*%
%TA.AperFunction,ViaPad*%
%ADD12C,0.800000*%
%TD*%
%TA.AperFunction,Conductor*%
%ADD13C,0.250000*%
%TD*%
G04 APERTURE END LIST*
D10*
%TO.P,J2,1,Pin_1*%
%TO.N,/LEDK*%
X90927000Y-72898000D03*
D11*
%TO.P,J2,2,Pin_2*%
%TO.N,/LEDA*%
X93467000Y-72898000D03*
%TD*%
D10*
%TO.P,J1,1,GND*%
%TO.N,/GND*%
X80538000Y-64800000D03*
D11*
%TO.P,J1,2,GND*%
X83078000Y-64800000D03*
%TO.P,J1,3,IO4*%
%TO.N,unconnected-(J1-Pad3)*%
X80538000Y-67340000D03*
%TO.P,J1,4,IO19*%
%TO.N,unconnected-(J1-Pad4)*%
X83078000Y-67340000D03*
%TO.P,J1,5,I2C_SDA*%
%TO.N,/TP_SDA*%
X80538000Y-69880000D03*
%TO.P,J1,6,IO20*%
%TO.N,unconnected-(J1-Pad6)*%
X83078000Y-69880000D03*
%TO.P,J1,7,I2C_SCL*%
%TO.N,/TP_SCL*%
X80538000Y-72420000D03*
%TO.P,J1,8,GND*%
%TO.N,/GND*%
X83078000Y-72420000D03*
%TO.P,J1,9,LCD_DE*%
%TO.N,/LCD_DE*%
X80538000Y-74960000D03*
%TO.P,J1,10,IO0*%
%TO.N,unconnected-(J1-Pad10)*%
X83078000Y-74960000D03*
%TO.P,J1,11,LCD_HSYNC*%
%TO.N,/LCD_HSYNC*%
X80538000Y-77500000D03*
%TO.P,J1,12,LCD_VSYNC*%
%TO.N,/LCD_VSYNC*%
X83078000Y-77500000D03*
%TO.P,J1,13,LCD_B3*%
%TO.N,/LCD_B3*%
X80538000Y-80040000D03*
%TO.P,J1,14,LCD_PCLK*%
%TO.N,/LCD_PCLK*%
X83078000Y-80040000D03*
%TO.P,J1,15,LCD_B5*%
%TO.N,/LCD_B5*%
X80538000Y-82580000D03*
%TO.P,J1,16,LCD_B4*%
%TO.N,/LCD_B4*%
X83078000Y-82580000D03*
%TO.P,J1,17,LCD_B7*%
%TO.N,/LCD_B7*%
X80538000Y-85120000D03*
%TO.P,J1,18,LCD_B6*%
%TO.N,/LCD_B6*%
X83078000Y-85120000D03*
%TO.P,J1,19,LCD_G3*%
%TO.N,/LCD_G3*%
X80538000Y-87660000D03*
%TO.P,J1,20,LCD_G2*%
%TO.N,/LCD_G2*%
X83078000Y-87660000D03*
%TO.P,J1,21,LCD_G5*%
%TO.N,/LCD_G5*%
X80538000Y-90200000D03*
%TO.P,J1,22,LCD_G4*%
%TO.N,/LCD_G4*%
X83078000Y-90200000D03*
%TO.P,J1,23,LCD_G6*%
%TO.N,/LCD_G6*%
X80538000Y-92740000D03*
%TO.P,J1,24,LCD_G7*%
%TO.N,/LCD_G7*%
X83078000Y-92740000D03*
%TO.P,J1,25,LCD_R3*%
%TO.N,/LCD_R3*%
X80538000Y-95280000D03*
%TO.P,J1,26,LCD_R4*%
%TO.N,/LCD_R4*%
X83078000Y-95280000D03*
%TO.P,J1,27,LCD_R5*%
%TO.N,/LCD_R5*%
X80538000Y-97820000D03*
%TO.P,J1,28,LCD_R6*%
%TO.N,/LCD_R6*%
X83078000Y-97820000D03*
%TO.P,J1,29,LCD_R7*%
%TO.N,/LCD_R7*%
X80538000Y-100360000D03*
%TO.P,J1,30,SPI_MOSI*%
%TO.N,/LCD_SDA*%
X83078000Y-100360000D03*
%TO.P,J1,31,SPI_CS*%
%TO.N,/LCD_CS*%
X80538000Y-102900000D03*
%TO.P,J1,32,SPI_SCK*%
%TO.N,/LCD_SCK*%
X83078000Y-102900000D03*
%TO.P,J1,33,GND*%
%TO.N,/GND*%
X80538000Y-105440000D03*
%TO.P,J1,34,GND*%
X83078000Y-105440000D03*
%TO.P,J1,35,VCC3.3V*%
%TO.N,/VCC3.3V*%
X80538000Y-107980000D03*
%TO.P,J1,36,VCC3.3V*%
X83078000Y-107980000D03*
%TO.P,J1,37,GND*%
%TO.N,/GND*%
X80538000Y-110520000D03*
%TO.P,J1,38,GND*%
X83078000Y-110520000D03*
%TO.P,J1,39,VCC5V*%
%TO.N,unconnected-(J1-Pad39)*%
X80538000Y-113060000D03*
%TO.P,J1,40,VCC5V*%
%TO.N,unconnected-(J1-Pad40)*%
X83078000Y-113060000D03*
%TD*%
D12*
%TO.N,/GND*%
X90932000Y-77724000D03*
X89281000Y-75946000D03*
X87757000Y-74295000D03*
X99568000Y-105283000D03*
X102108000Y-105283000D03*
X104648000Y-105283000D03*
X90043000Y-105156000D03*
X92583000Y-105156000D03*
X95123000Y-105156000D03*
X99314000Y-98171000D03*
X101981000Y-85852000D03*
X88138000Y-96901000D03*
X87122000Y-97917000D03*
X85852000Y-99060000D03*
X78867000Y-102616000D03*
X78867000Y-100076000D03*
X78867000Y-97536000D03*
X76708000Y-100076000D03*
X76708000Y-97536000D03*
X76708000Y-94996000D03*
X77597000Y-70358000D03*
X77597000Y-67818000D03*
X77597000Y-65278000D03*
X85979000Y-71374000D03*
X85979000Y-68834000D03*
X85979000Y-66294000D03*
X100203000Y-72263000D03*
X102743000Y-72263000D03*
X105283000Y-72263000D03*
X106045000Y-80518000D03*
X106045000Y-77978000D03*
X106045000Y-75438000D03*
X102870000Y-93980000D03*
X102870000Y-91440000D03*
X102870000Y-88900000D03*
X96393000Y-98171000D03*
X93853000Y-98171000D03*
X91313000Y-98171000D03*
%TO.N,/LCD_SCK*%
X101684000Y-81491000D03*
%TO.N,/LCD_CS*%
X101663500Y-82740500D03*
%TO.N,/LCD_SDA*%
X97790000Y-81026000D03*
%TO.N,/TP_SCL*%
X101468000Y-94991000D03*
%TO.N,/TP_SDA*%
X98298000Y-94488000D03*
%TO.N,/LCD_G5*%
X101564000Y-88991000D03*
%TO.N,/LCD_G3*%
X101580000Y-87991000D03*
%TO.N,/LCD_PCLK*%
X89057000Y-80040000D03*
%TD*%
D13*
%TO.N,/LCD_SDA*%
X97790000Y-81026000D02*
X100457000Y-83693000D01*
X99919000Y-100360000D02*
X83078000Y-100360000D01*
X100457000Y-83693000D02*
X103251000Y-83693000D01*
X103251000Y-83693000D02*
X103886000Y-84328000D01*
X103886000Y-84328000D02*
X103886000Y-96393000D01*
X103886000Y-96393000D02*
X99919000Y-100360000D01*
%TO.N,/LCD_CS*%
X101663500Y-82740500D02*
X103949500Y-82740500D01*
X103949500Y-82740500D02*
X104521000Y-83312000D01*
X104521000Y-96901000D02*
X99822000Y-101600000D01*
X104521000Y-83312000D02*
X104521000Y-96901000D01*
X99822000Y-101600000D02*
X81838000Y-101600000D01*
X81838000Y-101600000D02*
X80538000Y-102900000D01*
%TO.N,/LCD_SCK*%
X105283000Y-83058000D02*
X105283000Y-97028000D01*
X101684000Y-81491000D02*
X103716000Y-81491000D01*
X103716000Y-81491000D02*
X105283000Y-83058000D01*
X105283000Y-97028000D02*
X99411000Y-102900000D01*
X99411000Y-102900000D02*
X83078000Y-102900000D01*
%TO.N,/TP_SCL*%
X101468000Y-94991000D02*
X98938000Y-94991000D01*
X98938000Y-94991000D02*
X98425000Y-95504000D01*
X86487000Y-95504000D02*
X84963000Y-93980000D01*
X77343000Y-92202000D02*
X77343000Y-74168000D01*
X98425000Y-95504000D02*
X86487000Y-95504000D01*
X84963000Y-93980000D02*
X79121000Y-93980000D01*
X79121000Y-93980000D02*
X77343000Y-92202000D01*
X77343000Y-74168000D02*
X79091000Y-72420000D01*
X79091000Y-72420000D02*
X80538000Y-72420000D01*
%TO.N,/TP_SDA*%
X81534000Y-73660000D02*
X81788000Y-73406000D01*
X79629000Y-73660000D02*
X81534000Y-73660000D01*
X81788000Y-71130000D02*
X80538000Y-69880000D01*
X81788000Y-73406000D02*
X81788000Y-71130000D01*
X98298000Y-94488000D02*
X95250000Y-91440000D01*
X95250000Y-91440000D02*
X79375000Y-91440000D01*
X79375000Y-91440000D02*
X78232000Y-90297000D01*
X78232000Y-75057000D02*
X79629000Y-73660000D01*
X78232000Y-90297000D02*
X78232000Y-75057000D01*
%TO.N,/LCD_G5*%
X84453000Y-89025000D02*
X84455000Y-89027000D01*
X81713000Y-89025000D02*
X84453000Y-89025000D01*
X80538000Y-90200000D02*
X81713000Y-89025000D01*
X84455000Y-89027000D02*
X101528000Y-89027000D01*
X101528000Y-89027000D02*
X101564000Y-88991000D01*
%TO.N,/LCD_G3*%
X99949000Y-86360000D02*
X101580000Y-87991000D01*
X80538000Y-87610000D02*
X81788000Y-86360000D01*
X81788000Y-86360000D02*
X99949000Y-86360000D01*
X80538000Y-87660000D02*
X80538000Y-87610000D01*
%TO.N,/LCD_PCLK*%
X89057000Y-80040000D02*
X83078000Y-80040000D01*
%TD*%
%TA.AperFunction,Conductor*%
%TO.N,/TP_SCL*%
G36*
X101299703Y-94636826D02*
G01*
X101659231Y-94982567D01*
X101662819Y-94990771D01*
X101659231Y-94999433D01*
X101299703Y-95345174D01*
X101291365Y-95348439D01*
X101286191Y-95347119D01*
X101223994Y-95314736D01*
X101223465Y-95314443D01*
X101214739Y-95309311D01*
X101164061Y-95279503D01*
X101163785Y-95279333D01*
X101111190Y-95246118D01*
X101111188Y-95246115D01*
X101111187Y-95246116D01*
X101062437Y-95215310D01*
X101062427Y-95215304D01*
X101062359Y-95215261D01*
X101014352Y-95187476D01*
X101014150Y-95187379D01*
X101014144Y-95187376D01*
X100964339Y-95163506D01*
X100964064Y-95163374D01*
X100908389Y-95143564D01*
X100882557Y-95137563D01*
X100844524Y-95128728D01*
X100844521Y-95128728D01*
X100844222Y-95128658D01*
X100843913Y-95128620D01*
X100843909Y-95128619D01*
X100799886Y-95123162D01*
X100768461Y-95119266D01*
X100712870Y-95117259D01*
X100689278Y-95116407D01*
X100681134Y-95112684D01*
X100678000Y-95104715D01*
X100678000Y-94877285D01*
X100681427Y-94869012D01*
X100689278Y-94865593D01*
X100722212Y-94864403D01*
X100768461Y-94862733D01*
X100799886Y-94858837D01*
X100843909Y-94853380D01*
X100843913Y-94853379D01*
X100844222Y-94853341D01*
X100844521Y-94853271D01*
X100844524Y-94853271D01*
X100908070Y-94838509D01*
X100908068Y-94838509D01*
X100908389Y-94838435D01*
X100964064Y-94818625D01*
X100983766Y-94809182D01*
X101014144Y-94794623D01*
X101014150Y-94794620D01*
X101014352Y-94794523D01*
X101062359Y-94766738D01*
X101111187Y-94735883D01*
X101163785Y-94702666D01*
X101164061Y-94702496D01*
X101223465Y-94667556D01*
X101223994Y-94667263D01*
X101231879Y-94663158D01*
X101286191Y-94634881D01*
X101295111Y-94634100D01*
X101299703Y-94636826D01*
G37*
%TD.AperFunction*%
%TD*%
%TA.AperFunction,Conductor*%
%TO.N,/TP_SDA*%
G36*
X80571149Y-69586003D02*
G01*
X81332354Y-69600883D01*
X81340557Y-69604471D01*
X81343347Y-69609275D01*
X81391845Y-69773912D01*
X81392101Y-69774956D01*
X81422608Y-69929758D01*
X81422739Y-69930571D01*
X81440366Y-70071794D01*
X81440407Y-70072172D01*
X81452492Y-70203588D01*
X81466386Y-70328691D01*
X81489461Y-70451006D01*
X81529109Y-70574245D01*
X81561073Y-70638499D01*
X81592523Y-70701722D01*
X81592526Y-70701727D01*
X81592721Y-70702119D01*
X81687686Y-70838340D01*
X81687931Y-70838611D01*
X81687932Y-70838613D01*
X81813957Y-70978370D01*
X81816952Y-70986809D01*
X81813541Y-70994478D01*
X81652478Y-71155541D01*
X81644205Y-71158968D01*
X81636370Y-71155957D01*
X81496613Y-71029932D01*
X81496611Y-71029931D01*
X81496340Y-71029686D01*
X81360119Y-70934721D01*
X81359727Y-70934526D01*
X81359722Y-70934523D01*
X81296499Y-70903073D01*
X81232245Y-70871109D01*
X81131237Y-70838613D01*
X81109349Y-70831571D01*
X81109344Y-70831570D01*
X81109006Y-70831461D01*
X81019248Y-70814528D01*
X80986909Y-70808427D01*
X80986906Y-70808426D01*
X80986691Y-70808386D01*
X80986487Y-70808363D01*
X80986478Y-70808362D01*
X80861615Y-70794495D01*
X80861588Y-70794492D01*
X80784979Y-70787447D01*
X80730172Y-70782407D01*
X80729794Y-70782366D01*
X80588571Y-70764739D01*
X80587758Y-70764608D01*
X80432956Y-70734101D01*
X80431912Y-70733845D01*
X80325437Y-70702480D01*
X80267274Y-70685346D01*
X80260307Y-70679722D01*
X80258883Y-70674353D01*
X80249681Y-70203588D01*
X80241281Y-69773912D01*
X80237718Y-69591645D01*
X80240983Y-69583306D01*
X80249645Y-69579718D01*
X80571149Y-69586003D01*
G37*
%TD.AperFunction*%
%TD*%
%TA.AperFunction,Conductor*%
%TO.N,/LCD_SDA*%
G36*
X98159443Y-80894566D02*
G01*
X98167647Y-80898154D01*
X98170373Y-80902747D01*
X98191458Y-80969637D01*
X98191624Y-80970217D01*
X98208899Y-81036843D01*
X98208987Y-81037202D01*
X98222699Y-81097910D01*
X98222698Y-81097910D01*
X98222700Y-81097914D01*
X98235407Y-81154254D01*
X98249706Y-81207846D01*
X98249783Y-81208065D01*
X98249784Y-81208068D01*
X98268118Y-81260155D01*
X98268121Y-81260163D01*
X98268222Y-81260449D01*
X98293583Y-81313824D01*
X98293756Y-81314102D01*
X98293760Y-81314109D01*
X98328251Y-81369474D01*
X98328415Y-81369737D01*
X98328601Y-81369975D01*
X98328604Y-81369980D01*
X98375195Y-81429756D01*
X98375201Y-81429763D01*
X98375346Y-81429949D01*
X98389254Y-81444899D01*
X98429315Y-81487963D01*
X98432441Y-81496354D01*
X98429022Y-81504205D01*
X98268205Y-81665022D01*
X98259932Y-81668449D01*
X98251963Y-81665315D01*
X98221318Y-81636807D01*
X98193949Y-81611346D01*
X98193763Y-81611201D01*
X98193756Y-81611195D01*
X98133980Y-81564604D01*
X98133975Y-81564601D01*
X98133737Y-81564415D01*
X98133474Y-81564251D01*
X98078109Y-81529760D01*
X98078102Y-81529756D01*
X98077824Y-81529583D01*
X98024449Y-81504222D01*
X98024163Y-81504121D01*
X98024155Y-81504118D01*
X97972068Y-81485784D01*
X97972065Y-81485783D01*
X97971846Y-81485706D01*
X97918254Y-81471407D01*
X97861914Y-81458700D01*
X97861910Y-81458697D01*
X97861910Y-81458699D01*
X97801202Y-81444987D01*
X97800843Y-81444899D01*
X97734217Y-81427624D01*
X97733637Y-81427458D01*
X97666747Y-81406373D01*
X97659886Y-81400617D01*
X97658566Y-81395443D01*
X97648817Y-80896744D01*
X97652082Y-80888405D01*
X97660744Y-80884817D01*
X98159443Y-80894566D01*
G37*
%TD.AperFunction*%
%TD*%
%TA.AperFunction,Conductor*%
%TO.N,/LCD_SDA*%
G36*
X83456034Y-99599102D02*
G01*
X83606744Y-99681224D01*
X83607663Y-99681781D01*
X83738713Y-99769682D01*
X83739357Y-99770149D01*
X83819073Y-99832172D01*
X83851688Y-99857548D01*
X83851984Y-99857786D01*
X83953455Y-99942167D01*
X84051741Y-100020804D01*
X84154548Y-100090978D01*
X84269726Y-100150085D01*
X84340846Y-100173953D01*
X84404721Y-100195390D01*
X84404724Y-100195391D01*
X84405127Y-100195526D01*
X84514165Y-100214983D01*
X84568241Y-100224633D01*
X84568245Y-100224633D01*
X84568601Y-100224697D01*
X84568969Y-100224716D01*
X84756904Y-100234427D01*
X84764989Y-100238276D01*
X84768000Y-100246111D01*
X84768000Y-100473889D01*
X84764573Y-100482162D01*
X84756904Y-100485573D01*
X84577259Y-100494855D01*
X84568601Y-100495302D01*
X84568245Y-100495366D01*
X84568241Y-100495366D01*
X84514165Y-100505016D01*
X84405127Y-100524473D01*
X84404724Y-100524608D01*
X84404721Y-100524609D01*
X84340846Y-100546046D01*
X84269726Y-100569914D01*
X84154548Y-100629021D01*
X84051741Y-100699195D01*
X83953455Y-100777832D01*
X83953417Y-100777864D01*
X83851984Y-100862213D01*
X83851688Y-100862451D01*
X83739357Y-100949850D01*
X83738713Y-100950317D01*
X83637073Y-101018492D01*
X83607663Y-101038218D01*
X83606744Y-101038775D01*
X83459413Y-101119057D01*
X83456034Y-101120898D01*
X83447130Y-101121847D01*
X83442326Y-101119057D01*
X83175487Y-100862451D01*
X82661769Y-100368433D01*
X82658181Y-100360229D01*
X82661769Y-100351567D01*
X82771431Y-100246111D01*
X83442326Y-99600943D01*
X83450665Y-99597678D01*
X83456034Y-99599102D01*
G37*
%TD.AperFunction*%
%TD*%
%TA.AperFunction,Conductor*%
%TO.N,/LCD_CS*%
G36*
X101845308Y-82384381D02*
G01*
X101900328Y-82413026D01*
X101907505Y-82416763D01*
X101908034Y-82417056D01*
X101967438Y-82451996D01*
X101967714Y-82452166D01*
X102020309Y-82485381D01*
X102020311Y-82485384D01*
X102020312Y-82485383D01*
X102069140Y-82516238D01*
X102117147Y-82544023D01*
X102117349Y-82544120D01*
X102117355Y-82544123D01*
X102147733Y-82558682D01*
X102167435Y-82568125D01*
X102223110Y-82587935D01*
X102223431Y-82588009D01*
X102223429Y-82588009D01*
X102286975Y-82602771D01*
X102286978Y-82602771D01*
X102287277Y-82602841D01*
X102287586Y-82602879D01*
X102287590Y-82602880D01*
X102331613Y-82608337D01*
X102363038Y-82612233D01*
X102409568Y-82613913D01*
X102442222Y-82615093D01*
X102450366Y-82618816D01*
X102453500Y-82626785D01*
X102453500Y-82854215D01*
X102450073Y-82862488D01*
X102442222Y-82865907D01*
X102419041Y-82866744D01*
X102363038Y-82868766D01*
X102331613Y-82872662D01*
X102287590Y-82878119D01*
X102287586Y-82878120D01*
X102287277Y-82878158D01*
X102286978Y-82878228D01*
X102286975Y-82878228D01*
X102248942Y-82887063D01*
X102223110Y-82893064D01*
X102167435Y-82912874D01*
X102167160Y-82913006D01*
X102117355Y-82936876D01*
X102117349Y-82936879D01*
X102117147Y-82936976D01*
X102069140Y-82964761D01*
X102020312Y-82995616D01*
X101967714Y-83028833D01*
X101967438Y-83029003D01*
X101916760Y-83058811D01*
X101908034Y-83063943D01*
X101907505Y-83064236D01*
X101845309Y-83096619D01*
X101836389Y-83097400D01*
X101831798Y-83094675D01*
X101472269Y-82748933D01*
X101468681Y-82740729D01*
X101472269Y-82732067D01*
X101831797Y-82386326D01*
X101840136Y-82383061D01*
X101845308Y-82384381D01*
G37*
%TD.AperFunction*%
%TD*%
%TA.AperFunction,Conductor*%
%TO.N,/LCD_CS*%
G36*
X81652478Y-101624459D02*
G01*
X81813541Y-101785522D01*
X81816968Y-101793795D01*
X81813957Y-101801630D01*
X81717114Y-101909025D01*
X81687686Y-101941659D01*
X81592721Y-102077880D01*
X81592526Y-102078272D01*
X81592523Y-102078277D01*
X81582989Y-102097443D01*
X81529109Y-102205754D01*
X81489461Y-102328993D01*
X81466386Y-102451308D01*
X81466363Y-102451512D01*
X81466362Y-102451521D01*
X81452492Y-102576411D01*
X81452483Y-102576504D01*
X81440407Y-102707827D01*
X81440366Y-102708205D01*
X81422739Y-102849428D01*
X81422608Y-102850241D01*
X81392101Y-103005043D01*
X81391845Y-103006087D01*
X81343347Y-103170725D01*
X81337722Y-103177693D01*
X81332355Y-103179117D01*
X80571149Y-103193997D01*
X80249645Y-103200282D01*
X80241306Y-103197017D01*
X80237718Y-103188355D01*
X80247108Y-102708015D01*
X80258883Y-102105646D01*
X80262471Y-102097443D01*
X80267274Y-102094654D01*
X80355282Y-102068728D01*
X80431912Y-102046154D01*
X80432956Y-102045898D01*
X80587758Y-102015391D01*
X80588571Y-102015260D01*
X80729794Y-101997633D01*
X80730172Y-101997592D01*
X80784979Y-101992552D01*
X80861588Y-101985507D01*
X80862109Y-101985449D01*
X80986478Y-101971637D01*
X80986487Y-101971636D01*
X80986691Y-101971613D01*
X80986906Y-101971573D01*
X80986909Y-101971572D01*
X81019248Y-101965471D01*
X81109006Y-101948538D01*
X81109344Y-101948429D01*
X81109349Y-101948428D01*
X81163322Y-101931064D01*
X81232245Y-101908890D01*
X81296499Y-101876926D01*
X81359722Y-101845476D01*
X81359727Y-101845473D01*
X81360119Y-101845278D01*
X81496340Y-101750313D01*
X81496613Y-101750067D01*
X81636370Y-101624043D01*
X81644809Y-101621048D01*
X81652478Y-101624459D01*
G37*
%TD.AperFunction*%
%TD*%
%TA.AperFunction,Conductor*%
%TO.N,/LCD_SCK*%
G36*
X101865808Y-81134881D02*
G01*
X101920828Y-81163527D01*
X101928005Y-81167263D01*
X101928534Y-81167556D01*
X101987938Y-81202496D01*
X101988214Y-81202666D01*
X102040809Y-81235881D01*
X102040811Y-81235884D01*
X102040812Y-81235883D01*
X102089640Y-81266738D01*
X102137647Y-81294523D01*
X102137849Y-81294620D01*
X102137855Y-81294623D01*
X102168233Y-81309182D01*
X102187935Y-81318625D01*
X102243610Y-81338435D01*
X102243931Y-81338509D01*
X102243929Y-81338509D01*
X102307475Y-81353271D01*
X102307478Y-81353271D01*
X102307777Y-81353341D01*
X102308086Y-81353379D01*
X102308090Y-81353380D01*
X102352113Y-81358837D01*
X102383538Y-81362733D01*
X102430068Y-81364413D01*
X102462722Y-81365593D01*
X102470866Y-81369316D01*
X102474000Y-81377285D01*
X102474000Y-81604715D01*
X102470573Y-81612988D01*
X102462722Y-81616407D01*
X102439541Y-81617244D01*
X102383538Y-81619266D01*
X102352113Y-81623162D01*
X102308090Y-81628619D01*
X102308086Y-81628620D01*
X102307777Y-81628658D01*
X102307478Y-81628728D01*
X102307475Y-81628728D01*
X102269442Y-81637563D01*
X102243610Y-81643564D01*
X102187935Y-81663374D01*
X102187660Y-81663506D01*
X102137855Y-81687376D01*
X102137849Y-81687379D01*
X102137647Y-81687476D01*
X102089640Y-81715261D01*
X102040812Y-81746116D01*
X101988214Y-81779333D01*
X101987938Y-81779503D01*
X101937260Y-81809311D01*
X101928534Y-81814443D01*
X101928005Y-81814736D01*
X101865809Y-81847119D01*
X101856889Y-81847900D01*
X101852298Y-81845175D01*
X101492769Y-81499433D01*
X101489181Y-81491229D01*
X101492769Y-81482567D01*
X101852297Y-81136826D01*
X101860636Y-81133561D01*
X101865808Y-81134881D01*
G37*
%TD.AperFunction*%
%TD*%
%TA.AperFunction,Conductor*%
%TO.N,/LCD_SCK*%
G36*
X83456034Y-102139102D02*
G01*
X83606744Y-102221224D01*
X83607663Y-102221781D01*
X83738713Y-102309682D01*
X83739357Y-102310149D01*
X83819073Y-102372172D01*
X83851688Y-102397548D01*
X83851984Y-102397786D01*
X83953455Y-102482167D01*
X84051741Y-102560804D01*
X84154548Y-102630978D01*
X84269726Y-102690085D01*
X84340846Y-102713953D01*
X84404721Y-102735390D01*
X84404724Y-102735391D01*
X84405127Y-102735526D01*
X84514165Y-102754983D01*
X84568241Y-102764633D01*
X84568245Y-102764633D01*
X84568601Y-102764697D01*
X84568969Y-102764716D01*
X84756904Y-102774427D01*
X84764989Y-102778276D01*
X84768000Y-102786111D01*
X84768000Y-103013889D01*
X84764573Y-103022162D01*
X84756904Y-103025573D01*
X84577259Y-103034855D01*
X84568601Y-103035302D01*
X84568245Y-103035366D01*
X84568241Y-103035366D01*
X84514165Y-103045016D01*
X84405127Y-103064473D01*
X84404724Y-103064608D01*
X84404721Y-103064609D01*
X84340846Y-103086046D01*
X84269726Y-103109914D01*
X84154548Y-103169021D01*
X84051741Y-103239195D01*
X83953455Y-103317832D01*
X83953417Y-103317864D01*
X83851984Y-103402213D01*
X83851688Y-103402451D01*
X83739357Y-103489850D01*
X83738713Y-103490317D01*
X83637073Y-103558492D01*
X83607663Y-103578218D01*
X83606744Y-103578775D01*
X83459413Y-103659057D01*
X83456034Y-103660898D01*
X83447130Y-103661847D01*
X83442326Y-103659057D01*
X83175487Y-103402451D01*
X82661769Y-102908433D01*
X82658181Y-102900229D01*
X82661769Y-102891567D01*
X82771431Y-102786111D01*
X83442326Y-102140943D01*
X83450665Y-102137678D01*
X83456034Y-102139102D01*
G37*
%TD.AperFunction*%
%TD*%
%TA.AperFunction,Conductor*%
%TO.N,/LCD_PCLK*%
G36*
X83456034Y-79279102D02*
G01*
X83606744Y-79361224D01*
X83607663Y-79361781D01*
X83738713Y-79449682D01*
X83739357Y-79450149D01*
X83819073Y-79512172D01*
X83851688Y-79537548D01*
X83851984Y-79537786D01*
X83953455Y-79622167D01*
X84051741Y-79700804D01*
X84154548Y-79770978D01*
X84269726Y-79830085D01*
X84340846Y-79853953D01*
X84404721Y-79875390D01*
X84404724Y-79875391D01*
X84405127Y-79875526D01*
X84514165Y-79894983D01*
X84568241Y-79904633D01*
X84568245Y-79904633D01*
X84568601Y-79904697D01*
X84568969Y-79904716D01*
X84756904Y-79914427D01*
X84764989Y-79918276D01*
X84768000Y-79926111D01*
X84768000Y-80153889D01*
X84764573Y-80162162D01*
X84756904Y-80165573D01*
X84577259Y-80174855D01*
X84568601Y-80175302D01*
X84568245Y-80175366D01*
X84568241Y-80175366D01*
X84514165Y-80185016D01*
X84405127Y-80204473D01*
X84404724Y-80204608D01*
X84404721Y-80204609D01*
X84340846Y-80226046D01*
X84269726Y-80249914D01*
X84154548Y-80309021D01*
X84051741Y-80379195D01*
X83953455Y-80457832D01*
X83953417Y-80457864D01*
X83851984Y-80542213D01*
X83851688Y-80542451D01*
X83739357Y-80629850D01*
X83738713Y-80630317D01*
X83637073Y-80698492D01*
X83607663Y-80718218D01*
X83606744Y-80718775D01*
X83459413Y-80799057D01*
X83456034Y-80800898D01*
X83447130Y-80801847D01*
X83442326Y-80799057D01*
X83175487Y-80542451D01*
X82661769Y-80048433D01*
X82658181Y-80040229D01*
X82661769Y-80031567D01*
X82771431Y-79926111D01*
X83442326Y-79280943D01*
X83450665Y-79277678D01*
X83456034Y-79279102D01*
G37*
%TD.AperFunction*%
%TD*%
%TA.AperFunction,Conductor*%
%TO.N,/LCD_G5*%
G36*
X81747259Y-88903726D02*
G01*
X81751299Y-88912569D01*
X81751299Y-89139653D01*
X81747872Y-89147926D01*
X81741030Y-89151264D01*
X81661934Y-89161004D01*
X81577317Y-89171422D01*
X81577314Y-89171423D01*
X81576257Y-89171553D01*
X81460914Y-89232540D01*
X81394048Y-89327451D01*
X81364442Y-89450778D01*
X81360873Y-89597011D01*
X81372124Y-89760642D01*
X81372132Y-89760736D01*
X81386951Y-89935885D01*
X81386984Y-89936406D01*
X81394180Y-90117459D01*
X81394165Y-90118666D01*
X81382656Y-90299849D01*
X81382372Y-90301769D01*
X81342995Y-90470095D01*
X81337775Y-90477369D01*
X81331834Y-90479127D01*
X80252936Y-90500218D01*
X80244597Y-90496953D01*
X80241009Y-90488749D01*
X80241387Y-90485563D01*
X80535902Y-89358034D01*
X80541308Y-89350896D01*
X80546276Y-89349329D01*
X80639315Y-89341780D01*
X80693297Y-89337400D01*
X80693800Y-89337266D01*
X80693804Y-89337265D01*
X80782699Y-89313532D01*
X80821398Y-89303200D01*
X80929670Y-89252800D01*
X80962401Y-89231893D01*
X81025320Y-89191704D01*
X81025331Y-89191697D01*
X81025482Y-89191600D01*
X81116202Y-89125000D01*
X81208800Y-89058685D01*
X81209617Y-89058150D01*
X81311133Y-88997619D01*
X81312583Y-88996886D01*
X81430599Y-88947175D01*
X81432422Y-88946578D01*
X81574600Y-88912818D01*
X81576461Y-88912533D01*
X81738762Y-88900899D01*
X81747259Y-88903726D01*
G37*
%TD.AperFunction*%
%TD*%
%TA.AperFunction,Conductor*%
%TO.N,/TP_SDA*%
G36*
X97836037Y-93848685D02*
G01*
X97866812Y-93877314D01*
X97894050Y-93902653D01*
X97894236Y-93902798D01*
X97894243Y-93902804D01*
X97954019Y-93949395D01*
X97954024Y-93949398D01*
X97954262Y-93949584D01*
X97954523Y-93949747D01*
X97954525Y-93949748D01*
X98009890Y-93984239D01*
X98009897Y-93984243D01*
X98010175Y-93984416D01*
X98063550Y-94009777D01*
X98063836Y-94009878D01*
X98063844Y-94009881D01*
X98115931Y-94028215D01*
X98116153Y-94028293D01*
X98169745Y-94042592D01*
X98226085Y-94055299D01*
X98226089Y-94055302D01*
X98226089Y-94055300D01*
X98286797Y-94069012D01*
X98287156Y-94069100D01*
X98353781Y-94086375D01*
X98354362Y-94086541D01*
X98421254Y-94107627D01*
X98428114Y-94113383D01*
X98429434Y-94118557D01*
X98439183Y-94617256D01*
X98435918Y-94625595D01*
X98427256Y-94629183D01*
X97928557Y-94619434D01*
X97920353Y-94615846D01*
X97917627Y-94611254D01*
X97896541Y-94544362D01*
X97896375Y-94543781D01*
X97879100Y-94477156D01*
X97879012Y-94476797D01*
X97865300Y-94416089D01*
X97865301Y-94416089D01*
X97865299Y-94416085D01*
X97852623Y-94359883D01*
X97852592Y-94359745D01*
X97838293Y-94306153D01*
X97838215Y-94305931D01*
X97819881Y-94253844D01*
X97819878Y-94253836D01*
X97819777Y-94253550D01*
X97794416Y-94200175D01*
X97794243Y-94199897D01*
X97794239Y-94199890D01*
X97759748Y-94144525D01*
X97759747Y-94144523D01*
X97759584Y-94144262D01*
X97735516Y-94113383D01*
X97712804Y-94084243D01*
X97712798Y-94084236D01*
X97712653Y-94084050D01*
X97674085Y-94042592D01*
X97658685Y-94026037D01*
X97655559Y-94017646D01*
X97658978Y-94009795D01*
X97819795Y-93848978D01*
X97828068Y-93845551D01*
X97836037Y-93848685D01*
G37*
%TD.AperFunction*%
%TD*%
%TA.AperFunction,Conductor*%
%TO.N,/TP_SCL*%
G36*
X79944342Y-71823285D02*
G01*
X80949662Y-72412187D01*
X80955068Y-72419325D01*
X80953843Y-72428196D01*
X80951858Y-72430715D01*
X80173931Y-73178809D01*
X80165592Y-73182074D01*
X80159825Y-73180423D01*
X80025150Y-73100050D01*
X80023831Y-73099134D01*
X79896036Y-72996749D01*
X79895310Y-72996117D01*
X79778055Y-72885181D01*
X79777818Y-72884950D01*
X79668172Y-72775174D01*
X79563207Y-72676401D01*
X79459904Y-72598407D01*
X79355123Y-72550846D01*
X79245722Y-72543370D01*
X79244580Y-72543782D01*
X79244579Y-72543782D01*
X79161644Y-72573698D01*
X79128558Y-72585632D01*
X79008660Y-72680801D01*
X79000052Y-72683260D01*
X78993115Y-72679910D01*
X78832381Y-72519176D01*
X78828954Y-72510903D01*
X78832775Y-72502254D01*
X78955986Y-72390004D01*
X78956926Y-72389233D01*
X79077648Y-72300299D01*
X79078700Y-72299608D01*
X79190736Y-72234376D01*
X79191705Y-72233871D01*
X79297642Y-72184855D01*
X79298258Y-72184592D01*
X79400708Y-72144362D01*
X79501842Y-72105639D01*
X79603691Y-72061142D01*
X79708597Y-72003465D01*
X79818906Y-71925206D01*
X79819154Y-71924983D01*
X79819160Y-71924978D01*
X79930601Y-71824683D01*
X79939043Y-71821696D01*
X79944342Y-71823285D01*
G37*
%TD.AperFunction*%
%TD*%
%TA.AperFunction,Conductor*%
%TO.N,/LCD_G5*%
G36*
X101365054Y-88653055D02*
G01*
X101753737Y-88965710D01*
X101758036Y-88973566D01*
X101755227Y-88982511D01*
X101427635Y-89358661D01*
X101419617Y-89362649D01*
X101414358Y-89361796D01*
X101405925Y-89358325D01*
X101345510Y-89333456D01*
X101344973Y-89333218D01*
X101279726Y-89302339D01*
X101279361Y-89302159D01*
X101221708Y-89272372D01*
X101221634Y-89272333D01*
X101168463Y-89244381D01*
X101168454Y-89244376D01*
X101168417Y-89244357D01*
X101149740Y-89235211D01*
X101116518Y-89218942D01*
X101116512Y-89218939D01*
X101116348Y-89218859D01*
X101107865Y-89215363D01*
X101062421Y-89196633D01*
X101062414Y-89196630D01*
X101062175Y-89196532D01*
X101032549Y-89187334D01*
X101002854Y-89178115D01*
X101002848Y-89178114D01*
X101002576Y-89178029D01*
X100975158Y-89172403D01*
X100934488Y-89164057D01*
X100934485Y-89164057D01*
X100934229Y-89164004D01*
X100853811Y-89155109D01*
X100821184Y-89154050D01*
X100769320Y-89152367D01*
X100761163Y-89148673D01*
X100758000Y-89140673D01*
X100758000Y-88913282D01*
X100761427Y-88905009D01*
X100769274Y-88901591D01*
X100847591Y-88898746D01*
X100847822Y-88898717D01*
X100847834Y-88898716D01*
X100922395Y-88889343D01*
X100922402Y-88889342D01*
X100922710Y-88889303D01*
X100986322Y-88874144D01*
X101041393Y-88853744D01*
X101090888Y-88828575D01*
X101137773Y-88799112D01*
X101185014Y-88765830D01*
X101235497Y-88729261D01*
X101235685Y-88729128D01*
X101238898Y-88726896D01*
X101292247Y-88689828D01*
X101292618Y-88689582D01*
X101319119Y-88672786D01*
X101351458Y-88652290D01*
X101360280Y-88650755D01*
X101365054Y-88653055D01*
G37*
%TD.AperFunction*%
%TD*%
%TA.AperFunction,Conductor*%
%TO.N,/LCD_G3*%
G36*
X101118037Y-87351685D02*
G01*
X101148812Y-87380314D01*
X101176050Y-87405653D01*
X101176236Y-87405798D01*
X101176243Y-87405804D01*
X101236019Y-87452395D01*
X101236024Y-87452398D01*
X101236262Y-87452584D01*
X101236523Y-87452747D01*
X101236525Y-87452748D01*
X101291890Y-87487239D01*
X101291897Y-87487243D01*
X101292175Y-87487416D01*
X101345550Y-87512777D01*
X101345836Y-87512878D01*
X101345844Y-87512881D01*
X101397931Y-87531215D01*
X101398153Y-87531293D01*
X101451745Y-87545592D01*
X101508085Y-87558299D01*
X101508089Y-87558302D01*
X101508089Y-87558300D01*
X101568797Y-87572012D01*
X101569156Y-87572100D01*
X101635781Y-87589375D01*
X101636362Y-87589541D01*
X101703254Y-87610627D01*
X101710114Y-87616383D01*
X101711434Y-87621557D01*
X101721183Y-88120256D01*
X101717918Y-88128595D01*
X101709256Y-88132183D01*
X101210557Y-88122434D01*
X101202353Y-88118846D01*
X101199627Y-88114254D01*
X101178541Y-88047362D01*
X101178375Y-88046781D01*
X101161100Y-87980156D01*
X101161012Y-87979797D01*
X101147300Y-87919089D01*
X101147301Y-87919089D01*
X101147299Y-87919085D01*
X101134623Y-87862883D01*
X101134592Y-87862745D01*
X101120293Y-87809153D01*
X101120215Y-87808931D01*
X101101881Y-87756844D01*
X101101878Y-87756836D01*
X101101777Y-87756550D01*
X101076416Y-87703175D01*
X101076243Y-87702897D01*
X101076239Y-87702890D01*
X101041748Y-87647525D01*
X101041747Y-87647523D01*
X101041584Y-87647262D01*
X101017516Y-87616383D01*
X100994804Y-87587243D01*
X100994798Y-87587236D01*
X100994653Y-87587050D01*
X100956085Y-87545592D01*
X100940685Y-87529037D01*
X100937559Y-87520646D01*
X100940978Y-87512795D01*
X101101795Y-87351978D01*
X101110068Y-87348551D01*
X101118037Y-87351685D01*
G37*
%TD.AperFunction*%
%TD*%
%TA.AperFunction,Conductor*%
%TO.N,/LCD_G3*%
G36*
X81638348Y-86348613D02*
G01*
X81799398Y-86509663D01*
X81802825Y-86517936D01*
X81799813Y-86525772D01*
X81674024Y-86665226D01*
X81579433Y-86800947D01*
X81579245Y-86801326D01*
X81579243Y-86801330D01*
X81550676Y-86859021D01*
X81516301Y-86928438D01*
X81477442Y-87051449D01*
X81455674Y-87173732D01*
X81455652Y-87173965D01*
X81443813Y-87299040D01*
X81434684Y-87430974D01*
X81434659Y-87431277D01*
X81421110Y-87573363D01*
X81421014Y-87574111D01*
X81395912Y-87730125D01*
X81395706Y-87731125D01*
X81353850Y-87897252D01*
X81348506Y-87904437D01*
X81343217Y-87906071D01*
X80262292Y-87971935D01*
X80253825Y-87969018D01*
X80249883Y-87960512D01*
X80248687Y-87905551D01*
X80226316Y-86877848D01*
X80229562Y-86869503D01*
X80234240Y-86866519D01*
X80268783Y-86854750D01*
X80400335Y-86809929D01*
X80401355Y-86809633D01*
X80438859Y-86800597D01*
X80557429Y-86772030D01*
X80558256Y-86771862D01*
X80666360Y-86753946D01*
X80700707Y-86748254D01*
X80701106Y-86748195D01*
X80833830Y-86731047D01*
X80833837Y-86731046D01*
X80960194Y-86712859D01*
X80960200Y-86712858D01*
X80960401Y-86712829D01*
X80960614Y-86712783D01*
X81084065Y-86686060D01*
X81084071Y-86686058D01*
X81084405Y-86685986D01*
X81084728Y-86685875D01*
X81084735Y-86685873D01*
X81209235Y-86643072D01*
X81209238Y-86643071D01*
X81209627Y-86642937D01*
X81232826Y-86631031D01*
X81339487Y-86576290D01*
X81339494Y-86576286D01*
X81339856Y-86576100D01*
X81478877Y-86477896D01*
X81479141Y-86477657D01*
X81479145Y-86477654D01*
X81622226Y-86348210D01*
X81630660Y-86345201D01*
X81638348Y-86348613D01*
G37*
%TD.AperFunction*%
%TD*%
%TA.AperFunction,Conductor*%
%TO.N,/LCD_PCLK*%
G36*
X88888703Y-79685826D02*
G01*
X89248231Y-80031567D01*
X89251819Y-80039771D01*
X89248231Y-80048433D01*
X88888703Y-80394174D01*
X88880365Y-80397439D01*
X88875191Y-80396119D01*
X88812994Y-80363736D01*
X88812465Y-80363443D01*
X88803739Y-80358311D01*
X88753061Y-80328503D01*
X88752785Y-80328333D01*
X88700190Y-80295118D01*
X88700188Y-80295115D01*
X88700187Y-80295116D01*
X88651437Y-80264310D01*
X88651427Y-80264304D01*
X88651359Y-80264261D01*
X88603352Y-80236476D01*
X88603150Y-80236379D01*
X88603144Y-80236376D01*
X88553339Y-80212506D01*
X88553064Y-80212374D01*
X88497389Y-80192564D01*
X88471557Y-80186563D01*
X88433524Y-80177728D01*
X88433521Y-80177728D01*
X88433222Y-80177658D01*
X88432913Y-80177620D01*
X88432909Y-80177619D01*
X88388886Y-80172162D01*
X88357461Y-80168266D01*
X88301870Y-80166259D01*
X88278278Y-80165407D01*
X88270134Y-80161684D01*
X88267000Y-80153715D01*
X88267000Y-79926285D01*
X88270427Y-79918012D01*
X88278278Y-79914593D01*
X88311212Y-79913403D01*
X88357461Y-79911733D01*
X88388886Y-79907837D01*
X88432909Y-79902380D01*
X88432913Y-79902379D01*
X88433222Y-79902341D01*
X88433521Y-79902271D01*
X88433524Y-79902271D01*
X88497070Y-79887509D01*
X88497068Y-79887509D01*
X88497389Y-79887435D01*
X88553064Y-79867625D01*
X88572766Y-79858182D01*
X88603144Y-79843623D01*
X88603150Y-79843620D01*
X88603352Y-79843523D01*
X88651359Y-79815738D01*
X88700187Y-79784883D01*
X88752785Y-79751666D01*
X88753061Y-79751496D01*
X88812465Y-79716556D01*
X88812994Y-79716263D01*
X88820879Y-79712158D01*
X88875191Y-79683881D01*
X88884111Y-79683100D01*
X88888703Y-79685826D01*
G37*
%TD.AperFunction*%
%TD*%
%TA.AperFunction,Conductor*%
%TO.N,/GND*%
G36*
X107510621Y-61234502D02*
G01*
X107557114Y-61288158D01*
X107568500Y-61340500D01*
X107568500Y-116205500D01*
X107548498Y-116273621D01*
X107494842Y-116320114D01*
X107442500Y-116331500D01*
X76199500Y-116331500D01*
X76131379Y-116311498D01*
X76084886Y-116257842D01*
X76073500Y-116205500D01*
X76073500Y-113030964D01*
X79429148Y-113030964D01*
X79442424Y-113233522D01*
X79443845Y-113239118D01*
X79443846Y-113239123D01*
X79464119Y-113318945D01*
X79492392Y-113430269D01*
X79494809Y-113435512D01*
X79532010Y-113516208D01*
X79577377Y-113614616D01*
X79694533Y-113780389D01*
X79839938Y-113922035D01*
X80008720Y-114034812D01*
X80014023Y-114037090D01*
X80014026Y-114037092D01*
X80102707Y-114075192D01*
X80195228Y-114114942D01*
X80268244Y-114131464D01*
X80387579Y-114158467D01*
X80387584Y-114158468D01*
X80393216Y-114159742D01*
X80398987Y-114159969D01*
X80398989Y-114159969D01*
X80458756Y-114162317D01*
X80596053Y-114167712D01*
X80696499Y-114153148D01*
X80791231Y-114139413D01*
X80791236Y-114139412D01*
X80796945Y-114138584D01*
X80802409Y-114136729D01*
X80802414Y-114136728D01*
X80983693Y-114075192D01*
X80983698Y-114075190D01*
X80989165Y-114073334D01*
X81166276Y-113974147D01*
X81228934Y-113922035D01*
X81317913Y-113848031D01*
X81322345Y-113844345D01*
X81452147Y-113688276D01*
X81551334Y-113511165D01*
X81553190Y-113505698D01*
X81553192Y-113505693D01*
X81614728Y-113324414D01*
X81614729Y-113324409D01*
X81616584Y-113318945D01*
X81617412Y-113313236D01*
X81617413Y-113313231D01*
X81645179Y-113121727D01*
X81645712Y-113118053D01*
X81647232Y-113060000D01*
X81644564Y-113030964D01*
X81969148Y-113030964D01*
X81982424Y-113233522D01*
X81983845Y-113239118D01*
X81983846Y-113239123D01*
X82004119Y-113318945D01*
X82032392Y-113430269D01*
X82034809Y-113435512D01*
X82072010Y-113516208D01*
X82117377Y-113614616D01*
X82234533Y-113780389D01*
X82379938Y-113922035D01*
X82548720Y-114034812D01*
X82554023Y-114037090D01*
X82554026Y-114037092D01*
X82642707Y-114075192D01*
X82735228Y-114114942D01*
X82808244Y-114131464D01*
X82927579Y-114158467D01*
X82927584Y-114158468D01*
X82933216Y-114159742D01*
X82938987Y-114159969D01*
X82938989Y-114159969D01*
X82998756Y-114162317D01*
X83136053Y-114167712D01*
X83236499Y-114153148D01*
X83331231Y-114139413D01*
X83331236Y-114139412D01*
X83336945Y-114138584D01*
X83342409Y-114136729D01*
X83342414Y-114136728D01*
X83523693Y-114075192D01*
X83523698Y-114075190D01*
X83529165Y-114073334D01*
X83706276Y-113974147D01*
X83768934Y-113922035D01*
X83857913Y-113848031D01*
X83862345Y-113844345D01*
X83992147Y-113688276D01*
X84091334Y-113511165D01*
X84093190Y-113505698D01*
X84093192Y-113505693D01*
X84154728Y-113324414D01*
X84154729Y-113324409D01*
X84156584Y-113318945D01*
X84157412Y-113313236D01*
X84157413Y-113313231D01*
X84185179Y-113121727D01*
X84185712Y-113118053D01*
X84187232Y-113060000D01*
X84168658Y-112857859D01*
X84167090Y-112852299D01*
X84115125Y-112668046D01*
X84115124Y-112668044D01*
X84113557Y-112662487D01*
X84102978Y-112641033D01*
X84026331Y-112485609D01*
X84023776Y-112480428D01*
X83902320Y-112317779D01*
X83753258Y-112179987D01*
X83748375Y-112176906D01*
X83748371Y-112176903D01*
X83586464Y-112074748D01*
X83581581Y-112071667D01*
X83393039Y-111996446D01*
X83387379Y-111995320D01*
X83387375Y-111995319D01*
X83199613Y-111957971D01*
X83199610Y-111957971D01*
X83193946Y-111956844D01*
X83188171Y-111956768D01*
X83188167Y-111956768D01*
X83086793Y-111955441D01*
X82990971Y-111954187D01*
X82985274Y-111955166D01*
X82985273Y-111955166D01*
X82796607Y-111987585D01*
X82790910Y-111988564D01*
X82600463Y-112058824D01*
X82426010Y-112162612D01*
X82421670Y-112166418D01*
X82421666Y-112166421D01*
X82401723Y-112183911D01*
X82273392Y-112296455D01*
X82147720Y-112455869D01*
X82145031Y-112460980D01*
X82145029Y-112460983D01*
X82132073Y-112485609D01*
X82053203Y-112635515D01*
X81993007Y-112829378D01*
X81969148Y-113030964D01*
X81644564Y-113030964D01*
X81628658Y-112857859D01*
X81627090Y-112852299D01*
X81575125Y-112668046D01*
X81575124Y-112668044D01*
X81573557Y-112662487D01*
X81562978Y-112641033D01*
X81486331Y-112485609D01*
X81483776Y-112480428D01*
X81362320Y-112317779D01*
X81213258Y-112179987D01*
X81208375Y-112176906D01*
X81208371Y-112176903D01*
X81046464Y-112074748D01*
X81041581Y-112071667D01*
X80853039Y-111996446D01*
X80847379Y-111995320D01*
X80847375Y-111995319D01*
X80659613Y-111957971D01*
X80659610Y-111957971D01*
X80653946Y-111956844D01*
X80648171Y-111956768D01*
X80648167Y-111956768D01*
X80546793Y-111955441D01*
X80450971Y-111954187D01*
X80445274Y-111955166D01*
X80445273Y-111955166D01*
X80256607Y-111987585D01*
X80250910Y-111988564D01*
X80060463Y-112058824D01*
X79886010Y-112162612D01*
X79881670Y-112166418D01*
X79881666Y-112166421D01*
X79861723Y-112183911D01*
X79733392Y-112296455D01*
X79607720Y-112455869D01*
X79605031Y-112460980D01*
X79605029Y-112460983D01*
X79592073Y-112485609D01*
X79513203Y-112635515D01*
X79453007Y-112829378D01*
X79429148Y-113030964D01*
X76073500Y-113030964D01*
X76073500Y-110786962D01*
X79466671Y-110786962D01*
X79491443Y-110884502D01*
X79495284Y-110895348D01*
X79575394Y-111069120D01*
X79581145Y-111079081D01*
X79691579Y-111235343D01*
X79699057Y-111244098D01*
X79836114Y-111377612D01*
X79845058Y-111384855D01*
X80004156Y-111491161D01*
X80014266Y-111496651D01*
X80190077Y-111572185D01*
X80201020Y-111575740D01*
X80266332Y-111590519D01*
X80280405Y-111589630D01*
X80283828Y-111580681D01*
X80792000Y-111580681D01*
X80795966Y-111594187D01*
X80804672Y-111595433D01*
X80983497Y-111534730D01*
X80993994Y-111530056D01*
X81160958Y-111436552D01*
X81170430Y-111430042D01*
X81317553Y-111307682D01*
X81325682Y-111299553D01*
X81448042Y-111152430D01*
X81454552Y-111142958D01*
X81548056Y-110975994D01*
X81552730Y-110965497D01*
X81613335Y-110786962D01*
X82006671Y-110786962D01*
X82031443Y-110884502D01*
X82035284Y-110895348D01*
X82115394Y-111069120D01*
X82121145Y-111079081D01*
X82231579Y-111235343D01*
X82239057Y-111244098D01*
X82376114Y-111377612D01*
X82385058Y-111384855D01*
X82544156Y-111491161D01*
X82554266Y-111496651D01*
X82730077Y-111572185D01*
X82741020Y-111575740D01*
X82806332Y-111590519D01*
X82820405Y-111589630D01*
X82823828Y-111580681D01*
X83332000Y-111580681D01*
X83335966Y-111594187D01*
X83344672Y-111595433D01*
X83523497Y-111534730D01*
X83533994Y-111530056D01*
X83700958Y-111436552D01*
X83710430Y-111430042D01*
X83857553Y-111307682D01*
X83865682Y-111299553D01*
X83988042Y-111152430D01*
X83994552Y-111142958D01*
X84088056Y-110975994D01*
X84092730Y-110965497D01*
X84153443Y-110786644D01*
X84152210Y-110777993D01*
X84138642Y-110774000D01*
X83350115Y-110774000D01*
X83334876Y-110778475D01*
X83333671Y-110779865D01*
X83332000Y-110787548D01*
X83332000Y-111580681D01*
X82823828Y-111580681D01*
X82824000Y-111580232D01*
X82824000Y-110792115D01*
X82819525Y-110776876D01*
X82818135Y-110775671D01*
X82810452Y-110774000D01*
X82021494Y-110774000D01*
X82007963Y-110777973D01*
X82006671Y-110786962D01*
X81613335Y-110786962D01*
X81613443Y-110786644D01*
X81612210Y-110777993D01*
X81598642Y-110774000D01*
X80810115Y-110774000D01*
X80794876Y-110778475D01*
X80793671Y-110779865D01*
X80792000Y-110787548D01*
X80792000Y-111580681D01*
X80283828Y-111580681D01*
X80284000Y-111580232D01*
X80284000Y-110792115D01*
X80279525Y-110776876D01*
X80278135Y-110775671D01*
X80270452Y-110774000D01*
X79481494Y-110774000D01*
X79467963Y-110777973D01*
X79466671Y-110786962D01*
X76073500Y-110786962D01*
X76073500Y-110262799D01*
X79465943Y-110262799D01*
X79472675Y-110266000D01*
X80265885Y-110266000D01*
X80281124Y-110261525D01*
X80282329Y-110260135D01*
X80284000Y-110252452D01*
X80284000Y-110247885D01*
X80792000Y-110247885D01*
X80796475Y-110263124D01*
X80797865Y-110264329D01*
X80805548Y-110266000D01*
X81595398Y-110266000D01*
X81606300Y-110262799D01*
X82005943Y-110262799D01*
X82012675Y-110266000D01*
X82805885Y-110266000D01*
X82821124Y-110261525D01*
X82822329Y-110260135D01*
X82824000Y-110252452D01*
X82824000Y-110247885D01*
X83332000Y-110247885D01*
X83336475Y-110263124D01*
X83337865Y-110264329D01*
X83345548Y-110266000D01*
X84135398Y-110266000D01*
X84148929Y-110262027D01*
X84150098Y-110253892D01*
X84114658Y-110128231D01*
X84110533Y-110117484D01*
X84025903Y-109945871D01*
X84019893Y-109936063D01*
X83905400Y-109782739D01*
X83897710Y-109774199D01*
X83757192Y-109644304D01*
X83748067Y-109637303D01*
X83586236Y-109535195D01*
X83575989Y-109529974D01*
X83398260Y-109459068D01*
X83387232Y-109455801D01*
X83349769Y-109448350D01*
X83336894Y-109449502D01*
X83332000Y-109464658D01*
X83332000Y-110247885D01*
X82824000Y-110247885D01*
X82824000Y-109461500D01*
X82820194Y-109448538D01*
X82805279Y-109446602D01*
X82796732Y-109448071D01*
X82785620Y-109451048D01*
X82606095Y-109517279D01*
X82595717Y-109522229D01*
X82431273Y-109620063D01*
X82421961Y-109626829D01*
X82278097Y-109752994D01*
X82270180Y-109761337D01*
X82151718Y-109911605D01*
X82145450Y-109921256D01*
X82056358Y-110090592D01*
X82051953Y-110101227D01*
X82006162Y-110248698D01*
X82005943Y-110262799D01*
X81606300Y-110262799D01*
X81608929Y-110262027D01*
X81610098Y-110253892D01*
X81574658Y-110128231D01*
X81570533Y-110117484D01*
X81485903Y-109945871D01*
X81479893Y-109936063D01*
X81365400Y-109782739D01*
X81357710Y-109774199D01*
X81217192Y-109644304D01*
X81208067Y-109637303D01*
X81046236Y-109535195D01*
X81035989Y-109529974D01*
X80858260Y-109459068D01*
X80847232Y-109455801D01*
X80809769Y-109448350D01*
X80796894Y-109449502D01*
X80792000Y-109464658D01*
X80792000Y-110247885D01*
X80284000Y-110247885D01*
X80284000Y-109461500D01*
X80280194Y-109448538D01*
X80265279Y-109446602D01*
X80256732Y-109448071D01*
X80245620Y-109451048D01*
X80066095Y-109517279D01*
X80055717Y-109522229D01*
X79891273Y-109620063D01*
X79881961Y-109626829D01*
X79738097Y-109752994D01*
X79730180Y-109761337D01*
X79611718Y-109911605D01*
X79605450Y-109921256D01*
X79516358Y-110090592D01*
X79511953Y-110101227D01*
X79466162Y-110248698D01*
X79465943Y-110262799D01*
X76073500Y-110262799D01*
X76073500Y-107950964D01*
X79429148Y-107950964D01*
X79442424Y-108153522D01*
X79443845Y-108159118D01*
X79443846Y-108159123D01*
X79464119Y-108238945D01*
X79492392Y-108350269D01*
X79494809Y-108355512D01*
X79532010Y-108436208D01*
X79577377Y-108534616D01*
X79694533Y-108700389D01*
X79839938Y-108842035D01*
X80008720Y-108954812D01*
X80014023Y-108957090D01*
X80014026Y-108957092D01*
X80102707Y-108995192D01*
X80195228Y-109034942D01*
X80268244Y-109051464D01*
X80387579Y-109078467D01*
X80387584Y-109078468D01*
X80393216Y-109079742D01*
X80398987Y-109079969D01*
X80398989Y-109079969D01*
X80458756Y-109082317D01*
X80596053Y-109087712D01*
X80696499Y-109073148D01*
X80791231Y-109059413D01*
X80791236Y-109059412D01*
X80796945Y-109058584D01*
X80802409Y-109056729D01*
X80802414Y-109056728D01*
X80983693Y-108995192D01*
X80983698Y-108995190D01*
X80989165Y-108993334D01*
X81166276Y-108894147D01*
X81228934Y-108842035D01*
X81317913Y-108768031D01*
X81322345Y-108764345D01*
X81452147Y-108608276D01*
X81551334Y-108431165D01*
X81553190Y-108425698D01*
X81553192Y-108425693D01*
X81614728Y-108244414D01*
X81614729Y-108244409D01*
X81616584Y-108238945D01*
X81617412Y-108233236D01*
X81617413Y-108233231D01*
X81645179Y-108041727D01*
X81645712Y-108038053D01*
X81647232Y-107980000D01*
X81644564Y-107950964D01*
X81969148Y-107950964D01*
X81982424Y-108153522D01*
X81983845Y-108159118D01*
X81983846Y-108159123D01*
X82004119Y-108238945D01*
X82032392Y-108350269D01*
X82034809Y-108355512D01*
X82072010Y-108436208D01*
X82117377Y-108534616D01*
X82234533Y-108700389D01*
X82379938Y-108842035D01*
X82548720Y-108954812D01*
X82554023Y-108957090D01*
X82554026Y-108957092D01*
X82642707Y-108995192D01*
X82735228Y-109034942D01*
X82808244Y-109051464D01*
X82927579Y-109078467D01*
X82927584Y-109078468D01*
X82933216Y-109079742D01*
X82938987Y-109079969D01*
X82938989Y-109079969D01*
X82998756Y-109082317D01*
X83136053Y-109087712D01*
X83236499Y-109073148D01*
X83331231Y-109059413D01*
X83331236Y-109059412D01*
X83336945Y-109058584D01*
X83342409Y-109056729D01*
X83342414Y-109056728D01*
X83523693Y-108995192D01*
X83523698Y-108995190D01*
X83529165Y-108993334D01*
X83706276Y-108894147D01*
X83768934Y-108842035D01*
X83857913Y-108768031D01*
X83862345Y-108764345D01*
X83992147Y-108608276D01*
X84091334Y-108431165D01*
X84093190Y-108425698D01*
X84093192Y-108425693D01*
X84154728Y-108244414D01*
X84154729Y-108244409D01*
X84156584Y-108238945D01*
X84157412Y-108233236D01*
X84157413Y-108233231D01*
X84185179Y-108041727D01*
X84185712Y-108038053D01*
X84187232Y-107980000D01*
X84168658Y-107777859D01*
X84167090Y-107772299D01*
X84115125Y-107588046D01*
X84115124Y-107588044D01*
X84113557Y-107582487D01*
X84102978Y-107561033D01*
X84026331Y-107405609D01*
X84023776Y-107400428D01*
X83902320Y-107237779D01*
X83753258Y-107099987D01*
X83748375Y-107096906D01*
X83748371Y-107096903D01*
X83586464Y-106994748D01*
X83581581Y-106991667D01*
X83393039Y-106916446D01*
X83387379Y-106915320D01*
X83387375Y-106915319D01*
X83199613Y-106877971D01*
X83199610Y-106877971D01*
X83193946Y-106876844D01*
X83188171Y-106876768D01*
X83188167Y-106876768D01*
X83086793Y-106875441D01*
X82990971Y-106874187D01*
X82985274Y-106875166D01*
X82985273Y-106875166D01*
X82796607Y-106907585D01*
X82790910Y-106908564D01*
X82600463Y-106978824D01*
X82426010Y-107082612D01*
X82421670Y-107086418D01*
X82421666Y-107086421D01*
X82401723Y-107103911D01*
X82273392Y-107216455D01*
X82147720Y-107375869D01*
X82145031Y-107380980D01*
X82145029Y-107380983D01*
X82132073Y-107405609D01*
X82053203Y-107555515D01*
X81993007Y-107749378D01*
X81969148Y-107950964D01*
X81644564Y-107950964D01*
X81628658Y-107777859D01*
X81627090Y-107772299D01*
X81575125Y-107588046D01*
X81575124Y-107588044D01*
X81573557Y-107582487D01*
X81562978Y-107561033D01*
X81486331Y-107405609D01*
X81483776Y-107400428D01*
X81362320Y-107237779D01*
X81213258Y-107099987D01*
X81208375Y-107096906D01*
X81208371Y-107096903D01*
X81046464Y-106994748D01*
X81041581Y-106991667D01*
X80853039Y-106916446D01*
X80847379Y-106915320D01*
X80847375Y-106915319D01*
X80659613Y-106877971D01*
X80659610Y-106877971D01*
X80653946Y-106876844D01*
X80648171Y-106876768D01*
X80648167Y-106876768D01*
X80546793Y-106875441D01*
X80450971Y-106874187D01*
X80445274Y-106875166D01*
X80445273Y-106875166D01*
X80256607Y-106907585D01*
X80250910Y-106908564D01*
X80060463Y-106978824D01*
X79886010Y-107082612D01*
X79881670Y-107086418D01*
X79881666Y-107086421D01*
X79861723Y-107103911D01*
X79733392Y-107216455D01*
X79607720Y-107375869D01*
X79605031Y-107380980D01*
X79605029Y-107380983D01*
X79592073Y-107405609D01*
X79513203Y-107555515D01*
X79453007Y-107749378D01*
X79429148Y-107950964D01*
X76073500Y-107950964D01*
X76073500Y-105706962D01*
X79466671Y-105706962D01*
X79491443Y-105804502D01*
X79495284Y-105815348D01*
X79575394Y-105989120D01*
X79581145Y-105999081D01*
X79691579Y-106155343D01*
X79699057Y-106164098D01*
X79836114Y-106297612D01*
X79845058Y-106304855D01*
X80004156Y-106411161D01*
X80014266Y-106416651D01*
X80190077Y-106492185D01*
X80201020Y-106495740D01*
X80266332Y-106510519D01*
X80280405Y-106509630D01*
X80283828Y-106500681D01*
X80792000Y-106500681D01*
X80795966Y-106514187D01*
X80804672Y-106515433D01*
X80983497Y-106454730D01*
X80993994Y-106450056D01*
X81160958Y-106356552D01*
X81170430Y-106350042D01*
X81317553Y-106227682D01*
X81325682Y-106219553D01*
X81448042Y-106072430D01*
X81454552Y-106062958D01*
X81548056Y-105895994D01*
X81552730Y-105885497D01*
X81613335Y-105706962D01*
X82006671Y-105706962D01*
X82031443Y-105804502D01*
X82035284Y-105815348D01*
X82115394Y-105989120D01*
X82121145Y-105999081D01*
X82231579Y-106155343D01*
X82239057Y-106164098D01*
X82376114Y-106297612D01*
X82385058Y-106304855D01*
X82544156Y-106411161D01*
X82554266Y-106416651D01*
X82730077Y-106492185D01*
X82741020Y-106495740D01*
X82806332Y-106510519D01*
X82820405Y-106509630D01*
X82823828Y-106500681D01*
X83332000Y-106500681D01*
X83335966Y-106514187D01*
X83344672Y-106515433D01*
X83523497Y-106454730D01*
X83533994Y-106450056D01*
X83700958Y-106356552D01*
X83710430Y-106350042D01*
X83857553Y-106227682D01*
X83865682Y-106219553D01*
X83988042Y-106072430D01*
X83994552Y-106062958D01*
X84088056Y-105895994D01*
X84092730Y-105885497D01*
X84153443Y-105706644D01*
X84152210Y-105697993D01*
X84138642Y-105694000D01*
X83350115Y-105694000D01*
X83334876Y-105698475D01*
X83333671Y-105699865D01*
X83332000Y-105707548D01*
X83332000Y-106500681D01*
X82823828Y-106500681D01*
X82824000Y-106500232D01*
X82824000Y-105712115D01*
X82819525Y-105696876D01*
X82818135Y-105695671D01*
X82810452Y-105694000D01*
X82021494Y-105694000D01*
X82007963Y-105697973D01*
X82006671Y-105706962D01*
X81613335Y-105706962D01*
X81613443Y-105706644D01*
X81612210Y-105697993D01*
X81598642Y-105694000D01*
X80810115Y-105694000D01*
X80794876Y-105698475D01*
X80793671Y-105699865D01*
X80792000Y-105707548D01*
X80792000Y-106500681D01*
X80283828Y-106500681D01*
X80284000Y-106500232D01*
X80284000Y-105712115D01*
X80279525Y-105696876D01*
X80278135Y-105695671D01*
X80270452Y-105694000D01*
X79481494Y-105694000D01*
X79467963Y-105697973D01*
X79466671Y-105706962D01*
X76073500Y-105706962D01*
X76073500Y-105182799D01*
X79465943Y-105182799D01*
X79472675Y-105186000D01*
X80265885Y-105186000D01*
X80281124Y-105181525D01*
X80282329Y-105180135D01*
X80284000Y-105172452D01*
X80284000Y-105167885D01*
X80792000Y-105167885D01*
X80796475Y-105183124D01*
X80797865Y-105184329D01*
X80805548Y-105186000D01*
X81595398Y-105186000D01*
X81606300Y-105182799D01*
X82005943Y-105182799D01*
X82012675Y-105186000D01*
X82805885Y-105186000D01*
X82821124Y-105181525D01*
X82822329Y-105180135D01*
X82824000Y-105172452D01*
X82824000Y-105167885D01*
X83332000Y-105167885D01*
X83336475Y-105183124D01*
X83337865Y-105184329D01*
X83345548Y-105186000D01*
X84135398Y-105186000D01*
X84148929Y-105182027D01*
X84150098Y-105173892D01*
X84114658Y-105048231D01*
X84110533Y-105037484D01*
X84025903Y-104865871D01*
X84019893Y-104856063D01*
X83905400Y-104702739D01*
X83897710Y-104694199D01*
X83757192Y-104564304D01*
X83748067Y-104557303D01*
X83586236Y-104455195D01*
X83575989Y-104449974D01*
X83398260Y-104379068D01*
X83387232Y-104375801D01*
X83349769Y-104368350D01*
X83336894Y-104369502D01*
X83332000Y-104384658D01*
X83332000Y-105167885D01*
X82824000Y-105167885D01*
X82824000Y-104381500D01*
X82820194Y-104368538D01*
X82805279Y-104366602D01*
X82796732Y-104368071D01*
X82785620Y-104371048D01*
X82606095Y-104437279D01*
X82595717Y-104442229D01*
X82431273Y-104540063D01*
X82421961Y-104546829D01*
X82278097Y-104672994D01*
X82270180Y-104681337D01*
X82151718Y-104831605D01*
X82145450Y-104841256D01*
X82056358Y-105010592D01*
X82051953Y-105021227D01*
X82006162Y-105168698D01*
X82005943Y-105182799D01*
X81606300Y-105182799D01*
X81608929Y-105182027D01*
X81610098Y-105173892D01*
X81574658Y-105048231D01*
X81570533Y-105037484D01*
X81485903Y-104865871D01*
X81479893Y-104856063D01*
X81365400Y-104702739D01*
X81357710Y-104694199D01*
X81217192Y-104564304D01*
X81208067Y-104557303D01*
X81046236Y-104455195D01*
X81035989Y-104449974D01*
X80858260Y-104379068D01*
X80847232Y-104375801D01*
X80809769Y-104368350D01*
X80796894Y-104369502D01*
X80792000Y-104384658D01*
X80792000Y-105167885D01*
X80284000Y-105167885D01*
X80284000Y-104381500D01*
X80280194Y-104368538D01*
X80265279Y-104366602D01*
X80256732Y-104368071D01*
X80245620Y-104371048D01*
X80066095Y-104437279D01*
X80055717Y-104442229D01*
X79891273Y-104540063D01*
X79881961Y-104546829D01*
X79738097Y-104672994D01*
X79730180Y-104681337D01*
X79611718Y-104831605D01*
X79605450Y-104841256D01*
X79516358Y-105010592D01*
X79511953Y-105021227D01*
X79466162Y-105168698D01*
X79465943Y-105182799D01*
X76073500Y-105182799D01*
X76073500Y-102870964D01*
X79429148Y-102870964D01*
X79442424Y-103073522D01*
X79443845Y-103079118D01*
X79443846Y-103079123D01*
X79478300Y-103214781D01*
X79492392Y-103270269D01*
X79494809Y-103275512D01*
X79531013Y-103354044D01*
X79577377Y-103454616D01*
X79580710Y-103459332D01*
X79685382Y-103607440D01*
X79694533Y-103620389D01*
X79839938Y-103762035D01*
X80008720Y-103874812D01*
X80014023Y-103877090D01*
X80014026Y-103877092D01*
X80102707Y-103915192D01*
X80195228Y-103954942D01*
X80268244Y-103971464D01*
X80387579Y-103998467D01*
X80387584Y-103998468D01*
X80393216Y-103999742D01*
X80398987Y-103999969D01*
X80398989Y-103999969D01*
X80458756Y-104002317D01*
X80596053Y-104007712D01*
X80696499Y-103993148D01*
X80791231Y-103979413D01*
X80791236Y-103979412D01*
X80796945Y-103978584D01*
X80802409Y-103976729D01*
X80802414Y-103976728D01*
X80983693Y-103915192D01*
X80983698Y-103915190D01*
X80989165Y-103913334D01*
X81166276Y-103814147D01*
X81174864Y-103807005D01*
X81317913Y-103688031D01*
X81322345Y-103684345D01*
X81386307Y-103607440D01*
X81448453Y-103532718D01*
X81448455Y-103532715D01*
X81452147Y-103528276D01*
X81551334Y-103351165D01*
X81576126Y-103278131D01*
X81583839Y-103260139D01*
X81592272Y-103244052D01*
X81594359Y-103236969D01*
X81640561Y-103080124D01*
X81640564Y-103080112D01*
X81640770Y-103079414D01*
X81643878Y-103067888D01*
X81644134Y-103066844D01*
X81646704Y-103055218D01*
X81646857Y-103054444D01*
X81677100Y-102900982D01*
X81677111Y-102900921D01*
X81677211Y-102900416D01*
X81677306Y-102899887D01*
X81678718Y-102892000D01*
X81678728Y-102891941D01*
X81678803Y-102891522D01*
X81678934Y-102890709D01*
X81680241Y-102881569D01*
X81697868Y-102740346D01*
X81698353Y-102736188D01*
X81698394Y-102735810D01*
X81698817Y-102731589D01*
X81704011Y-102675115D01*
X81710562Y-102603868D01*
X81710803Y-102601499D01*
X81722686Y-102494492D01*
X81724100Y-102485040D01*
X81739998Y-102400770D01*
X81743868Y-102385542D01*
X81767248Y-102312867D01*
X81774382Y-102295334D01*
X81812406Y-102218899D01*
X81821852Y-102202967D01*
X81886778Y-102109834D01*
X81896543Y-102097542D01*
X81965459Y-102021118D01*
X82025931Y-101983925D01*
X82059030Y-101979500D01*
X82137350Y-101979500D01*
X82205471Y-101999502D01*
X82251964Y-102053158D01*
X82262068Y-102123432D01*
X82236300Y-102183506D01*
X82147720Y-102295869D01*
X82145031Y-102300980D01*
X82145029Y-102300983D01*
X82116758Y-102354717D01*
X82053203Y-102475515D01*
X81993007Y-102669378D01*
X81969148Y-102870964D01*
X81982424Y-103073522D01*
X81983845Y-103079118D01*
X81983846Y-103079123D01*
X82018300Y-103214781D01*
X82032392Y-103270269D01*
X82034809Y-103275512D01*
X82071013Y-103354044D01*
X82117377Y-103454616D01*
X82120710Y-103459332D01*
X82225382Y-103607440D01*
X82234533Y-103620389D01*
X82379938Y-103762035D01*
X82548720Y-103874812D01*
X82554023Y-103877090D01*
X82554026Y-103877092D01*
X82642707Y-103915192D01*
X82735228Y-103954942D01*
X82808244Y-103971464D01*
X82927579Y-103998467D01*
X82927584Y-103998468D01*
X82933216Y-103999742D01*
X82938987Y-103999969D01*
X82938989Y-103999969D01*
X82998756Y-104002317D01*
X83136053Y-104007712D01*
X83236499Y-103993148D01*
X83331231Y-103979413D01*
X83331236Y-103979412D01*
X83336945Y-103978584D01*
X83342409Y-103976729D01*
X83342414Y-103976728D01*
X83482919Y-103929032D01*
X83529165Y-103913334D01*
X83534201Y-103910514D01*
X83534205Y-103910512D01*
X83552551Y-103900238D01*
X83568703Y-103893284D01*
X83568592Y-103893023D01*
X83574291Y-103890609D01*
X83580200Y-103888764D01*
X83730910Y-103806641D01*
X83741249Y-103800696D01*
X83742168Y-103800139D01*
X83752215Y-103793729D01*
X83752766Y-103793359D01*
X83752811Y-103793330D01*
X83882783Y-103706151D01*
X83883265Y-103705828D01*
X83891052Y-103700395D01*
X83891696Y-103699928D01*
X83898709Y-103694660D01*
X83899203Y-103694276D01*
X84010811Y-103607440D01*
X84010916Y-103607357D01*
X84011040Y-103607261D01*
X84014296Y-103604686D01*
X84014592Y-103604448D01*
X84014974Y-103604136D01*
X84017666Y-103601935D01*
X84017740Y-103601874D01*
X84017905Y-103601739D01*
X84018113Y-103601566D01*
X84018193Y-103601500D01*
X84116528Y-103519727D01*
X84118374Y-103518221D01*
X84202447Y-103450955D01*
X84210129Y-103445273D01*
X84280952Y-103396930D01*
X84294460Y-103388896D01*
X84362378Y-103354043D01*
X84379814Y-103346692D01*
X84460738Y-103319534D01*
X84478691Y-103314946D01*
X84590455Y-103295002D01*
X84606089Y-103293211D01*
X84764515Y-103285026D01*
X84764520Y-103285025D01*
X84770294Y-103284727D01*
X84777654Y-103282964D01*
X84806996Y-103279500D01*
X99357080Y-103279500D01*
X99381028Y-103282049D01*
X99382693Y-103282128D01*
X99392876Y-103284320D01*
X99403217Y-103283096D01*
X99426223Y-103280373D01*
X99432154Y-103280023D01*
X99432146Y-103279928D01*
X99437324Y-103279500D01*
X99442524Y-103279500D01*
X99447653Y-103278646D01*
X99447656Y-103278646D01*
X99461565Y-103276331D01*
X99467443Y-103275494D01*
X99508001Y-103270694D01*
X99508002Y-103270694D01*
X99518341Y-103269470D01*
X99526593Y-103265507D01*
X99535626Y-103264004D01*
X99544795Y-103259057D01*
X99544797Y-103259056D01*
X99580732Y-103239666D01*
X99586025Y-103236969D01*
X99625082Y-103218215D01*
X99625086Y-103218212D01*
X99632232Y-103214781D01*
X99636508Y-103211186D01*
X99638431Y-103209263D01*
X99640363Y-103207491D01*
X99640442Y-103207448D01*
X99640555Y-103207572D01*
X99641095Y-103207096D01*
X99646814Y-103204010D01*
X99683417Y-103164413D01*
X99686846Y-103160848D01*
X105513216Y-97334478D01*
X105531964Y-97319336D01*
X105533189Y-97318221D01*
X105541940Y-97312571D01*
X105548387Y-97304393D01*
X105548389Y-97304391D01*
X105562729Y-97286200D01*
X105566675Y-97281759D01*
X105566602Y-97281697D01*
X105569961Y-97277733D01*
X105573638Y-97274056D01*
X105584892Y-97258308D01*
X105588398Y-97253638D01*
X105620156Y-97213353D01*
X105623188Y-97204719D01*
X105628514Y-97197266D01*
X105643203Y-97148150D01*
X105645036Y-97142508D01*
X105659390Y-97101633D01*
X105659390Y-97101632D01*
X105662018Y-97094149D01*
X105662500Y-97088584D01*
X105662500Y-97085876D01*
X105662614Y-97083242D01*
X105662643Y-97083144D01*
X105662807Y-97083151D01*
X105662851Y-97082447D01*
X105664713Y-97076222D01*
X105662597Y-97022365D01*
X105662500Y-97017418D01*
X105662500Y-83111925D01*
X105665050Y-83087967D01*
X105665128Y-83086308D01*
X105667321Y-83076124D01*
X105666097Y-83065782D01*
X105666097Y-83065779D01*
X105663374Y-83042779D01*
X105663024Y-83036848D01*
X105662928Y-83036856D01*
X105662500Y-83031680D01*
X105662500Y-83026476D01*
X105659327Y-83007412D01*
X105658496Y-83001566D01*
X105653694Y-82961001D01*
X105652470Y-82950659D01*
X105648507Y-82942407D01*
X105647004Y-82933374D01*
X105622665Y-82888266D01*
X105619969Y-82882975D01*
X105601215Y-82843919D01*
X105601214Y-82843918D01*
X105597781Y-82836768D01*
X105594187Y-82832493D01*
X105592262Y-82830568D01*
X105590491Y-82828638D01*
X105590445Y-82828553D01*
X105590568Y-82828441D01*
X105590096Y-82827906D01*
X105587010Y-82822186D01*
X105547413Y-82785583D01*
X105543848Y-82782154D01*
X104022478Y-81260784D01*
X104007336Y-81242036D01*
X104006221Y-81240811D01*
X104000571Y-81232060D01*
X103992393Y-81225613D01*
X103992391Y-81225611D01*
X103974200Y-81211271D01*
X103969759Y-81207325D01*
X103969697Y-81207398D01*
X103965733Y-81204039D01*
X103962056Y-81200362D01*
X103946308Y-81189108D01*
X103941638Y-81185602D01*
X103901353Y-81153844D01*
X103892719Y-81150812D01*
X103885266Y-81145486D01*
X103836150Y-81130797D01*
X103830508Y-81128964D01*
X103789633Y-81114610D01*
X103789632Y-81114610D01*
X103782149Y-81111982D01*
X103776584Y-81111500D01*
X103773876Y-81111500D01*
X103771242Y-81111386D01*
X103771144Y-81111357D01*
X103771151Y-81111193D01*
X103770447Y-81111149D01*
X103764222Y-81109287D01*
X103710365Y-81111403D01*
X103705418Y-81111500D01*
X102508925Y-81111500D01*
X102479907Y-81108113D01*
X102472089Y-81106262D01*
X102465903Y-81106039D01*
X102465899Y-81106038D01*
X102436351Y-81104971D01*
X102409717Y-81104009D01*
X102398780Y-81103136D01*
X102359771Y-81098300D01*
X102346773Y-81095991D01*
X102323679Y-81090626D01*
X102309965Y-81086607D01*
X102294024Y-81080935D01*
X102281817Y-81075854D01*
X102263317Y-81066988D01*
X102254653Y-81062414D01*
X102226102Y-81045889D01*
X102221911Y-81043353D01*
X102179480Y-81016540D01*
X102179402Y-81016490D01*
X102179375Y-81016473D01*
X102171604Y-81011565D01*
X102127027Y-80983414D01*
X102126777Y-80983256D01*
X102126580Y-80983133D01*
X102124462Y-80981812D01*
X102124386Y-80981765D01*
X102124307Y-80981716D01*
X102124031Y-80981546D01*
X102123802Y-80981408D01*
X102123751Y-80981377D01*
X102119765Y-80978977D01*
X102119687Y-80978931D01*
X102119500Y-80978818D01*
X102060096Y-80943878D01*
X102054267Y-80940550D01*
X102053738Y-80940257D01*
X102047841Y-80937090D01*
X101985644Y-80904708D01*
X101956272Y-80893486D01*
X101942305Y-80887149D01*
X101920274Y-80875484D01*
X101766633Y-80836892D01*
X101759034Y-80836852D01*
X101759033Y-80836852D01*
X101693181Y-80836507D01*
X101608221Y-80836062D01*
X101600841Y-80837834D01*
X101600839Y-80837834D01*
X101461563Y-80871271D01*
X101461560Y-80871272D01*
X101454184Y-80873043D01*
X101313414Y-80945700D01*
X101194039Y-81049838D01*
X101102950Y-81179444D01*
X101074935Y-81251300D01*
X101049524Y-81316476D01*
X101045406Y-81327037D01*
X101044414Y-81334570D01*
X101044414Y-81334571D01*
X101025905Y-81475166D01*
X101024729Y-81484096D01*
X101028176Y-81515319D01*
X101036946Y-81594748D01*
X101042113Y-81641553D01*
X101044723Y-81648684D01*
X101044723Y-81648686D01*
X101093338Y-81781533D01*
X101096553Y-81790319D01*
X101100789Y-81796622D01*
X101100789Y-81796623D01*
X101180343Y-81915011D01*
X101184908Y-81921805D01*
X101286571Y-82014311D01*
X101323493Y-82074949D01*
X101321770Y-82145925D01*
X101284600Y-82202452D01*
X101179265Y-82294342D01*
X101179261Y-82294346D01*
X101173539Y-82299338D01*
X101082450Y-82428944D01*
X101024906Y-82576537D01*
X101023914Y-82584070D01*
X101023914Y-82584071D01*
X101016324Y-82641727D01*
X101004229Y-82733596D01*
X101021613Y-82891053D01*
X101024223Y-82898184D01*
X101024223Y-82898186D01*
X101070884Y-83025693D01*
X101076053Y-83039819D01*
X101080289Y-83046122D01*
X101080289Y-83046123D01*
X101128067Y-83117224D01*
X101149459Y-83184921D01*
X101130855Y-83253437D01*
X101078162Y-83301018D01*
X101023485Y-83313500D01*
X100666384Y-83313500D01*
X100598263Y-83293498D01*
X100577289Y-83276595D01*
X98641657Y-81340963D01*
X98623531Y-81318047D01*
X98619313Y-81311212D01*
X98615097Y-81306680D01*
X98615094Y-81306676D01*
X98576803Y-81265515D01*
X98569678Y-81257154D01*
X98565115Y-81251300D01*
X98545529Y-81226171D01*
X98537964Y-81215338D01*
X98525425Y-81195209D01*
X98518564Y-81182661D01*
X98515662Y-81176553D01*
X98511313Y-81167398D01*
X98506272Y-81155167D01*
X98499459Y-81135811D01*
X98496570Y-81126460D01*
X98488069Y-81094600D01*
X98486898Y-81089839D01*
X98475842Y-81040820D01*
X98475754Y-81040431D01*
X98475728Y-81040314D01*
X98465571Y-80995349D01*
X98462111Y-80980029D01*
X98461025Y-80975421D01*
X98460937Y-80975062D01*
X98460093Y-80971713D01*
X98442818Y-80905087D01*
X98441107Y-80898813D01*
X98440941Y-80898233D01*
X98438953Y-80891622D01*
X98437542Y-80887144D01*
X98427395Y-80854957D01*
X98417868Y-80824732D01*
X98393529Y-80770301D01*
X98393635Y-80770254D01*
X98389904Y-80761894D01*
X98376965Y-80727651D01*
X98376964Y-80727649D01*
X98374280Y-80720546D01*
X98355572Y-80693326D01*
X98288855Y-80596251D01*
X98288854Y-80596249D01*
X98284553Y-80589992D01*
X98166275Y-80484611D01*
X98158889Y-80480700D01*
X98032988Y-80414039D01*
X98032989Y-80414039D01*
X98026274Y-80410484D01*
X97872633Y-80371892D01*
X97865034Y-80371852D01*
X97865033Y-80371852D01*
X97799181Y-80371507D01*
X97714221Y-80371062D01*
X97706841Y-80372834D01*
X97706839Y-80372834D01*
X97567563Y-80406271D01*
X97567560Y-80406272D01*
X97560184Y-80408043D01*
X97419414Y-80480700D01*
X97300039Y-80584838D01*
X97208950Y-80714444D01*
X97192877Y-80755669D01*
X97157600Y-80846151D01*
X97151406Y-80862037D01*
X97150414Y-80869570D01*
X97150414Y-80869571D01*
X97135427Y-80983414D01*
X97130729Y-81019096D01*
X97134509Y-81053334D01*
X97146318Y-81160293D01*
X97148113Y-81176553D01*
X97150723Y-81183684D01*
X97150723Y-81183686D01*
X97199891Y-81318044D01*
X97202553Y-81325319D01*
X97290908Y-81456805D01*
X97296527Y-81461918D01*
X97296528Y-81461919D01*
X97329198Y-81491646D01*
X97408076Y-81563419D01*
X97547293Y-81639008D01*
X97559785Y-81642285D01*
X97577273Y-81649251D01*
X97577611Y-81648460D01*
X97583303Y-81650890D01*
X97588732Y-81653868D01*
X97594639Y-81655730D01*
X97655221Y-81674827D01*
X97655274Y-81674843D01*
X97655622Y-81674953D01*
X97656007Y-81675069D01*
X97656037Y-81675078D01*
X97661830Y-81676820D01*
X97661854Y-81676827D01*
X97662233Y-81676941D01*
X97662813Y-81677107D01*
X97669087Y-81678818D01*
X97735713Y-81696093D01*
X97735757Y-81696104D01*
X97738950Y-81696909D01*
X97738980Y-81696916D01*
X97739062Y-81696937D01*
X97739421Y-81697025D01*
X97739713Y-81697094D01*
X97739780Y-81697110D01*
X97743303Y-81697940D01*
X97744029Y-81698111D01*
X97804737Y-81711823D01*
X97804628Y-81712304D01*
X97804711Y-81712325D01*
X97804820Y-81711842D01*
X97853839Y-81722898D01*
X97858600Y-81724069D01*
X97890460Y-81732570D01*
X97899811Y-81735459D01*
X97919167Y-81742272D01*
X97931398Y-81747313D01*
X97946668Y-81754568D01*
X97959209Y-81761425D01*
X97979338Y-81773964D01*
X97990171Y-81781529D01*
X98021154Y-81805678D01*
X98029515Y-81812803D01*
X98070884Y-81851288D01*
X98070892Y-81851294D01*
X98075212Y-81855313D01*
X98080208Y-81858459D01*
X98080209Y-81858460D01*
X98083258Y-81860380D01*
X98105212Y-81877906D01*
X100150522Y-83923216D01*
X100165664Y-83941964D01*
X100166779Y-83943189D01*
X100172429Y-83951940D01*
X100180607Y-83958387D01*
X100180609Y-83958389D01*
X100198800Y-83972729D01*
X100203241Y-83976675D01*
X100203303Y-83976602D01*
X100207267Y-83979961D01*
X100210944Y-83983638D01*
X100226692Y-83994892D01*
X100231362Y-83998398D01*
X100271647Y-84030156D01*
X100280281Y-84033188D01*
X100287734Y-84038514D01*
X100334554Y-84052516D01*
X100336858Y-84053205D01*
X100342506Y-84055040D01*
X100343301Y-84055319D01*
X100390851Y-84072018D01*
X100396416Y-84072500D01*
X100399123Y-84072500D01*
X100401755Y-84072614D01*
X100401856Y-84072644D01*
X100401849Y-84072807D01*
X100402549Y-84072851D01*
X100408778Y-84074714D01*
X100459559Y-84072718D01*
X100462650Y-84072597D01*
X100467598Y-84072500D01*
X103041616Y-84072500D01*
X103109737Y-84092502D01*
X103130711Y-84109405D01*
X103469595Y-84448289D01*
X103503621Y-84510601D01*
X103506500Y-84537384D01*
X103506500Y-96183616D01*
X103486498Y-96251737D01*
X103469595Y-96272711D01*
X99798711Y-99943595D01*
X99736399Y-99977621D01*
X99709616Y-99980500D01*
X84806642Y-99980500D01*
X84782450Y-99977485D01*
X84782415Y-99977716D01*
X84776296Y-99976792D01*
X84770295Y-99975273D01*
X84764117Y-99974954D01*
X84764112Y-99974953D01*
X84606088Y-99966788D01*
X84590455Y-99964997D01*
X84478691Y-99945053D01*
X84460738Y-99940465D01*
X84379814Y-99913307D01*
X84362375Y-99905955D01*
X84294460Y-99871103D01*
X84280952Y-99863069D01*
X84210116Y-99814717D01*
X84202434Y-99809035D01*
X84118424Y-99741820D01*
X84116622Y-99740351D01*
X84017905Y-99658260D01*
X84014592Y-99655551D01*
X84014296Y-99655313D01*
X84011040Y-99652738D01*
X84010916Y-99652642D01*
X84010811Y-99652559D01*
X83899203Y-99565723D01*
X83899176Y-99565703D01*
X83898709Y-99565339D01*
X83891696Y-99560071D01*
X83891052Y-99559604D01*
X83883265Y-99554171D01*
X83778516Y-99483911D01*
X83752811Y-99466669D01*
X83752766Y-99466640D01*
X83752215Y-99466270D01*
X83742168Y-99459860D01*
X83741249Y-99459303D01*
X83730909Y-99453357D01*
X83730276Y-99453012D01*
X83730192Y-99452965D01*
X83588851Y-99375948D01*
X83588539Y-99375765D01*
X83588485Y-99375750D01*
X83585312Y-99374021D01*
X83581581Y-99371667D01*
X83393039Y-99296446D01*
X83387379Y-99295320D01*
X83387375Y-99295319D01*
X83199613Y-99257971D01*
X83199610Y-99257971D01*
X83193946Y-99256844D01*
X83188171Y-99256768D01*
X83188167Y-99256768D01*
X83086793Y-99255441D01*
X82990971Y-99254187D01*
X82985274Y-99255166D01*
X82985273Y-99255166D01*
X82796607Y-99287585D01*
X82790910Y-99288564D01*
X82600463Y-99358824D01*
X82426010Y-99462612D01*
X82421670Y-99466418D01*
X82421666Y-99466421D01*
X82309280Y-99564982D01*
X82273392Y-99596455D01*
X82147720Y-99755869D01*
X82145031Y-99760980D01*
X82145029Y-99760983D01*
X82116758Y-99814717D01*
X82053203Y-99935515D01*
X81993007Y-100129378D01*
X81969148Y-100330964D01*
X81982424Y-100533522D01*
X81983845Y-100539118D01*
X81983846Y-100539123D01*
X82018300Y-100674781D01*
X82032392Y-100730269D01*
X82034809Y-100735512D01*
X82070604Y-100813158D01*
X82117377Y-100914616D01*
X82186193Y-101011988D01*
X82193113Y-101021780D01*
X82216094Y-101088954D01*
X82199110Y-101157889D01*
X82147552Y-101206699D01*
X82090216Y-101220500D01*
X81891925Y-101220500D01*
X81867967Y-101217950D01*
X81866308Y-101217872D01*
X81856124Y-101215679D01*
X81845782Y-101216903D01*
X81845779Y-101216903D01*
X81822779Y-101219626D01*
X81816848Y-101219976D01*
X81816856Y-101220072D01*
X81811680Y-101220500D01*
X81806476Y-101220500D01*
X81787412Y-101223673D01*
X81781566Y-101224504D01*
X81770117Y-101225859D01*
X81730659Y-101230530D01*
X81722407Y-101234493D01*
X81713374Y-101235996D01*
X81704205Y-101240943D01*
X81704203Y-101240944D01*
X81668268Y-101260334D01*
X81662975Y-101263031D01*
X81633943Y-101276972D01*
X81616768Y-101285219D01*
X81612493Y-101288813D01*
X81610568Y-101290738D01*
X81608638Y-101292509D01*
X81608553Y-101292555D01*
X81608441Y-101292432D01*
X81607906Y-101292904D01*
X81602186Y-101295990D01*
X81595119Y-101303635D01*
X81565584Y-101335586D01*
X81562154Y-101339152D01*
X81491989Y-101409317D01*
X81472749Y-101424294D01*
X81472887Y-101424481D01*
X81467899Y-101428161D01*
X81462589Y-101431325D01*
X81457999Y-101435464D01*
X81340468Y-101541445D01*
X81328147Y-101551232D01*
X81235034Y-101616145D01*
X81219096Y-101625595D01*
X81142665Y-101663617D01*
X81125133Y-101670751D01*
X81052453Y-101694133D01*
X81037231Y-101698001D01*
X80952943Y-101713902D01*
X80943517Y-101715312D01*
X80836561Y-101727191D01*
X80834295Y-101727422D01*
X80706409Y-101739182D01*
X80706234Y-101739200D01*
X80706187Y-101739204D01*
X80702347Y-101739589D01*
X80702313Y-101739593D01*
X80702189Y-101739605D01*
X80702023Y-101739623D01*
X80702004Y-101739625D01*
X80701984Y-101739627D01*
X80701811Y-101739646D01*
X80701694Y-101739660D01*
X80701664Y-101739663D01*
X80697790Y-101740115D01*
X80697653Y-101740131D01*
X80618222Y-101750045D01*
X80556925Y-101757696D01*
X80556903Y-101757699D01*
X80556430Y-101757758D01*
X80551167Y-101758511D01*
X80547882Y-101758980D01*
X80547844Y-101758986D01*
X80547290Y-101759065D01*
X80546477Y-101759196D01*
X80546058Y-101759271D01*
X80545999Y-101759281D01*
X80538112Y-101760693D01*
X80538078Y-101760699D01*
X80537583Y-101760788D01*
X80537078Y-101760888D01*
X80537017Y-101760899D01*
X80383555Y-101791142D01*
X80383516Y-101791150D01*
X80382781Y-101791295D01*
X80382058Y-101791455D01*
X80382038Y-101791459D01*
X80371868Y-101793707D01*
X80371836Y-101793714D01*
X80371155Y-101793865D01*
X80370111Y-101794121D01*
X80369481Y-101794291D01*
X80369469Y-101794294D01*
X80364882Y-101795531D01*
X80358583Y-101797230D01*
X80357975Y-101797409D01*
X80357947Y-101797417D01*
X80254046Y-101828025D01*
X80253912Y-101827570D01*
X80252579Y-101828277D01*
X80250910Y-101828564D01*
X80245732Y-101830474D01*
X80244840Y-101830737D01*
X80243003Y-101831229D01*
X80241699Y-101831661D01*
X80197579Y-101844659D01*
X80197572Y-101844661D01*
X80193945Y-101845730D01*
X80136964Y-101870245D01*
X80136917Y-101870135D01*
X80129520Y-101873348D01*
X80060463Y-101898824D01*
X79886010Y-102002612D01*
X79881670Y-102006418D01*
X79881666Y-102006421D01*
X79775412Y-102099604D01*
X79733392Y-102136455D01*
X79729817Y-102140990D01*
X79729816Y-102140991D01*
X79700722Y-102177897D01*
X79607720Y-102295869D01*
X79605031Y-102300980D01*
X79605029Y-102300983D01*
X79576758Y-102354717D01*
X79513203Y-102475515D01*
X79453007Y-102669378D01*
X79429148Y-102870964D01*
X76073500Y-102870964D01*
X76073500Y-100330964D01*
X79429148Y-100330964D01*
X79442424Y-100533522D01*
X79443845Y-100539118D01*
X79443846Y-100539123D01*
X79478300Y-100674781D01*
X79492392Y-100730269D01*
X79494809Y-100735512D01*
X79530604Y-100813158D01*
X79577377Y-100914616D01*
X79580710Y-100919332D01*
X79681353Y-101061739D01*
X79694533Y-101080389D01*
X79698675Y-101084424D01*
X79763970Y-101148031D01*
X79839938Y-101222035D01*
X80008720Y-101334812D01*
X80014023Y-101337090D01*
X80014026Y-101337092D01*
X80102707Y-101375192D01*
X80195228Y-101414942D01*
X80267631Y-101431325D01*
X80387579Y-101458467D01*
X80387584Y-101458468D01*
X80393216Y-101459742D01*
X80398987Y-101459969D01*
X80398989Y-101459969D01*
X80458756Y-101462317D01*
X80596053Y-101467712D01*
X80696499Y-101453148D01*
X80791231Y-101439413D01*
X80791236Y-101439412D01*
X80796945Y-101438584D01*
X80802409Y-101436729D01*
X80802414Y-101436728D01*
X80983693Y-101375192D01*
X80983698Y-101375190D01*
X80989165Y-101373334D01*
X81166276Y-101274147D01*
X81179642Y-101263031D01*
X81317913Y-101148031D01*
X81322345Y-101144345D01*
X81346172Y-101115696D01*
X81448453Y-100992718D01*
X81448455Y-100992715D01*
X81452147Y-100988276D01*
X81551334Y-100811165D01*
X81553190Y-100805698D01*
X81553192Y-100805693D01*
X81614728Y-100624414D01*
X81614729Y-100624409D01*
X81616584Y-100618945D01*
X81617412Y-100613236D01*
X81617413Y-100613231D01*
X81645179Y-100421727D01*
X81645712Y-100418053D01*
X81647232Y-100360000D01*
X81628658Y-100157859D01*
X81627090Y-100152299D01*
X81575125Y-99968046D01*
X81575124Y-99968044D01*
X81573557Y-99962487D01*
X81562978Y-99941033D01*
X81486331Y-99785609D01*
X81483776Y-99780428D01*
X81362320Y-99617779D01*
X81213258Y-99479987D01*
X81208375Y-99476906D01*
X81208371Y-99476903D01*
X81046464Y-99374748D01*
X81041581Y-99371667D01*
X80853039Y-99296446D01*
X80847379Y-99295320D01*
X80847375Y-99295319D01*
X80659613Y-99257971D01*
X80659610Y-99257971D01*
X80653946Y-99256844D01*
X80648171Y-99256768D01*
X80648167Y-99256768D01*
X80546793Y-99255441D01*
X80450971Y-99254187D01*
X80445274Y-99255166D01*
X80445273Y-99255166D01*
X80256607Y-99287585D01*
X80250910Y-99288564D01*
X80060463Y-99358824D01*
X79886010Y-99462612D01*
X79881670Y-99466418D01*
X79881666Y-99466421D01*
X79769280Y-99564982D01*
X79733392Y-99596455D01*
X79607720Y-99755869D01*
X79605031Y-99760980D01*
X79605029Y-99760983D01*
X79576758Y-99814717D01*
X79513203Y-99935515D01*
X79453007Y-100129378D01*
X79429148Y-100330964D01*
X76073500Y-100330964D01*
X76073500Y-97790964D01*
X79429148Y-97790964D01*
X79442424Y-97993522D01*
X79443845Y-97999118D01*
X79443846Y-97999123D01*
X79464119Y-98078945D01*
X79492392Y-98190269D01*
X79494809Y-98195512D01*
X79532010Y-98276208D01*
X79577377Y-98374616D01*
X79694533Y-98540389D01*
X79839938Y-98682035D01*
X80008720Y-98794812D01*
X80014023Y-98797090D01*
X80014026Y-98797092D01*
X80102707Y-98835192D01*
X80195228Y-98874942D01*
X80268244Y-98891464D01*
X80387579Y-98918467D01*
X80387584Y-98918468D01*
X80393216Y-98919742D01*
X80398987Y-98919969D01*
X80398989Y-98919969D01*
X80458756Y-98922317D01*
X80596053Y-98927712D01*
X80696499Y-98913148D01*
X80791231Y-98899413D01*
X80791236Y-98899412D01*
X80796945Y-98898584D01*
X80802409Y-98896729D01*
X80802414Y-98896728D01*
X80983693Y-98835192D01*
X80983698Y-98835190D01*
X80989165Y-98833334D01*
X81166276Y-98734147D01*
X81228934Y-98682035D01*
X81317913Y-98608031D01*
X81322345Y-98604345D01*
X81452147Y-98448276D01*
X81551334Y-98271165D01*
X81553190Y-98265698D01*
X81553192Y-98265693D01*
X81614728Y-98084414D01*
X81614729Y-98084409D01*
X81616584Y-98078945D01*
X81617412Y-98073236D01*
X81617413Y-98073231D01*
X81645179Y-97881727D01*
X81645712Y-97878053D01*
X81647232Y-97820000D01*
X81644564Y-97790964D01*
X81969148Y-97790964D01*
X81982424Y-97993522D01*
X81983845Y-97999118D01*
X81983846Y-97999123D01*
X82004119Y-98078945D01*
X82032392Y-98190269D01*
X82034809Y-98195512D01*
X82072010Y-98276208D01*
X82117377Y-98374616D01*
X82234533Y-98540389D01*
X82379938Y-98682035D01*
X82548720Y-98794812D01*
X82554023Y-98797090D01*
X82554026Y-98797092D01*
X82642707Y-98835192D01*
X82735228Y-98874942D01*
X82808244Y-98891464D01*
X82927579Y-98918467D01*
X82927584Y-98918468D01*
X82933216Y-98919742D01*
X82938987Y-98919969D01*
X82938989Y-98919969D01*
X82998756Y-98922317D01*
X83136053Y-98927712D01*
X83236499Y-98913148D01*
X83331231Y-98899413D01*
X83331236Y-98899412D01*
X83336945Y-98898584D01*
X83342409Y-98896729D01*
X83342414Y-98896728D01*
X83523693Y-98835192D01*
X83523698Y-98835190D01*
X83529165Y-98833334D01*
X83706276Y-98734147D01*
X83768934Y-98682035D01*
X83857913Y-98608031D01*
X83862345Y-98604345D01*
X83992147Y-98448276D01*
X84091334Y-98271165D01*
X84093190Y-98265698D01*
X84093192Y-98265693D01*
X84154728Y-98084414D01*
X84154729Y-98084409D01*
X84156584Y-98078945D01*
X84157412Y-98073236D01*
X84157413Y-98073231D01*
X84185179Y-97881727D01*
X84185712Y-97878053D01*
X84187232Y-97820000D01*
X84168658Y-97617859D01*
X84167090Y-97612299D01*
X84115125Y-97428046D01*
X84115124Y-97428044D01*
X84113557Y-97422487D01*
X84102978Y-97401033D01*
X84026331Y-97245609D01*
X84023776Y-97240428D01*
X83999011Y-97207263D01*
X83952741Y-97145301D01*
X83902320Y-97077779D01*
X83753258Y-96939987D01*
X83748375Y-96936906D01*
X83748371Y-96936903D01*
X83586464Y-96834748D01*
X83581581Y-96831667D01*
X83393039Y-96756446D01*
X83387379Y-96755320D01*
X83387375Y-96755319D01*
X83199613Y-96717971D01*
X83199610Y-96717971D01*
X83193946Y-96716844D01*
X83188171Y-96716768D01*
X83188167Y-96716768D01*
X83086793Y-96715441D01*
X82990971Y-96714187D01*
X82985274Y-96715166D01*
X82985273Y-96715166D01*
X82796607Y-96747585D01*
X82790910Y-96748564D01*
X82600463Y-96818824D01*
X82426010Y-96922612D01*
X82421670Y-96926418D01*
X82421666Y-96926421D01*
X82401723Y-96943911D01*
X82273392Y-97056455D01*
X82269817Y-97060990D01*
X82269816Y-97060991D01*
X82243676Y-97094149D01*
X82147720Y-97215869D01*
X82145031Y-97220980D01*
X82145029Y-97220983D01*
X82132073Y-97245609D01*
X82053203Y-97395515D01*
X81993007Y-97589378D01*
X81969148Y-97790964D01*
X81644564Y-97790964D01*
X81628658Y-97617859D01*
X81627090Y-97612299D01*
X81575125Y-97428046D01*
X81575124Y-97428044D01*
X81573557Y-97422487D01*
X81562978Y-97401033D01*
X81486331Y-97245609D01*
X81483776Y-97240428D01*
X81459011Y-97207263D01*
X81412741Y-97145301D01*
X81362320Y-97077779D01*
X81213258Y-96939987D01*
X81208375Y-96936906D01*
X81208371Y-96936903D01*
X81046464Y-96834748D01*
X81041581Y-96831667D01*
X80853039Y-96756446D01*
X80847379Y-96755320D01*
X80847375Y-96755319D01*
X80659613Y-96717971D01*
X80659610Y-96717971D01*
X80653946Y-96716844D01*
X80648171Y-96716768D01*
X80648167Y-96716768D01*
X80546793Y-96715441D01*
X80450971Y-96714187D01*
X80445274Y-96715166D01*
X80445273Y-96715166D01*
X80256607Y-96747585D01*
X80250910Y-96748564D01*
X80060463Y-96818824D01*
X79886010Y-96922612D01*
X79881670Y-96926418D01*
X79881666Y-96926421D01*
X79861723Y-96943911D01*
X79733392Y-97056455D01*
X79729817Y-97060990D01*
X79729816Y-97060991D01*
X79703676Y-97094149D01*
X79607720Y-97215869D01*
X79605031Y-97220980D01*
X79605029Y-97220983D01*
X79592073Y-97245609D01*
X79513203Y-97395515D01*
X79453007Y-97589378D01*
X79429148Y-97790964D01*
X76073500Y-97790964D01*
X76073500Y-92183876D01*
X76958680Y-92183876D01*
X76959904Y-92194217D01*
X76962627Y-92217223D01*
X76962977Y-92223154D01*
X76963072Y-92223146D01*
X76963500Y-92228324D01*
X76963500Y-92233524D01*
X76964354Y-92238653D01*
X76964354Y-92238656D01*
X76966669Y-92252565D01*
X76967506Y-92258443D01*
X76973530Y-92309341D01*
X76977493Y-92317593D01*
X76978996Y-92326626D01*
X76983943Y-92335795D01*
X76983944Y-92335797D01*
X77003334Y-92371732D01*
X77006031Y-92377025D01*
X77024785Y-92416082D01*
X77024788Y-92416086D01*
X77028219Y-92423232D01*
X77031814Y-92427508D01*
X77033737Y-92429431D01*
X77035509Y-92431363D01*
X77035552Y-92431442D01*
X77035428Y-92431555D01*
X77035904Y-92432095D01*
X77038990Y-92437814D01*
X77046635Y-92444881D01*
X77078586Y-92474416D01*
X77082152Y-92477846D01*
X78814522Y-94210216D01*
X78829664Y-94228964D01*
X78830779Y-94230189D01*
X78836429Y-94238940D01*
X78844607Y-94245387D01*
X78844609Y-94245389D01*
X78862800Y-94259729D01*
X78867241Y-94263675D01*
X78867303Y-94263602D01*
X78871267Y-94266961D01*
X78874944Y-94270638D01*
X78890692Y-94281892D01*
X78895362Y-94285398D01*
X78935647Y-94317156D01*
X78944281Y-94320188D01*
X78951734Y-94325514D01*
X79000850Y-94340203D01*
X79006492Y-94342036D01*
X79047367Y-94356390D01*
X79054851Y-94359018D01*
X79060416Y-94359500D01*
X79063124Y-94359500D01*
X79065758Y-94359614D01*
X79065856Y-94359643D01*
X79065849Y-94359807D01*
X79066553Y-94359851D01*
X79072778Y-94361713D01*
X79126635Y-94359597D01*
X79131582Y-94359500D01*
X79597350Y-94359500D01*
X79665471Y-94379502D01*
X79711964Y-94433158D01*
X79722068Y-94503432D01*
X79696300Y-94563506D01*
X79607720Y-94675869D01*
X79605031Y-94680980D01*
X79605029Y-94680983D01*
X79592073Y-94705609D01*
X79513203Y-94855515D01*
X79453007Y-95049378D01*
X79429148Y-95250964D01*
X79442424Y-95453522D01*
X79443845Y-95459118D01*
X79443846Y-95459123D01*
X79482502Y-95611329D01*
X79492392Y-95650269D01*
X79494809Y-95655512D01*
X79547306Y-95769387D01*
X79577377Y-95834616D01*
X79585026Y-95845439D01*
X79613200Y-95885304D01*
X79694533Y-96000389D01*
X79839938Y-96142035D01*
X80008720Y-96254812D01*
X80014023Y-96257090D01*
X80014026Y-96257092D01*
X80102707Y-96295192D01*
X80195228Y-96334942D01*
X80268244Y-96351464D01*
X80387579Y-96378467D01*
X80387584Y-96378468D01*
X80393216Y-96379742D01*
X80398987Y-96379969D01*
X80398989Y-96379969D01*
X80458756Y-96382317D01*
X80596053Y-96387712D01*
X80696499Y-96373148D01*
X80791231Y-96359413D01*
X80791236Y-96359412D01*
X80796945Y-96358584D01*
X80802409Y-96356729D01*
X80802414Y-96356728D01*
X80983693Y-96295192D01*
X80983698Y-96295190D01*
X80989165Y-96293334D01*
X81166276Y-96194147D01*
X81178939Y-96183616D01*
X81317913Y-96068031D01*
X81322345Y-96064345D01*
X81452147Y-95908276D01*
X81539128Y-95752961D01*
X81548510Y-95736208D01*
X81548511Y-95736206D01*
X81551334Y-95731165D01*
X81553190Y-95725698D01*
X81553192Y-95725693D01*
X81614728Y-95544414D01*
X81614729Y-95544409D01*
X81616584Y-95538945D01*
X81617412Y-95533236D01*
X81617413Y-95533231D01*
X81639893Y-95378188D01*
X81645712Y-95338053D01*
X81647232Y-95280000D01*
X81632944Y-95124500D01*
X81629187Y-95083613D01*
X81629186Y-95083610D01*
X81628658Y-95077859D01*
X81627090Y-95072299D01*
X81575125Y-94888046D01*
X81575124Y-94888044D01*
X81573557Y-94882487D01*
X81562978Y-94861033D01*
X81486331Y-94705609D01*
X81483776Y-94700428D01*
X81472860Y-94685809D01*
X81379577Y-94560889D01*
X81354845Y-94494339D01*
X81370019Y-94424983D01*
X81420281Y-94374841D01*
X81480535Y-94359500D01*
X82137350Y-94359500D01*
X82205471Y-94379502D01*
X82251964Y-94433158D01*
X82262068Y-94503432D01*
X82236300Y-94563506D01*
X82147720Y-94675869D01*
X82145031Y-94680980D01*
X82145029Y-94680983D01*
X82132073Y-94705609D01*
X82053203Y-94855515D01*
X81993007Y-95049378D01*
X81969148Y-95250964D01*
X81982424Y-95453522D01*
X81983845Y-95459118D01*
X81983846Y-95459123D01*
X82022502Y-95611329D01*
X82032392Y-95650269D01*
X82034809Y-95655512D01*
X82087306Y-95769387D01*
X82117377Y-95834616D01*
X82125026Y-95845439D01*
X82153200Y-95885304D01*
X82234533Y-96000389D01*
X82379938Y-96142035D01*
X82548720Y-96254812D01*
X82554023Y-96257090D01*
X82554026Y-96257092D01*
X82642707Y-96295192D01*
X82735228Y-96334942D01*
X82808244Y-96351464D01*
X82927579Y-96378467D01*
X82927584Y-96378468D01*
X82933216Y-96379742D01*
X82938987Y-96379969D01*
X82938989Y-96379969D01*
X82998756Y-96382317D01*
X83136053Y-96387712D01*
X83236499Y-96373148D01*
X83331231Y-96359413D01*
X83331236Y-96359412D01*
X83336945Y-96358584D01*
X83342409Y-96356729D01*
X83342414Y-96356728D01*
X83523693Y-96295192D01*
X83523698Y-96295190D01*
X83529165Y-96293334D01*
X83706276Y-96194147D01*
X83718939Y-96183616D01*
X83857913Y-96068031D01*
X83862345Y-96064345D01*
X83992147Y-95908276D01*
X84079128Y-95752961D01*
X84088510Y-95736208D01*
X84088511Y-95736206D01*
X84091334Y-95731165D01*
X84093190Y-95725698D01*
X84093192Y-95725693D01*
X84154728Y-95544414D01*
X84154729Y-95544409D01*
X84156584Y-95538945D01*
X84157412Y-95533236D01*
X84157413Y-95533231D01*
X84179893Y-95378188D01*
X84185712Y-95338053D01*
X84187232Y-95280000D01*
X84172944Y-95124500D01*
X84169187Y-95083613D01*
X84169186Y-95083610D01*
X84168658Y-95077859D01*
X84167090Y-95072299D01*
X84115125Y-94888046D01*
X84115124Y-94888044D01*
X84113557Y-94882487D01*
X84102978Y-94861033D01*
X84026331Y-94705609D01*
X84023776Y-94700428D01*
X84012860Y-94685809D01*
X83919577Y-94560889D01*
X83894845Y-94494339D01*
X83910019Y-94424983D01*
X83960281Y-94374841D01*
X84020535Y-94359500D01*
X84753616Y-94359500D01*
X84821737Y-94379502D01*
X84842711Y-94396405D01*
X85518604Y-95072299D01*
X86180524Y-95734219D01*
X86195661Y-95752961D01*
X86196779Y-95754190D01*
X86202429Y-95762940D01*
X86210607Y-95769387D01*
X86228799Y-95783728D01*
X86233241Y-95787676D01*
X86233303Y-95787603D01*
X86237268Y-95790963D01*
X86240943Y-95794638D01*
X86245165Y-95797655D01*
X86245171Y-95797660D01*
X86256650Y-95805862D01*
X86261399Y-95809428D01*
X86301647Y-95841156D01*
X86310284Y-95844189D01*
X86317734Y-95849513D01*
X86327710Y-95852497D01*
X86327711Y-95852497D01*
X86343046Y-95857083D01*
X86366849Y-95864202D01*
X86372486Y-95866034D01*
X86413199Y-95880331D01*
X86420851Y-95883018D01*
X86426416Y-95883500D01*
X86429124Y-95883500D01*
X86431758Y-95883614D01*
X86431856Y-95883643D01*
X86431849Y-95883807D01*
X86432553Y-95883851D01*
X86438778Y-95885713D01*
X86492635Y-95883597D01*
X86497582Y-95883500D01*
X98371080Y-95883500D01*
X98395028Y-95886049D01*
X98396693Y-95886128D01*
X98406876Y-95888320D01*
X98417217Y-95887096D01*
X98440223Y-95884373D01*
X98446154Y-95884023D01*
X98446146Y-95883928D01*
X98451324Y-95883500D01*
X98456524Y-95883500D01*
X98461653Y-95882646D01*
X98461656Y-95882646D01*
X98475565Y-95880331D01*
X98481443Y-95879494D01*
X98522001Y-95874694D01*
X98522002Y-95874694D01*
X98532341Y-95873470D01*
X98540593Y-95869507D01*
X98549626Y-95868004D01*
X98558795Y-95863057D01*
X98558797Y-95863056D01*
X98594732Y-95843666D01*
X98600025Y-95840969D01*
X98639082Y-95822215D01*
X98639086Y-95822212D01*
X98646232Y-95818781D01*
X98650508Y-95815186D01*
X98652431Y-95813263D01*
X98654363Y-95811491D01*
X98654442Y-95811448D01*
X98654555Y-95811572D01*
X98655095Y-95811096D01*
X98660814Y-95808010D01*
X98679012Y-95788324D01*
X98697416Y-95768414D01*
X98700846Y-95764848D01*
X99058289Y-95407405D01*
X99120601Y-95373379D01*
X99147384Y-95370500D01*
X100643076Y-95370500D01*
X100672101Y-95373889D01*
X100673891Y-95374313D01*
X100673900Y-95374314D01*
X100679915Y-95375738D01*
X100742280Y-95377990D01*
X100753219Y-95378863D01*
X100792228Y-95383699D01*
X100805226Y-95386008D01*
X100828320Y-95391373D01*
X100842034Y-95395392D01*
X100857975Y-95401064D01*
X100870182Y-95406145D01*
X100888682Y-95415011D01*
X100897346Y-95419585D01*
X100925897Y-95436110D01*
X100930088Y-95438646D01*
X100972519Y-95465459D01*
X100972597Y-95465509D01*
X100972624Y-95465526D01*
X101025222Y-95498743D01*
X101025385Y-95498845D01*
X101025419Y-95498866D01*
X101027537Y-95500187D01*
X101027613Y-95500234D01*
X101027692Y-95500283D01*
X101027968Y-95500453D01*
X101028197Y-95500591D01*
X101028248Y-95500622D01*
X101032234Y-95503022D01*
X101032312Y-95503068D01*
X101032499Y-95503181D01*
X101091903Y-95538121D01*
X101097732Y-95541449D01*
X101098261Y-95541742D01*
X101098641Y-95541946D01*
X101103884Y-95544762D01*
X101103937Y-95544790D01*
X101104155Y-95544907D01*
X101166352Y-95577290D01*
X101191378Y-95586850D01*
X101206536Y-95593824D01*
X101218614Y-95600382D01*
X101218618Y-95600384D01*
X101225293Y-95604008D01*
X101378522Y-95644207D01*
X101462477Y-95645526D01*
X101529319Y-95646576D01*
X101529322Y-95646576D01*
X101536916Y-95646695D01*
X101691332Y-95611329D01*
X101762348Y-95575612D01*
X101826072Y-95543563D01*
X101826075Y-95543561D01*
X101832855Y-95540151D01*
X101838626Y-95535222D01*
X101838629Y-95535220D01*
X101947536Y-95442204D01*
X101947536Y-95442203D01*
X101953314Y-95437269D01*
X102045755Y-95308624D01*
X102104842Y-95161641D01*
X102127162Y-95004807D01*
X102127307Y-94991000D01*
X102108276Y-94833733D01*
X102052280Y-94685546D01*
X102042511Y-94671332D01*
X101966855Y-94561251D01*
X101966854Y-94561249D01*
X101962553Y-94554992D01*
X101938594Y-94533645D01*
X101882215Y-94483414D01*
X101844275Y-94449611D01*
X101826609Y-94440257D01*
X101717736Y-94382612D01*
X101704274Y-94375484D01*
X101550633Y-94336892D01*
X101543034Y-94336852D01*
X101543033Y-94336852D01*
X101477181Y-94336507D01*
X101392221Y-94336062D01*
X101384841Y-94337834D01*
X101384839Y-94337834D01*
X101245563Y-94371271D01*
X101245560Y-94371272D01*
X101238184Y-94373043D01*
X101210099Y-94387539D01*
X101201262Y-94392100D01*
X101178736Y-94401098D01*
X101166355Y-94404708D01*
X101104158Y-94437090D01*
X101098261Y-94440257D01*
X101097732Y-94440550D01*
X101091903Y-94443878D01*
X101032499Y-94478818D01*
X101032312Y-94478931D01*
X101032234Y-94478977D01*
X101028248Y-94481377D01*
X101028197Y-94481408D01*
X101027968Y-94481546D01*
X101027692Y-94481716D01*
X101027613Y-94481765D01*
X101027537Y-94481812D01*
X101025419Y-94483133D01*
X101025222Y-94483256D01*
X100972624Y-94516473D01*
X100972597Y-94516490D01*
X100972519Y-94516540D01*
X100930088Y-94543353D01*
X100925897Y-94545889D01*
X100897346Y-94562414D01*
X100888682Y-94566988D01*
X100870182Y-94575854D01*
X100857975Y-94580935D01*
X100842034Y-94586607D01*
X100828320Y-94590626D01*
X100805226Y-94595991D01*
X100792228Y-94598300D01*
X100753219Y-94603136D01*
X100742282Y-94604009D01*
X100679911Y-94606262D01*
X100674156Y-94607570D01*
X100674153Y-94607570D01*
X100670636Y-94608369D01*
X100642721Y-94611500D01*
X99083090Y-94611500D01*
X99014969Y-94591498D01*
X98968476Y-94537842D01*
X98957281Y-94492429D01*
X98957264Y-94492116D01*
X98957307Y-94488000D01*
X98956559Y-94481812D01*
X98944554Y-94382612D01*
X98938276Y-94330733D01*
X98882280Y-94182546D01*
X98792553Y-94051992D01*
X98674275Y-93946611D01*
X98534274Y-93872484D01*
X98526910Y-93870634D01*
X98526907Y-93870633D01*
X98525399Y-93870254D01*
X98506620Y-93863930D01*
X98504697Y-93863109D01*
X98499270Y-93860132D01*
X98493369Y-93858272D01*
X98493367Y-93858271D01*
X98467708Y-93850183D01*
X98432378Y-93839046D01*
X98425652Y-93837026D01*
X98425071Y-93836860D01*
X98424768Y-93836777D01*
X98424745Y-93836771D01*
X98419276Y-93835281D01*
X98419249Y-93835274D01*
X98418912Y-93835182D01*
X98418600Y-93835101D01*
X98418547Y-93835087D01*
X98352431Y-93817944D01*
X98352370Y-93817929D01*
X98352287Y-93817907D01*
X98348937Y-93817062D01*
X98348578Y-93816974D01*
X98348293Y-93816907D01*
X98348219Y-93816889D01*
X98344322Y-93815971D01*
X98343970Y-93815888D01*
X98283262Y-93802176D01*
X98283371Y-93801695D01*
X98283288Y-93801674D01*
X98283179Y-93802157D01*
X98234160Y-93791101D01*
X98229399Y-93789930D01*
X98197539Y-93781429D01*
X98188188Y-93778540D01*
X98168832Y-93771727D01*
X98156601Y-93766686D01*
X98141331Y-93759431D01*
X98128787Y-93752572D01*
X98108653Y-93740029D01*
X98097817Y-93732462D01*
X98095988Y-93731036D01*
X98066848Y-93708323D01*
X98058489Y-93701201D01*
X98012788Y-93658686D01*
X98007791Y-93655539D01*
X98007788Y-93655537D01*
X98004736Y-93653615D01*
X97982784Y-93636090D01*
X95556478Y-91209784D01*
X95541336Y-91191036D01*
X95540221Y-91189811D01*
X95534571Y-91181060D01*
X95526393Y-91174613D01*
X95526391Y-91174611D01*
X95508200Y-91160271D01*
X95503759Y-91156325D01*
X95503697Y-91156398D01*
X95499733Y-91153039D01*
X95496056Y-91149362D01*
X95480308Y-91138108D01*
X95475638Y-91134602D01*
X95435353Y-91102844D01*
X95426719Y-91099812D01*
X95419266Y-91094486D01*
X95370150Y-91079797D01*
X95364508Y-91077964D01*
X95323633Y-91063610D01*
X95323632Y-91063610D01*
X95316149Y-91060982D01*
X95310584Y-91060500D01*
X95307876Y-91060500D01*
X95305242Y-91060386D01*
X95305144Y-91060357D01*
X95305151Y-91060193D01*
X95304447Y-91060149D01*
X95298222Y-91058287D01*
X95244365Y-91060403D01*
X95239418Y-91060500D01*
X84067685Y-91060500D01*
X83999564Y-91040498D01*
X83953071Y-90986842D01*
X83942967Y-90916568D01*
X83970811Y-90853931D01*
X83988448Y-90832724D01*
X83988450Y-90832721D01*
X83992147Y-90828276D01*
X84091334Y-90651165D01*
X84093190Y-90645698D01*
X84093192Y-90645693D01*
X84154728Y-90464414D01*
X84154729Y-90464409D01*
X84156584Y-90458945D01*
X84157412Y-90453236D01*
X84157413Y-90453231D01*
X84184462Y-90266673D01*
X84185712Y-90258053D01*
X84187232Y-90200000D01*
X84168658Y-89997859D01*
X84167090Y-89992299D01*
X84115125Y-89808046D01*
X84115124Y-89808044D01*
X84113557Y-89802487D01*
X84102978Y-89781033D01*
X84026331Y-89625609D01*
X84023776Y-89620428D01*
X84020323Y-89615804D01*
X84020320Y-89615799D01*
X84012920Y-89605890D01*
X83988188Y-89539340D01*
X84003361Y-89469984D01*
X84053622Y-89419841D01*
X84113877Y-89404500D01*
X84373110Y-89404500D01*
X84388838Y-89406174D01*
X84388851Y-89406018D01*
X84394416Y-89406500D01*
X84397128Y-89406500D01*
X84399758Y-89406614D01*
X84399856Y-89406643D01*
X84399849Y-89406807D01*
X84400553Y-89406851D01*
X84406778Y-89408713D01*
X84460635Y-89406597D01*
X84465582Y-89406500D01*
X100723970Y-89406500D01*
X100752545Y-89409783D01*
X100760903Y-89411730D01*
X100767090Y-89411931D01*
X100767091Y-89411931D01*
X100787149Y-89412582D01*
X100830423Y-89413987D01*
X100840172Y-89414683D01*
X100888027Y-89419977D01*
X100899480Y-89421781D01*
X100931783Y-89428409D01*
X100943798Y-89431499D01*
X100968666Y-89439219D01*
X100979323Y-89443060D01*
X101006003Y-89454057D01*
X101013373Y-89457376D01*
X101049321Y-89474979D01*
X101052513Y-89476599D01*
X101100884Y-89502028D01*
X101102505Y-89502873D01*
X101102517Y-89502879D01*
X101159995Y-89532577D01*
X101160098Y-89532629D01*
X101160244Y-89532705D01*
X101160413Y-89532790D01*
X101160479Y-89532824D01*
X101162367Y-89533777D01*
X101164586Y-89534897D01*
X101164739Y-89534972D01*
X101164778Y-89534992D01*
X101164853Y-89535029D01*
X101164892Y-89535048D01*
X101164951Y-89535077D01*
X101168718Y-89536897D01*
X101233965Y-89567776D01*
X101239826Y-89570461D01*
X101240363Y-89570699D01*
X101240750Y-89570864D01*
X101240779Y-89570877D01*
X101244396Y-89572422D01*
X101246733Y-89573421D01*
X101247048Y-89573551D01*
X101247075Y-89573562D01*
X101266989Y-89581759D01*
X101315581Y-89601761D01*
X101318866Y-89602690D01*
X101321293Y-89604008D01*
X101327359Y-89605599D01*
X101327367Y-89605602D01*
X101350927Y-89611782D01*
X101353198Y-89612400D01*
X101372811Y-89617948D01*
X101376205Y-89618498D01*
X101380345Y-89619500D01*
X101467167Y-89642278D01*
X101467172Y-89642279D01*
X101474522Y-89644207D01*
X101558477Y-89645526D01*
X101625319Y-89646576D01*
X101625322Y-89646576D01*
X101632916Y-89646695D01*
X101787332Y-89611329D01*
X101873698Y-89567892D01*
X101922072Y-89543563D01*
X101922075Y-89543561D01*
X101928855Y-89540151D01*
X101934626Y-89535222D01*
X101934629Y-89535220D01*
X102043536Y-89442204D01*
X102043536Y-89442203D01*
X102049314Y-89437269D01*
X102141755Y-89308624D01*
X102200842Y-89161641D01*
X102206965Y-89118615D01*
X102222581Y-89008891D01*
X102222581Y-89008888D01*
X102223162Y-89004807D01*
X102223307Y-88991000D01*
X102204276Y-88833733D01*
X102148280Y-88685546D01*
X102120074Y-88644506D01*
X102070661Y-88572609D01*
X102048561Y-88505139D01*
X102066447Y-88436433D01*
X102072172Y-88427725D01*
X102157755Y-88308624D01*
X102216842Y-88161641D01*
X102233401Y-88045287D01*
X102238581Y-88008891D01*
X102238581Y-88008888D01*
X102239162Y-88004807D01*
X102239307Y-87991000D01*
X102238374Y-87983285D01*
X102231249Y-87924414D01*
X102220276Y-87833733D01*
X102164280Y-87685546D01*
X102126767Y-87630964D01*
X102078855Y-87561251D01*
X102078854Y-87561249D01*
X102074553Y-87554992D01*
X101956275Y-87449611D01*
X101816274Y-87375484D01*
X101808910Y-87373634D01*
X101808907Y-87373633D01*
X101807399Y-87373254D01*
X101788620Y-87366930D01*
X101786697Y-87366109D01*
X101781270Y-87363132D01*
X101775369Y-87361272D01*
X101775367Y-87361271D01*
X101749708Y-87353183D01*
X101714378Y-87342046D01*
X101707652Y-87340026D01*
X101707071Y-87339860D01*
X101706768Y-87339777D01*
X101706745Y-87339771D01*
X101701276Y-87338281D01*
X101701249Y-87338274D01*
X101700912Y-87338182D01*
X101700600Y-87338101D01*
X101700547Y-87338087D01*
X101634431Y-87320944D01*
X101634370Y-87320929D01*
X101634287Y-87320907D01*
X101630937Y-87320062D01*
X101630578Y-87319974D01*
X101630293Y-87319907D01*
X101630219Y-87319889D01*
X101626322Y-87318971D01*
X101625970Y-87318888D01*
X101565262Y-87305176D01*
X101565371Y-87304695D01*
X101565288Y-87304674D01*
X101565179Y-87305157D01*
X101516160Y-87294101D01*
X101511399Y-87292930D01*
X101479539Y-87284429D01*
X101470188Y-87281540D01*
X101450832Y-87274727D01*
X101438601Y-87269686D01*
X101423331Y-87262431D01*
X101410787Y-87255572D01*
X101390653Y-87243029D01*
X101379817Y-87235462D01*
X101373322Y-87230399D01*
X101348848Y-87211323D01*
X101340489Y-87204201D01*
X101339943Y-87203693D01*
X101294788Y-87161686D01*
X101289791Y-87158539D01*
X101289788Y-87158537D01*
X101286736Y-87156615D01*
X101264784Y-87139090D01*
X100255478Y-86129784D01*
X100240336Y-86111036D01*
X100239221Y-86109811D01*
X100233571Y-86101060D01*
X100225393Y-86094613D01*
X100225391Y-86094611D01*
X100207200Y-86080271D01*
X100202759Y-86076325D01*
X100202697Y-86076398D01*
X100198733Y-86073039D01*
X100195056Y-86069362D01*
X100179308Y-86058108D01*
X100174638Y-86054602D01*
X100134353Y-86022844D01*
X100125719Y-86019812D01*
X100118266Y-86014486D01*
X100069150Y-85999797D01*
X100063508Y-85997964D01*
X100022633Y-85983610D01*
X100022632Y-85983610D01*
X100015149Y-85980982D01*
X100009584Y-85980500D01*
X100006876Y-85980500D01*
X100004242Y-85980386D01*
X100004144Y-85980357D01*
X100004151Y-85980193D01*
X100003447Y-85980149D01*
X99997222Y-85978287D01*
X99943365Y-85980403D01*
X99938418Y-85980500D01*
X84067685Y-85980500D01*
X83999564Y-85960498D01*
X83953071Y-85906842D01*
X83942967Y-85836568D01*
X83970811Y-85773931D01*
X83988448Y-85752724D01*
X83988450Y-85752721D01*
X83992147Y-85748276D01*
X84091334Y-85571165D01*
X84093190Y-85565698D01*
X84093192Y-85565693D01*
X84154728Y-85384414D01*
X84154729Y-85384409D01*
X84156584Y-85378945D01*
X84157412Y-85373236D01*
X84157413Y-85373231D01*
X84185179Y-85181727D01*
X84185712Y-85178053D01*
X84187232Y-85120000D01*
X84168658Y-84917859D01*
X84167090Y-84912299D01*
X84115125Y-84728046D01*
X84115124Y-84728044D01*
X84113557Y-84722487D01*
X84102978Y-84701033D01*
X84026331Y-84545609D01*
X84023776Y-84540428D01*
X83902320Y-84377779D01*
X83753258Y-84239987D01*
X83748375Y-84236906D01*
X83748371Y-84236903D01*
X83586464Y-84134748D01*
X83581581Y-84131667D01*
X83393039Y-84056446D01*
X83387379Y-84055320D01*
X83387375Y-84055319D01*
X83199613Y-84017971D01*
X83199610Y-84017971D01*
X83193946Y-84016844D01*
X83188171Y-84016768D01*
X83188167Y-84016768D01*
X83086793Y-84015441D01*
X82990971Y-84014187D01*
X82985274Y-84015166D01*
X82985273Y-84015166D01*
X82796607Y-84047585D01*
X82790910Y-84048564D01*
X82600463Y-84118824D01*
X82426010Y-84222612D01*
X82421670Y-84226418D01*
X82421666Y-84226421D01*
X82401723Y-84243911D01*
X82273392Y-84356455D01*
X82147720Y-84515869D01*
X82145031Y-84520980D01*
X82145029Y-84520983D01*
X82132073Y-84545609D01*
X82053203Y-84695515D01*
X81993007Y-84889378D01*
X81969148Y-85090964D01*
X81982424Y-85293522D01*
X81983845Y-85299118D01*
X81983846Y-85299123D01*
X82004119Y-85378945D01*
X82032392Y-85490269D01*
X82034809Y-85495512D01*
X82072010Y-85576208D01*
X82117377Y-85674616D01*
X82187566Y-85773931D01*
X82193113Y-85781780D01*
X82216094Y-85848954D01*
X82199110Y-85917889D01*
X82147552Y-85966699D01*
X82090216Y-85980500D01*
X81841920Y-85980500D01*
X81817972Y-85977951D01*
X81816307Y-85977872D01*
X81806124Y-85975680D01*
X81795783Y-85976904D01*
X81772777Y-85979627D01*
X81766846Y-85979977D01*
X81766854Y-85980072D01*
X81761676Y-85980500D01*
X81756476Y-85980500D01*
X81751347Y-85981354D01*
X81751344Y-85981354D01*
X81737435Y-85983669D01*
X81731557Y-85984506D01*
X81690999Y-85989306D01*
X81690998Y-85989306D01*
X81680659Y-85990530D01*
X81672407Y-85994493D01*
X81663374Y-85995996D01*
X81654205Y-86000943D01*
X81654203Y-86000944D01*
X81618268Y-86020334D01*
X81612975Y-86023031D01*
X81573918Y-86041785D01*
X81573914Y-86041788D01*
X81566768Y-86045219D01*
X81562492Y-86048814D01*
X81560569Y-86050737D01*
X81558637Y-86052509D01*
X81558558Y-86052552D01*
X81558445Y-86052428D01*
X81557905Y-86052904D01*
X81552186Y-86055990D01*
X81545119Y-86063635D01*
X81515584Y-86095586D01*
X81512154Y-86099152D01*
X81477578Y-86133728D01*
X81458304Y-86148756D01*
X81458420Y-86148913D01*
X81453442Y-86152598D01*
X81448132Y-86155774D01*
X81322001Y-86269883D01*
X81310181Y-86279348D01*
X81212340Y-86348461D01*
X81197189Y-86357639D01*
X81115705Y-86399459D01*
X81099139Y-86406514D01*
X81021569Y-86433181D01*
X81007271Y-86437172D01*
X80918723Y-86456340D01*
X80910026Y-86457905D01*
X80886455Y-86461298D01*
X80799592Y-86473800D01*
X80797788Y-86474046D01*
X80668216Y-86490787D01*
X80668150Y-86490796D01*
X80667855Y-86490834D01*
X80665526Y-86491157D01*
X80663289Y-86491466D01*
X80663212Y-86491477D01*
X80663147Y-86491486D01*
X80663090Y-86491494D01*
X80663016Y-86491505D01*
X80662992Y-86491509D01*
X80662748Y-86491545D01*
X80659416Y-86492068D01*
X80658579Y-86492199D01*
X80658558Y-86492202D01*
X80658280Y-86492246D01*
X80607367Y-86500684D01*
X80516394Y-86515760D01*
X80516356Y-86515767D01*
X80515829Y-86515854D01*
X80515277Y-86515956D01*
X80515247Y-86515961D01*
X80507099Y-86517463D01*
X80507088Y-86517465D01*
X80506595Y-86517556D01*
X80505768Y-86517724D01*
X80505257Y-86517837D01*
X80505212Y-86517847D01*
X80497163Y-86519634D01*
X80497116Y-86519645D01*
X80496647Y-86519749D01*
X80496180Y-86519861D01*
X80496139Y-86519871D01*
X80392283Y-86544893D01*
X80340573Y-86557352D01*
X80334226Y-86559037D01*
X80329710Y-86560235D01*
X80329685Y-86560242D01*
X80329033Y-86560415D01*
X80328013Y-86560711D01*
X80327322Y-86560929D01*
X80327305Y-86560934D01*
X80323340Y-86562184D01*
X80316645Y-86564295D01*
X80236370Y-86591645D01*
X80154118Y-86619669D01*
X80154113Y-86619671D01*
X80150550Y-86620885D01*
X80147155Y-86622517D01*
X80147150Y-86622519D01*
X80113845Y-86638529D01*
X80102871Y-86643179D01*
X80060463Y-86658824D01*
X79886010Y-86762612D01*
X79881670Y-86766418D01*
X79881666Y-86766421D01*
X79758610Y-86874339D01*
X79733392Y-86896455D01*
X79607720Y-87055869D01*
X79605031Y-87060980D01*
X79605029Y-87060983D01*
X79577382Y-87113532D01*
X79513203Y-87235515D01*
X79453007Y-87429378D01*
X79429148Y-87630964D01*
X79442424Y-87833522D01*
X79443845Y-87839118D01*
X79443846Y-87839123D01*
X79482218Y-87990208D01*
X79492392Y-88030269D01*
X79494809Y-88035512D01*
X79536010Y-88124884D01*
X79577377Y-88214616D01*
X79694533Y-88380389D01*
X79698675Y-88384424D01*
X79752064Y-88436433D01*
X79839938Y-88522035D01*
X80008720Y-88634812D01*
X80014023Y-88637090D01*
X80014026Y-88637092D01*
X80179128Y-88708025D01*
X80195228Y-88714942D01*
X80268244Y-88731464D01*
X80387579Y-88758467D01*
X80387584Y-88758468D01*
X80393216Y-88759742D01*
X80398987Y-88759969D01*
X80398989Y-88759969D01*
X80458756Y-88762317D01*
X80596053Y-88767712D01*
X80796697Y-88738620D01*
X80796699Y-88738620D01*
X80796945Y-88738584D01*
X80796952Y-88738632D01*
X80865812Y-88742075D01*
X80923547Y-88783394D01*
X80949778Y-88849367D01*
X80936178Y-88919048D01*
X80898883Y-88962618D01*
X80881982Y-88975025D01*
X80875249Y-88979640D01*
X80811573Y-89020314D01*
X80796925Y-89028355D01*
X80742504Y-89053687D01*
X80721832Y-89061192D01*
X80659956Y-89077711D01*
X80637647Y-89081562D01*
X80537702Y-89089672D01*
X80525290Y-89090679D01*
X80521816Y-89091359D01*
X80521815Y-89091359D01*
X80516627Y-89092374D01*
X80490784Y-89094708D01*
X80476125Y-89094516D01*
X80450971Y-89094187D01*
X80445274Y-89095166D01*
X80445273Y-89095166D01*
X80256607Y-89127585D01*
X80250910Y-89128564D01*
X80060463Y-89198824D01*
X79886010Y-89302612D01*
X79881670Y-89306418D01*
X79881666Y-89306421D01*
X79752184Y-89419975D01*
X79733392Y-89436455D01*
X79607720Y-89595869D01*
X79605031Y-89600980D01*
X79605029Y-89600983D01*
X79557128Y-89692027D01*
X79513203Y-89775515D01*
X79453007Y-89969378D01*
X79429148Y-90170964D01*
X79442424Y-90373522D01*
X79443845Y-90379118D01*
X79443846Y-90379123D01*
X79484297Y-90538397D01*
X79492392Y-90570269D01*
X79494809Y-90575512D01*
X79574957Y-90749368D01*
X79574959Y-90749371D01*
X79577377Y-90754616D01*
X79579957Y-90758267D01*
X79596594Y-90826849D01*
X79573373Y-90893941D01*
X79517566Y-90937828D01*
X79446890Y-90944576D01*
X79381642Y-90909948D01*
X78648405Y-90176711D01*
X78614379Y-90114399D01*
X78611500Y-90087616D01*
X78611500Y-85090964D01*
X79429148Y-85090964D01*
X79442424Y-85293522D01*
X79443845Y-85299118D01*
X79443846Y-85299123D01*
X79464119Y-85378945D01*
X79492392Y-85490269D01*
X79494809Y-85495512D01*
X79532010Y-85576208D01*
X79577377Y-85674616D01*
X79580710Y-85679332D01*
X79653113Y-85781780D01*
X79694533Y-85840389D01*
X79698675Y-85844424D01*
X79763970Y-85908031D01*
X79839938Y-85982035D01*
X79844742Y-85985245D01*
X79899369Y-86021746D01*
X80008720Y-86094812D01*
X80014023Y-86097090D01*
X80014026Y-86097092D01*
X80189921Y-86172662D01*
X80195228Y-86174942D01*
X80268244Y-86191464D01*
X80387579Y-86218467D01*
X80387584Y-86218468D01*
X80393216Y-86219742D01*
X80398987Y-86219969D01*
X80398989Y-86219969D01*
X80458756Y-86222317D01*
X80596053Y-86227712D01*
X80696499Y-86213148D01*
X80791231Y-86199413D01*
X80791236Y-86199412D01*
X80796945Y-86198584D01*
X80802409Y-86196729D01*
X80802414Y-86196728D01*
X80983693Y-86135192D01*
X80983698Y-86135190D01*
X80989165Y-86133334D01*
X81166276Y-86034147D01*
X81172113Y-86029293D01*
X81317913Y-85908031D01*
X81322345Y-85904345D01*
X81346172Y-85875696D01*
X81448453Y-85752718D01*
X81448455Y-85752715D01*
X81452147Y-85748276D01*
X81551334Y-85571165D01*
X81553190Y-85565698D01*
X81553192Y-85565693D01*
X81614728Y-85384414D01*
X81614729Y-85384409D01*
X81616584Y-85378945D01*
X81617412Y-85373236D01*
X81617413Y-85373231D01*
X81645179Y-85181727D01*
X81645712Y-85178053D01*
X81647232Y-85120000D01*
X81628658Y-84917859D01*
X81627090Y-84912299D01*
X81575125Y-84728046D01*
X81575124Y-84728044D01*
X81573557Y-84722487D01*
X81562978Y-84701033D01*
X81486331Y-84545609D01*
X81483776Y-84540428D01*
X81362320Y-84377779D01*
X81213258Y-84239987D01*
X81208375Y-84236906D01*
X81208371Y-84236903D01*
X81046464Y-84134748D01*
X81041581Y-84131667D01*
X80853039Y-84056446D01*
X80847379Y-84055320D01*
X80847375Y-84055319D01*
X80659613Y-84017971D01*
X80659610Y-84017971D01*
X80653946Y-84016844D01*
X80648171Y-84016768D01*
X80648167Y-84016768D01*
X80546793Y-84015441D01*
X80450971Y-84014187D01*
X80445274Y-84015166D01*
X80445273Y-84015166D01*
X80256607Y-84047585D01*
X80250910Y-84048564D01*
X80060463Y-84118824D01*
X79886010Y-84222612D01*
X79881670Y-84226418D01*
X79881666Y-84226421D01*
X79861723Y-84243911D01*
X79733392Y-84356455D01*
X79607720Y-84515869D01*
X79605031Y-84520980D01*
X79605029Y-84520983D01*
X79592073Y-84545609D01*
X79513203Y-84695515D01*
X79453007Y-84889378D01*
X79429148Y-85090964D01*
X78611500Y-85090964D01*
X78611500Y-82550964D01*
X79429148Y-82550964D01*
X79442424Y-82753522D01*
X79443845Y-82759118D01*
X79443846Y-82759123D01*
X79489685Y-82939612D01*
X79492392Y-82950269D01*
X79494809Y-82955512D01*
X79530386Y-83032685D01*
X79577377Y-83134616D01*
X79582944Y-83142493D01*
X79688069Y-83291242D01*
X79694533Y-83300389D01*
X79839938Y-83442035D01*
X80008720Y-83554812D01*
X80014023Y-83557090D01*
X80014026Y-83557092D01*
X80102707Y-83595192D01*
X80195228Y-83634942D01*
X80268244Y-83651464D01*
X80387579Y-83678467D01*
X80387584Y-83678468D01*
X80393216Y-83679742D01*
X80398987Y-83679969D01*
X80398989Y-83679969D01*
X80458756Y-83682317D01*
X80596053Y-83687712D01*
X80696499Y-83673148D01*
X80791231Y-83659413D01*
X80791236Y-83659412D01*
X80796945Y-83658584D01*
X80802409Y-83656729D01*
X80802414Y-83656728D01*
X80983693Y-83595192D01*
X80983698Y-83595190D01*
X80989165Y-83593334D01*
X81166276Y-83494147D01*
X81228934Y-83442035D01*
X81317913Y-83368031D01*
X81322345Y-83364345D01*
X81349292Y-83331945D01*
X81448453Y-83212718D01*
X81448455Y-83212715D01*
X81452147Y-83208276D01*
X81548147Y-83036856D01*
X81548510Y-83036208D01*
X81548511Y-83036206D01*
X81551334Y-83031165D01*
X81553190Y-83025698D01*
X81553192Y-83025693D01*
X81614728Y-82844414D01*
X81614729Y-82844409D01*
X81616584Y-82838945D01*
X81617412Y-82833236D01*
X81617413Y-82833231D01*
X81645179Y-82641727D01*
X81645712Y-82638053D01*
X81647232Y-82580000D01*
X81644564Y-82550964D01*
X81969148Y-82550964D01*
X81982424Y-82753522D01*
X81983845Y-82759118D01*
X81983846Y-82759123D01*
X82029685Y-82939612D01*
X82032392Y-82950269D01*
X82034809Y-82955512D01*
X82070386Y-83032685D01*
X82117377Y-83134616D01*
X82122944Y-83142493D01*
X82228069Y-83291242D01*
X82234533Y-83300389D01*
X82379938Y-83442035D01*
X82548720Y-83554812D01*
X82554023Y-83557090D01*
X82554026Y-83557092D01*
X82642707Y-83595192D01*
X82735228Y-83634942D01*
X82808244Y-83651464D01*
X82927579Y-83678467D01*
X82927584Y-83678468D01*
X82933216Y-83679742D01*
X82938987Y-83679969D01*
X82938989Y-83679969D01*
X82998756Y-83682317D01*
X83136053Y-83687712D01*
X83236499Y-83673148D01*
X83331231Y-83659413D01*
X83331236Y-83659412D01*
X83336945Y-83658584D01*
X83342409Y-83656729D01*
X83342414Y-83656728D01*
X83523693Y-83595192D01*
X83523698Y-83595190D01*
X83529165Y-83593334D01*
X83706276Y-83494147D01*
X83768934Y-83442035D01*
X83857913Y-83368031D01*
X83862345Y-83364345D01*
X83889292Y-83331945D01*
X83988453Y-83212718D01*
X83988455Y-83212715D01*
X83992147Y-83208276D01*
X84088147Y-83036856D01*
X84088510Y-83036208D01*
X84088511Y-83036206D01*
X84091334Y-83031165D01*
X84093190Y-83025698D01*
X84093192Y-83025693D01*
X84154728Y-82844414D01*
X84154729Y-82844409D01*
X84156584Y-82838945D01*
X84157412Y-82833236D01*
X84157413Y-82833231D01*
X84185179Y-82641727D01*
X84185712Y-82638053D01*
X84187232Y-82580000D01*
X84168658Y-82377859D01*
X84162948Y-82357612D01*
X84115125Y-82188046D01*
X84115124Y-82188044D01*
X84113557Y-82182487D01*
X84102978Y-82161033D01*
X84026331Y-82005609D01*
X84023776Y-82000428D01*
X83902320Y-81837779D01*
X83801380Y-81744471D01*
X83757503Y-81703911D01*
X83753258Y-81699987D01*
X83748375Y-81696906D01*
X83748371Y-81696903D01*
X83586464Y-81594748D01*
X83581581Y-81591667D01*
X83393039Y-81516446D01*
X83387379Y-81515320D01*
X83387375Y-81515319D01*
X83199613Y-81477971D01*
X83199610Y-81477971D01*
X83193946Y-81476844D01*
X83188171Y-81476768D01*
X83188167Y-81476768D01*
X83086793Y-81475441D01*
X82990971Y-81474187D01*
X82985274Y-81475166D01*
X82985273Y-81475166D01*
X82933304Y-81484096D01*
X82790910Y-81508564D01*
X82600463Y-81578824D01*
X82426010Y-81682612D01*
X82421670Y-81686418D01*
X82421666Y-81686421D01*
X82313213Y-81781533D01*
X82273392Y-81816455D01*
X82147720Y-81975869D01*
X82145031Y-81980980D01*
X82145029Y-81980983D01*
X82111397Y-82044907D01*
X82053203Y-82155515D01*
X82010150Y-82294169D01*
X81995880Y-82340127D01*
X81993007Y-82349378D01*
X81969148Y-82550964D01*
X81644564Y-82550964D01*
X81628658Y-82377859D01*
X81622948Y-82357612D01*
X81575125Y-82188046D01*
X81575124Y-82188044D01*
X81573557Y-82182487D01*
X81562978Y-82161033D01*
X81486331Y-82005609D01*
X81483776Y-82000428D01*
X81362320Y-81837779D01*
X81261380Y-81744471D01*
X81217503Y-81703911D01*
X81213258Y-81699987D01*
X81208375Y-81696906D01*
X81208371Y-81696903D01*
X81046464Y-81594748D01*
X81041581Y-81591667D01*
X80853039Y-81516446D01*
X80847379Y-81515320D01*
X80847375Y-81515319D01*
X80659613Y-81477971D01*
X80659610Y-81477971D01*
X80653946Y-81476844D01*
X80648171Y-81476768D01*
X80648167Y-81476768D01*
X80546793Y-81475441D01*
X80450971Y-81474187D01*
X80445274Y-81475166D01*
X80445273Y-81475166D01*
X80393304Y-81484096D01*
X80250910Y-81508564D01*
X80060463Y-81578824D01*
X79886010Y-81682612D01*
X79881670Y-81686418D01*
X79881666Y-81686421D01*
X79773213Y-81781533D01*
X79733392Y-81816455D01*
X79607720Y-81975869D01*
X79605031Y-81980980D01*
X79605029Y-81980983D01*
X79571397Y-82044907D01*
X79513203Y-82155515D01*
X79470150Y-82294169D01*
X79455880Y-82340127D01*
X79453007Y-82349378D01*
X79429148Y-82550964D01*
X78611500Y-82550964D01*
X78611500Y-80010964D01*
X79429148Y-80010964D01*
X79442424Y-80213522D01*
X79443845Y-80219118D01*
X79443846Y-80219123D01*
X79483115Y-80373743D01*
X79492392Y-80410269D01*
X79494809Y-80415512D01*
X79557741Y-80552022D01*
X79577377Y-80594616D01*
X79580710Y-80599332D01*
X79685382Y-80747440D01*
X79694533Y-80760389D01*
X79698675Y-80764424D01*
X79770381Y-80834276D01*
X79839938Y-80902035D01*
X79844742Y-80905245D01*
X79896340Y-80939722D01*
X80008720Y-81014812D01*
X80014023Y-81017090D01*
X80014026Y-81017092D01*
X80188895Y-81092221D01*
X80195228Y-81094942D01*
X80264011Y-81110506D01*
X80387579Y-81138467D01*
X80387584Y-81138468D01*
X80393216Y-81139742D01*
X80398987Y-81139969D01*
X80398989Y-81139969D01*
X80458756Y-81142317D01*
X80596053Y-81147712D01*
X80718590Y-81129945D01*
X80791231Y-81119413D01*
X80791236Y-81119412D01*
X80796945Y-81118584D01*
X80802409Y-81116729D01*
X80802414Y-81116728D01*
X80983693Y-81055192D01*
X80983698Y-81055190D01*
X80989165Y-81053334D01*
X81004322Y-81044846D01*
X81114298Y-80983256D01*
X81166276Y-80954147D01*
X81174864Y-80947005D01*
X81317913Y-80828031D01*
X81322345Y-80824345D01*
X81386307Y-80747440D01*
X81448453Y-80672718D01*
X81448455Y-80672715D01*
X81452147Y-80668276D01*
X81517252Y-80552022D01*
X81548510Y-80496208D01*
X81548511Y-80496206D01*
X81551334Y-80491165D01*
X81553190Y-80485698D01*
X81553192Y-80485693D01*
X81614728Y-80304414D01*
X81614729Y-80304409D01*
X81616584Y-80298945D01*
X81617412Y-80293236D01*
X81617413Y-80293231D01*
X81645179Y-80101727D01*
X81645712Y-80098053D01*
X81647232Y-80040000D01*
X81644564Y-80010964D01*
X81969148Y-80010964D01*
X81982424Y-80213522D01*
X81983845Y-80219118D01*
X81983846Y-80219123D01*
X82023115Y-80373743D01*
X82032392Y-80410269D01*
X82034809Y-80415512D01*
X82097741Y-80552022D01*
X82117377Y-80594616D01*
X82120710Y-80599332D01*
X82225382Y-80747440D01*
X82234533Y-80760389D01*
X82238675Y-80764424D01*
X82310381Y-80834276D01*
X82379938Y-80902035D01*
X82384742Y-80905245D01*
X82436340Y-80939722D01*
X82548720Y-81014812D01*
X82554023Y-81017090D01*
X82554026Y-81017092D01*
X82728895Y-81092221D01*
X82735228Y-81094942D01*
X82804011Y-81110506D01*
X82927579Y-81138467D01*
X82927584Y-81138468D01*
X82933216Y-81139742D01*
X82938987Y-81139969D01*
X82938989Y-81139969D01*
X82998756Y-81142317D01*
X83136053Y-81147712D01*
X83258590Y-81129945D01*
X83331231Y-81119413D01*
X83331236Y-81119412D01*
X83336945Y-81118584D01*
X83342409Y-81116729D01*
X83342414Y-81116728D01*
X83521158Y-81056052D01*
X83529165Y-81053334D01*
X83534201Y-81050514D01*
X83534205Y-81050512D01*
X83552551Y-81040238D01*
X83568703Y-81033284D01*
X83568592Y-81033023D01*
X83574291Y-81030609D01*
X83580200Y-81028764D01*
X83597943Y-81019096D01*
X83663715Y-80983256D01*
X83730910Y-80946641D01*
X83741249Y-80940696D01*
X83742168Y-80940139D01*
X83752215Y-80933729D01*
X83752766Y-80933359D01*
X83752811Y-80933330D01*
X83859099Y-80862037D01*
X83883265Y-80845828D01*
X83891052Y-80840395D01*
X83891696Y-80839928D01*
X83898709Y-80834660D01*
X83899203Y-80834276D01*
X84010811Y-80747440D01*
X84010916Y-80747357D01*
X84011040Y-80747261D01*
X84014296Y-80744686D01*
X84014592Y-80744448D01*
X84014974Y-80744136D01*
X84017666Y-80741935D01*
X84017740Y-80741874D01*
X84017905Y-80741739D01*
X84018113Y-80741566D01*
X84018193Y-80741500D01*
X84116528Y-80659727D01*
X84118374Y-80658221D01*
X84202447Y-80590955D01*
X84210129Y-80585273D01*
X84280952Y-80536930D01*
X84294460Y-80528896D01*
X84322252Y-80514634D01*
X84362378Y-80494043D01*
X84379814Y-80486692D01*
X84460738Y-80459534D01*
X84478691Y-80454946D01*
X84590455Y-80435002D01*
X84606089Y-80433211D01*
X84764515Y-80425026D01*
X84764520Y-80425025D01*
X84770294Y-80424727D01*
X84777654Y-80422964D01*
X84806996Y-80419500D01*
X88232076Y-80419500D01*
X88261101Y-80422889D01*
X88262891Y-80423313D01*
X88262900Y-80423314D01*
X88268915Y-80424738D01*
X88331280Y-80426990D01*
X88342219Y-80427863D01*
X88381228Y-80432699D01*
X88394226Y-80435008D01*
X88417320Y-80440373D01*
X88431034Y-80444392D01*
X88446975Y-80450064D01*
X88459182Y-80455145D01*
X88477682Y-80464011D01*
X88486346Y-80468585D01*
X88514897Y-80485110D01*
X88519088Y-80487646D01*
X88561519Y-80514459D01*
X88561597Y-80514509D01*
X88561624Y-80514526D01*
X88614222Y-80547743D01*
X88614385Y-80547845D01*
X88614419Y-80547866D01*
X88616537Y-80549187D01*
X88616613Y-80549234D01*
X88616692Y-80549283D01*
X88616968Y-80549453D01*
X88617197Y-80549591D01*
X88617248Y-80549622D01*
X88621234Y-80552022D01*
X88621312Y-80552068D01*
X88621499Y-80552181D01*
X88680903Y-80587121D01*
X88682387Y-80587968D01*
X88685932Y-80589992D01*
X88686732Y-80590449D01*
X88687261Y-80590742D01*
X88687641Y-80590946D01*
X88692884Y-80593762D01*
X88692937Y-80593790D01*
X88693155Y-80593907D01*
X88755352Y-80626290D01*
X88780378Y-80635850D01*
X88795536Y-80642824D01*
X88807614Y-80649382D01*
X88807618Y-80649384D01*
X88814293Y-80653008D01*
X88967522Y-80693207D01*
X89051477Y-80694526D01*
X89118319Y-80695576D01*
X89118322Y-80695576D01*
X89125916Y-80695695D01*
X89280332Y-80660329D01*
X89351348Y-80624612D01*
X89415072Y-80592563D01*
X89415075Y-80592561D01*
X89421855Y-80589151D01*
X89427626Y-80584222D01*
X89427629Y-80584220D01*
X89536536Y-80491204D01*
X89536536Y-80491203D01*
X89542314Y-80486269D01*
X89634755Y-80357624D01*
X89693842Y-80210641D01*
X89716162Y-80053807D01*
X89716307Y-80040000D01*
X89697276Y-79882733D01*
X89641280Y-79734546D01*
X89590390Y-79660500D01*
X89555855Y-79610251D01*
X89555854Y-79610249D01*
X89551553Y-79603992D01*
X89433275Y-79498611D01*
X89415609Y-79489257D01*
X89314776Y-79435869D01*
X89293274Y-79424484D01*
X89139633Y-79385892D01*
X89132034Y-79385852D01*
X89132033Y-79385852D01*
X89066181Y-79385507D01*
X88981221Y-79385062D01*
X88973841Y-79386834D01*
X88973839Y-79386834D01*
X88834563Y-79420271D01*
X88834560Y-79420272D01*
X88827184Y-79422043D01*
X88790489Y-79440983D01*
X88790262Y-79441100D01*
X88767736Y-79450098D01*
X88755355Y-79453708D01*
X88693158Y-79486090D01*
X88687261Y-79489257D01*
X88686732Y-79489550D01*
X88680903Y-79492878D01*
X88621499Y-79527818D01*
X88621312Y-79527931D01*
X88621234Y-79527977D01*
X88617248Y-79530377D01*
X88617197Y-79530408D01*
X88616968Y-79530546D01*
X88616692Y-79530716D01*
X88616613Y-79530765D01*
X88616537Y-79530812D01*
X88614419Y-79532133D01*
X88614222Y-79532256D01*
X88561624Y-79565473D01*
X88561597Y-79565490D01*
X88561519Y-79565540D01*
X88519088Y-79592353D01*
X88514897Y-79594889D01*
X88494782Y-79606531D01*
X88488100Y-79610399D01*
X88486346Y-79611414D01*
X88477682Y-79615988D01*
X88459182Y-79624854D01*
X88446975Y-79629935D01*
X88431034Y-79635607D01*
X88417320Y-79639626D01*
X88394226Y-79644991D01*
X88381228Y-79647300D01*
X88342219Y-79652136D01*
X88331282Y-79653009D01*
X88268911Y-79655262D01*
X88263156Y-79656570D01*
X88263153Y-79656570D01*
X88259636Y-79657369D01*
X88231721Y-79660500D01*
X84806642Y-79660500D01*
X84782450Y-79657485D01*
X84782415Y-79657716D01*
X84776296Y-79656792D01*
X84770295Y-79655273D01*
X84764117Y-79654954D01*
X84764112Y-79654953D01*
X84606088Y-79646788D01*
X84590455Y-79644997D01*
X84478691Y-79625053D01*
X84460738Y-79620465D01*
X84379814Y-79593307D01*
X84362375Y-79585955D01*
X84322539Y-79565512D01*
X84294458Y-79551102D01*
X84280952Y-79543069D01*
X84210116Y-79494717D01*
X84202434Y-79489035D01*
X84118424Y-79421820D01*
X84116622Y-79420351D01*
X84017905Y-79338260D01*
X84014592Y-79335551D01*
X84014296Y-79335313D01*
X84011040Y-79332738D01*
X84010916Y-79332642D01*
X84010811Y-79332559D01*
X83899203Y-79245723D01*
X83899176Y-79245703D01*
X83898709Y-79245339D01*
X83891696Y-79240071D01*
X83891052Y-79239604D01*
X83883265Y-79234171D01*
X83778516Y-79163911D01*
X83752811Y-79146669D01*
X83752766Y-79146640D01*
X83752215Y-79146270D01*
X83742168Y-79139860D01*
X83741249Y-79139303D01*
X83730909Y-79133357D01*
X83730276Y-79133012D01*
X83730192Y-79132965D01*
X83588851Y-79055948D01*
X83588539Y-79055765D01*
X83588485Y-79055750D01*
X83585312Y-79054021D01*
X83581581Y-79051667D01*
X83393039Y-78976446D01*
X83387379Y-78975320D01*
X83387375Y-78975319D01*
X83199613Y-78937971D01*
X83199610Y-78937971D01*
X83193946Y-78936844D01*
X83188171Y-78936768D01*
X83188167Y-78936768D01*
X83086793Y-78935441D01*
X82990971Y-78934187D01*
X82985274Y-78935166D01*
X82985273Y-78935166D01*
X82796607Y-78967585D01*
X82790910Y-78968564D01*
X82600463Y-79038824D01*
X82426010Y-79142612D01*
X82421670Y-79146418D01*
X82421666Y-79146421D01*
X82309280Y-79244982D01*
X82273392Y-79276455D01*
X82147720Y-79435869D01*
X82145031Y-79440980D01*
X82145029Y-79440983D01*
X82112051Y-79503664D01*
X82053203Y-79615515D01*
X81993007Y-79809378D01*
X81969148Y-80010964D01*
X81644564Y-80010964D01*
X81628658Y-79837859D01*
X81627090Y-79832299D01*
X81575125Y-79648046D01*
X81575124Y-79648044D01*
X81573557Y-79642487D01*
X81570163Y-79635603D01*
X81486331Y-79465609D01*
X81483776Y-79460428D01*
X81362320Y-79297779D01*
X81213258Y-79159987D01*
X81208375Y-79156906D01*
X81208371Y-79156903D01*
X81046464Y-79054748D01*
X81041581Y-79051667D01*
X80853039Y-78976446D01*
X80847379Y-78975320D01*
X80847375Y-78975319D01*
X80659613Y-78937971D01*
X80659610Y-78937971D01*
X80653946Y-78936844D01*
X80648171Y-78936768D01*
X80648167Y-78936768D01*
X80546793Y-78935441D01*
X80450971Y-78934187D01*
X80445274Y-78935166D01*
X80445273Y-78935166D01*
X80256607Y-78967585D01*
X80250910Y-78968564D01*
X80060463Y-79038824D01*
X79886010Y-79142612D01*
X79881670Y-79146418D01*
X79881666Y-79146421D01*
X79769280Y-79244982D01*
X79733392Y-79276455D01*
X79607720Y-79435869D01*
X79605031Y-79440980D01*
X79605029Y-79440983D01*
X79572051Y-79503664D01*
X79513203Y-79615515D01*
X79453007Y-79809378D01*
X79429148Y-80010964D01*
X78611500Y-80010964D01*
X78611500Y-77470964D01*
X79429148Y-77470964D01*
X79442424Y-77673522D01*
X79443845Y-77679118D01*
X79443846Y-77679123D01*
X79464119Y-77758945D01*
X79492392Y-77870269D01*
X79494809Y-77875512D01*
X79532010Y-77956208D01*
X79577377Y-78054616D01*
X79694533Y-78220389D01*
X79839938Y-78362035D01*
X80008720Y-78474812D01*
X80014023Y-78477090D01*
X80014026Y-78477092D01*
X80102707Y-78515192D01*
X80195228Y-78554942D01*
X80268244Y-78571464D01*
X80387579Y-78598467D01*
X80387584Y-78598468D01*
X80393216Y-78599742D01*
X80398987Y-78599969D01*
X80398989Y-78599969D01*
X80458756Y-78602317D01*
X80596053Y-78607712D01*
X80696499Y-78593148D01*
X80791231Y-78579413D01*
X80791236Y-78579412D01*
X80796945Y-78578584D01*
X80802409Y-78576729D01*
X80802414Y-78576728D01*
X80983693Y-78515192D01*
X80983698Y-78515190D01*
X80989165Y-78513334D01*
X81166276Y-78414147D01*
X81228934Y-78362035D01*
X81317913Y-78288031D01*
X81322345Y-78284345D01*
X81452147Y-78128276D01*
X81551334Y-77951165D01*
X81553190Y-77945698D01*
X81553192Y-77945693D01*
X81614728Y-77764414D01*
X81614729Y-77764409D01*
X81616584Y-77758945D01*
X81617412Y-77753236D01*
X81617413Y-77753231D01*
X81645179Y-77561727D01*
X81645712Y-77558053D01*
X81647232Y-77500000D01*
X81644564Y-77470964D01*
X81969148Y-77470964D01*
X81982424Y-77673522D01*
X81983845Y-77679118D01*
X81983846Y-77679123D01*
X82004119Y-77758945D01*
X82032392Y-77870269D01*
X82034809Y-77875512D01*
X82072010Y-77956208D01*
X82117377Y-78054616D01*
X82234533Y-78220389D01*
X82379938Y-78362035D01*
X82548720Y-78474812D01*
X82554023Y-78477090D01*
X82554026Y-78477092D01*
X82642707Y-78515192D01*
X82735228Y-78554942D01*
X82808244Y-78571464D01*
X82927579Y-78598467D01*
X82927584Y-78598468D01*
X82933216Y-78599742D01*
X82938987Y-78599969D01*
X82938989Y-78599969D01*
X82998756Y-78602317D01*
X83136053Y-78607712D01*
X83236499Y-78593148D01*
X83331231Y-78579413D01*
X83331236Y-78579412D01*
X83336945Y-78578584D01*
X83342409Y-78576729D01*
X83342414Y-78576728D01*
X83523693Y-78515192D01*
X83523698Y-78515190D01*
X83529165Y-78513334D01*
X83706276Y-78414147D01*
X83768934Y-78362035D01*
X83857913Y-78288031D01*
X83862345Y-78284345D01*
X83992147Y-78128276D01*
X84091334Y-77951165D01*
X84093190Y-77945698D01*
X84093192Y-77945693D01*
X84154728Y-77764414D01*
X84154729Y-77764409D01*
X84156584Y-77758945D01*
X84157412Y-77753236D01*
X84157413Y-77753231D01*
X84185179Y-77561727D01*
X84185712Y-77558053D01*
X84187232Y-77500000D01*
X84168658Y-77297859D01*
X84167090Y-77292299D01*
X84115125Y-77108046D01*
X84115124Y-77108044D01*
X84113557Y-77102487D01*
X84102978Y-77081033D01*
X84026331Y-76925609D01*
X84023776Y-76920428D01*
X83902320Y-76757779D01*
X83753258Y-76619987D01*
X83748375Y-76616906D01*
X83748371Y-76616903D01*
X83586464Y-76514748D01*
X83581581Y-76511667D01*
X83393039Y-76436446D01*
X83387379Y-76435320D01*
X83387375Y-76435319D01*
X83199613Y-76397971D01*
X83199610Y-76397971D01*
X83193946Y-76396844D01*
X83188171Y-76396768D01*
X83188167Y-76396768D01*
X83086793Y-76395441D01*
X82990971Y-76394187D01*
X82985274Y-76395166D01*
X82985273Y-76395166D01*
X82796607Y-76427585D01*
X82790910Y-76428564D01*
X82600463Y-76498824D01*
X82426010Y-76602612D01*
X82421670Y-76606418D01*
X82421666Y-76606421D01*
X82401723Y-76623911D01*
X82273392Y-76736455D01*
X82147720Y-76895869D01*
X82145031Y-76900980D01*
X82145029Y-76900983D01*
X82132073Y-76925609D01*
X82053203Y-77075515D01*
X81993007Y-77269378D01*
X81969148Y-77470964D01*
X81644564Y-77470964D01*
X81628658Y-77297859D01*
X81627090Y-77292299D01*
X81575125Y-77108046D01*
X81575124Y-77108044D01*
X81573557Y-77102487D01*
X81562978Y-77081033D01*
X81486331Y-76925609D01*
X81483776Y-76920428D01*
X81362320Y-76757779D01*
X81213258Y-76619987D01*
X81208375Y-76616906D01*
X81208371Y-76616903D01*
X81046464Y-76514748D01*
X81041581Y-76511667D01*
X80853039Y-76436446D01*
X80847379Y-76435320D01*
X80847375Y-76435319D01*
X80659613Y-76397971D01*
X80659610Y-76397971D01*
X80653946Y-76396844D01*
X80648171Y-76396768D01*
X80648167Y-76396768D01*
X80546793Y-76395441D01*
X80450971Y-76394187D01*
X80445274Y-76395166D01*
X80445273Y-76395166D01*
X80256607Y-76427585D01*
X80250910Y-76428564D01*
X80060463Y-76498824D01*
X79886010Y-76602612D01*
X79881670Y-76606418D01*
X79881666Y-76606421D01*
X79861723Y-76623911D01*
X79733392Y-76736455D01*
X79607720Y-76895869D01*
X79605031Y-76900980D01*
X79605029Y-76900983D01*
X79592073Y-76925609D01*
X79513203Y-77075515D01*
X79453007Y-77269378D01*
X79429148Y-77470964D01*
X78611500Y-77470964D01*
X78611500Y-75266384D01*
X78631502Y-75198263D01*
X78648405Y-75177289D01*
X79252948Y-74572746D01*
X79315260Y-74538720D01*
X79386075Y-74543785D01*
X79442911Y-74586332D01*
X79467722Y-74652852D01*
X79462375Y-74699205D01*
X79454722Y-74723851D01*
X79454720Y-74723861D01*
X79453007Y-74729378D01*
X79429148Y-74930964D01*
X79442424Y-75133522D01*
X79443845Y-75139118D01*
X79443846Y-75139123D01*
X79462912Y-75214194D01*
X79492392Y-75330269D01*
X79494809Y-75335512D01*
X79532010Y-75416208D01*
X79577377Y-75514616D01*
X79694533Y-75680389D01*
X79839938Y-75822035D01*
X80008720Y-75934812D01*
X80014023Y-75937090D01*
X80014026Y-75937092D01*
X80102707Y-75975192D01*
X80195228Y-76014942D01*
X80268244Y-76031464D01*
X80387579Y-76058467D01*
X80387584Y-76058468D01*
X80393216Y-76059742D01*
X80398987Y-76059969D01*
X80398989Y-76059969D01*
X80458756Y-76062317D01*
X80596053Y-76067712D01*
X80696499Y-76053148D01*
X80791231Y-76039413D01*
X80791236Y-76039412D01*
X80796945Y-76038584D01*
X80802409Y-76036729D01*
X80802414Y-76036728D01*
X80983693Y-75975192D01*
X80983698Y-75975190D01*
X80989165Y-75973334D01*
X81166276Y-75874147D01*
X81228934Y-75822035D01*
X81317913Y-75748031D01*
X81322345Y-75744345D01*
X81452147Y-75588276D01*
X81551334Y-75411165D01*
X81553190Y-75405698D01*
X81553192Y-75405693D01*
X81614728Y-75224414D01*
X81614729Y-75224409D01*
X81616584Y-75218945D01*
X81617412Y-75213236D01*
X81617413Y-75213231D01*
X81645179Y-75021727D01*
X81645712Y-75018053D01*
X81647232Y-74960000D01*
X81644564Y-74930964D01*
X81969148Y-74930964D01*
X81982424Y-75133522D01*
X81983845Y-75139118D01*
X81983846Y-75139123D01*
X82002912Y-75214194D01*
X82032392Y-75330269D01*
X82034809Y-75335512D01*
X82072010Y-75416208D01*
X82117377Y-75514616D01*
X82234533Y-75680389D01*
X82379938Y-75822035D01*
X82548720Y-75934812D01*
X82554023Y-75937090D01*
X82554026Y-75937092D01*
X82642707Y-75975192D01*
X82735228Y-76014942D01*
X82808244Y-76031464D01*
X82927579Y-76058467D01*
X82927584Y-76058468D01*
X82933216Y-76059742D01*
X82938987Y-76059969D01*
X82938989Y-76059969D01*
X82998756Y-76062317D01*
X83136053Y-76067712D01*
X83236499Y-76053148D01*
X83331231Y-76039413D01*
X83331236Y-76039412D01*
X83336945Y-76038584D01*
X83342409Y-76036729D01*
X83342414Y-76036728D01*
X83523693Y-75975192D01*
X83523698Y-75975190D01*
X83529165Y-75973334D01*
X83706276Y-75874147D01*
X83768934Y-75822035D01*
X83857913Y-75748031D01*
X83862345Y-75744345D01*
X83992147Y-75588276D01*
X84091334Y-75411165D01*
X84093190Y-75405698D01*
X84093192Y-75405693D01*
X84154728Y-75224414D01*
X84154729Y-75224409D01*
X84156584Y-75218945D01*
X84157412Y-75213236D01*
X84157413Y-75213231D01*
X84185179Y-75021727D01*
X84185712Y-75018053D01*
X84187232Y-74960000D01*
X84172956Y-74804634D01*
X84169187Y-74763613D01*
X84169186Y-74763610D01*
X84168658Y-74757859D01*
X84165203Y-74745608D01*
X84115125Y-74568046D01*
X84115124Y-74568044D01*
X84113557Y-74562487D01*
X84104335Y-74543785D01*
X84026331Y-74385609D01*
X84023776Y-74380428D01*
X83902320Y-74217779D01*
X83753258Y-74079987D01*
X83748375Y-74076906D01*
X83748371Y-74076903D01*
X83586464Y-73974748D01*
X83581581Y-73971667D01*
X83393039Y-73896446D01*
X83387379Y-73895320D01*
X83387375Y-73895319D01*
X83199613Y-73857971D01*
X83199610Y-73857971D01*
X83193946Y-73856844D01*
X83188171Y-73856768D01*
X83188167Y-73856768D01*
X83086793Y-73855441D01*
X82990971Y-73854187D01*
X82985274Y-73855166D01*
X82985273Y-73855166D01*
X82796607Y-73887585D01*
X82790910Y-73888564D01*
X82600463Y-73958824D01*
X82426010Y-74062612D01*
X82421670Y-74066418D01*
X82421666Y-74066421D01*
X82348960Y-74130183D01*
X82273392Y-74196455D01*
X82147720Y-74355869D01*
X82145031Y-74360980D01*
X82145029Y-74360983D01*
X82132073Y-74385609D01*
X82053203Y-74535515D01*
X81993007Y-74729378D01*
X81969148Y-74930964D01*
X81644564Y-74930964D01*
X81632956Y-74804634D01*
X81629187Y-74763613D01*
X81629186Y-74763610D01*
X81628658Y-74757859D01*
X81625203Y-74745608D01*
X81575125Y-74568046D01*
X81575124Y-74568044D01*
X81573557Y-74562487D01*
X81564335Y-74543785D01*
X81486331Y-74385609D01*
X81483776Y-74380428D01*
X81379664Y-74241005D01*
X81354932Y-74174457D01*
X81370106Y-74105100D01*
X81420368Y-74054958D01*
X81489760Y-74039949D01*
X81504609Y-74042077D01*
X81505696Y-74042128D01*
X81515876Y-74044320D01*
X81526217Y-74043096D01*
X81534827Y-74042077D01*
X81549223Y-74040373D01*
X81555154Y-74040023D01*
X81555146Y-74039928D01*
X81560324Y-74039500D01*
X81565524Y-74039500D01*
X81570653Y-74038646D01*
X81570656Y-74038646D01*
X81584565Y-74036331D01*
X81590443Y-74035494D01*
X81631001Y-74030694D01*
X81631002Y-74030694D01*
X81641341Y-74029470D01*
X81649593Y-74025507D01*
X81658626Y-74024004D01*
X81667795Y-74019057D01*
X81667797Y-74019056D01*
X81703732Y-73999666D01*
X81709025Y-73996969D01*
X81748082Y-73978215D01*
X81748086Y-73978212D01*
X81755232Y-73974781D01*
X81759508Y-73971186D01*
X81761431Y-73969263D01*
X81763363Y-73967491D01*
X81763442Y-73967448D01*
X81763555Y-73967572D01*
X81764095Y-73967096D01*
X81769814Y-73964010D01*
X81806417Y-73924413D01*
X81809846Y-73920848D01*
X82018216Y-73712478D01*
X82036964Y-73697336D01*
X82038189Y-73696221D01*
X82046940Y-73690571D01*
X82053387Y-73682393D01*
X82053389Y-73682391D01*
X82067729Y-73664200D01*
X82071678Y-73659756D01*
X82071604Y-73659694D01*
X82074957Y-73655737D01*
X82078638Y-73652056D01*
X82089865Y-73636346D01*
X82093421Y-73631609D01*
X82107564Y-73613669D01*
X82125156Y-73591353D01*
X82128189Y-73582716D01*
X82133513Y-73575266D01*
X82148202Y-73526151D01*
X82150034Y-73520514D01*
X82164390Y-73479633D01*
X82164390Y-73479632D01*
X82167018Y-73472149D01*
X82167500Y-73466584D01*
X82167500Y-73463876D01*
X82167614Y-73461242D01*
X82167643Y-73461144D01*
X82167807Y-73461151D01*
X82167851Y-73460447D01*
X82169713Y-73454222D01*
X82167597Y-73400365D01*
X82167500Y-73395418D01*
X82167500Y-73372844D01*
X82187502Y-73304723D01*
X82241158Y-73258230D01*
X82311432Y-73248126D01*
X82372796Y-73274925D01*
X82385058Y-73284855D01*
X82544156Y-73391161D01*
X82554266Y-73396651D01*
X82730077Y-73472185D01*
X82741020Y-73475740D01*
X82806332Y-73490519D01*
X82820405Y-73489630D01*
X82823828Y-73480681D01*
X83332000Y-73480681D01*
X83335966Y-73494187D01*
X83344672Y-73495433D01*
X83523497Y-73434730D01*
X83533994Y-73430056D01*
X83700958Y-73336552D01*
X83710430Y-73330042D01*
X83857553Y-73207682D01*
X83865682Y-73199553D01*
X83988042Y-73052430D01*
X83994552Y-73042958D01*
X84088056Y-72875994D01*
X84092730Y-72865497D01*
X84153443Y-72686644D01*
X84152210Y-72677993D01*
X84138642Y-72674000D01*
X83350115Y-72674000D01*
X83334876Y-72678475D01*
X83333671Y-72679865D01*
X83332000Y-72687548D01*
X83332000Y-73480681D01*
X82823828Y-73480681D01*
X82824000Y-73480232D01*
X82824000Y-72147885D01*
X83332000Y-72147885D01*
X83336475Y-72163124D01*
X83337865Y-72164329D01*
X83345548Y-72166000D01*
X84135398Y-72166000D01*
X84148929Y-72162027D01*
X84150098Y-72153892D01*
X84114658Y-72028231D01*
X84112624Y-72022933D01*
X89822500Y-72022933D01*
X89822501Y-73773066D01*
X89837266Y-73847301D01*
X89844161Y-73857620D01*
X89844162Y-73857622D01*
X89881994Y-73914241D01*
X89893516Y-73931484D01*
X89977699Y-73987734D01*
X90051933Y-74002500D01*
X90926858Y-74002500D01*
X91802066Y-74002499D01*
X91844727Y-73994014D01*
X91864126Y-73990156D01*
X91864128Y-73990155D01*
X91876301Y-73987734D01*
X91886621Y-73980839D01*
X91886622Y-73980838D01*
X91950168Y-73938377D01*
X91960484Y-73931484D01*
X92016734Y-73847301D01*
X92031500Y-73773067D01*
X92031499Y-72868964D01*
X92358148Y-72868964D01*
X92371424Y-73071522D01*
X92372845Y-73077118D01*
X92372846Y-73077123D01*
X92401982Y-73191844D01*
X92421392Y-73268269D01*
X92423809Y-73273512D01*
X92458891Y-73349611D01*
X92506377Y-73452616D01*
X92520207Y-73472185D01*
X92592434Y-73574384D01*
X92623533Y-73618389D01*
X92768938Y-73760035D01*
X92937720Y-73872812D01*
X92943023Y-73875090D01*
X92943026Y-73875092D01*
X93099688Y-73942399D01*
X93124228Y-73952942D01*
X93189352Y-73967678D01*
X93316579Y-73996467D01*
X93316584Y-73996468D01*
X93322216Y-73997742D01*
X93327987Y-73997969D01*
X93327989Y-73997969D01*
X93387756Y-74000317D01*
X93525053Y-74005712D01*
X93632348Y-73990155D01*
X93720231Y-73977413D01*
X93720236Y-73977412D01*
X93725945Y-73976584D01*
X93731409Y-73974729D01*
X93731414Y-73974728D01*
X93912693Y-73913192D01*
X93912698Y-73913190D01*
X93918165Y-73911334D01*
X93944750Y-73896446D01*
X94013451Y-73857971D01*
X94095276Y-73812147D01*
X94134969Y-73779135D01*
X94246913Y-73686031D01*
X94251345Y-73682345D01*
X94327598Y-73590661D01*
X94377453Y-73530718D01*
X94377455Y-73530715D01*
X94381147Y-73526276D01*
X94453043Y-73397896D01*
X94477510Y-73354208D01*
X94477511Y-73354206D01*
X94480334Y-73349165D01*
X94482190Y-73343698D01*
X94482192Y-73343693D01*
X94543728Y-73162414D01*
X94543729Y-73162409D01*
X94545584Y-73156945D01*
X94546412Y-73151236D01*
X94546413Y-73151231D01*
X94573735Y-72962792D01*
X94574712Y-72956053D01*
X94576232Y-72898000D01*
X94557658Y-72695859D01*
X94551493Y-72674000D01*
X94504125Y-72506046D01*
X94504124Y-72506044D01*
X94502557Y-72500487D01*
X94491978Y-72479033D01*
X94415331Y-72323609D01*
X94412776Y-72318428D01*
X94291320Y-72155779D01*
X94185175Y-72057659D01*
X94146503Y-72021911D01*
X94142258Y-72017987D01*
X94137375Y-72014906D01*
X94137371Y-72014903D01*
X93975464Y-71912748D01*
X93970581Y-71909667D01*
X93782039Y-71834446D01*
X93776379Y-71833320D01*
X93776375Y-71833319D01*
X93588613Y-71795971D01*
X93588610Y-71795971D01*
X93582946Y-71794844D01*
X93577171Y-71794768D01*
X93577167Y-71794768D01*
X93475793Y-71793441D01*
X93379971Y-71792187D01*
X93374274Y-71793166D01*
X93374273Y-71793166D01*
X93185607Y-71825585D01*
X93179910Y-71826564D01*
X92989463Y-71896824D01*
X92815010Y-72000612D01*
X92810670Y-72004418D01*
X92810666Y-72004421D01*
X92721016Y-72083043D01*
X92662392Y-72134455D01*
X92536720Y-72293869D01*
X92534031Y-72298980D01*
X92534029Y-72298983D01*
X92521073Y-72323609D01*
X92442203Y-72473515D01*
X92382007Y-72667378D01*
X92358148Y-72868964D01*
X92031499Y-72868964D01*
X92031499Y-72022934D01*
X92016734Y-71948699D01*
X91990654Y-71909667D01*
X91967377Y-71874832D01*
X91960484Y-71864516D01*
X91876301Y-71808266D01*
X91802067Y-71793500D01*
X90927142Y-71793500D01*
X90051934Y-71793501D01*
X90016182Y-71800612D01*
X89989874Y-71805844D01*
X89989872Y-71805845D01*
X89977699Y-71808266D01*
X89967379Y-71815161D01*
X89967378Y-71815162D01*
X89921420Y-71845871D01*
X89893516Y-71864516D01*
X89837266Y-71948699D01*
X89822500Y-72022933D01*
X84112624Y-72022933D01*
X84110533Y-72017484D01*
X84025903Y-71845871D01*
X84019893Y-71836063D01*
X83905400Y-71682739D01*
X83897710Y-71674199D01*
X83757192Y-71544304D01*
X83748067Y-71537303D01*
X83586236Y-71435195D01*
X83575989Y-71429974D01*
X83398260Y-71359068D01*
X83387232Y-71355801D01*
X83349769Y-71348350D01*
X83336894Y-71349502D01*
X83332000Y-71364658D01*
X83332000Y-72147885D01*
X82824000Y-72147885D01*
X82824000Y-71361500D01*
X82820194Y-71348538D01*
X82805279Y-71346602D01*
X82796732Y-71348071D01*
X82785620Y-71351048D01*
X82606095Y-71417279D01*
X82595717Y-71422229D01*
X82431273Y-71520063D01*
X82421955Y-71526833D01*
X82376577Y-71566628D01*
X82312173Y-71596505D01*
X82241840Y-71586819D01*
X82187909Y-71540646D01*
X82167500Y-71471896D01*
X82167500Y-71183920D01*
X82170049Y-71159972D01*
X82170128Y-71158307D01*
X82172320Y-71148124D01*
X82168373Y-71114777D01*
X82168023Y-71108846D01*
X82167928Y-71108854D01*
X82167500Y-71103676D01*
X82167500Y-71098476D01*
X82166646Y-71093344D01*
X82164331Y-71079435D01*
X82163494Y-71073557D01*
X82158694Y-71032999D01*
X82158694Y-71032998D01*
X82157470Y-71022659D01*
X82153507Y-71014407D01*
X82152004Y-71005374D01*
X82143010Y-70988704D01*
X82127666Y-70960268D01*
X82124969Y-70954975D01*
X82106215Y-70915918D01*
X82106212Y-70915914D01*
X82102781Y-70908768D01*
X82099186Y-70904492D01*
X82097263Y-70902569D01*
X82095491Y-70900637D01*
X82095448Y-70900558D01*
X82095572Y-70900445D01*
X82095096Y-70899905D01*
X82092010Y-70894186D01*
X82052413Y-70857583D01*
X82048848Y-70854154D01*
X82028683Y-70833989D01*
X82013705Y-70814747D01*
X82013517Y-70814886D01*
X82009846Y-70809910D01*
X82006675Y-70804588D01*
X81896547Y-70682461D01*
X81886760Y-70670139D01*
X81885291Y-70668031D01*
X81821856Y-70577037D01*
X81812406Y-70561100D01*
X81774382Y-70484665D01*
X81767248Y-70467133D01*
X81756787Y-70434616D01*
X81743866Y-70394453D01*
X81739997Y-70379227D01*
X81724097Y-70294943D01*
X81722685Y-70285506D01*
X81719354Y-70255512D01*
X81710808Y-70178561D01*
X81710572Y-70176243D01*
X81707646Y-70144414D01*
X81698817Y-70048409D01*
X81698752Y-70047755D01*
X81698397Y-70044220D01*
X81698374Y-70044004D01*
X81698372Y-70043984D01*
X81698353Y-70043811D01*
X81697868Y-70039653D01*
X81680241Y-69898430D01*
X81678934Y-69889290D01*
X81678803Y-69888477D01*
X81678728Y-69888058D01*
X81678718Y-69887999D01*
X81677306Y-69880112D01*
X81677300Y-69880078D01*
X81677211Y-69879583D01*
X81677111Y-69879078D01*
X81677100Y-69879017D01*
X81671572Y-69850964D01*
X81969148Y-69850964D01*
X81982424Y-70053522D01*
X81983845Y-70059118D01*
X81983846Y-70059123D01*
X82013888Y-70177412D01*
X82032392Y-70250269D01*
X82034809Y-70255512D01*
X82072010Y-70336208D01*
X82117377Y-70434616D01*
X82120710Y-70439332D01*
X82218030Y-70577037D01*
X82234533Y-70600389D01*
X82379938Y-70742035D01*
X82548720Y-70854812D01*
X82554023Y-70857090D01*
X82554026Y-70857092D01*
X82674306Y-70908768D01*
X82735228Y-70934942D01*
X82808244Y-70951464D01*
X82927579Y-70978467D01*
X82927584Y-70978468D01*
X82933216Y-70979742D01*
X82938987Y-70979969D01*
X82938989Y-70979969D01*
X82998756Y-70982317D01*
X83136053Y-70987712D01*
X83236499Y-70973148D01*
X83331231Y-70959413D01*
X83331236Y-70959412D01*
X83336945Y-70958584D01*
X83342409Y-70956729D01*
X83342414Y-70956728D01*
X83523693Y-70895192D01*
X83523698Y-70895190D01*
X83529165Y-70893334D01*
X83706276Y-70794147D01*
X83768934Y-70742035D01*
X83847597Y-70676611D01*
X83862345Y-70664345D01*
X83941298Y-70569415D01*
X83988453Y-70512718D01*
X83988455Y-70512715D01*
X83992147Y-70508276D01*
X84055889Y-70394457D01*
X84088510Y-70336208D01*
X84088511Y-70336206D01*
X84091334Y-70331165D01*
X84093190Y-70325698D01*
X84093192Y-70325693D01*
X84154728Y-70144414D01*
X84154729Y-70144409D01*
X84156584Y-70138945D01*
X84157412Y-70133236D01*
X84157413Y-70133231D01*
X84185179Y-69941727D01*
X84185712Y-69938053D01*
X84187232Y-69880000D01*
X84173041Y-69725555D01*
X84169187Y-69683613D01*
X84169186Y-69683610D01*
X84168658Y-69677859D01*
X84167090Y-69672299D01*
X84115125Y-69488046D01*
X84115124Y-69488044D01*
X84113557Y-69482487D01*
X84102978Y-69461033D01*
X84026331Y-69305609D01*
X84023776Y-69300428D01*
X83902320Y-69137779D01*
X83753258Y-68999987D01*
X83748375Y-68996906D01*
X83748371Y-68996903D01*
X83586464Y-68894748D01*
X83581581Y-68891667D01*
X83393039Y-68816446D01*
X83387379Y-68815320D01*
X83387375Y-68815319D01*
X83199613Y-68777971D01*
X83199610Y-68777971D01*
X83193946Y-68776844D01*
X83188171Y-68776768D01*
X83188167Y-68776768D01*
X83086793Y-68775441D01*
X82990971Y-68774187D01*
X82985274Y-68775166D01*
X82985273Y-68775166D01*
X82796607Y-68807585D01*
X82790910Y-68808564D01*
X82600463Y-68878824D01*
X82426010Y-68982612D01*
X82421670Y-68986418D01*
X82421666Y-68986421D01*
X82401723Y-69003911D01*
X82273392Y-69116455D01*
X82147720Y-69275869D01*
X82145031Y-69280980D01*
X82145029Y-69280983D01*
X82132073Y-69305609D01*
X82053203Y-69455515D01*
X81993007Y-69649378D01*
X81969148Y-69850964D01*
X81671572Y-69850964D01*
X81646857Y-69725555D01*
X81646849Y-69725516D01*
X81646704Y-69724781D01*
X81644134Y-69713155D01*
X81643878Y-69712111D01*
X81640769Y-69700585D01*
X81592271Y-69535948D01*
X81590779Y-69532480D01*
X81584991Y-69519027D01*
X81579464Y-69503431D01*
X81575127Y-69488054D01*
X81573557Y-69482487D01*
X81562978Y-69461033D01*
X81486331Y-69305609D01*
X81483776Y-69300428D01*
X81362320Y-69137779D01*
X81213258Y-68999987D01*
X81208375Y-68996906D01*
X81208371Y-68996903D01*
X81046464Y-68894748D01*
X81041581Y-68891667D01*
X80853039Y-68816446D01*
X80847379Y-68815320D01*
X80847375Y-68815319D01*
X80659613Y-68777971D01*
X80659610Y-68777971D01*
X80653946Y-68776844D01*
X80648171Y-68776768D01*
X80648167Y-68776768D01*
X80546793Y-68775441D01*
X80450971Y-68774187D01*
X80445274Y-68775166D01*
X80445273Y-68775166D01*
X80256607Y-68807585D01*
X80250910Y-68808564D01*
X80060463Y-68878824D01*
X79886010Y-68982612D01*
X79881670Y-68986418D01*
X79881666Y-68986421D01*
X79861723Y-69003911D01*
X79733392Y-69116455D01*
X79607720Y-69275869D01*
X79605031Y-69280980D01*
X79605029Y-69280983D01*
X79592073Y-69305609D01*
X79513203Y-69455515D01*
X79453007Y-69649378D01*
X79429148Y-69850964D01*
X79442424Y-70053522D01*
X79443845Y-70059118D01*
X79443846Y-70059123D01*
X79473888Y-70177412D01*
X79492392Y-70250269D01*
X79494809Y-70255512D01*
X79532010Y-70336208D01*
X79577377Y-70434616D01*
X79580710Y-70439332D01*
X79678030Y-70577037D01*
X79694533Y-70600389D01*
X79839938Y-70742035D01*
X80008720Y-70854812D01*
X80014023Y-70857090D01*
X80014026Y-70857092D01*
X80083917Y-70887119D01*
X80195228Y-70934942D01*
X80199537Y-70935917D01*
X80202960Y-70936925D01*
X80202993Y-70936948D01*
X80203013Y-70936954D01*
X80203380Y-70937049D01*
X80358584Y-70982769D01*
X80359256Y-70982950D01*
X80359287Y-70982959D01*
X80369431Y-70985695D01*
X80369464Y-70985704D01*
X80370111Y-70985878D01*
X80371155Y-70986134D01*
X80371835Y-70986284D01*
X80371868Y-70986292D01*
X80382038Y-70988540D01*
X80382058Y-70988544D01*
X80382781Y-70988704D01*
X80383516Y-70988849D01*
X80383555Y-70988857D01*
X80537017Y-71019100D01*
X80537078Y-71019111D01*
X80537583Y-71019211D01*
X80538078Y-71019300D01*
X80538112Y-71019306D01*
X80545999Y-71020718D01*
X80546058Y-71020728D01*
X80546477Y-71020803D01*
X80547290Y-71020934D01*
X80547844Y-71021013D01*
X80547882Y-71021019D01*
X80551167Y-71021488D01*
X80556430Y-71022241D01*
X80556903Y-71022300D01*
X80556925Y-71022303D01*
X80618222Y-71029954D01*
X80697653Y-71039868D01*
X80697786Y-71039884D01*
X80697790Y-71039884D01*
X80701664Y-71040336D01*
X80701694Y-71040339D01*
X80701811Y-71040353D01*
X80701984Y-71040372D01*
X80702004Y-71040374D01*
X80702023Y-71040376D01*
X80702189Y-71040394D01*
X80702313Y-71040406D01*
X80702347Y-71040410D01*
X80706187Y-71040795D01*
X80706234Y-71040799D01*
X80706409Y-71040817D01*
X80834295Y-71052577D01*
X80836561Y-71052808D01*
X80943517Y-71064687D01*
X80952943Y-71066097D01*
X81037231Y-71081998D01*
X81052453Y-71085866D01*
X81091650Y-71098476D01*
X81125133Y-71109248D01*
X81142665Y-71116382D01*
X81219100Y-71154406D01*
X81235037Y-71163856D01*
X81328139Y-71228760D01*
X81340461Y-71238548D01*
X81366879Y-71262370D01*
X81404074Y-71322843D01*
X81408500Y-71355944D01*
X81408500Y-71434965D01*
X81388498Y-71503086D01*
X81334842Y-71549579D01*
X81264568Y-71559683D01*
X81214213Y-71538473D01*
X81213258Y-71539987D01*
X81105340Y-71471896D01*
X81041581Y-71431667D01*
X80853039Y-71356446D01*
X80847379Y-71355320D01*
X80847375Y-71355319D01*
X80659613Y-71317971D01*
X80659610Y-71317971D01*
X80653946Y-71316844D01*
X80648171Y-71316768D01*
X80648167Y-71316768D01*
X80546793Y-71315441D01*
X80450971Y-71314187D01*
X80445274Y-71315166D01*
X80445273Y-71315166D01*
X80400596Y-71322843D01*
X80250910Y-71348564D01*
X80060463Y-71418824D01*
X79886010Y-71522612D01*
X79812796Y-71586819D01*
X79779704Y-71615840D01*
X79767252Y-71624883D01*
X79767311Y-71624963D01*
X79762326Y-71628633D01*
X79757007Y-71631796D01*
X79752406Y-71635936D01*
X79752407Y-71635936D01*
X79661921Y-71717371D01*
X79650541Y-71726479D01*
X79576443Y-71779049D01*
X79564239Y-71786698D01*
X79494010Y-71825309D01*
X79483750Y-71830358D01*
X79406113Y-71864277D01*
X79400723Y-71866484D01*
X79308253Y-71901890D01*
X79308035Y-71901974D01*
X79307918Y-71902019D01*
X79306945Y-71902396D01*
X79306012Y-71902757D01*
X79305858Y-71902817D01*
X79305685Y-71902885D01*
X79305623Y-71902909D01*
X79203870Y-71942865D01*
X79203805Y-71942891D01*
X79203408Y-71943047D01*
X79202965Y-71943229D01*
X79202929Y-71943243D01*
X79199975Y-71944454D01*
X79196363Y-71945934D01*
X79195747Y-71946197D01*
X79195369Y-71946365D01*
X79195344Y-71946376D01*
X79190121Y-71948699D01*
X79188673Y-71949343D01*
X79082736Y-71998359D01*
X79071775Y-72003747D01*
X79070806Y-72004252D01*
X79060164Y-72010119D01*
X79059564Y-72010468D01*
X79059554Y-72010474D01*
X79006023Y-72041642D01*
X78987586Y-72050066D01*
X78983659Y-72050531D01*
X78975410Y-72054492D01*
X78966374Y-72055996D01*
X78957205Y-72060943D01*
X78957203Y-72060944D01*
X78921240Y-72080348D01*
X78915951Y-72083043D01*
X78876915Y-72101788D01*
X78869768Y-72105220D01*
X78865492Y-72108814D01*
X78863552Y-72110754D01*
X78861641Y-72112507D01*
X78861551Y-72112556D01*
X78861439Y-72112433D01*
X78860904Y-72112905D01*
X78855186Y-72115990D01*
X78848119Y-72123635D01*
X78818584Y-72155586D01*
X78815154Y-72159152D01*
X78726054Y-72248252D01*
X78721815Y-72252299D01*
X78658012Y-72310426D01*
X78654180Y-72315749D01*
X78648882Y-72323108D01*
X78635720Y-72338586D01*
X77112784Y-73861522D01*
X77094036Y-73876664D01*
X77092811Y-73877779D01*
X77084060Y-73883429D01*
X77077613Y-73891607D01*
X77077611Y-73891609D01*
X77063271Y-73909800D01*
X77059325Y-73914241D01*
X77059398Y-73914303D01*
X77056039Y-73918267D01*
X77052362Y-73921944D01*
X77041108Y-73937692D01*
X77037602Y-73942362D01*
X77005844Y-73982647D01*
X77002812Y-73991281D01*
X76997486Y-73998734D01*
X76989252Y-74026268D01*
X76982799Y-74047844D01*
X76980964Y-74053492D01*
X76976424Y-74066421D01*
X76963982Y-74101851D01*
X76963500Y-74107416D01*
X76963500Y-74110124D01*
X76963386Y-74112758D01*
X76963357Y-74112856D01*
X76963193Y-74112849D01*
X76963149Y-74113553D01*
X76961287Y-74119778D01*
X76961696Y-74130183D01*
X76963403Y-74173635D01*
X76963500Y-74178582D01*
X76963500Y-92148080D01*
X76960951Y-92172028D01*
X76960872Y-92173693D01*
X76958680Y-92183876D01*
X76073500Y-92183876D01*
X76073500Y-67310964D01*
X79429148Y-67310964D01*
X79442424Y-67513522D01*
X79443845Y-67519118D01*
X79443846Y-67519123D01*
X79464119Y-67598945D01*
X79492392Y-67710269D01*
X79494809Y-67715512D01*
X79532010Y-67796208D01*
X79577377Y-67894616D01*
X79694533Y-68060389D01*
X79839938Y-68202035D01*
X80008720Y-68314812D01*
X80014023Y-68317090D01*
X80014026Y-68317092D01*
X80102707Y-68355192D01*
X80195228Y-68394942D01*
X80268244Y-68411464D01*
X80387579Y-68438467D01*
X80387584Y-68438468D01*
X80393216Y-68439742D01*
X80398987Y-68439969D01*
X80398989Y-68439969D01*
X80458756Y-68442317D01*
X80596053Y-68447712D01*
X80696499Y-68433148D01*
X80791231Y-68419413D01*
X80791236Y-68419412D01*
X80796945Y-68418584D01*
X80802409Y-68416729D01*
X80802414Y-68416728D01*
X80983693Y-68355192D01*
X80983698Y-68355190D01*
X80989165Y-68353334D01*
X81166276Y-68254147D01*
X81228934Y-68202035D01*
X81317913Y-68128031D01*
X81322345Y-68124345D01*
X81452147Y-67968276D01*
X81551334Y-67791165D01*
X81553190Y-67785698D01*
X81553192Y-67785693D01*
X81614728Y-67604414D01*
X81614729Y-67604409D01*
X81616584Y-67598945D01*
X81617412Y-67593236D01*
X81617413Y-67593231D01*
X81645179Y-67401727D01*
X81645712Y-67398053D01*
X81647232Y-67340000D01*
X81644564Y-67310964D01*
X81969148Y-67310964D01*
X81982424Y-67513522D01*
X81983845Y-67519118D01*
X81983846Y-67519123D01*
X82004119Y-67598945D01*
X82032392Y-67710269D01*
X82034809Y-67715512D01*
X82072010Y-67796208D01*
X82117377Y-67894616D01*
X82234533Y-68060389D01*
X82379938Y-68202035D01*
X82548720Y-68314812D01*
X82554023Y-68317090D01*
X82554026Y-68317092D01*
X82642707Y-68355192D01*
X82735228Y-68394942D01*
X82808244Y-68411464D01*
X82927579Y-68438467D01*
X82927584Y-68438468D01*
X82933216Y-68439742D01*
X82938987Y-68439969D01*
X82938989Y-68439969D01*
X82998756Y-68442317D01*
X83136053Y-68447712D01*
X83236499Y-68433148D01*
X83331231Y-68419413D01*
X83331236Y-68419412D01*
X83336945Y-68418584D01*
X83342409Y-68416729D01*
X83342414Y-68416728D01*
X83523693Y-68355192D01*
X83523698Y-68355190D01*
X83529165Y-68353334D01*
X83706276Y-68254147D01*
X83768934Y-68202035D01*
X83857913Y-68128031D01*
X83862345Y-68124345D01*
X83992147Y-67968276D01*
X84091334Y-67791165D01*
X84093190Y-67785698D01*
X84093192Y-67785693D01*
X84154728Y-67604414D01*
X84154729Y-67604409D01*
X84156584Y-67598945D01*
X84157412Y-67593236D01*
X84157413Y-67593231D01*
X84185179Y-67401727D01*
X84185712Y-67398053D01*
X84187232Y-67340000D01*
X84168658Y-67137859D01*
X84167090Y-67132299D01*
X84115125Y-66948046D01*
X84115124Y-66948044D01*
X84113557Y-66942487D01*
X84102978Y-66921033D01*
X84026331Y-66765609D01*
X84023776Y-66760428D01*
X83902320Y-66597779D01*
X83753258Y-66459987D01*
X83748375Y-66456906D01*
X83748371Y-66456903D01*
X83586464Y-66354748D01*
X83581581Y-66351667D01*
X83393039Y-66276446D01*
X83387379Y-66275320D01*
X83387375Y-66275319D01*
X83199613Y-66237971D01*
X83199610Y-66237971D01*
X83193946Y-66236844D01*
X83188171Y-66236768D01*
X83188167Y-66236768D01*
X83086793Y-66235441D01*
X82990971Y-66234187D01*
X82985274Y-66235166D01*
X82985273Y-66235166D01*
X82796607Y-66267585D01*
X82790910Y-66268564D01*
X82600463Y-66338824D01*
X82426010Y-66442612D01*
X82421670Y-66446418D01*
X82421666Y-66446421D01*
X82401723Y-66463911D01*
X82273392Y-66576455D01*
X82147720Y-66735869D01*
X82145031Y-66740980D01*
X82145029Y-66740983D01*
X82132073Y-66765609D01*
X82053203Y-66915515D01*
X81993007Y-67109378D01*
X81969148Y-67310964D01*
X81644564Y-67310964D01*
X81628658Y-67137859D01*
X81627090Y-67132299D01*
X81575125Y-66948046D01*
X81575124Y-66948044D01*
X81573557Y-66942487D01*
X81562978Y-66921033D01*
X81486331Y-66765609D01*
X81483776Y-66760428D01*
X81362320Y-66597779D01*
X81213258Y-66459987D01*
X81208375Y-66456906D01*
X81208371Y-66456903D01*
X81046464Y-66354748D01*
X81041581Y-66351667D01*
X80853039Y-66276446D01*
X80847379Y-66275320D01*
X80847375Y-66275319D01*
X80659613Y-66237971D01*
X80659610Y-66237971D01*
X80653946Y-66236844D01*
X80648171Y-66236768D01*
X80648167Y-66236768D01*
X80546793Y-66235441D01*
X80450971Y-66234187D01*
X80445274Y-66235166D01*
X80445273Y-66235166D01*
X80256607Y-66267585D01*
X80250910Y-66268564D01*
X80060463Y-66338824D01*
X79886010Y-66442612D01*
X79881670Y-66446418D01*
X79881666Y-66446421D01*
X79861723Y-66463911D01*
X79733392Y-66576455D01*
X79607720Y-66735869D01*
X79605031Y-66740980D01*
X79605029Y-66740983D01*
X79592073Y-66765609D01*
X79513203Y-66915515D01*
X79453007Y-67109378D01*
X79429148Y-67310964D01*
X76073500Y-67310964D01*
X76073500Y-65668828D01*
X79434001Y-65668828D01*
X79435209Y-65681088D01*
X79446315Y-65736931D01*
X79455633Y-65759427D01*
X79497983Y-65822808D01*
X79515192Y-65840017D01*
X79578575Y-65882368D01*
X79601066Y-65891684D01*
X79656915Y-65902793D01*
X79669170Y-65904000D01*
X80265885Y-65904000D01*
X80281124Y-65899525D01*
X80282329Y-65898135D01*
X80284000Y-65890452D01*
X80284000Y-65885884D01*
X80792000Y-65885884D01*
X80796475Y-65901123D01*
X80797865Y-65902328D01*
X80805548Y-65903999D01*
X81406828Y-65903999D01*
X81419088Y-65902791D01*
X81474931Y-65891685D01*
X81497427Y-65882367D01*
X81560808Y-65840017D01*
X81578017Y-65822808D01*
X81620368Y-65759425D01*
X81629684Y-65736934D01*
X81640793Y-65681085D01*
X81642000Y-65668830D01*
X81642000Y-65072115D01*
X81640487Y-65066962D01*
X82006671Y-65066962D01*
X82031443Y-65164502D01*
X82035284Y-65175348D01*
X82115394Y-65349120D01*
X82121145Y-65359081D01*
X82231579Y-65515343D01*
X82239057Y-65524098D01*
X82376114Y-65657612D01*
X82385058Y-65664855D01*
X82544156Y-65771161D01*
X82554266Y-65776651D01*
X82730077Y-65852185D01*
X82741020Y-65855740D01*
X82806332Y-65870519D01*
X82820405Y-65869630D01*
X82823828Y-65860681D01*
X83332000Y-65860681D01*
X83335966Y-65874187D01*
X83344672Y-65875433D01*
X83523497Y-65814730D01*
X83533994Y-65810056D01*
X83700958Y-65716552D01*
X83710430Y-65710042D01*
X83857553Y-65587682D01*
X83865682Y-65579553D01*
X83988042Y-65432430D01*
X83994552Y-65422958D01*
X84088056Y-65255994D01*
X84092730Y-65245497D01*
X84153443Y-65066644D01*
X84152210Y-65057993D01*
X84138642Y-65054000D01*
X83350115Y-65054000D01*
X83334876Y-65058475D01*
X83333671Y-65059865D01*
X83332000Y-65067548D01*
X83332000Y-65860681D01*
X82823828Y-65860681D01*
X82824000Y-65860232D01*
X82824000Y-65072115D01*
X82819525Y-65056876D01*
X82818135Y-65055671D01*
X82810452Y-65054000D01*
X82021494Y-65054000D01*
X82007963Y-65057973D01*
X82006671Y-65066962D01*
X81640487Y-65066962D01*
X81637525Y-65056876D01*
X81636135Y-65055671D01*
X81628452Y-65054000D01*
X80810115Y-65054000D01*
X80794876Y-65058475D01*
X80793671Y-65059865D01*
X80792000Y-65067548D01*
X80792000Y-65885884D01*
X80284000Y-65885884D01*
X80284000Y-65072115D01*
X80279525Y-65056876D01*
X80278135Y-65055671D01*
X80270452Y-65054000D01*
X79452116Y-65054000D01*
X79436877Y-65058475D01*
X79435672Y-65059865D01*
X79434001Y-65067548D01*
X79434001Y-65668828D01*
X76073500Y-65668828D01*
X76073500Y-64527885D01*
X79434000Y-64527885D01*
X79438475Y-64543124D01*
X79439865Y-64544329D01*
X79447548Y-64546000D01*
X80265885Y-64546000D01*
X80281124Y-64541525D01*
X80282329Y-64540135D01*
X80284000Y-64532452D01*
X80284000Y-64527885D01*
X80792000Y-64527885D01*
X80796475Y-64543124D01*
X80797865Y-64544329D01*
X80805548Y-64546000D01*
X81623884Y-64546000D01*
X81634785Y-64542799D01*
X82005943Y-64542799D01*
X82012675Y-64546000D01*
X82805885Y-64546000D01*
X82821124Y-64541525D01*
X82822329Y-64540135D01*
X82824000Y-64532452D01*
X82824000Y-64527885D01*
X83332000Y-64527885D01*
X83336475Y-64543124D01*
X83337865Y-64544329D01*
X83345548Y-64546000D01*
X84135398Y-64546000D01*
X84148929Y-64542027D01*
X84150098Y-64533892D01*
X84114658Y-64408231D01*
X84110533Y-64397484D01*
X84025903Y-64225871D01*
X84019893Y-64216063D01*
X83905400Y-64062739D01*
X83897710Y-64054199D01*
X83757192Y-63924304D01*
X83748067Y-63917303D01*
X83586236Y-63815195D01*
X83575989Y-63809974D01*
X83398260Y-63739068D01*
X83387232Y-63735801D01*
X83349769Y-63728350D01*
X83336894Y-63729502D01*
X83332000Y-63744658D01*
X83332000Y-64527885D01*
X82824000Y-64527885D01*
X82824000Y-63741500D01*
X82820194Y-63728538D01*
X82805279Y-63726602D01*
X82796732Y-63728071D01*
X82785620Y-63731048D01*
X82606095Y-63797279D01*
X82595717Y-63802229D01*
X82431273Y-63900063D01*
X82421961Y-63906829D01*
X82278097Y-64032994D01*
X82270180Y-64041337D01*
X82151718Y-64191605D01*
X82145450Y-64201256D01*
X82056358Y-64370592D01*
X82051953Y-64381227D01*
X82006162Y-64528698D01*
X82005943Y-64542799D01*
X81634785Y-64542799D01*
X81639123Y-64541525D01*
X81640328Y-64540135D01*
X81641999Y-64532452D01*
X81641999Y-63931172D01*
X81640791Y-63918912D01*
X81629685Y-63863069D01*
X81620367Y-63840573D01*
X81578017Y-63777192D01*
X81560808Y-63759983D01*
X81497425Y-63717632D01*
X81474934Y-63708316D01*
X81419085Y-63697207D01*
X81406830Y-63696000D01*
X80810115Y-63696000D01*
X80794876Y-63700475D01*
X80793671Y-63701865D01*
X80792000Y-63709548D01*
X80792000Y-64527885D01*
X80284000Y-64527885D01*
X80284000Y-63714116D01*
X80279525Y-63698877D01*
X80278135Y-63697672D01*
X80270452Y-63696001D01*
X79669172Y-63696001D01*
X79656912Y-63697209D01*
X79601069Y-63708315D01*
X79578573Y-63717633D01*
X79515192Y-63759983D01*
X79497983Y-63777192D01*
X79455632Y-63840575D01*
X79446316Y-63863066D01*
X79435207Y-63918915D01*
X79434000Y-63931170D01*
X79434000Y-64527885D01*
X76073500Y-64527885D01*
X76073500Y-61340500D01*
X76093502Y-61272379D01*
X76147158Y-61225886D01*
X76199500Y-61214500D01*
X107442500Y-61214500D01*
X107510621Y-61234502D01*
G37*
%TD.AperFunction*%
%TD*%
M02*
