M48
; DRILL file {KiCad (6.0.9)} date 2022年11月21日 星期一 20时56分18秒
; FORMAT={-:-/ absolute / inch / decimal}
; #@! TF.CreationDate,2022-11-21T20:56:18+08:00
; #@! TF.GenerationSoftware,Kicad,Pcbnew,(6.0.9)
; #@! TF.FileFunction,Plated,1,2,PTH
FMAT,2
INCH
; #@! TA.AperFunction,Plated,PTH,ViaDrill
T1C0.0157
; #@! TA.AperFunction,Plated,PTH,ComponentDrill
T2C0.0394
%
G90
G05
T1
X3.02Y-3.74
X3.02Y-3.84
X3.02Y-3.94
X3.055Y-2.57
X3.055Y-2.67
X3.055Y-2.77
X3.105Y-3.84
X3.105Y-3.94
X3.105Y-4.04
X3.38Y-3.9
X3.385Y-2.61
X3.385Y-2.71
X3.385Y-2.81
X3.43Y-3.855
X3.455Y-2.925
X3.47Y-3.815
X3.5062Y-3.1512
X3.515Y-2.99
X3.545Y-4.14
X3.58Y-3.06
X3.595Y-3.865
X3.645Y-4.14
X3.695Y-3.865
X3.745Y-4.14
X3.795Y-3.865
X3.85Y-3.19
X3.87Y-3.72
X3.91Y-3.865
X3.92Y-4.145
X3.945Y-2.845
X3.9948Y-3.7398
X3.9986Y-3.5036
X3.9992Y-3.4642
X4.0025Y-3.2575
X4.0033Y-3.2083
X4.015Y-3.38
X4.02Y-4.145
X4.045Y-2.845
X4.05Y-3.5
X4.05Y-3.6
X4.05Y-3.7
X4.12Y-4.145
X4.145Y-2.845
X4.175Y-2.97
X4.175Y-3.07
X4.175Y-3.17
T2
X3.1708Y-2.5512
X3.1708Y-2.6512
X3.1708Y-2.7512
X3.1708Y-2.8512
X3.1708Y-2.9512
X3.1708Y-3.0512
X3.1708Y-3.1512
X3.1708Y-3.2512
X3.1708Y-3.3512
X3.1708Y-3.4512
X3.1708Y-3.5512
X3.1708Y-3.6512
X3.1708Y-3.7512
X3.1708Y-3.8512
X3.1708Y-3.9512
X3.1708Y-4.0512
X3.1708Y-4.1512
X3.1708Y-4.2512
X3.1708Y-4.3512
X3.1708Y-4.4512
X3.2708Y-2.5512
X3.2708Y-2.6512
X3.2708Y-2.7512
X3.2708Y-2.8512
X3.2708Y-2.9512
X3.2708Y-3.0512
X3.2708Y-3.1512
X3.2708Y-3.2512
X3.2708Y-3.3512
X3.2708Y-3.4512
X3.2708Y-3.5512
X3.2708Y-3.6512
X3.2708Y-3.7512
X3.2708Y-3.8512
X3.2708Y-3.9512
X3.2708Y-4.0512
X3.2708Y-4.1512
X3.2708Y-4.2512
X3.2708Y-4.3512
X3.2708Y-4.4512
X3.5798Y-2.87
X3.6798Y-2.87
T0
M30
