%TF.GenerationSoftware,KiCad,Pcbnew,(6.0.9)*%
%TF.CreationDate,2022-11-21T20:56:18+08:00*%
%TF.ProjectId,Sitronix_3.95''_480x480,53697472-6f6e-4697-985f-332e39352727,rev?*%
%TF.SameCoordinates,Original*%
%TF.FileFunction,Legend,Bot*%
%TF.FilePolarity,Positive*%
%FSLAX46Y46*%
G04 Gerber Fmt 4.6, Leading zero omitted, Abs format (unit mm)*
G04 Created by KiCad (PCBNEW (6.0.9)) date 2022-11-21 20:56:18*
%MOMM*%
%LPD*%
G01*
G04 APERTURE LIST*
%ADD10C,0.150000*%
%ADD11C,0.120000*%
%ADD12R,1.700000X1.700000*%
%ADD13O,1.700000X1.700000*%
G04 APERTURE END LIST*
D10*
%TO.C,J1*%
X82141333Y-61482380D02*
X82141333Y-62196666D01*
X82188952Y-62339523D01*
X82284190Y-62434761D01*
X82427047Y-62482380D01*
X82522285Y-62482380D01*
X81141333Y-62482380D02*
X81712761Y-62482380D01*
X81427047Y-62482380D02*
X81427047Y-61482380D01*
X81522285Y-61625238D01*
X81617523Y-61720476D01*
X81712761Y-61768095D01*
D11*
X84408000Y-63470000D02*
X84408000Y-114390000D01*
X79208000Y-66070000D02*
X79208000Y-114390000D01*
X84408000Y-63470000D02*
X81808000Y-63470000D01*
X84408000Y-114390000D02*
X79208000Y-114390000D01*
X81808000Y-63470000D02*
X81808000Y-66070000D01*
X81808000Y-66070000D02*
X79208000Y-66070000D01*
X80538000Y-63470000D02*
X79208000Y-63470000D01*
X79208000Y-63470000D02*
X79208000Y-64800000D01*
%TD*%
%LPC*%
D12*
%TO.C,J2*%
X90927000Y-72898000D03*
D13*
X93467000Y-72898000D03*
%TD*%
D12*
%TO.C,J1*%
X80538000Y-64800000D03*
D13*
X83078000Y-64800000D03*
X80538000Y-67340000D03*
X83078000Y-67340000D03*
X80538000Y-69880000D03*
X83078000Y-69880000D03*
X80538000Y-72420000D03*
X83078000Y-72420000D03*
X80538000Y-74960000D03*
X83078000Y-74960000D03*
X80538000Y-77500000D03*
X83078000Y-77500000D03*
X80538000Y-80040000D03*
X83078000Y-80040000D03*
X80538000Y-82580000D03*
X83078000Y-82580000D03*
X80538000Y-85120000D03*
X83078000Y-85120000D03*
X80538000Y-87660000D03*
X83078000Y-87660000D03*
X80538000Y-90200000D03*
X83078000Y-90200000D03*
X80538000Y-92740000D03*
X83078000Y-92740000D03*
X80538000Y-95280000D03*
X83078000Y-95280000D03*
X80538000Y-97820000D03*
X83078000Y-97820000D03*
X80538000Y-100360000D03*
X83078000Y-100360000D03*
X80538000Y-102900000D03*
X83078000Y-102900000D03*
X80538000Y-105440000D03*
X83078000Y-105440000D03*
X80538000Y-107980000D03*
X83078000Y-107980000D03*
X80538000Y-110520000D03*
X83078000Y-110520000D03*
X80538000Y-113060000D03*
X83078000Y-113060000D03*
%TD*%
M02*
