%TF.GenerationSoftware,KiCad,Pcbnew,(6.0.9)*%
%TF.CreationDate,2022-11-14T09:49:53+08:00*%
%TF.ProjectId,YYSJ_2.1''_knob,5959534a-5f32-42e3-9127-275f6b6e6f62,rev?*%
%TF.SameCoordinates,Original*%
%TF.FileFunction,Legend,Bot*%
%TF.FilePolarity,Positive*%
%FSLAX46Y46*%
G04 Gerber Fmt 4.6, Leading zero omitted, Abs format (unit mm)*
G04 Created by KiCad (PCBNEW (6.0.9)) date 2022-11-14 09:49:53*
%MOMM*%
%LPD*%
G01*
G04 APERTURE LIST*
%ADD10C,0.150000*%
%ADD11C,0.120000*%
%ADD12R,1.700000X1.700000*%
%ADD13O,1.700000X1.700000*%
%ADD14C,0.650000*%
%ADD15O,2.100000X1.000000*%
%ADD16O,1.600000X1.000000*%
%ADD17R,1.300000X0.300000*%
%ADD18R,2.200000X1.800000*%
G04 APERTURE END LIST*
D10*
X55347952Y-120102380D02*
X55347952Y-120911904D01*
X55300333Y-121007142D01*
X55252714Y-121054761D01*
X55157476Y-121102380D01*
X54967000Y-121102380D01*
X54871761Y-121054761D01*
X54824142Y-121007142D01*
X54776523Y-120911904D01*
X54776523Y-120102380D01*
X54347952Y-121054761D02*
X54205095Y-121102380D01*
X53967000Y-121102380D01*
X53871761Y-121054761D01*
X53824142Y-121007142D01*
X53776523Y-120911904D01*
X53776523Y-120816666D01*
X53824142Y-120721428D01*
X53871761Y-120673809D01*
X53967000Y-120626190D01*
X54157476Y-120578571D01*
X54252714Y-120530952D01*
X54300333Y-120483333D01*
X54347952Y-120388095D01*
X54347952Y-120292857D01*
X54300333Y-120197619D01*
X54252714Y-120150000D01*
X54157476Y-120102380D01*
X53919380Y-120102380D01*
X53776523Y-120150000D01*
X53014619Y-120578571D02*
X52871761Y-120626190D01*
X52824142Y-120673809D01*
X52776523Y-120769047D01*
X52776523Y-120911904D01*
X52824142Y-121007142D01*
X52871761Y-121054761D01*
X52967000Y-121102380D01*
X53347952Y-121102380D01*
X53347952Y-120102380D01*
X53014619Y-120102380D01*
X52919380Y-120150000D01*
X52871761Y-120197619D01*
X52824142Y-120292857D01*
X52824142Y-120388095D01*
X52871761Y-120483333D01*
X52919380Y-120530952D01*
X53014619Y-120578571D01*
X53347952Y-120578571D01*
X52347952Y-120721428D02*
X51586047Y-120721428D01*
X51967000Y-121102380D02*
X51967000Y-120340476D01*
X54133666Y-128722380D02*
X54467000Y-128246190D01*
X54705095Y-128722380D02*
X54705095Y-127722380D01*
X54324142Y-127722380D01*
X54228904Y-127770000D01*
X54181285Y-127817619D01*
X54133666Y-127912857D01*
X54133666Y-128055714D01*
X54181285Y-128150952D01*
X54228904Y-128198571D01*
X54324142Y-128246190D01*
X54705095Y-128246190D01*
X53800333Y-127722380D02*
X53133666Y-128722380D01*
X53133666Y-127722380D02*
X53800333Y-128722380D01*
X52752714Y-128722380D02*
X52752714Y-127722380D01*
X52514619Y-127722380D01*
X52371761Y-127770000D01*
X52276523Y-127865238D01*
X52228904Y-127960476D01*
X52181285Y-128150952D01*
X52181285Y-128293809D01*
X52228904Y-128484285D01*
X52276523Y-128579523D01*
X52371761Y-128674761D01*
X52514619Y-128722380D01*
X52752714Y-128722380D01*
X54228904Y-135390000D02*
X54324142Y-135342380D01*
X54467000Y-135342380D01*
X54609857Y-135390000D01*
X54705095Y-135485238D01*
X54752714Y-135580476D01*
X54800333Y-135770952D01*
X54800333Y-135913809D01*
X54752714Y-136104285D01*
X54705095Y-136199523D01*
X54609857Y-136294761D01*
X54467000Y-136342380D01*
X54371761Y-136342380D01*
X54228904Y-136294761D01*
X54181285Y-136247142D01*
X54181285Y-135913809D01*
X54371761Y-135913809D01*
X53752714Y-136342380D02*
X53752714Y-135342380D01*
X53181285Y-136342380D01*
X53181285Y-135342380D01*
X52705095Y-136342380D02*
X52705095Y-135342380D01*
X52467000Y-135342380D01*
X52324142Y-135390000D01*
X52228904Y-135485238D01*
X52181285Y-135580476D01*
X52133666Y-135770952D01*
X52133666Y-135913809D01*
X52181285Y-136104285D01*
X52228904Y-136199523D01*
X52324142Y-136294761D01*
X52467000Y-136342380D01*
X52705095Y-136342380D01*
X54728904Y-125182380D02*
X54157476Y-125182380D01*
X54443190Y-126182380D02*
X54443190Y-125182380D01*
X53919380Y-125182380D02*
X53252714Y-126182380D01*
X53252714Y-125182380D02*
X53919380Y-126182380D01*
X52871761Y-126182380D02*
X52871761Y-125182380D01*
X52633666Y-125182380D01*
X52490809Y-125230000D01*
X52395571Y-125325238D01*
X52347952Y-125420476D01*
X52300333Y-125610952D01*
X52300333Y-125753809D01*
X52347952Y-125944285D01*
X52395571Y-126039523D01*
X52490809Y-126134761D01*
X52633666Y-126182380D01*
X52871761Y-126182380D01*
X53657476Y-140422380D02*
X54133666Y-140422380D01*
X54181285Y-140898571D01*
X54133666Y-140850952D01*
X54038428Y-140803333D01*
X53800333Y-140803333D01*
X53705095Y-140850952D01*
X53657476Y-140898571D01*
X53609857Y-140993809D01*
X53609857Y-141231904D01*
X53657476Y-141327142D01*
X53705095Y-141374761D01*
X53800333Y-141422380D01*
X54038428Y-141422380D01*
X54133666Y-141374761D01*
X54181285Y-141327142D01*
X53324142Y-140422380D02*
X52990809Y-141422380D01*
X52657476Y-140422380D01*
X54705095Y-138596666D02*
X54228904Y-138596666D01*
X54800333Y-138882380D02*
X54467000Y-137882380D01*
X54133666Y-138882380D01*
X53800333Y-138882380D02*
X53800333Y-137882380D01*
X53562238Y-137882380D01*
X53419380Y-137930000D01*
X53324142Y-138025238D01*
X53276523Y-138120476D01*
X53228904Y-138310952D01*
X53228904Y-138453809D01*
X53276523Y-138644285D01*
X53324142Y-138739523D01*
X53419380Y-138834761D01*
X53562238Y-138882380D01*
X53800333Y-138882380D01*
X52228904Y-138787142D02*
X52276523Y-138834761D01*
X52419380Y-138882380D01*
X52514619Y-138882380D01*
X52657476Y-138834761D01*
X52752714Y-138739523D01*
X52800333Y-138644285D01*
X52847952Y-138453809D01*
X52847952Y-138310952D01*
X52800333Y-138120476D01*
X52752714Y-138025238D01*
X52657476Y-137930000D01*
X52514619Y-137882380D01*
X52419380Y-137882380D01*
X52276523Y-137930000D01*
X52228904Y-137977619D01*
X54014619Y-123642380D02*
X54347952Y-123166190D01*
X54586047Y-123642380D02*
X54586047Y-122642380D01*
X54205095Y-122642380D01*
X54109857Y-122690000D01*
X54062238Y-122737619D01*
X54014619Y-122832857D01*
X54014619Y-122975714D01*
X54062238Y-123070952D01*
X54109857Y-123118571D01*
X54205095Y-123166190D01*
X54586047Y-123166190D01*
X53633666Y-123594761D02*
X53490809Y-123642380D01*
X53252714Y-123642380D01*
X53157476Y-123594761D01*
X53109857Y-123547142D01*
X53062238Y-123451904D01*
X53062238Y-123356666D01*
X53109857Y-123261428D01*
X53157476Y-123213809D01*
X53252714Y-123166190D01*
X53443190Y-123118571D01*
X53538428Y-123070952D01*
X53586047Y-123023333D01*
X53633666Y-122928095D01*
X53633666Y-122832857D01*
X53586047Y-122737619D01*
X53538428Y-122690000D01*
X53443190Y-122642380D01*
X53205095Y-122642380D01*
X53062238Y-122690000D01*
X52776523Y-122642380D02*
X52205095Y-122642380D01*
X52490809Y-123642380D02*
X52490809Y-122642380D01*
X55347952Y-117562380D02*
X55347952Y-118371904D01*
X55300333Y-118467142D01*
X55252714Y-118514761D01*
X55157476Y-118562380D01*
X54967000Y-118562380D01*
X54871761Y-118514761D01*
X54824142Y-118467142D01*
X54776523Y-118371904D01*
X54776523Y-117562380D01*
X54347952Y-118514761D02*
X54205095Y-118562380D01*
X53967000Y-118562380D01*
X53871761Y-118514761D01*
X53824142Y-118467142D01*
X53776523Y-118371904D01*
X53776523Y-118276666D01*
X53824142Y-118181428D01*
X53871761Y-118133809D01*
X53967000Y-118086190D01*
X54157476Y-118038571D01*
X54252714Y-117990952D01*
X54300333Y-117943333D01*
X54347952Y-117848095D01*
X54347952Y-117752857D01*
X54300333Y-117657619D01*
X54252714Y-117610000D01*
X54157476Y-117562380D01*
X53919380Y-117562380D01*
X53776523Y-117610000D01*
X53014619Y-118038571D02*
X52871761Y-118086190D01*
X52824142Y-118133809D01*
X52776523Y-118229047D01*
X52776523Y-118371904D01*
X52824142Y-118467142D01*
X52871761Y-118514761D01*
X52967000Y-118562380D01*
X53347952Y-118562380D01*
X53347952Y-117562380D01*
X53014619Y-117562380D01*
X52919380Y-117610000D01*
X52871761Y-117657619D01*
X52824142Y-117752857D01*
X52824142Y-117848095D01*
X52871761Y-117943333D01*
X52919380Y-117990952D01*
X53014619Y-118038571D01*
X53347952Y-118038571D01*
X52347952Y-118181428D02*
X51586047Y-118181428D01*
%TO.C,J2*%
X66734380Y-129201666D02*
X67448666Y-129201666D01*
X67591523Y-129154047D01*
X67686761Y-129058809D01*
X67734380Y-128915952D01*
X67734380Y-128820714D01*
X66829619Y-129630238D02*
X66782000Y-129677857D01*
X66734380Y-129773095D01*
X66734380Y-130011190D01*
X66782000Y-130106428D01*
X66829619Y-130154047D01*
X66924857Y-130201666D01*
X67020095Y-130201666D01*
X67162952Y-130154047D01*
X67734380Y-129582619D01*
X67734380Y-130201666D01*
D11*
X69682000Y-126875000D02*
X68482000Y-126875000D01*
X69682000Y-133685000D02*
X71022000Y-133685000D01*
X75482000Y-125385000D02*
X75482000Y-133685000D01*
X69682000Y-126875000D02*
X69682000Y-125385000D01*
X69682000Y-132195000D02*
X69682000Y-133685000D01*
X69682000Y-125385000D02*
X71022000Y-125385000D01*
X73742000Y-125385000D02*
X75482000Y-125385000D01*
X75482000Y-133685000D02*
X73742000Y-133685000D01*
%TD*%
%LPC*%
D12*
%TO.C,J3*%
X60629000Y-140960000D03*
D13*
X60629000Y-138420000D03*
X60629000Y-135880000D03*
X60629000Y-133340000D03*
X60629000Y-130800000D03*
X60629000Y-128260000D03*
X60629000Y-125720000D03*
X60629000Y-123180000D03*
X60629000Y-120640000D03*
X60629000Y-118100000D03*
%TD*%
D14*
%TO.C,J1*%
X56713000Y-108300000D03*
X56713000Y-102520000D03*
D15*
X57243000Y-101090000D03*
D16*
X53063000Y-101090000D03*
D15*
X57243000Y-109730000D03*
D16*
X53063000Y-109730000D03*
%TD*%
D17*
%TO.C,J2*%
X69132000Y-127285000D03*
X69132000Y-127785000D03*
X69132000Y-128285000D03*
X69132000Y-128785000D03*
X69132000Y-129285000D03*
X69132000Y-129785000D03*
X69132000Y-130285000D03*
X69132000Y-130785000D03*
X69132000Y-131285000D03*
X69132000Y-131785000D03*
D18*
X72382000Y-133685000D03*
X72382000Y-125385000D03*
%TD*%
M02*
