M48
; DRILL file {KiCad (6.0.9)} date 2022年11月14日 星期一 09时49分53秒
; FORMAT={-:-/ absolute / inch / decimal}
; #@! TF.CreationDate,2022-11-14T09:49:53+08:00
; #@! TF.GenerationSoftware,Kicad,Pcbnew,(6.0.9)
; #@! TF.FileFunction,Plated,1,2,PTH
FMAT,2
INCH
; #@! TA.AperFunction,Plated,PTH,ViaDrill
T1C0.0157
; #@! TA.AperFunction,Plated,PTH,ComponentDrill
T2C0.0236
; #@! TA.AperFunction,Plated,PTH,ComponentDrill
T3C0.0394
%
G90
G05
T1
X2.0918Y-4.0537
X2.0918Y-4.1037
X2.0918Y-4.1537
X2.0918Y-4.2037
X2.0918Y-4.2537
X2.2075Y-3.89
X2.2075Y-4.41
X2.2375Y-4.1008
X2.2375Y-4.2
X2.3475Y-4.1
X2.3475Y-4.18
X2.5118Y-4.0937
X2.5118Y-4.3137
X2.5118Y-4.3937
X2.5318Y-3.7137
X2.5618Y-4.0937
X2.5618Y-4.3137
X2.5618Y-4.3937
X2.5818Y-3.7137
X2.6118Y-4.0937
X2.6118Y-4.3137
X2.6118Y-4.3937
X2.6318Y-3.7137
X2.6618Y-4.0937
X2.6618Y-4.3137
X2.6618Y-4.3937
X2.6818Y-3.7137
X2.7118Y-4.0937
X2.7118Y-4.3137
X2.7118Y-4.3937
X2.7318Y-3.7137
X2.768Y-5.1923
X2.7718Y-5.3837
X2.782Y-5.0073
X2.782Y-5.0348
X2.8118Y-4.1637
X2.8218Y-5.3837
X2.8418Y-4.6237
X2.8418Y-4.6737
X2.8418Y-4.7237
X2.8418Y-4.7737
X2.8618Y-4.1637
X2.8718Y-5.3837
X2.9118Y-4.1637
X2.9218Y-5.3837
X2.9618Y-4.1637
X2.9718Y-5.3837
X3.0118Y-4.1637
T3
X2.387Y-4.6496
X2.387Y-4.7496
X2.387Y-4.8496
X2.387Y-4.9496
X2.387Y-5.0496
X2.387Y-5.1496
X2.387Y-5.2496
X2.387Y-5.3496
X2.387Y-5.4496
X2.387Y-5.5496
T2
G00X2.1009Y-3.9799
M15
G01X2.0773Y-3.9799
M16
G05
G00X2.1009Y-4.3201
M15
G01X2.0773Y-4.3201
M16
G05
G00X2.2753Y-3.9799
M15
G01X2.232Y-3.9799
M16
G05
G00X2.2753Y-4.3201
M15
G01X2.232Y-4.3201
M16
G05
T0
M30
