%TF.GenerationSoftware,KiCad,Pcbnew,(6.0.9)*%
%TF.CreationDate,2022-11-14T09:49:53+08:00*%
%TF.ProjectId,YYSJ_2.1''_knob,5959534a-5f32-42e3-9127-275f6b6e6f62,rev?*%
%TF.SameCoordinates,Original*%
%TF.FileFunction,Legend,Top*%
%TF.FilePolarity,Positive*%
%FSLAX46Y46*%
G04 Gerber Fmt 4.6, Leading zero omitted, Abs format (unit mm)*
G04 Created by KiCad (PCBNEW (6.0.9)) date 2022-11-14 09:49:53*
%MOMM*%
%LPD*%
G01*
G04 APERTURE LIST*
G04 Aperture macros list*
%AMRoundRect*
0 Rectangle with rounded corners*
0 $1 Rounding radius*
0 $2 $3 $4 $5 $6 $7 $8 $9 X,Y pos of 4 corners*
0 Add a 4 corners polygon primitive as box body*
4,1,4,$2,$3,$4,$5,$6,$7,$8,$9,$2,$3,0*
0 Add four circle primitives for the rounded corners*
1,1,$1+$1,$2,$3*
1,1,$1+$1,$4,$5*
1,1,$1+$1,$6,$7*
1,1,$1+$1,$8,$9*
0 Add four rect primitives between the rounded corners*
20,1,$1+$1,$2,$3,$4,$5,0*
20,1,$1+$1,$4,$5,$6,$7,0*
20,1,$1+$1,$6,$7,$8,$9,0*
20,1,$1+$1,$8,$9,$2,$3,0*%
G04 Aperture macros list end*
%ADD10C,0.150000*%
%ADD11C,0.120000*%
%ADD12C,0.010000*%
%ADD13R,1.700000X1.700000*%
%ADD14O,1.700000X1.700000*%
%ADD15RoundRect,0.200000X-0.200000X-0.275000X0.200000X-0.275000X0.200000X0.275000X-0.200000X0.275000X0*%
%ADD16R,0.700000X0.600000*%
%ADD17C,0.650000*%
%ADD18R,1.450000X0.600000*%
%ADD19R,1.450000X0.300000*%
%ADD20O,2.100000X1.000000*%
%ADD21O,1.600000X1.000000*%
%ADD22RoundRect,0.218750X-0.218750X-0.256250X0.218750X-0.256250X0.218750X0.256250X-0.218750X0.256250X0*%
%ADD23R,2.500000X1.800000*%
%ADD24RoundRect,0.225000X0.250000X-0.225000X0.250000X0.225000X-0.250000X0.225000X-0.250000X-0.225000X0*%
G04 APERTURE END LIST*
D10*
%TO.C,J3*%
X54067268Y-144073380D02*
X54067268Y-144787666D01*
X54019649Y-144930523D01*
X53924411Y-145025761D01*
X53781554Y-145073380D01*
X53686316Y-145073380D01*
X54448221Y-144073380D02*
X55067268Y-144073380D01*
X54733935Y-144454333D01*
X54876792Y-144454333D01*
X54972030Y-144501952D01*
X55019649Y-144549571D01*
X55067268Y-144644809D01*
X55067268Y-144882904D01*
X55019649Y-144978142D01*
X54972030Y-145025761D01*
X54876792Y-145073380D01*
X54591078Y-145073380D01*
X54495840Y-145025761D01*
X54448221Y-144978142D01*
%TO.C,R3*%
X64469833Y-97066380D02*
X64136500Y-96590190D01*
X63898404Y-97066380D02*
X63898404Y-96066380D01*
X64279357Y-96066380D01*
X64374595Y-96114000D01*
X64422214Y-96161619D01*
X64469833Y-96256857D01*
X64469833Y-96399714D01*
X64422214Y-96494952D01*
X64374595Y-96542571D01*
X64279357Y-96590190D01*
X63898404Y-96590190D01*
X64803166Y-96066380D02*
X65422214Y-96066380D01*
X65088880Y-96447333D01*
X65231738Y-96447333D01*
X65326976Y-96494952D01*
X65374595Y-96542571D01*
X65422214Y-96637809D01*
X65422214Y-96875904D01*
X65374595Y-96971142D01*
X65326976Y-97018761D01*
X65231738Y-97066380D01*
X64946023Y-97066380D01*
X64850785Y-97018761D01*
X64803166Y-96971142D01*
%TO.C,D2*%
X63060506Y-107481380D02*
X63060506Y-106481380D01*
X63298602Y-106481380D01*
X63441459Y-106529000D01*
X63536697Y-106624238D01*
X63584316Y-106719476D01*
X63631935Y-106909952D01*
X63631935Y-107052809D01*
X63584316Y-107243285D01*
X63536697Y-107338523D01*
X63441459Y-107433761D01*
X63298602Y-107481380D01*
X63060506Y-107481380D01*
X64012887Y-106576619D02*
X64060506Y-106529000D01*
X64155744Y-106481380D01*
X64393840Y-106481380D01*
X64489078Y-106529000D01*
X64536697Y-106576619D01*
X64584316Y-106671857D01*
X64584316Y-106767095D01*
X64536697Y-106909952D01*
X63965268Y-107481380D01*
X64584316Y-107481380D01*
%TO.C,D3*%
X61028506Y-99099380D02*
X61028506Y-98099380D01*
X61266602Y-98099380D01*
X61409459Y-98147000D01*
X61504697Y-98242238D01*
X61552316Y-98337476D01*
X61599935Y-98527952D01*
X61599935Y-98670809D01*
X61552316Y-98861285D01*
X61504697Y-98956523D01*
X61409459Y-99051761D01*
X61266602Y-99099380D01*
X61028506Y-99099380D01*
X61933268Y-98099380D02*
X62552316Y-98099380D01*
X62218982Y-98480333D01*
X62361840Y-98480333D01*
X62457078Y-98527952D01*
X62504697Y-98575571D01*
X62552316Y-98670809D01*
X62552316Y-98908904D01*
X62504697Y-99004142D01*
X62457078Y-99051761D01*
X62361840Y-99099380D01*
X62076125Y-99099380D01*
X61980887Y-99051761D01*
X61933268Y-99004142D01*
%TO.C,D1*%
X63060506Y-104687380D02*
X63060506Y-103687380D01*
X63298602Y-103687380D01*
X63441459Y-103735000D01*
X63536697Y-103830238D01*
X63584316Y-103925476D01*
X63631935Y-104115952D01*
X63631935Y-104258809D01*
X63584316Y-104449285D01*
X63536697Y-104544523D01*
X63441459Y-104639761D01*
X63298602Y-104687380D01*
X63060506Y-104687380D01*
X64584316Y-104687380D02*
X64012887Y-104687380D01*
X64298602Y-104687380D02*
X64298602Y-103687380D01*
X64203363Y-103830238D01*
X64108125Y-103925476D01*
X64012887Y-103973095D01*
%TO.C,J1*%
X53051268Y-111561380D02*
X53051268Y-112275666D01*
X53003649Y-112418523D01*
X52908411Y-112513761D01*
X52765554Y-112561380D01*
X52670316Y-112561380D01*
X54051268Y-112561380D02*
X53479840Y-112561380D01*
X53765554Y-112561380D02*
X53765554Y-111561380D01*
X53670316Y-111704238D01*
X53575078Y-111799476D01*
X53479840Y-111847095D01*
%TO.C,D5*%
X67454404Y-97066380D02*
X67454404Y-96066380D01*
X67692500Y-96066380D01*
X67835357Y-96114000D01*
X67930595Y-96209238D01*
X67978214Y-96304476D01*
X68025833Y-96494952D01*
X68025833Y-96637809D01*
X67978214Y-96828285D01*
X67930595Y-96923523D01*
X67835357Y-97018761D01*
X67692500Y-97066380D01*
X67454404Y-97066380D01*
X68930595Y-96066380D02*
X68454404Y-96066380D01*
X68406785Y-96542571D01*
X68454404Y-96494952D01*
X68549642Y-96447333D01*
X68787738Y-96447333D01*
X68882976Y-96494952D01*
X68930595Y-96542571D01*
X68978214Y-96637809D01*
X68978214Y-96875904D01*
X68930595Y-96971142D01*
X68882976Y-97018761D01*
X68787738Y-97066380D01*
X68549642Y-97066380D01*
X68454404Y-97018761D01*
X68406785Y-96971142D01*
%TO.C,R1*%
X57789935Y-97575380D02*
X57456602Y-97099190D01*
X57218506Y-97575380D02*
X57218506Y-96575380D01*
X57599459Y-96575380D01*
X57694697Y-96623000D01*
X57742316Y-96670619D01*
X57789935Y-96765857D01*
X57789935Y-96908714D01*
X57742316Y-97003952D01*
X57694697Y-97051571D01*
X57599459Y-97099190D01*
X57218506Y-97099190D01*
X58742316Y-97575380D02*
X58170887Y-97575380D01*
X58456602Y-97575380D02*
X58456602Y-96575380D01*
X58361363Y-96718238D01*
X58266125Y-96813476D01*
X58170887Y-96861095D01*
%TO.C,D4*%
X66616506Y-104433380D02*
X66616506Y-103433380D01*
X66854602Y-103433380D01*
X66997459Y-103481000D01*
X67092697Y-103576238D01*
X67140316Y-103671476D01*
X67187935Y-103861952D01*
X67187935Y-104004809D01*
X67140316Y-104195285D01*
X67092697Y-104290523D01*
X66997459Y-104385761D01*
X66854602Y-104433380D01*
X66616506Y-104433380D01*
X68045078Y-103766714D02*
X68045078Y-104433380D01*
X67806982Y-103385761D02*
X67568887Y-104100047D01*
X68187935Y-104100047D01*
%TO.C,C1*%
X71251935Y-96972142D02*
X71204316Y-97019761D01*
X71061459Y-97067380D01*
X70966221Y-97067380D01*
X70823363Y-97019761D01*
X70728125Y-96924523D01*
X70680506Y-96829285D01*
X70632887Y-96638809D01*
X70632887Y-96495952D01*
X70680506Y-96305476D01*
X70728125Y-96210238D01*
X70823363Y-96115000D01*
X70966221Y-96067380D01*
X71061459Y-96067380D01*
X71204316Y-96115000D01*
X71251935Y-96162619D01*
X72204316Y-97067380D02*
X71632887Y-97067380D01*
X71918602Y-97067380D02*
X71918602Y-96067380D01*
X71823363Y-96210238D01*
X71728125Y-96305476D01*
X71632887Y-96353095D01*
%TO.C,R2*%
X60583935Y-112561380D02*
X60250602Y-112085190D01*
X60012506Y-112561380D02*
X60012506Y-111561380D01*
X60393459Y-111561380D01*
X60488697Y-111609000D01*
X60536316Y-111656619D01*
X60583935Y-111751857D01*
X60583935Y-111894714D01*
X60536316Y-111989952D01*
X60488697Y-112037571D01*
X60393459Y-112085190D01*
X60012506Y-112085190D01*
X60964887Y-111656619D02*
X61012506Y-111609000D01*
X61107744Y-111561380D01*
X61345840Y-111561380D01*
X61441078Y-111609000D01*
X61488697Y-111656619D01*
X61536316Y-111751857D01*
X61536316Y-111847095D01*
X61488697Y-111989952D01*
X60917268Y-112561380D01*
X61536316Y-112561380D01*
D11*
%TO.C,J3*%
X56529000Y-140800000D02*
X50529000Y-140800000D01*
X56529000Y-116770000D02*
X56529000Y-142290000D01*
X59189000Y-137150000D02*
X56529000Y-137150000D01*
X59586071Y-123560000D02*
X59189000Y-123560000D01*
X61899000Y-142230000D02*
X60629000Y-142230000D01*
X56529000Y-121020000D02*
X50529000Y-121020000D01*
X50529000Y-138040000D02*
X56529000Y-138040000D01*
X59586071Y-128640000D02*
X59189000Y-128640000D01*
X50529000Y-132960000D02*
X56529000Y-132960000D01*
X50529000Y-138800000D02*
X50529000Y-138040000D01*
X59586071Y-138040000D02*
X59189000Y-138040000D01*
X50529000Y-117720000D02*
X56529000Y-117720000D01*
X50529000Y-121020000D02*
X50529000Y-120260000D01*
X59586071Y-133720000D02*
X59189000Y-133720000D01*
X50529000Y-131180000D02*
X50529000Y-130420000D01*
X56529000Y-118480000D02*
X50529000Y-118480000D01*
X56529000Y-142290000D02*
X59189000Y-142290000D01*
X50529000Y-125340000D02*
X56529000Y-125340000D01*
X59189000Y-134610000D02*
X56529000Y-134610000D01*
X50529000Y-135500000D02*
X56529000Y-135500000D01*
X59189000Y-121910000D02*
X56529000Y-121910000D01*
X50529000Y-136260000D02*
X50529000Y-135500000D01*
X56529000Y-140920000D02*
X50529000Y-140920000D01*
X59189000Y-124450000D02*
X56529000Y-124450000D01*
X56529000Y-131180000D02*
X50529000Y-131180000D01*
X59189000Y-119370000D02*
X56529000Y-119370000D01*
X56529000Y-126100000D02*
X50529000Y-126100000D01*
X59586071Y-135500000D02*
X59189000Y-135500000D01*
X56529000Y-141160000D02*
X50529000Y-141160000D01*
X56529000Y-136260000D02*
X50529000Y-136260000D01*
X56529000Y-141340000D02*
X50529000Y-141340000D01*
X59586071Y-118480000D02*
X59189000Y-118480000D01*
X50529000Y-133720000D02*
X50529000Y-132960000D01*
X59189000Y-142290000D02*
X59189000Y-116770000D01*
X61899000Y-140960000D02*
X61899000Y-142230000D01*
X50529000Y-123560000D02*
X50529000Y-122800000D01*
X56529000Y-138800000D02*
X50529000Y-138800000D01*
X59586071Y-117720000D02*
X59189000Y-117720000D01*
X59189000Y-126990000D02*
X56529000Y-126990000D01*
X59586071Y-130420000D02*
X59189000Y-130420000D01*
X59586071Y-121020000D02*
X59189000Y-121020000D01*
X59586071Y-125340000D02*
X59189000Y-125340000D01*
X56529000Y-141040000D02*
X50529000Y-141040000D01*
X50529000Y-122800000D02*
X56529000Y-122800000D01*
X59519000Y-141340000D02*
X59189000Y-141340000D01*
X59586071Y-136260000D02*
X59189000Y-136260000D01*
X50529000Y-141340000D02*
X50529000Y-140580000D01*
X59586071Y-126100000D02*
X59189000Y-126100000D01*
X59189000Y-132070000D02*
X56529000Y-132070000D01*
X59586071Y-120260000D02*
X59189000Y-120260000D01*
X59189000Y-139690000D02*
X56529000Y-139690000D01*
X59586071Y-127880000D02*
X59189000Y-127880000D01*
X56529000Y-141280000D02*
X50529000Y-141280000D01*
X50529000Y-127880000D02*
X56529000Y-127880000D01*
X59586071Y-132960000D02*
X59189000Y-132960000D01*
X56529000Y-128640000D02*
X50529000Y-128640000D01*
X59586071Y-138800000D02*
X59189000Y-138800000D01*
X59189000Y-116770000D02*
X56529000Y-116770000D01*
X50529000Y-120260000D02*
X56529000Y-120260000D01*
X59189000Y-129530000D02*
X56529000Y-129530000D01*
X50529000Y-140580000D02*
X56529000Y-140580000D01*
X50529000Y-128640000D02*
X50529000Y-127880000D01*
X59586071Y-131180000D02*
X59189000Y-131180000D01*
X56529000Y-140680000D02*
X50529000Y-140680000D01*
X56529000Y-123560000D02*
X50529000Y-123560000D01*
X50529000Y-126100000D02*
X50529000Y-125340000D01*
X50529000Y-118480000D02*
X50529000Y-117720000D01*
X56529000Y-133720000D02*
X50529000Y-133720000D01*
X50529000Y-130420000D02*
X56529000Y-130420000D01*
X59586071Y-122800000D02*
X59189000Y-122800000D01*
X59519000Y-140580000D02*
X59189000Y-140580000D01*
%TO.C,R3*%
X64399242Y-98566500D02*
X64873758Y-98566500D01*
X64399242Y-97521500D02*
X64873758Y-97521500D01*
%TO.C,REF\u002A\u002A*%
G36*
X104551808Y-163400146D02*
G01*
X104621216Y-163400518D01*
X104673605Y-163401385D01*
X104711755Y-163402946D01*
X104738443Y-163405403D01*
X104756449Y-163408957D01*
X104768553Y-163413810D01*
X104777533Y-163420161D01*
X104780784Y-163423084D01*
X104800559Y-163454142D01*
X104804120Y-163489828D01*
X104791111Y-163521510D01*
X104785096Y-163527913D01*
X104775367Y-163534121D01*
X104759701Y-163538910D01*
X104735194Y-163542514D01*
X104698941Y-163545164D01*
X104648037Y-163547095D01*
X104579576Y-163548539D01*
X104516985Y-163549418D01*
X104269268Y-163552467D01*
X104265883Y-163617378D01*
X104262497Y-163682289D01*
X104430644Y-163682289D01*
X104503643Y-163682919D01*
X104557085Y-163685553D01*
X104593974Y-163691309D01*
X104617314Y-163701304D01*
X104630108Y-163716656D01*
X104635360Y-163738482D01*
X104636157Y-163758738D01*
X104633679Y-163783592D01*
X104624325Y-163801906D01*
X104605219Y-163814637D01*
X104573484Y-163822741D01*
X104526243Y-163827176D01*
X104460619Y-163828899D01*
X104424801Y-163829045D01*
X104263624Y-163829045D01*
X104263624Y-163987089D01*
X104511980Y-163987089D01*
X104593389Y-163987202D01*
X104655260Y-163987712D01*
X104700634Y-163988870D01*
X104732548Y-163990930D01*
X104754043Y-163994146D01*
X104768159Y-163998772D01*
X104777934Y-164005059D01*
X104782913Y-164009667D01*
X104799992Y-164036560D01*
X104805491Y-164060467D01*
X104797639Y-164089667D01*
X104782913Y-164111267D01*
X104775056Y-164118066D01*
X104764914Y-164123346D01*
X104749758Y-164127298D01*
X104726861Y-164130113D01*
X104693493Y-164131982D01*
X104646927Y-164133098D01*
X104584435Y-164133651D01*
X104503288Y-164133833D01*
X104461180Y-164133845D01*
X104371004Y-164133765D01*
X104300678Y-164133398D01*
X104247473Y-164132552D01*
X104208662Y-164131036D01*
X104181515Y-164128659D01*
X104163304Y-164125229D01*
X104151302Y-164120554D01*
X104142780Y-164114444D01*
X104139446Y-164111267D01*
X104132847Y-164103670D01*
X104127675Y-164093870D01*
X104123756Y-164079239D01*
X104120918Y-164057152D01*
X104118987Y-164024982D01*
X104117790Y-163980103D01*
X104117154Y-163919889D01*
X104116905Y-163841713D01*
X104116868Y-163768923D01*
X104116902Y-163675707D01*
X104117137Y-163602431D01*
X104117772Y-163546458D01*
X104119008Y-163505151D01*
X104121046Y-163475872D01*
X104124085Y-163455984D01*
X104128325Y-163442850D01*
X104133967Y-163433832D01*
X104141211Y-163426293D01*
X104142996Y-163424612D01*
X104151657Y-163417172D01*
X104161720Y-163411409D01*
X104175977Y-163407112D01*
X104197219Y-163404064D01*
X104228238Y-163402051D01*
X104271825Y-163400860D01*
X104330771Y-163400275D01*
X104407868Y-163400083D01*
X104462601Y-163400067D01*
X104551808Y-163400146D01*
G37*
D12*
X104551808Y-163400146D02*
X104621216Y-163400518D01*
X104673605Y-163401385D01*
X104711755Y-163402946D01*
X104738443Y-163405403D01*
X104756449Y-163408957D01*
X104768553Y-163413810D01*
X104777533Y-163420161D01*
X104780784Y-163423084D01*
X104800559Y-163454142D01*
X104804120Y-163489828D01*
X104791111Y-163521510D01*
X104785096Y-163527913D01*
X104775367Y-163534121D01*
X104759701Y-163538910D01*
X104735194Y-163542514D01*
X104698941Y-163545164D01*
X104648037Y-163547095D01*
X104579576Y-163548539D01*
X104516985Y-163549418D01*
X104269268Y-163552467D01*
X104265883Y-163617378D01*
X104262497Y-163682289D01*
X104430644Y-163682289D01*
X104503643Y-163682919D01*
X104557085Y-163685553D01*
X104593974Y-163691309D01*
X104617314Y-163701304D01*
X104630108Y-163716656D01*
X104635360Y-163738482D01*
X104636157Y-163758738D01*
X104633679Y-163783592D01*
X104624325Y-163801906D01*
X104605219Y-163814637D01*
X104573484Y-163822741D01*
X104526243Y-163827176D01*
X104460619Y-163828899D01*
X104424801Y-163829045D01*
X104263624Y-163829045D01*
X104263624Y-163987089D01*
X104511980Y-163987089D01*
X104593389Y-163987202D01*
X104655260Y-163987712D01*
X104700634Y-163988870D01*
X104732548Y-163990930D01*
X104754043Y-163994146D01*
X104768159Y-163998772D01*
X104777934Y-164005059D01*
X104782913Y-164009667D01*
X104799992Y-164036560D01*
X104805491Y-164060467D01*
X104797639Y-164089667D01*
X104782913Y-164111267D01*
X104775056Y-164118066D01*
X104764914Y-164123346D01*
X104749758Y-164127298D01*
X104726861Y-164130113D01*
X104693493Y-164131982D01*
X104646927Y-164133098D01*
X104584435Y-164133651D01*
X104503288Y-164133833D01*
X104461180Y-164133845D01*
X104371004Y-164133765D01*
X104300678Y-164133398D01*
X104247473Y-164132552D01*
X104208662Y-164131036D01*
X104181515Y-164128659D01*
X104163304Y-164125229D01*
X104151302Y-164120554D01*
X104142780Y-164114444D01*
X104139446Y-164111267D01*
X104132847Y-164103670D01*
X104127675Y-164093870D01*
X104123756Y-164079239D01*
X104120918Y-164057152D01*
X104118987Y-164024982D01*
X104117790Y-163980103D01*
X104117154Y-163919889D01*
X104116905Y-163841713D01*
X104116868Y-163768923D01*
X104116902Y-163675707D01*
X104117137Y-163602431D01*
X104117772Y-163546458D01*
X104119008Y-163505151D01*
X104121046Y-163475872D01*
X104124085Y-163455984D01*
X104128325Y-163442850D01*
X104133967Y-163433832D01*
X104141211Y-163426293D01*
X104142996Y-163424612D01*
X104151657Y-163417172D01*
X104161720Y-163411409D01*
X104175977Y-163407112D01*
X104197219Y-163404064D01*
X104228238Y-163402051D01*
X104271825Y-163400860D01*
X104330771Y-163400275D01*
X104407868Y-163400083D01*
X104462601Y-163400067D01*
X104551808Y-163400146D01*
G36*
X105572899Y-163401351D02*
G01*
X105647714Y-163406581D01*
X105717296Y-163414750D01*
X105777600Y-163425550D01*
X105824582Y-163438673D01*
X105854196Y-163453813D01*
X105858742Y-163458269D01*
X105874548Y-163492850D01*
X105869755Y-163528351D01*
X105845238Y-163558725D01*
X105844068Y-163559596D01*
X105829648Y-163568954D01*
X105814594Y-163573876D01*
X105793597Y-163574473D01*
X105761345Y-163570861D01*
X105712529Y-163563154D01*
X105708602Y-163562505D01*
X105635863Y-163553569D01*
X105557385Y-163549161D01*
X105478675Y-163549119D01*
X105405241Y-163553279D01*
X105342591Y-163561479D01*
X105296232Y-163573557D01*
X105293186Y-163574771D01*
X105259554Y-163593615D01*
X105247738Y-163612685D01*
X105256988Y-163631439D01*
X105286555Y-163649337D01*
X105335691Y-163665837D01*
X105403645Y-163680396D01*
X105448957Y-163687406D01*
X105543146Y-163700889D01*
X105618058Y-163713214D01*
X105676885Y-163725449D01*
X105722817Y-163738661D01*
X105759047Y-163753917D01*
X105788764Y-163772285D01*
X105815160Y-163794831D01*
X105836372Y-163816971D01*
X105861537Y-163847819D01*
X105873921Y-163874345D01*
X105877794Y-163907026D01*
X105877935Y-163918995D01*
X105875026Y-163958712D01*
X105863400Y-163988259D01*
X105843279Y-164014486D01*
X105802386Y-164054576D01*
X105756785Y-164085149D01*
X105703089Y-164107203D01*
X105637910Y-164121735D01*
X105557858Y-164129741D01*
X105459545Y-164132218D01*
X105443313Y-164132177D01*
X105377753Y-164130818D01*
X105312736Y-164127730D01*
X105255350Y-164123356D01*
X105212680Y-164118140D01*
X105209230Y-164117541D01*
X105166806Y-164107491D01*
X105130822Y-164094796D01*
X105110452Y-164083190D01*
X105091495Y-164052572D01*
X105090175Y-164016918D01*
X105106517Y-163985144D01*
X105110173Y-163981551D01*
X105125287Y-163970876D01*
X105144187Y-163966276D01*
X105173440Y-163967059D01*
X105208951Y-163971127D01*
X105248632Y-163974762D01*
X105304257Y-163977828D01*
X105369196Y-163980053D01*
X105436817Y-163981164D01*
X105454602Y-163981237D01*
X105522474Y-163980964D01*
X105572148Y-163979646D01*
X105607992Y-163976827D01*
X105634378Y-163972050D01*
X105655676Y-163964857D01*
X105668476Y-163958867D01*
X105696602Y-163942233D01*
X105714534Y-163927168D01*
X105717155Y-163922897D01*
X105711626Y-163905263D01*
X105685342Y-163888192D01*
X105640124Y-163872458D01*
X105577794Y-163858838D01*
X105559431Y-163855804D01*
X105463512Y-163840738D01*
X105386961Y-163828146D01*
X105326822Y-163817111D01*
X105280142Y-163806720D01*
X105243965Y-163796056D01*
X105215337Y-163784205D01*
X105191304Y-163770251D01*
X105168910Y-163753281D01*
X105145200Y-163732378D01*
X105137222Y-163725049D01*
X105109249Y-163697699D01*
X105094442Y-163676029D01*
X105088650Y-163651232D01*
X105087713Y-163619983D01*
X105098027Y-163558705D01*
X105128850Y-163506640D01*
X105180007Y-163463958D01*
X105251319Y-163430825D01*
X105302202Y-163415964D01*
X105357502Y-163406366D01*
X105423749Y-163400936D01*
X105496896Y-163399367D01*
X105572899Y-163401351D01*
G37*
X105572899Y-163401351D02*
X105647714Y-163406581D01*
X105717296Y-163414750D01*
X105777600Y-163425550D01*
X105824582Y-163438673D01*
X105854196Y-163453813D01*
X105858742Y-163458269D01*
X105874548Y-163492850D01*
X105869755Y-163528351D01*
X105845238Y-163558725D01*
X105844068Y-163559596D01*
X105829648Y-163568954D01*
X105814594Y-163573876D01*
X105793597Y-163574473D01*
X105761345Y-163570861D01*
X105712529Y-163563154D01*
X105708602Y-163562505D01*
X105635863Y-163553569D01*
X105557385Y-163549161D01*
X105478675Y-163549119D01*
X105405241Y-163553279D01*
X105342591Y-163561479D01*
X105296232Y-163573557D01*
X105293186Y-163574771D01*
X105259554Y-163593615D01*
X105247738Y-163612685D01*
X105256988Y-163631439D01*
X105286555Y-163649337D01*
X105335691Y-163665837D01*
X105403645Y-163680396D01*
X105448957Y-163687406D01*
X105543146Y-163700889D01*
X105618058Y-163713214D01*
X105676885Y-163725449D01*
X105722817Y-163738661D01*
X105759047Y-163753917D01*
X105788764Y-163772285D01*
X105815160Y-163794831D01*
X105836372Y-163816971D01*
X105861537Y-163847819D01*
X105873921Y-163874345D01*
X105877794Y-163907026D01*
X105877935Y-163918995D01*
X105875026Y-163958712D01*
X105863400Y-163988259D01*
X105843279Y-164014486D01*
X105802386Y-164054576D01*
X105756785Y-164085149D01*
X105703089Y-164107203D01*
X105637910Y-164121735D01*
X105557858Y-164129741D01*
X105459545Y-164132218D01*
X105443313Y-164132177D01*
X105377753Y-164130818D01*
X105312736Y-164127730D01*
X105255350Y-164123356D01*
X105212680Y-164118140D01*
X105209230Y-164117541D01*
X105166806Y-164107491D01*
X105130822Y-164094796D01*
X105110452Y-164083190D01*
X105091495Y-164052572D01*
X105090175Y-164016918D01*
X105106517Y-163985144D01*
X105110173Y-163981551D01*
X105125287Y-163970876D01*
X105144187Y-163966276D01*
X105173440Y-163967059D01*
X105208951Y-163971127D01*
X105248632Y-163974762D01*
X105304257Y-163977828D01*
X105369196Y-163980053D01*
X105436817Y-163981164D01*
X105454602Y-163981237D01*
X105522474Y-163980964D01*
X105572148Y-163979646D01*
X105607992Y-163976827D01*
X105634378Y-163972050D01*
X105655676Y-163964857D01*
X105668476Y-163958867D01*
X105696602Y-163942233D01*
X105714534Y-163927168D01*
X105717155Y-163922897D01*
X105711626Y-163905263D01*
X105685342Y-163888192D01*
X105640124Y-163872458D01*
X105577794Y-163858838D01*
X105559431Y-163855804D01*
X105463512Y-163840738D01*
X105386961Y-163828146D01*
X105326822Y-163817111D01*
X105280142Y-163806720D01*
X105243965Y-163796056D01*
X105215337Y-163784205D01*
X105191304Y-163770251D01*
X105168910Y-163753281D01*
X105145200Y-163732378D01*
X105137222Y-163725049D01*
X105109249Y-163697699D01*
X105094442Y-163676029D01*
X105088650Y-163651232D01*
X105087713Y-163619983D01*
X105098027Y-163558705D01*
X105128850Y-163506640D01*
X105180007Y-163463958D01*
X105251319Y-163430825D01*
X105302202Y-163415964D01*
X105357502Y-163406366D01*
X105423749Y-163400936D01*
X105496896Y-163399367D01*
X105572899Y-163401351D01*
G36*
X113009267Y-163402034D02*
G01*
X113028857Y-163409035D01*
X113029612Y-163409377D01*
X113056215Y-163429678D01*
X113070872Y-163450561D01*
X113073740Y-163460352D01*
X113073598Y-163473361D01*
X113069563Y-163491895D01*
X113060748Y-163518257D01*
X113046271Y-163554752D01*
X113025247Y-163603687D01*
X112996790Y-163667365D01*
X112960017Y-163748093D01*
X112939777Y-163792216D01*
X112903227Y-163870985D01*
X112868917Y-163943423D01*
X112838154Y-164006880D01*
X112812250Y-164058708D01*
X112792512Y-164096259D01*
X112780252Y-164116884D01*
X112777826Y-164119733D01*
X112746785Y-164132302D01*
X112711723Y-164130619D01*
X112683602Y-164115332D01*
X112682456Y-164114089D01*
X112671270Y-164097154D01*
X112652506Y-164064170D01*
X112628477Y-164019380D01*
X112601499Y-163967032D01*
X112591803Y-163947742D01*
X112518616Y-163801150D01*
X112438842Y-163960393D01*
X112410369Y-164015415D01*
X112383952Y-164063132D01*
X112361750Y-164099893D01*
X112345921Y-164122044D01*
X112340556Y-164126741D01*
X112298859Y-164133102D01*
X112264451Y-164119733D01*
X112254330Y-164105446D01*
X112236816Y-164073692D01*
X112213337Y-164027597D01*
X112185322Y-163970285D01*
X112154201Y-163904880D01*
X112121401Y-163834507D01*
X112088352Y-163762291D01*
X112056483Y-163691355D01*
X112027221Y-163624825D01*
X112001997Y-163565826D01*
X111982238Y-163517481D01*
X111969374Y-163482915D01*
X111964833Y-163465253D01*
X111964879Y-163464613D01*
X111975928Y-163442388D01*
X111998012Y-163419753D01*
X111999312Y-163418768D01*
X112026455Y-163403425D01*
X112051560Y-163403574D01*
X112060970Y-163406466D01*
X112072436Y-163412718D01*
X112084612Y-163425014D01*
X112098959Y-163445908D01*
X112116938Y-163477949D01*
X112140009Y-163523688D01*
X112169632Y-163585677D01*
X112196347Y-163642898D01*
X112227082Y-163709226D01*
X112254623Y-163768874D01*
X112277540Y-163818725D01*
X112294400Y-163855664D01*
X112303775Y-163876573D01*
X112305142Y-163879845D01*
X112311291Y-163874497D01*
X112325424Y-163852109D01*
X112345659Y-163815946D01*
X112370117Y-163769277D01*
X112379850Y-163750022D01*
X112412819Y-163685004D01*
X112438245Y-163637654D01*
X112458214Y-163605219D01*
X112474812Y-163584946D01*
X112490126Y-163574082D01*
X112506242Y-163569875D01*
X112516745Y-163569400D01*
X112535272Y-163571042D01*
X112551506Y-163577831D01*
X112567637Y-163592566D01*
X112585853Y-163618044D01*
X112608341Y-163657061D01*
X112637291Y-163712414D01*
X112653264Y-163743903D01*
X112679172Y-163794087D01*
X112701769Y-163835704D01*
X112719060Y-163865242D01*
X112729052Y-163879189D01*
X112730411Y-163879770D01*
X112736863Y-163868793D01*
X112751310Y-163840290D01*
X112772305Y-163797244D01*
X112798399Y-163742638D01*
X112828148Y-163679454D01*
X112842782Y-163648071D01*
X112880852Y-163567078D01*
X112911507Y-163504756D01*
X112936339Y-163459071D01*
X112956939Y-163427989D01*
X112974900Y-163409478D01*
X112991812Y-163401504D01*
X113009267Y-163402034D01*
G37*
X113009267Y-163402034D02*
X113028857Y-163409035D01*
X113029612Y-163409377D01*
X113056215Y-163429678D01*
X113070872Y-163450561D01*
X113073740Y-163460352D01*
X113073598Y-163473361D01*
X113069563Y-163491895D01*
X113060748Y-163518257D01*
X113046271Y-163554752D01*
X113025247Y-163603687D01*
X112996790Y-163667365D01*
X112960017Y-163748093D01*
X112939777Y-163792216D01*
X112903227Y-163870985D01*
X112868917Y-163943423D01*
X112838154Y-164006880D01*
X112812250Y-164058708D01*
X112792512Y-164096259D01*
X112780252Y-164116884D01*
X112777826Y-164119733D01*
X112746785Y-164132302D01*
X112711723Y-164130619D01*
X112683602Y-164115332D01*
X112682456Y-164114089D01*
X112671270Y-164097154D01*
X112652506Y-164064170D01*
X112628477Y-164019380D01*
X112601499Y-163967032D01*
X112591803Y-163947742D01*
X112518616Y-163801150D01*
X112438842Y-163960393D01*
X112410369Y-164015415D01*
X112383952Y-164063132D01*
X112361750Y-164099893D01*
X112345921Y-164122044D01*
X112340556Y-164126741D01*
X112298859Y-164133102D01*
X112264451Y-164119733D01*
X112254330Y-164105446D01*
X112236816Y-164073692D01*
X112213337Y-164027597D01*
X112185322Y-163970285D01*
X112154201Y-163904880D01*
X112121401Y-163834507D01*
X112088352Y-163762291D01*
X112056483Y-163691355D01*
X112027221Y-163624825D01*
X112001997Y-163565826D01*
X111982238Y-163517481D01*
X111969374Y-163482915D01*
X111964833Y-163465253D01*
X111964879Y-163464613D01*
X111975928Y-163442388D01*
X111998012Y-163419753D01*
X111999312Y-163418768D01*
X112026455Y-163403425D01*
X112051560Y-163403574D01*
X112060970Y-163406466D01*
X112072436Y-163412718D01*
X112084612Y-163425014D01*
X112098959Y-163445908D01*
X112116938Y-163477949D01*
X112140009Y-163523688D01*
X112169632Y-163585677D01*
X112196347Y-163642898D01*
X112227082Y-163709226D01*
X112254623Y-163768874D01*
X112277540Y-163818725D01*
X112294400Y-163855664D01*
X112303775Y-163876573D01*
X112305142Y-163879845D01*
X112311291Y-163874497D01*
X112325424Y-163852109D01*
X112345659Y-163815946D01*
X112370117Y-163769277D01*
X112379850Y-163750022D01*
X112412819Y-163685004D01*
X112438245Y-163637654D01*
X112458214Y-163605219D01*
X112474812Y-163584946D01*
X112490126Y-163574082D01*
X112506242Y-163569875D01*
X112516745Y-163569400D01*
X112535272Y-163571042D01*
X112551506Y-163577831D01*
X112567637Y-163592566D01*
X112585853Y-163618044D01*
X112608341Y-163657061D01*
X112637291Y-163712414D01*
X112653264Y-163743903D01*
X112679172Y-163794087D01*
X112701769Y-163835704D01*
X112719060Y-163865242D01*
X112729052Y-163879189D01*
X112730411Y-163879770D01*
X112736863Y-163868793D01*
X112751310Y-163840290D01*
X112772305Y-163797244D01*
X112798399Y-163742638D01*
X112828148Y-163679454D01*
X112842782Y-163648071D01*
X112880852Y-163567078D01*
X112911507Y-163504756D01*
X112936339Y-163459071D01*
X112956939Y-163427989D01*
X112974900Y-163409478D01*
X112991812Y-163401504D01*
X113009267Y-163402034D01*
G36*
X107314521Y-163405599D02*
G01*
X107383037Y-163417095D01*
X107435659Y-163434967D01*
X107469894Y-163458499D01*
X107479223Y-163471924D01*
X107488709Y-163503148D01*
X107482325Y-163531395D01*
X107462172Y-163558182D01*
X107430857Y-163570713D01*
X107385419Y-163569696D01*
X107350276Y-163562906D01*
X107272183Y-163549971D01*
X107192376Y-163548742D01*
X107103047Y-163559241D01*
X107078373Y-163563690D01*
X106995311Y-163587108D01*
X106930329Y-163621945D01*
X106884141Y-163667604D01*
X106857457Y-163723494D01*
X106851939Y-163752388D01*
X106855551Y-163811012D01*
X106878873Y-163862879D01*
X106919778Y-163906978D01*
X106976143Y-163942299D01*
X107045842Y-163967829D01*
X107126750Y-163982559D01*
X107216742Y-163985478D01*
X107313692Y-163975575D01*
X107319166Y-163974641D01*
X107357727Y-163967459D01*
X107379108Y-163960521D01*
X107388375Y-163950227D01*
X107390596Y-163932976D01*
X107390646Y-163923841D01*
X107390646Y-163885489D01*
X107322171Y-163885489D01*
X107261702Y-163881347D01*
X107220437Y-163868147D01*
X107196427Y-163844730D01*
X107187725Y-163809936D01*
X107187619Y-163805394D01*
X107192710Y-163775654D01*
X107210169Y-163754419D01*
X107242663Y-163740366D01*
X107292859Y-163732173D01*
X107341479Y-163729161D01*
X107412146Y-163727433D01*
X107463404Y-163730070D01*
X107498363Y-163739800D01*
X107520132Y-163759353D01*
X107531822Y-163791456D01*
X107536542Y-163838838D01*
X107537402Y-163901071D01*
X107535993Y-163970535D01*
X107531754Y-164017786D01*
X107524666Y-164043012D01*
X107523291Y-164044988D01*
X107484374Y-164076508D01*
X107427316Y-164101470D01*
X107355733Y-164119340D01*
X107273244Y-164129586D01*
X107183463Y-164131673D01*
X107090010Y-164125068D01*
X107035046Y-164116956D01*
X106948836Y-164092554D01*
X106868710Y-164052662D01*
X106801625Y-164000887D01*
X106791429Y-163990539D01*
X106758300Y-163947035D01*
X106728408Y-163893118D01*
X106705245Y-163836592D01*
X106692304Y-163785259D01*
X106690744Y-163765544D01*
X106697384Y-163724419D01*
X106715034Y-163673252D01*
X106740305Y-163619394D01*
X106769813Y-163570195D01*
X106795883Y-163537334D01*
X106856837Y-163488452D01*
X106935633Y-163449545D01*
X107029445Y-163421494D01*
X107135452Y-163405179D01*
X107232602Y-163401192D01*
X107314521Y-163405599D01*
G37*
X107314521Y-163405599D02*
X107383037Y-163417095D01*
X107435659Y-163434967D01*
X107469894Y-163458499D01*
X107479223Y-163471924D01*
X107488709Y-163503148D01*
X107482325Y-163531395D01*
X107462172Y-163558182D01*
X107430857Y-163570713D01*
X107385419Y-163569696D01*
X107350276Y-163562906D01*
X107272183Y-163549971D01*
X107192376Y-163548742D01*
X107103047Y-163559241D01*
X107078373Y-163563690D01*
X106995311Y-163587108D01*
X106930329Y-163621945D01*
X106884141Y-163667604D01*
X106857457Y-163723494D01*
X106851939Y-163752388D01*
X106855551Y-163811012D01*
X106878873Y-163862879D01*
X106919778Y-163906978D01*
X106976143Y-163942299D01*
X107045842Y-163967829D01*
X107126750Y-163982559D01*
X107216742Y-163985478D01*
X107313692Y-163975575D01*
X107319166Y-163974641D01*
X107357727Y-163967459D01*
X107379108Y-163960521D01*
X107388375Y-163950227D01*
X107390596Y-163932976D01*
X107390646Y-163923841D01*
X107390646Y-163885489D01*
X107322171Y-163885489D01*
X107261702Y-163881347D01*
X107220437Y-163868147D01*
X107196427Y-163844730D01*
X107187725Y-163809936D01*
X107187619Y-163805394D01*
X107192710Y-163775654D01*
X107210169Y-163754419D01*
X107242663Y-163740366D01*
X107292859Y-163732173D01*
X107341479Y-163729161D01*
X107412146Y-163727433D01*
X107463404Y-163730070D01*
X107498363Y-163739800D01*
X107520132Y-163759353D01*
X107531822Y-163791456D01*
X107536542Y-163838838D01*
X107537402Y-163901071D01*
X107535993Y-163970535D01*
X107531754Y-164017786D01*
X107524666Y-164043012D01*
X107523291Y-164044988D01*
X107484374Y-164076508D01*
X107427316Y-164101470D01*
X107355733Y-164119340D01*
X107273244Y-164129586D01*
X107183463Y-164131673D01*
X107090010Y-164125068D01*
X107035046Y-164116956D01*
X106948836Y-164092554D01*
X106868710Y-164052662D01*
X106801625Y-164000887D01*
X106791429Y-163990539D01*
X106758300Y-163947035D01*
X106728408Y-163893118D01*
X106705245Y-163836592D01*
X106692304Y-163785259D01*
X106690744Y-163765544D01*
X106697384Y-163724419D01*
X106715034Y-163673252D01*
X106740305Y-163619394D01*
X106769813Y-163570195D01*
X106795883Y-163537334D01*
X106856837Y-163488452D01*
X106935633Y-163449545D01*
X107029445Y-163421494D01*
X107135452Y-163405179D01*
X107232602Y-163401192D01*
X107314521Y-163405599D01*
G36*
X110547124Y-161601812D02*
G01*
X110563370Y-161530590D01*
X110589007Y-161459864D01*
X110613003Y-161407493D01*
X110671622Y-161312196D01*
X110749719Y-161224170D01*
X110844917Y-161145017D01*
X110954840Y-161076340D01*
X111077112Y-161019741D01*
X111209357Y-160976821D01*
X111274024Y-160961882D01*
X111410206Y-160939777D01*
X111558651Y-160925194D01*
X111710107Y-160918813D01*
X111836666Y-160920445D01*
X111998552Y-160927224D01*
X111991132Y-160868245D01*
X111971840Y-160769092D01*
X111940706Y-160688372D01*
X111896871Y-160625466D01*
X111839473Y-160579756D01*
X111767650Y-160550622D01*
X111680543Y-160537447D01*
X111577288Y-160539611D01*
X111539313Y-160543612D01*
X111398122Y-160568780D01*
X111261309Y-160609814D01*
X111166780Y-160647815D01*
X111121620Y-160667190D01*
X111083187Y-160682760D01*
X111056836Y-160692405D01*
X111049148Y-160694452D01*
X111039404Y-160685374D01*
X111022685Y-160656405D01*
X110998834Y-160607217D01*
X110967695Y-160537484D01*
X110929109Y-160446879D01*
X110922512Y-160431089D01*
X110892455Y-160358772D01*
X110865476Y-160293425D01*
X110842738Y-160237906D01*
X110825408Y-160195072D01*
X110814650Y-160167781D01*
X110811543Y-160158942D01*
X110821542Y-160154187D01*
X110847819Y-160148910D01*
X110876091Y-160145231D01*
X110906248Y-160140474D01*
X110954035Y-160131028D01*
X111015214Y-160117820D01*
X111085548Y-160101776D01*
X111160796Y-160083820D01*
X111189357Y-160076797D01*
X111294418Y-160051209D01*
X111382082Y-160031147D01*
X111456670Y-160015969D01*
X111522505Y-160005035D01*
X111583909Y-159997704D01*
X111645204Y-159993335D01*
X111710712Y-159991287D01*
X111768730Y-159990889D01*
X111938176Y-159997552D01*
X112090094Y-160017567D01*
X112225358Y-160051202D01*
X112344841Y-160098725D01*
X112449417Y-160160405D01*
X112527026Y-160223965D01*
X112595867Y-160298099D01*
X112649608Y-160377871D01*
X112692512Y-160470091D01*
X112707986Y-160513161D01*
X112720846Y-160552142D01*
X112732048Y-160588289D01*
X112741722Y-160623434D01*
X112749998Y-160659410D01*
X112757005Y-160698050D01*
X112762874Y-160741185D01*
X112767733Y-160790649D01*
X112771712Y-160848273D01*
X112774942Y-160915891D01*
X112777551Y-160995334D01*
X112779669Y-161088436D01*
X112781426Y-161197027D01*
X112782951Y-161322942D01*
X112784374Y-161468012D01*
X112785627Y-161610778D01*
X112786953Y-161766968D01*
X112788158Y-161902239D01*
X112789368Y-162018246D01*
X112790708Y-162116645D01*
X112792302Y-162199093D01*
X112794277Y-162267246D01*
X112796758Y-162322760D01*
X112799871Y-162367292D01*
X112803740Y-162402498D01*
X112808491Y-162430034D01*
X112814250Y-162451556D01*
X112821141Y-162468722D01*
X112829291Y-162483186D01*
X112838825Y-162496606D01*
X112849868Y-162510638D01*
X112854168Y-162516071D01*
X112869988Y-162538910D01*
X112877024Y-162554463D01*
X112877046Y-162554922D01*
X112866169Y-162557121D01*
X112835184Y-162559147D01*
X112786559Y-162560942D01*
X112722765Y-162562451D01*
X112646271Y-162563616D01*
X112559546Y-162564380D01*
X112465059Y-162564686D01*
X112454152Y-162564689D01*
X112031259Y-162564689D01*
X112027997Y-162468622D01*
X112024735Y-162372556D01*
X111962646Y-162423543D01*
X111865316Y-162491057D01*
X111755415Y-162545749D01*
X111668951Y-162575978D01*
X111599880Y-162590666D01*
X111516527Y-162600659D01*
X111426761Y-162605646D01*
X111338447Y-162605313D01*
X111259453Y-162599351D01*
X111223224Y-162593638D01*
X111083205Y-162555776D01*
X110956780Y-162500932D01*
X110844862Y-162429924D01*
X110748364Y-162343568D01*
X110668202Y-162242679D01*
X110605289Y-162128076D01*
X110560914Y-162001984D01*
X110548580Y-161945401D01*
X110540970Y-161883202D01*
X110537341Y-161808363D01*
X110536847Y-161774467D01*
X110536912Y-161771282D01*
X111296850Y-161771282D01*
X111306143Y-161846333D01*
X111334330Y-161910160D01*
X111382799Y-161965798D01*
X111387856Y-161970211D01*
X111436150Y-162005037D01*
X111487859Y-162027620D01*
X111548591Y-162039540D01*
X111623954Y-162042383D01*
X111642061Y-162041978D01*
X111695880Y-162039325D01*
X111735910Y-162033909D01*
X111770926Y-162023745D01*
X111809705Y-162006850D01*
X111820347Y-162001672D01*
X111880998Y-161965844D01*
X111927817Y-161923212D01*
X111940554Y-161907973D01*
X111985224Y-161851462D01*
X111985224Y-161655586D01*
X111984688Y-161576939D01*
X111982998Y-161518988D01*
X111980030Y-161479875D01*
X111975659Y-161457741D01*
X111971574Y-161451274D01*
X111955649Y-161448111D01*
X111921866Y-161445488D01*
X111874942Y-161443655D01*
X111819595Y-161442857D01*
X111810708Y-161442842D01*
X111689932Y-161448096D01*
X111587262Y-161464263D01*
X111500708Y-161491961D01*
X111428283Y-161531808D01*
X111373353Y-161578758D01*
X111328806Y-161636645D01*
X111304082Y-161699693D01*
X111296850Y-161771282D01*
X110536912Y-161771282D01*
X110538780Y-161680712D01*
X110547124Y-161601812D01*
G37*
X110547124Y-161601812D02*
X110563370Y-161530590D01*
X110589007Y-161459864D01*
X110613003Y-161407493D01*
X110671622Y-161312196D01*
X110749719Y-161224170D01*
X110844917Y-161145017D01*
X110954840Y-161076340D01*
X111077112Y-161019741D01*
X111209357Y-160976821D01*
X111274024Y-160961882D01*
X111410206Y-160939777D01*
X111558651Y-160925194D01*
X111710107Y-160918813D01*
X111836666Y-160920445D01*
X111998552Y-160927224D01*
X111991132Y-160868245D01*
X111971840Y-160769092D01*
X111940706Y-160688372D01*
X111896871Y-160625466D01*
X111839473Y-160579756D01*
X111767650Y-160550622D01*
X111680543Y-160537447D01*
X111577288Y-160539611D01*
X111539313Y-160543612D01*
X111398122Y-160568780D01*
X111261309Y-160609814D01*
X111166780Y-160647815D01*
X111121620Y-160667190D01*
X111083187Y-160682760D01*
X111056836Y-160692405D01*
X111049148Y-160694452D01*
X111039404Y-160685374D01*
X111022685Y-160656405D01*
X110998834Y-160607217D01*
X110967695Y-160537484D01*
X110929109Y-160446879D01*
X110922512Y-160431089D01*
X110892455Y-160358772D01*
X110865476Y-160293425D01*
X110842738Y-160237906D01*
X110825408Y-160195072D01*
X110814650Y-160167781D01*
X110811543Y-160158942D01*
X110821542Y-160154187D01*
X110847819Y-160148910D01*
X110876091Y-160145231D01*
X110906248Y-160140474D01*
X110954035Y-160131028D01*
X111015214Y-160117820D01*
X111085548Y-160101776D01*
X111160796Y-160083820D01*
X111189357Y-160076797D01*
X111294418Y-160051209D01*
X111382082Y-160031147D01*
X111456670Y-160015969D01*
X111522505Y-160005035D01*
X111583909Y-159997704D01*
X111645204Y-159993335D01*
X111710712Y-159991287D01*
X111768730Y-159990889D01*
X111938176Y-159997552D01*
X112090094Y-160017567D01*
X112225358Y-160051202D01*
X112344841Y-160098725D01*
X112449417Y-160160405D01*
X112527026Y-160223965D01*
X112595867Y-160298099D01*
X112649608Y-160377871D01*
X112692512Y-160470091D01*
X112707986Y-160513161D01*
X112720846Y-160552142D01*
X112732048Y-160588289D01*
X112741722Y-160623434D01*
X112749998Y-160659410D01*
X112757005Y-160698050D01*
X112762874Y-160741185D01*
X112767733Y-160790649D01*
X112771712Y-160848273D01*
X112774942Y-160915891D01*
X112777551Y-160995334D01*
X112779669Y-161088436D01*
X112781426Y-161197027D01*
X112782951Y-161322942D01*
X112784374Y-161468012D01*
X112785627Y-161610778D01*
X112786953Y-161766968D01*
X112788158Y-161902239D01*
X112789368Y-162018246D01*
X112790708Y-162116645D01*
X112792302Y-162199093D01*
X112794277Y-162267246D01*
X112796758Y-162322760D01*
X112799871Y-162367292D01*
X112803740Y-162402498D01*
X112808491Y-162430034D01*
X112814250Y-162451556D01*
X112821141Y-162468722D01*
X112829291Y-162483186D01*
X112838825Y-162496606D01*
X112849868Y-162510638D01*
X112854168Y-162516071D01*
X112869988Y-162538910D01*
X112877024Y-162554463D01*
X112877046Y-162554922D01*
X112866169Y-162557121D01*
X112835184Y-162559147D01*
X112786559Y-162560942D01*
X112722765Y-162562451D01*
X112646271Y-162563616D01*
X112559546Y-162564380D01*
X112465059Y-162564686D01*
X112454152Y-162564689D01*
X112031259Y-162564689D01*
X112027997Y-162468622D01*
X112024735Y-162372556D01*
X111962646Y-162423543D01*
X111865316Y-162491057D01*
X111755415Y-162545749D01*
X111668951Y-162575978D01*
X111599880Y-162590666D01*
X111516527Y-162600659D01*
X111426761Y-162605646D01*
X111338447Y-162605313D01*
X111259453Y-162599351D01*
X111223224Y-162593638D01*
X111083205Y-162555776D01*
X110956780Y-162500932D01*
X110844862Y-162429924D01*
X110748364Y-162343568D01*
X110668202Y-162242679D01*
X110605289Y-162128076D01*
X110560914Y-162001984D01*
X110548580Y-161945401D01*
X110540970Y-161883202D01*
X110537341Y-161808363D01*
X110536847Y-161774467D01*
X110536912Y-161771282D01*
X111296850Y-161771282D01*
X111306143Y-161846333D01*
X111334330Y-161910160D01*
X111382799Y-161965798D01*
X111387856Y-161970211D01*
X111436150Y-162005037D01*
X111487859Y-162027620D01*
X111548591Y-162039540D01*
X111623954Y-162042383D01*
X111642061Y-162041978D01*
X111695880Y-162039325D01*
X111735910Y-162033909D01*
X111770926Y-162023745D01*
X111809705Y-162006850D01*
X111820347Y-162001672D01*
X111880998Y-161965844D01*
X111927817Y-161923212D01*
X111940554Y-161907973D01*
X111985224Y-161851462D01*
X111985224Y-161655586D01*
X111984688Y-161576939D01*
X111982998Y-161518988D01*
X111980030Y-161479875D01*
X111975659Y-161457741D01*
X111971574Y-161451274D01*
X111955649Y-161448111D01*
X111921866Y-161445488D01*
X111874942Y-161443655D01*
X111819595Y-161442857D01*
X111810708Y-161442842D01*
X111689932Y-161448096D01*
X111587262Y-161464263D01*
X111500708Y-161491961D01*
X111428283Y-161531808D01*
X111373353Y-161578758D01*
X111328806Y-161636645D01*
X111304082Y-161699693D01*
X111296850Y-161771282D01*
X110536912Y-161771282D01*
X110538780Y-161680712D01*
X110547124Y-161601812D01*
G36*
X106991559Y-158157571D02*
G01*
X107087834Y-158181809D01*
X107174418Y-158224641D01*
X107249229Y-158284419D01*
X107310184Y-158359494D01*
X107355203Y-158448220D01*
X107381466Y-158544530D01*
X107387316Y-158641795D01*
X107372462Y-158735654D01*
X107338762Y-158823511D01*
X107288074Y-158902770D01*
X107222257Y-158970836D01*
X107143168Y-159025112D01*
X107052668Y-159063002D01*
X107001402Y-159075426D01*
X106956904Y-159082947D01*
X106922603Y-159085919D01*
X106889642Y-159084094D01*
X106849168Y-159077225D01*
X106816071Y-159070250D01*
X106722655Y-159038741D01*
X106638983Y-158987617D01*
X106566937Y-158918429D01*
X106508402Y-158832728D01*
X106494454Y-158805489D01*
X106478016Y-158769122D01*
X106467708Y-158738582D01*
X106462142Y-158706450D01*
X106459933Y-158665307D01*
X106459654Y-158619222D01*
X106463741Y-158534865D01*
X106477156Y-158465586D01*
X106502346Y-158404961D01*
X106541756Y-158346567D01*
X106580304Y-158302302D01*
X106652196Y-158236484D01*
X106727289Y-158191053D01*
X106810040Y-158163850D01*
X106887674Y-158153576D01*
X106991559Y-158157571D01*
G37*
X106991559Y-158157571D02*
X107087834Y-158181809D01*
X107174418Y-158224641D01*
X107249229Y-158284419D01*
X107310184Y-158359494D01*
X107355203Y-158448220D01*
X107381466Y-158544530D01*
X107387316Y-158641795D01*
X107372462Y-158735654D01*
X107338762Y-158823511D01*
X107288074Y-158902770D01*
X107222257Y-158970836D01*
X107143168Y-159025112D01*
X107052668Y-159063002D01*
X107001402Y-159075426D01*
X106956904Y-159082947D01*
X106922603Y-159085919D01*
X106889642Y-159084094D01*
X106849168Y-159077225D01*
X106816071Y-159070250D01*
X106722655Y-159038741D01*
X106638983Y-158987617D01*
X106566937Y-158918429D01*
X106508402Y-158832728D01*
X106494454Y-158805489D01*
X106478016Y-158769122D01*
X106467708Y-158738582D01*
X106462142Y-158706450D01*
X106459933Y-158665307D01*
X106459654Y-158619222D01*
X106463741Y-158534865D01*
X106477156Y-158465586D01*
X106502346Y-158404961D01*
X106541756Y-158346567D01*
X106580304Y-158302302D01*
X106652196Y-158236484D01*
X106727289Y-158191053D01*
X106810040Y-158163850D01*
X106887674Y-158153576D01*
X106991559Y-158157571D01*
G36*
X106340780Y-163422645D02*
G01*
X106347360Y-163430218D01*
X106352523Y-163439987D01*
X106356438Y-163454571D01*
X106359278Y-163476585D01*
X106361215Y-163508648D01*
X106362419Y-163553375D01*
X106363063Y-163613385D01*
X106363318Y-163691294D01*
X106363357Y-163766956D01*
X106363288Y-163860802D01*
X106362964Y-163934689D01*
X106362216Y-163991232D01*
X106360870Y-164033049D01*
X106358756Y-164062757D01*
X106355702Y-164082973D01*
X106351536Y-164096314D01*
X106346086Y-164105398D01*
X106340780Y-164111267D01*
X106307776Y-164130947D01*
X106272611Y-164129181D01*
X106241147Y-164107717D01*
X106233918Y-164099337D01*
X106228268Y-164089614D01*
X106224003Y-164075861D01*
X106220929Y-164055389D01*
X106218850Y-164025512D01*
X106217572Y-163983541D01*
X106216901Y-163926789D01*
X106216643Y-163852567D01*
X106216602Y-163768537D01*
X106216602Y-163455485D01*
X106244311Y-163427776D01*
X106278465Y-163404463D01*
X106311596Y-163403623D01*
X106340780Y-163422645D01*
G37*
X106340780Y-163422645D02*
X106347360Y-163430218D01*
X106352523Y-163439987D01*
X106356438Y-163454571D01*
X106359278Y-163476585D01*
X106361215Y-163508648D01*
X106362419Y-163553375D01*
X106363063Y-163613385D01*
X106363318Y-163691294D01*
X106363357Y-163766956D01*
X106363288Y-163860802D01*
X106362964Y-163934689D01*
X106362216Y-163991232D01*
X106360870Y-164033049D01*
X106358756Y-164062757D01*
X106355702Y-164082973D01*
X106351536Y-164096314D01*
X106346086Y-164105398D01*
X106340780Y-164111267D01*
X106307776Y-164130947D01*
X106272611Y-164129181D01*
X106241147Y-164107717D01*
X106233918Y-164099337D01*
X106228268Y-164089614D01*
X106224003Y-164075861D01*
X106220929Y-164055389D01*
X106218850Y-164025512D01*
X106217572Y-163983541D01*
X106216901Y-163926789D01*
X106216643Y-163852567D01*
X106216602Y-163768537D01*
X106216602Y-163455485D01*
X106244311Y-163427776D01*
X106278465Y-163404463D01*
X106311596Y-163403623D01*
X106340780Y-163422645D01*
G36*
X114227667Y-163400163D02*
G01*
X114306374Y-163400542D01*
X114367465Y-163401333D01*
X114413419Y-163402670D01*
X114446716Y-163404683D01*
X114469838Y-163407506D01*
X114485264Y-163411269D01*
X114495473Y-163416105D01*
X114500415Y-163419822D01*
X114526059Y-163452358D01*
X114529161Y-163486138D01*
X114513313Y-163516826D01*
X114502950Y-163529089D01*
X114491798Y-163537450D01*
X114475637Y-163542657D01*
X114450244Y-163545457D01*
X114411400Y-163546596D01*
X114354882Y-163546821D01*
X114343782Y-163546822D01*
X114197846Y-163546822D01*
X114197846Y-163817756D01*
X114197750Y-163903154D01*
X114197313Y-163968864D01*
X114196314Y-164017774D01*
X114194530Y-164052773D01*
X114191739Y-164076749D01*
X114187719Y-164092593D01*
X114182247Y-164103191D01*
X114175268Y-164111267D01*
X114142336Y-164131112D01*
X114107956Y-164129548D01*
X114076778Y-164106906D01*
X114074488Y-164104100D01*
X114067031Y-164093492D01*
X114061349Y-164081081D01*
X114057203Y-164063850D01*
X114054352Y-164038784D01*
X114052556Y-164002867D01*
X114051574Y-163953083D01*
X114051166Y-163886417D01*
X114051091Y-163810589D01*
X114051091Y-163546822D01*
X113911729Y-163546822D01*
X113851924Y-163546418D01*
X113810520Y-163544840D01*
X113783350Y-163541547D01*
X113766248Y-163535992D01*
X113755045Y-163527631D01*
X113753685Y-163526178D01*
X113737327Y-163492939D01*
X113738774Y-163455362D01*
X113757580Y-163422645D01*
X113764852Y-163416298D01*
X113774229Y-163411266D01*
X113788211Y-163407396D01*
X113809298Y-163404537D01*
X113839991Y-163402535D01*
X113882791Y-163401239D01*
X113940197Y-163400498D01*
X114014712Y-163400158D01*
X114108835Y-163400068D01*
X114128862Y-163400067D01*
X114227667Y-163400163D01*
G37*
X114227667Y-163400163D02*
X114306374Y-163400542D01*
X114367465Y-163401333D01*
X114413419Y-163402670D01*
X114446716Y-163404683D01*
X114469838Y-163407506D01*
X114485264Y-163411269D01*
X114495473Y-163416105D01*
X114500415Y-163419822D01*
X114526059Y-163452358D01*
X114529161Y-163486138D01*
X114513313Y-163516826D01*
X114502950Y-163529089D01*
X114491798Y-163537450D01*
X114475637Y-163542657D01*
X114450244Y-163545457D01*
X114411400Y-163546596D01*
X114354882Y-163546821D01*
X114343782Y-163546822D01*
X114197846Y-163546822D01*
X114197846Y-163817756D01*
X114197750Y-163903154D01*
X114197313Y-163968864D01*
X114196314Y-164017774D01*
X114194530Y-164052773D01*
X114191739Y-164076749D01*
X114187719Y-164092593D01*
X114182247Y-164103191D01*
X114175268Y-164111267D01*
X114142336Y-164131112D01*
X114107956Y-164129548D01*
X114076778Y-164106906D01*
X114074488Y-164104100D01*
X114067031Y-164093492D01*
X114061349Y-164081081D01*
X114057203Y-164063850D01*
X114054352Y-164038784D01*
X114052556Y-164002867D01*
X114051574Y-163953083D01*
X114051166Y-163886417D01*
X114051091Y-163810589D01*
X114051091Y-163546822D01*
X113911729Y-163546822D01*
X113851924Y-163546418D01*
X113810520Y-163544840D01*
X113783350Y-163541547D01*
X113766248Y-163535992D01*
X113755045Y-163527631D01*
X113753685Y-163526178D01*
X113737327Y-163492939D01*
X113738774Y-163455362D01*
X113757580Y-163422645D01*
X113764852Y-163416298D01*
X113774229Y-163411266D01*
X113788211Y-163407396D01*
X113809298Y-163404537D01*
X113839991Y-163402535D01*
X113882791Y-163401239D01*
X113940197Y-163400498D01*
X114014712Y-163400158D01*
X114108835Y-163400068D01*
X114128862Y-163400067D01*
X114227667Y-163400163D01*
G36*
X113108404Y-160965059D02*
G01*
X113144388Y-160786332D01*
X113194361Y-160624845D01*
X113258270Y-160480726D01*
X113336064Y-160354106D01*
X113427691Y-160245115D01*
X113533099Y-160153883D01*
X113578264Y-160122932D01*
X113679213Y-160066785D01*
X113782503Y-160027174D01*
X113892591Y-160003014D01*
X114013932Y-159993219D01*
X114106438Y-159994265D01*
X114236092Y-160005231D01*
X114348686Y-160027046D01*
X114447477Y-160060714D01*
X114535723Y-160107236D01*
X114584588Y-160141448D01*
X114613955Y-160163362D01*
X114635645Y-160178333D01*
X114643855Y-160182733D01*
X114645470Y-160171904D01*
X114646761Y-160141251D01*
X114647740Y-160093526D01*
X114648419Y-160031479D01*
X114648812Y-159957862D01*
X114648932Y-159875427D01*
X114648790Y-159786925D01*
X114648399Y-159695107D01*
X114647773Y-159602724D01*
X114646922Y-159512528D01*
X114645862Y-159427271D01*
X114644603Y-159349703D01*
X114643158Y-159282576D01*
X114641540Y-159228641D01*
X114639763Y-159190650D01*
X114639271Y-159183667D01*
X114631694Y-159113251D01*
X114620133Y-159058102D01*
X114602394Y-159010981D01*
X114576284Y-158964647D01*
X114570017Y-158955067D01*
X114545585Y-158918378D01*
X115450913Y-158918378D01*
X115451109Y-160603245D01*
X115451128Y-160837662D01*
X115451154Y-161050603D01*
X115451227Y-161243168D01*
X115451384Y-161416459D01*
X115451666Y-161571576D01*
X115452111Y-161709620D01*
X115452758Y-161831692D01*
X115453647Y-161938894D01*
X115454815Y-162032326D01*
X115456303Y-162113090D01*
X115458148Y-162182286D01*
X115460391Y-162241015D01*
X115463071Y-162290379D01*
X115466225Y-162331478D01*
X115469894Y-162365413D01*
X115474115Y-162393286D01*
X115478929Y-162416198D01*
X115484375Y-162435249D01*
X115490490Y-162451540D01*
X115497314Y-162466173D01*
X115504887Y-162480249D01*
X115513247Y-162494868D01*
X115518441Y-162503974D01*
X115552706Y-162564689D01*
X114694557Y-162564689D01*
X114694557Y-162468733D01*
X114693826Y-162425370D01*
X114691874Y-162392205D01*
X114689065Y-162374424D01*
X114687823Y-162372778D01*
X114676401Y-162379662D01*
X114653686Y-162397505D01*
X114630987Y-162416879D01*
X114576402Y-162457614D01*
X114506923Y-162498617D01*
X114429872Y-162536123D01*
X114352567Y-162566364D01*
X114321715Y-162576012D01*
X114253218Y-162590578D01*
X114170366Y-162600539D01*
X114080973Y-162605583D01*
X113992850Y-162605396D01*
X113913809Y-162599666D01*
X113876113Y-162593858D01*
X113738016Y-162555797D01*
X113610715Y-162498073D01*
X113494894Y-162421211D01*
X113391239Y-162325739D01*
X113300435Y-162212179D01*
X113233633Y-162101381D01*
X113178766Y-161984625D01*
X113136765Y-161865276D01*
X113106769Y-161739283D01*
X113087913Y-161602594D01*
X113079334Y-161451158D01*
X113078608Y-161373711D01*
X113080702Y-161316934D01*
X113909819Y-161316934D01*
X113910026Y-161410002D01*
X113912939Y-161497692D01*
X113918602Y-161574772D01*
X113927057Y-161636009D01*
X113929640Y-161648350D01*
X113961442Y-161755633D01*
X114003100Y-161842658D01*
X114054965Y-161909642D01*
X114117383Y-161956805D01*
X114190702Y-161984365D01*
X114275271Y-161992541D01*
X114371437Y-161981551D01*
X114434913Y-161965829D01*
X114484056Y-161947639D01*
X114538185Y-161921791D01*
X114578846Y-161898089D01*
X114649402Y-161851721D01*
X114649402Y-160701530D01*
X114581994Y-160657962D01*
X114503469Y-160617040D01*
X114419283Y-160590389D01*
X114334159Y-160578465D01*
X114252818Y-160581722D01*
X114179982Y-160600615D01*
X114148028Y-160616184D01*
X114090103Y-160659181D01*
X114041146Y-160715953D01*
X113999992Y-160788575D01*
X113965476Y-160879121D01*
X113936435Y-160989666D01*
X113935154Y-160995533D01*
X113924983Y-161057788D01*
X113917341Y-161135594D01*
X113912272Y-161223720D01*
X113909819Y-161316934D01*
X113080702Y-161316934D01*
X113086459Y-161160895D01*
X113108404Y-160965059D01*
G37*
X113108404Y-160965059D02*
X113144388Y-160786332D01*
X113194361Y-160624845D01*
X113258270Y-160480726D01*
X113336064Y-160354106D01*
X113427691Y-160245115D01*
X113533099Y-160153883D01*
X113578264Y-160122932D01*
X113679213Y-160066785D01*
X113782503Y-160027174D01*
X113892591Y-160003014D01*
X114013932Y-159993219D01*
X114106438Y-159994265D01*
X114236092Y-160005231D01*
X114348686Y-160027046D01*
X114447477Y-160060714D01*
X114535723Y-160107236D01*
X114584588Y-160141448D01*
X114613955Y-160163362D01*
X114635645Y-160178333D01*
X114643855Y-160182733D01*
X114645470Y-160171904D01*
X114646761Y-160141251D01*
X114647740Y-160093526D01*
X114648419Y-160031479D01*
X114648812Y-159957862D01*
X114648932Y-159875427D01*
X114648790Y-159786925D01*
X114648399Y-159695107D01*
X114647773Y-159602724D01*
X114646922Y-159512528D01*
X114645862Y-159427271D01*
X114644603Y-159349703D01*
X114643158Y-159282576D01*
X114641540Y-159228641D01*
X114639763Y-159190650D01*
X114639271Y-159183667D01*
X114631694Y-159113251D01*
X114620133Y-159058102D01*
X114602394Y-159010981D01*
X114576284Y-158964647D01*
X114570017Y-158955067D01*
X114545585Y-158918378D01*
X115450913Y-158918378D01*
X115451109Y-160603245D01*
X115451128Y-160837662D01*
X115451154Y-161050603D01*
X115451227Y-161243168D01*
X115451384Y-161416459D01*
X115451666Y-161571576D01*
X115452111Y-161709620D01*
X115452758Y-161831692D01*
X115453647Y-161938894D01*
X115454815Y-162032326D01*
X115456303Y-162113090D01*
X115458148Y-162182286D01*
X115460391Y-162241015D01*
X115463071Y-162290379D01*
X115466225Y-162331478D01*
X115469894Y-162365413D01*
X115474115Y-162393286D01*
X115478929Y-162416198D01*
X115484375Y-162435249D01*
X115490490Y-162451540D01*
X115497314Y-162466173D01*
X115504887Y-162480249D01*
X115513247Y-162494868D01*
X115518441Y-162503974D01*
X115552706Y-162564689D01*
X114694557Y-162564689D01*
X114694557Y-162468733D01*
X114693826Y-162425370D01*
X114691874Y-162392205D01*
X114689065Y-162374424D01*
X114687823Y-162372778D01*
X114676401Y-162379662D01*
X114653686Y-162397505D01*
X114630987Y-162416879D01*
X114576402Y-162457614D01*
X114506923Y-162498617D01*
X114429872Y-162536123D01*
X114352567Y-162566364D01*
X114321715Y-162576012D01*
X114253218Y-162590578D01*
X114170366Y-162600539D01*
X114080973Y-162605583D01*
X113992850Y-162605396D01*
X113913809Y-162599666D01*
X113876113Y-162593858D01*
X113738016Y-162555797D01*
X113610715Y-162498073D01*
X113494894Y-162421211D01*
X113391239Y-162325739D01*
X113300435Y-162212179D01*
X113233633Y-162101381D01*
X113178766Y-161984625D01*
X113136765Y-161865276D01*
X113106769Y-161739283D01*
X113087913Y-161602594D01*
X113079334Y-161451158D01*
X113078608Y-161373711D01*
X113080702Y-161316934D01*
X113909819Y-161316934D01*
X113910026Y-161410002D01*
X113912939Y-161497692D01*
X113918602Y-161574772D01*
X113927057Y-161636009D01*
X113929640Y-161648350D01*
X113961442Y-161755633D01*
X114003100Y-161842658D01*
X114054965Y-161909642D01*
X114117383Y-161956805D01*
X114190702Y-161984365D01*
X114275271Y-161992541D01*
X114371437Y-161981551D01*
X114434913Y-161965829D01*
X114484056Y-161947639D01*
X114538185Y-161921791D01*
X114578846Y-161898089D01*
X114649402Y-161851721D01*
X114649402Y-160701530D01*
X114581994Y-160657962D01*
X114503469Y-160617040D01*
X114419283Y-160590389D01*
X114334159Y-160578465D01*
X114252818Y-160581722D01*
X114179982Y-160600615D01*
X114148028Y-160616184D01*
X114090103Y-160659181D01*
X114041146Y-160715953D01*
X113999992Y-160788575D01*
X113965476Y-160879121D01*
X113936435Y-160989666D01*
X113935154Y-160995533D01*
X113924983Y-161057788D01*
X113917341Y-161135594D01*
X113912272Y-161223720D01*
X113909819Y-161316934D01*
X113080702Y-161316934D01*
X113086459Y-161160895D01*
X113108404Y-160965059D01*
G36*
X110077652Y-163905311D02*
G01*
X110077427Y-163826526D01*
X110077402Y-163764920D01*
X110077402Y-163455485D01*
X110105111Y-163427776D01*
X110117408Y-163416544D01*
X110130705Y-163408853D01*
X110149274Y-163404040D01*
X110177388Y-163401446D01*
X110219319Y-163400410D01*
X110279339Y-163400270D01*
X110282911Y-163400275D01*
X110411890Y-163404636D01*
X110521593Y-163417861D01*
X110613828Y-163440741D01*
X110690404Y-163474070D01*
X110753129Y-163518638D01*
X110803814Y-163575236D01*
X110844265Y-163644658D01*
X110845061Y-163646351D01*
X110869203Y-163708483D01*
X110877805Y-163763509D01*
X110870833Y-163818887D01*
X110848256Y-163882073D01*
X110843974Y-163891689D01*
X110814774Y-163947966D01*
X110781958Y-163991451D01*
X110739604Y-164028417D01*
X110681792Y-164065135D01*
X110678433Y-164067052D01*
X110628106Y-164091227D01*
X110571223Y-164109282D01*
X110504129Y-164121839D01*
X110423167Y-164129522D01*
X110324684Y-164132953D01*
X110289888Y-164133251D01*
X110124196Y-164133845D01*
X110100799Y-164104100D01*
X110093859Y-164094319D01*
X110088444Y-164082897D01*
X110084367Y-164067095D01*
X110081439Y-164044175D01*
X110079469Y-164011396D01*
X110078827Y-163987089D01*
X110235446Y-163987089D01*
X110329328Y-163987089D01*
X110384266Y-163985483D01*
X110440662Y-163981255D01*
X110486947Y-163975292D01*
X110489741Y-163974790D01*
X110571950Y-163952736D01*
X110635716Y-163919600D01*
X110683054Y-163873847D01*
X110715984Y-163813939D01*
X110721710Y-163798061D01*
X110727323Y-163773333D01*
X110724893Y-163748902D01*
X110713069Y-163716400D01*
X110705942Y-163700434D01*
X110682602Y-163658006D01*
X110654482Y-163628240D01*
X110623542Y-163607511D01*
X110561568Y-163580537D01*
X110482253Y-163560998D01*
X110389855Y-163549746D01*
X110322935Y-163547270D01*
X110235446Y-163546822D01*
X110235446Y-163987089D01*
X110078827Y-163987089D01*
X110078270Y-163966021D01*
X110077652Y-163905311D01*
G37*
X110077652Y-163905311D02*
X110077427Y-163826526D01*
X110077402Y-163764920D01*
X110077402Y-163455485D01*
X110105111Y-163427776D01*
X110117408Y-163416544D01*
X110130705Y-163408853D01*
X110149274Y-163404040D01*
X110177388Y-163401446D01*
X110219319Y-163400410D01*
X110279339Y-163400270D01*
X110282911Y-163400275D01*
X110411890Y-163404636D01*
X110521593Y-163417861D01*
X110613828Y-163440741D01*
X110690404Y-163474070D01*
X110753129Y-163518638D01*
X110803814Y-163575236D01*
X110844265Y-163644658D01*
X110845061Y-163646351D01*
X110869203Y-163708483D01*
X110877805Y-163763509D01*
X110870833Y-163818887D01*
X110848256Y-163882073D01*
X110843974Y-163891689D01*
X110814774Y-163947966D01*
X110781958Y-163991451D01*
X110739604Y-164028417D01*
X110681792Y-164065135D01*
X110678433Y-164067052D01*
X110628106Y-164091227D01*
X110571223Y-164109282D01*
X110504129Y-164121839D01*
X110423167Y-164129522D01*
X110324684Y-164132953D01*
X110289888Y-164133251D01*
X110124196Y-164133845D01*
X110100799Y-164104100D01*
X110093859Y-164094319D01*
X110088444Y-164082897D01*
X110084367Y-164067095D01*
X110081439Y-164044175D01*
X110079469Y-164011396D01*
X110078827Y-163987089D01*
X110235446Y-163987089D01*
X110329328Y-163987089D01*
X110384266Y-163985483D01*
X110440662Y-163981255D01*
X110486947Y-163975292D01*
X110489741Y-163974790D01*
X110571950Y-163952736D01*
X110635716Y-163919600D01*
X110683054Y-163873847D01*
X110715984Y-163813939D01*
X110721710Y-163798061D01*
X110727323Y-163773333D01*
X110724893Y-163748902D01*
X110713069Y-163716400D01*
X110705942Y-163700434D01*
X110682602Y-163658006D01*
X110654482Y-163628240D01*
X110623542Y-163607511D01*
X110561568Y-163580537D01*
X110482253Y-163560998D01*
X110389855Y-163549746D01*
X110322935Y-163547270D01*
X110235446Y-163546822D01*
X110235446Y-163987089D01*
X110078827Y-163987089D01*
X110078270Y-163966021D01*
X110077652Y-163905311D01*
G36*
X107964488Y-163404448D02*
G01*
X107988054Y-163418273D01*
X108018867Y-163440881D01*
X108058524Y-163473338D01*
X108108622Y-163516708D01*
X108170759Y-163572058D01*
X108246530Y-163640451D01*
X108333268Y-163719084D01*
X108513891Y-163882878D01*
X108519535Y-163663029D01*
X108521573Y-163587351D01*
X108523539Y-163530994D01*
X108525868Y-163490706D01*
X108528996Y-163463235D01*
X108533357Y-163445329D01*
X108539386Y-163433737D01*
X108547518Y-163425208D01*
X108551830Y-163421623D01*
X108586361Y-163402670D01*
X108619219Y-163405441D01*
X108645284Y-163421633D01*
X108671935Y-163443199D01*
X108675250Y-163758151D01*
X108676167Y-163850779D01*
X108676634Y-163923544D01*
X108676489Y-163979161D01*
X108675570Y-164020342D01*
X108673715Y-164049803D01*
X108670763Y-164070255D01*
X108666552Y-164084413D01*
X108660920Y-164094991D01*
X108654675Y-164103474D01*
X108641163Y-164119207D01*
X108627719Y-164129636D01*
X108612478Y-164133639D01*
X108593576Y-164130094D01*
X108569147Y-164117879D01*
X108537329Y-164095871D01*
X108496254Y-164062949D01*
X108444060Y-164017991D01*
X108378880Y-163959875D01*
X108305046Y-163893099D01*
X108039757Y-163652458D01*
X108034113Y-163871589D01*
X108032071Y-163947128D01*
X108030100Y-164003354D01*
X108027763Y-164043524D01*
X108024621Y-164070896D01*
X108020238Y-164088728D01*
X108014178Y-164100279D01*
X108006002Y-164108807D01*
X108001818Y-164112282D01*
X107964837Y-164131372D01*
X107929894Y-164128493D01*
X107899466Y-164104100D01*
X107892505Y-164094286D01*
X107887079Y-164082826D01*
X107882999Y-164066968D01*
X107880073Y-164043963D01*
X107878110Y-164011062D01*
X107876919Y-163965516D01*
X107876310Y-163904573D01*
X107876091Y-163825486D01*
X107876068Y-163766956D01*
X107876142Y-163675407D01*
X107876489Y-163603687D01*
X107877301Y-163549045D01*
X107878769Y-163508732D01*
X107881083Y-163479998D01*
X107884435Y-163460093D01*
X107889014Y-163446268D01*
X107895013Y-163435772D01*
X107899466Y-163429811D01*
X107910752Y-163415691D01*
X107921301Y-163405029D01*
X107932709Y-163398892D01*
X107946572Y-163398343D01*
X107964488Y-163404448D01*
G37*
X107964488Y-163404448D02*
X107988054Y-163418273D01*
X108018867Y-163440881D01*
X108058524Y-163473338D01*
X108108622Y-163516708D01*
X108170759Y-163572058D01*
X108246530Y-163640451D01*
X108333268Y-163719084D01*
X108513891Y-163882878D01*
X108519535Y-163663029D01*
X108521573Y-163587351D01*
X108523539Y-163530994D01*
X108525868Y-163490706D01*
X108528996Y-163463235D01*
X108533357Y-163445329D01*
X108539386Y-163433737D01*
X108547518Y-163425208D01*
X108551830Y-163421623D01*
X108586361Y-163402670D01*
X108619219Y-163405441D01*
X108645284Y-163421633D01*
X108671935Y-163443199D01*
X108675250Y-163758151D01*
X108676167Y-163850779D01*
X108676634Y-163923544D01*
X108676489Y-163979161D01*
X108675570Y-164020342D01*
X108673715Y-164049803D01*
X108670763Y-164070255D01*
X108666552Y-164084413D01*
X108660920Y-164094991D01*
X108654675Y-164103474D01*
X108641163Y-164119207D01*
X108627719Y-164129636D01*
X108612478Y-164133639D01*
X108593576Y-164130094D01*
X108569147Y-164117879D01*
X108537329Y-164095871D01*
X108496254Y-164062949D01*
X108444060Y-164017991D01*
X108378880Y-163959875D01*
X108305046Y-163893099D01*
X108039757Y-163652458D01*
X108034113Y-163871589D01*
X108032071Y-163947128D01*
X108030100Y-164003354D01*
X108027763Y-164043524D01*
X108024621Y-164070896D01*
X108020238Y-164088728D01*
X108014178Y-164100279D01*
X108006002Y-164108807D01*
X108001818Y-164112282D01*
X107964837Y-164131372D01*
X107929894Y-164128493D01*
X107899466Y-164104100D01*
X107892505Y-164094286D01*
X107887079Y-164082826D01*
X107882999Y-164066968D01*
X107880073Y-164043963D01*
X107878110Y-164011062D01*
X107876919Y-163965516D01*
X107876310Y-163904573D01*
X107876091Y-163825486D01*
X107876068Y-163766956D01*
X107876142Y-163675407D01*
X107876489Y-163603687D01*
X107877301Y-163549045D01*
X107878769Y-163508732D01*
X107881083Y-163479998D01*
X107884435Y-163460093D01*
X107889014Y-163446268D01*
X107895013Y-163435772D01*
X107899466Y-163429811D01*
X107910752Y-163415691D01*
X107921301Y-163405029D01*
X107932709Y-163398892D01*
X107946572Y-163398343D01*
X107964488Y-163404448D01*
G36*
X109494945Y-163400260D02*
G01*
X109571303Y-163401174D01*
X109629819Y-163403311D01*
X109672857Y-163407175D01*
X109702785Y-163413267D01*
X109721970Y-163422090D01*
X109732778Y-163434146D01*
X109737575Y-163449939D01*
X109738729Y-163469970D01*
X109738735Y-163472335D01*
X109737733Y-163494992D01*
X109732998Y-163512503D01*
X109721935Y-163525574D01*
X109701950Y-163534913D01*
X109670448Y-163541227D01*
X109624834Y-163545222D01*
X109562515Y-163547606D01*
X109480895Y-163549086D01*
X109455879Y-163549414D01*
X109213802Y-163552467D01*
X109210416Y-163617378D01*
X109207031Y-163682289D01*
X109375178Y-163682289D01*
X109440868Y-163682531D01*
X109487774Y-163683556D01*
X109519685Y-163685811D01*
X109540393Y-163689742D01*
X109553686Y-163695798D01*
X109563357Y-163704424D01*
X109563419Y-163704493D01*
X109580958Y-163738112D01*
X109580324Y-163774448D01*
X109561916Y-163805423D01*
X109558273Y-163808607D01*
X109545343Y-163816812D01*
X109527626Y-163822521D01*
X109501172Y-163826162D01*
X109462034Y-163828167D01*
X109406264Y-163828964D01*
X109370596Y-163829045D01*
X109208157Y-163829045D01*
X109208157Y-163987089D01*
X109454763Y-163987089D01*
X109536182Y-163987231D01*
X109598012Y-163987814D01*
X109643239Y-163989068D01*
X109674850Y-163991227D01*
X109695833Y-163994523D01*
X109709175Y-163999189D01*
X109717863Y-164005457D01*
X109720052Y-164007733D01*
X109736216Y-164039280D01*
X109737399Y-164075168D01*
X109724138Y-164106285D01*
X109713645Y-164116271D01*
X109702731Y-164121769D01*
X109685819Y-164126022D01*
X109660235Y-164129180D01*
X109623303Y-164131392D01*
X109572348Y-164132806D01*
X109504696Y-164133572D01*
X109417671Y-164133838D01*
X109397996Y-164133845D01*
X109309513Y-164133787D01*
X109240829Y-164133467D01*
X109189166Y-164132667D01*
X109151747Y-164131167D01*
X109125792Y-164128749D01*
X109108524Y-164125194D01*
X109097164Y-164120282D01*
X109088934Y-164113795D01*
X109084419Y-164109138D01*
X109077623Y-164100889D01*
X109072314Y-164090669D01*
X109068308Y-164075800D01*
X109065423Y-164053602D01*
X109063476Y-164021393D01*
X109062283Y-163976496D01*
X109061663Y-163916228D01*
X109061431Y-163837911D01*
X109061402Y-163771994D01*
X109061473Y-163679628D01*
X109061810Y-163607117D01*
X109062600Y-163551737D01*
X109064028Y-163510765D01*
X109066281Y-163481478D01*
X109069545Y-163461153D01*
X109074006Y-163447066D01*
X109079850Y-163436495D01*
X109084799Y-163429811D01*
X109108196Y-163400067D01*
X109398376Y-163400067D01*
X109494945Y-163400260D01*
G37*
X109494945Y-163400260D02*
X109571303Y-163401174D01*
X109629819Y-163403311D01*
X109672857Y-163407175D01*
X109702785Y-163413267D01*
X109721970Y-163422090D01*
X109732778Y-163434146D01*
X109737575Y-163449939D01*
X109738729Y-163469970D01*
X109738735Y-163472335D01*
X109737733Y-163494992D01*
X109732998Y-163512503D01*
X109721935Y-163525574D01*
X109701950Y-163534913D01*
X109670448Y-163541227D01*
X109624834Y-163545222D01*
X109562515Y-163547606D01*
X109480895Y-163549086D01*
X109455879Y-163549414D01*
X109213802Y-163552467D01*
X109210416Y-163617378D01*
X109207031Y-163682289D01*
X109375178Y-163682289D01*
X109440868Y-163682531D01*
X109487774Y-163683556D01*
X109519685Y-163685811D01*
X109540393Y-163689742D01*
X109553686Y-163695798D01*
X109563357Y-163704424D01*
X109563419Y-163704493D01*
X109580958Y-163738112D01*
X109580324Y-163774448D01*
X109561916Y-163805423D01*
X109558273Y-163808607D01*
X109545343Y-163816812D01*
X109527626Y-163822521D01*
X109501172Y-163826162D01*
X109462034Y-163828167D01*
X109406264Y-163828964D01*
X109370596Y-163829045D01*
X109208157Y-163829045D01*
X109208157Y-163987089D01*
X109454763Y-163987089D01*
X109536182Y-163987231D01*
X109598012Y-163987814D01*
X109643239Y-163989068D01*
X109674850Y-163991227D01*
X109695833Y-163994523D01*
X109709175Y-163999189D01*
X109717863Y-164005457D01*
X109720052Y-164007733D01*
X109736216Y-164039280D01*
X109737399Y-164075168D01*
X109724138Y-164106285D01*
X109713645Y-164116271D01*
X109702731Y-164121769D01*
X109685819Y-164126022D01*
X109660235Y-164129180D01*
X109623303Y-164131392D01*
X109572348Y-164132806D01*
X109504696Y-164133572D01*
X109417671Y-164133838D01*
X109397996Y-164133845D01*
X109309513Y-164133787D01*
X109240829Y-164133467D01*
X109189166Y-164132667D01*
X109151747Y-164131167D01*
X109125792Y-164128749D01*
X109108524Y-164125194D01*
X109097164Y-164120282D01*
X109088934Y-164113795D01*
X109084419Y-164109138D01*
X109077623Y-164100889D01*
X109072314Y-164090669D01*
X109068308Y-164075800D01*
X109065423Y-164053602D01*
X109063476Y-164021393D01*
X109062283Y-163976496D01*
X109061663Y-163916228D01*
X109061431Y-163837911D01*
X109061402Y-163771994D01*
X109061473Y-163679628D01*
X109061810Y-163607117D01*
X109062600Y-163551737D01*
X109064028Y-163510765D01*
X109066281Y-163481478D01*
X109069545Y-163461153D01*
X109074006Y-163447066D01*
X109079850Y-163436495D01*
X109084799Y-163429811D01*
X109108196Y-163400067D01*
X109398376Y-163400067D01*
X109494945Y-163400260D01*
G36*
X106318202Y-158620054D02*
G01*
X106329067Y-158733993D01*
X106360684Y-158841616D01*
X106411587Y-158940615D01*
X106480309Y-159028684D01*
X106565383Y-159103516D01*
X106662370Y-159161384D01*
X106768638Y-159201005D01*
X106875652Y-159219573D01*
X106981302Y-159218434D01*
X107083477Y-159198930D01*
X107180068Y-159162406D01*
X107268964Y-159110205D01*
X107348056Y-159043673D01*
X107415233Y-158964152D01*
X107468385Y-158872987D01*
X107505403Y-158771523D01*
X107524175Y-158661102D01*
X107526113Y-158611206D01*
X107526113Y-158523267D01*
X107578042Y-158523267D01*
X107614349Y-158526111D01*
X107641247Y-158537911D01*
X107668353Y-158561649D01*
X107706735Y-158600031D01*
X107706735Y-160791602D01*
X107706726Y-161053739D01*
X107706694Y-161294241D01*
X107706630Y-161514048D01*
X107706526Y-161714101D01*
X107706375Y-161895344D01*
X107706168Y-162058716D01*
X107705896Y-162205160D01*
X107705552Y-162335617D01*
X107705128Y-162451029D01*
X107704615Y-162552338D01*
X107704005Y-162640484D01*
X107703290Y-162716410D01*
X107702462Y-162781057D01*
X107701513Y-162835367D01*
X107700435Y-162880280D01*
X107699219Y-162916740D01*
X107697857Y-162945687D01*
X107696341Y-162968063D01*
X107694664Y-162984809D01*
X107692816Y-162996868D01*
X107690789Y-163005180D01*
X107688577Y-163010687D01*
X107687494Y-163012537D01*
X107683331Y-163019549D01*
X107679797Y-163025996D01*
X107675967Y-163031900D01*
X107670920Y-163037286D01*
X107663731Y-163042178D01*
X107653479Y-163046598D01*
X107639238Y-163050572D01*
X107620088Y-163054121D01*
X107595103Y-163057270D01*
X107563362Y-163060042D01*
X107523940Y-163062461D01*
X107475916Y-163064551D01*
X107418365Y-163066335D01*
X107350365Y-163067837D01*
X107270992Y-163069080D01*
X107179323Y-163070089D01*
X107074436Y-163070885D01*
X106955406Y-163071494D01*
X106821312Y-163071939D01*
X106671229Y-163072243D01*
X106504235Y-163072430D01*
X106319406Y-163072524D01*
X106115819Y-163072548D01*
X105892552Y-163072525D01*
X105648680Y-163072480D01*
X105383281Y-163072437D01*
X105344898Y-163072432D01*
X105077920Y-163072389D01*
X104832600Y-163072318D01*
X104608019Y-163072213D01*
X104403257Y-163072066D01*
X104217396Y-163071869D01*
X104049514Y-163071616D01*
X103898694Y-163071300D01*
X103764015Y-163070913D01*
X103644558Y-163070447D01*
X103539403Y-163069897D01*
X103447631Y-163069253D01*
X103368323Y-163068511D01*
X103300559Y-163067661D01*
X103243420Y-163066697D01*
X103195985Y-163065611D01*
X103157336Y-163064397D01*
X103126553Y-163063047D01*
X103102717Y-163061555D01*
X103084908Y-163059911D01*
X103072207Y-163058111D01*
X103063694Y-163056145D01*
X103059336Y-163054477D01*
X103050874Y-163050906D01*
X103043105Y-163048270D01*
X103036000Y-163045634D01*
X103029529Y-163042062D01*
X103023663Y-163036621D01*
X103018373Y-163028375D01*
X103013628Y-163016390D01*
X103009400Y-162999731D01*
X103005659Y-162977463D01*
X103002375Y-162948652D01*
X102999519Y-162912363D01*
X102997062Y-162867661D01*
X102994973Y-162813611D01*
X102993224Y-162749279D01*
X102991785Y-162673730D01*
X102990626Y-162586030D01*
X102989719Y-162485243D01*
X102989033Y-162370434D01*
X102988539Y-162240670D01*
X102988207Y-162095015D01*
X102988009Y-161932535D01*
X102987915Y-161752295D01*
X102987894Y-161553360D01*
X102987917Y-161334796D01*
X102987956Y-161095668D01*
X102987980Y-160835040D01*
X102987980Y-160792889D01*
X102987966Y-160529992D01*
X102987941Y-160288732D01*
X102987931Y-160068165D01*
X102987960Y-159867352D01*
X102988054Y-159685349D01*
X102988240Y-159521216D01*
X102988543Y-159374011D01*
X102988988Y-159242792D01*
X102989568Y-159132867D01*
X103292405Y-159132867D01*
X103332195Y-159190711D01*
X103343366Y-159206479D01*
X103353436Y-159220441D01*
X103362464Y-159233784D01*
X103370505Y-159247693D01*
X103377616Y-159263356D01*
X103383855Y-159281958D01*
X103389277Y-159304686D01*
X103393940Y-159332727D01*
X103397901Y-159367267D01*
X103401217Y-159409492D01*
X103403943Y-159460589D01*
X103406138Y-159521744D01*
X103407857Y-159594144D01*
X103409158Y-159678975D01*
X103410097Y-159777422D01*
X103410732Y-159890674D01*
X103411118Y-160019916D01*
X103411314Y-160166334D01*
X103411375Y-160331116D01*
X103411359Y-160515447D01*
X103411322Y-160720513D01*
X103411313Y-160843133D01*
X103411337Y-161060082D01*
X103411371Y-161255642D01*
X103411359Y-161430999D01*
X103411244Y-161587341D01*
X103410972Y-161725857D01*
X103410484Y-161847734D01*
X103409726Y-161954160D01*
X103408640Y-162046322D01*
X103407171Y-162125409D01*
X103405262Y-162192608D01*
X103402858Y-162249107D01*
X103399901Y-162296093D01*
X103396336Y-162334755D01*
X103392107Y-162366280D01*
X103387156Y-162391855D01*
X103381429Y-162412670D01*
X103374869Y-162429911D01*
X103367419Y-162444765D01*
X103359023Y-162458422D01*
X103349626Y-162472069D01*
X103339170Y-162486893D01*
X103333079Y-162495783D01*
X103294306Y-162553400D01*
X103825870Y-162553400D01*
X103949119Y-162553365D01*
X104051615Y-162553215D01*
X104135182Y-162552878D01*
X104201646Y-162552286D01*
X104252831Y-162551367D01*
X104290561Y-162550051D01*
X104316662Y-162548269D01*
X104332958Y-162545951D01*
X104341274Y-162543026D01*
X104343434Y-162539424D01*
X104341263Y-162535075D01*
X104340067Y-162533645D01*
X104314917Y-162496573D01*
X104289019Y-162443772D01*
X104265410Y-162381770D01*
X104257141Y-162355357D01*
X104252524Y-162337416D01*
X104248623Y-162316355D01*
X104245354Y-162290089D01*
X104242636Y-162256532D01*
X104240387Y-162213599D01*
X104238525Y-162159204D01*
X104236966Y-162091262D01*
X104235630Y-162007688D01*
X104234433Y-161906395D01*
X104233294Y-161785300D01*
X104232917Y-161740600D01*
X104231900Y-161615449D01*
X104231142Y-161511082D01*
X104230699Y-161425707D01*
X104230632Y-161357533D01*
X104230997Y-161304765D01*
X104231854Y-161265614D01*
X104233261Y-161238285D01*
X104235277Y-161220986D01*
X104237959Y-161211926D01*
X104241366Y-161209312D01*
X104245558Y-161211351D01*
X104250031Y-161215667D01*
X104260386Y-161228602D01*
X104282444Y-161257676D01*
X104314645Y-161300759D01*
X104355428Y-161355718D01*
X104403232Y-161420423D01*
X104456497Y-161492742D01*
X104513662Y-161570544D01*
X104573165Y-161651698D01*
X104633447Y-161734072D01*
X104692947Y-161815536D01*
X104750104Y-161893957D01*
X104803357Y-161967204D01*
X104851145Y-162033147D01*
X104891909Y-162089654D01*
X104924086Y-162134593D01*
X104946117Y-162165834D01*
X104950685Y-162172466D01*
X104973606Y-162209369D01*
X105000414Y-162257359D01*
X105025813Y-162306897D01*
X105029034Y-162313577D01*
X105050712Y-162361772D01*
X105063298Y-162399334D01*
X105069028Y-162435160D01*
X105070146Y-162477200D01*
X105069512Y-162553400D01*
X106223951Y-162553400D01*
X106132787Y-162459669D01*
X106085990Y-162409775D01*
X106035703Y-162353295D01*
X105989658Y-162299026D01*
X105969233Y-162273673D01*
X105938795Y-162234128D01*
X105898740Y-162180916D01*
X105850241Y-162115667D01*
X105794467Y-162040011D01*
X105732591Y-161955577D01*
X105665783Y-161863994D01*
X105595215Y-161766892D01*
X105522057Y-161665901D01*
X105447481Y-161562650D01*
X105372658Y-161458768D01*
X105298759Y-161355885D01*
X105226956Y-161255631D01*
X105158418Y-161159636D01*
X105094318Y-161069527D01*
X105035827Y-160986936D01*
X104984116Y-160913492D01*
X104940355Y-160850824D01*
X104905717Y-160800561D01*
X104881372Y-160764334D01*
X104868491Y-160743771D01*
X104866733Y-160739668D01*
X104874692Y-160728342D01*
X104895487Y-160701162D01*
X104927755Y-160659829D01*
X104970132Y-160606044D01*
X105021255Y-160541506D01*
X105079761Y-160467918D01*
X105144288Y-160386978D01*
X105213471Y-160300388D01*
X105285949Y-160209848D01*
X105360356Y-160117060D01*
X105420085Y-160042702D01*
X106431091Y-160042702D01*
X106437000Y-160055659D01*
X106451330Y-160077908D01*
X106452377Y-160079391D01*
X106471164Y-160109544D01*
X106490811Y-160146375D01*
X106494710Y-160154511D01*
X106498246Y-160162940D01*
X106501372Y-160173059D01*
X106504116Y-160186260D01*
X106506510Y-160203938D01*
X106508583Y-160227484D01*
X106510367Y-160258293D01*
X106511890Y-160297757D01*
X106513183Y-160347269D01*
X106514276Y-160408223D01*
X106515199Y-160482011D01*
X106515983Y-160570028D01*
X106516657Y-160673665D01*
X106517252Y-160794316D01*
X106517797Y-160933374D01*
X106518323Y-161092232D01*
X106518857Y-161271089D01*
X106519396Y-161456207D01*
X106519830Y-161620145D01*
X106520093Y-161764303D01*
X106520118Y-161890079D01*
X106519837Y-161998871D01*
X106519183Y-162092077D01*
X106518088Y-162171097D01*
X106516484Y-162237328D01*
X106514305Y-162292170D01*
X106511483Y-162337021D01*
X106507951Y-162373278D01*
X106503641Y-162402341D01*
X106498485Y-162425609D01*
X106492417Y-162444479D01*
X106485369Y-162460351D01*
X106477273Y-162474622D01*
X106468062Y-162488691D01*
X106459562Y-162501158D01*
X106442426Y-162527452D01*
X106432280Y-162545037D01*
X106431091Y-162548257D01*
X106441998Y-162549334D01*
X106473191Y-162550335D01*
X106522379Y-162551235D01*
X106587269Y-162552010D01*
X106665572Y-162552637D01*
X106754995Y-162553091D01*
X106853246Y-162553349D01*
X106922157Y-162553400D01*
X107027150Y-162553180D01*
X107123992Y-162552548D01*
X107210495Y-162551549D01*
X107284470Y-162550227D01*
X107343728Y-162548626D01*
X107386082Y-162546791D01*
X107409342Y-162544765D01*
X107413224Y-162543493D01*
X107405526Y-162528591D01*
X107397528Y-162520560D01*
X107384356Y-162503434D01*
X107367117Y-162473183D01*
X107355195Y-162448622D01*
X107328557Y-162389711D01*
X107325482Y-161212845D01*
X107322407Y-160035978D01*
X106876749Y-160035978D01*
X106778932Y-160036142D01*
X106688538Y-160036611D01*
X106607972Y-160037347D01*
X106539640Y-160038316D01*
X106485946Y-160039480D01*
X106449297Y-160040803D01*
X106432098Y-160042249D01*
X106431091Y-160042702D01*
X105420085Y-160042702D01*
X105435332Y-160023722D01*
X105509512Y-159931537D01*
X105581533Y-159842204D01*
X105650033Y-159757424D01*
X105713647Y-159678898D01*
X105771014Y-159608326D01*
X105820769Y-159547409D01*
X105861550Y-159497847D01*
X105878714Y-159477178D01*
X105965006Y-159376516D01*
X106041605Y-159293259D01*
X106110419Y-159225438D01*
X106173354Y-159171089D01*
X106182735Y-159163722D01*
X106222246Y-159133117D01*
X105090486Y-159132867D01*
X105095775Y-159180844D01*
X105092472Y-159238188D01*
X105070941Y-159306463D01*
X105030967Y-159386212D01*
X104985659Y-159458495D01*
X104969441Y-159481140D01*
X104941388Y-159518696D01*
X104903172Y-159569021D01*
X104856465Y-159629973D01*
X104802941Y-159699411D01*
X104744271Y-159775194D01*
X104682127Y-159855180D01*
X104618181Y-159937228D01*
X104554107Y-160019196D01*
X104491575Y-160098943D01*
X104432259Y-160174327D01*
X104377831Y-160243207D01*
X104329963Y-160303442D01*
X104290327Y-160352889D01*
X104260596Y-160389408D01*
X104242441Y-160410858D01*
X104239382Y-160414156D01*
X104236523Y-160406149D01*
X104234309Y-160375855D01*
X104232745Y-160323556D01*
X104231835Y-160249531D01*
X104231582Y-160154063D01*
X104231989Y-160037434D01*
X104232898Y-159917445D01*
X104234220Y-159785333D01*
X104235745Y-159673594D01*
X104237721Y-159580025D01*
X104240396Y-159502419D01*
X104244020Y-159438574D01*
X104248841Y-159386283D01*
X104255108Y-159343344D01*
X104263070Y-159307551D01*
X104272975Y-159276700D01*
X104285071Y-159248586D01*
X104299609Y-159221005D01*
X104314291Y-159195966D01*
X104352288Y-159132867D01*
X103292405Y-159132867D01*
X102989568Y-159132867D01*
X102989601Y-159126617D01*
X102990407Y-159024544D01*
X102991432Y-158935633D01*
X102992702Y-158858941D01*
X102994242Y-158793527D01*
X102996078Y-158738449D01*
X102998235Y-158692765D01*
X103000739Y-158655534D01*
X103003615Y-158625813D01*
X103006889Y-158602662D01*
X103010587Y-158585139D01*
X103014733Y-158572301D01*
X103019355Y-158563208D01*
X103024476Y-158556918D01*
X103030124Y-158552488D01*
X103036323Y-158548978D01*
X103043098Y-158545445D01*
X103049094Y-158541876D01*
X103054327Y-158539300D01*
X103062503Y-158536972D01*
X103074716Y-158534878D01*
X103092061Y-158533007D01*
X103115633Y-158531347D01*
X103146525Y-158529884D01*
X103185834Y-158528608D01*
X103234652Y-158527504D01*
X103294075Y-158526561D01*
X103365198Y-158525767D01*
X103449114Y-158525109D01*
X103546919Y-158524575D01*
X103659708Y-158524153D01*
X103788573Y-158523829D01*
X103934611Y-158523592D01*
X104098916Y-158523430D01*
X104282582Y-158523330D01*
X104486705Y-158523280D01*
X104697849Y-158523267D01*
X106318202Y-158523267D01*
X106318202Y-158620054D01*
G37*
X106318202Y-158620054D02*
X106329067Y-158733993D01*
X106360684Y-158841616D01*
X106411587Y-158940615D01*
X106480309Y-159028684D01*
X106565383Y-159103516D01*
X106662370Y-159161384D01*
X106768638Y-159201005D01*
X106875652Y-159219573D01*
X106981302Y-159218434D01*
X107083477Y-159198930D01*
X107180068Y-159162406D01*
X107268964Y-159110205D01*
X107348056Y-159043673D01*
X107415233Y-158964152D01*
X107468385Y-158872987D01*
X107505403Y-158771523D01*
X107524175Y-158661102D01*
X107526113Y-158611206D01*
X107526113Y-158523267D01*
X107578042Y-158523267D01*
X107614349Y-158526111D01*
X107641247Y-158537911D01*
X107668353Y-158561649D01*
X107706735Y-158600031D01*
X107706735Y-160791602D01*
X107706726Y-161053739D01*
X107706694Y-161294241D01*
X107706630Y-161514048D01*
X107706526Y-161714101D01*
X107706375Y-161895344D01*
X107706168Y-162058716D01*
X107705896Y-162205160D01*
X107705552Y-162335617D01*
X107705128Y-162451029D01*
X107704615Y-162552338D01*
X107704005Y-162640484D01*
X107703290Y-162716410D01*
X107702462Y-162781057D01*
X107701513Y-162835367D01*
X107700435Y-162880280D01*
X107699219Y-162916740D01*
X107697857Y-162945687D01*
X107696341Y-162968063D01*
X107694664Y-162984809D01*
X107692816Y-162996868D01*
X107690789Y-163005180D01*
X107688577Y-163010687D01*
X107687494Y-163012537D01*
X107683331Y-163019549D01*
X107679797Y-163025996D01*
X107675967Y-163031900D01*
X107670920Y-163037286D01*
X107663731Y-163042178D01*
X107653479Y-163046598D01*
X107639238Y-163050572D01*
X107620088Y-163054121D01*
X107595103Y-163057270D01*
X107563362Y-163060042D01*
X107523940Y-163062461D01*
X107475916Y-163064551D01*
X107418365Y-163066335D01*
X107350365Y-163067837D01*
X107270992Y-163069080D01*
X107179323Y-163070089D01*
X107074436Y-163070885D01*
X106955406Y-163071494D01*
X106821312Y-163071939D01*
X106671229Y-163072243D01*
X106504235Y-163072430D01*
X106319406Y-163072524D01*
X106115819Y-163072548D01*
X105892552Y-163072525D01*
X105648680Y-163072480D01*
X105383281Y-163072437D01*
X105344898Y-163072432D01*
X105077920Y-163072389D01*
X104832600Y-163072318D01*
X104608019Y-163072213D01*
X104403257Y-163072066D01*
X104217396Y-163071869D01*
X104049514Y-163071616D01*
X103898694Y-163071300D01*
X103764015Y-163070913D01*
X103644558Y-163070447D01*
X103539403Y-163069897D01*
X103447631Y-163069253D01*
X103368323Y-163068511D01*
X103300559Y-163067661D01*
X103243420Y-163066697D01*
X103195985Y-163065611D01*
X103157336Y-163064397D01*
X103126553Y-163063047D01*
X103102717Y-163061555D01*
X103084908Y-163059911D01*
X103072207Y-163058111D01*
X103063694Y-163056145D01*
X103059336Y-163054477D01*
X103050874Y-163050906D01*
X103043105Y-163048270D01*
X103036000Y-163045634D01*
X103029529Y-163042062D01*
X103023663Y-163036621D01*
X103018373Y-163028375D01*
X103013628Y-163016390D01*
X103009400Y-162999731D01*
X103005659Y-162977463D01*
X103002375Y-162948652D01*
X102999519Y-162912363D01*
X102997062Y-162867661D01*
X102994973Y-162813611D01*
X102993224Y-162749279D01*
X102991785Y-162673730D01*
X102990626Y-162586030D01*
X102989719Y-162485243D01*
X102989033Y-162370434D01*
X102988539Y-162240670D01*
X102988207Y-162095015D01*
X102988009Y-161932535D01*
X102987915Y-161752295D01*
X102987894Y-161553360D01*
X102987917Y-161334796D01*
X102987956Y-161095668D01*
X102987980Y-160835040D01*
X102987980Y-160792889D01*
X102987966Y-160529992D01*
X102987941Y-160288732D01*
X102987931Y-160068165D01*
X102987960Y-159867352D01*
X102988054Y-159685349D01*
X102988240Y-159521216D01*
X102988543Y-159374011D01*
X102988988Y-159242792D01*
X102989568Y-159132867D01*
X103292405Y-159132867D01*
X103332195Y-159190711D01*
X103343366Y-159206479D01*
X103353436Y-159220441D01*
X103362464Y-159233784D01*
X103370505Y-159247693D01*
X103377616Y-159263356D01*
X103383855Y-159281958D01*
X103389277Y-159304686D01*
X103393940Y-159332727D01*
X103397901Y-159367267D01*
X103401217Y-159409492D01*
X103403943Y-159460589D01*
X103406138Y-159521744D01*
X103407857Y-159594144D01*
X103409158Y-159678975D01*
X103410097Y-159777422D01*
X103410732Y-159890674D01*
X103411118Y-160019916D01*
X103411314Y-160166334D01*
X103411375Y-160331116D01*
X103411359Y-160515447D01*
X103411322Y-160720513D01*
X103411313Y-160843133D01*
X103411337Y-161060082D01*
X103411371Y-161255642D01*
X103411359Y-161430999D01*
X103411244Y-161587341D01*
X103410972Y-161725857D01*
X103410484Y-161847734D01*
X103409726Y-161954160D01*
X103408640Y-162046322D01*
X103407171Y-162125409D01*
X103405262Y-162192608D01*
X103402858Y-162249107D01*
X103399901Y-162296093D01*
X103396336Y-162334755D01*
X103392107Y-162366280D01*
X103387156Y-162391855D01*
X103381429Y-162412670D01*
X103374869Y-162429911D01*
X103367419Y-162444765D01*
X103359023Y-162458422D01*
X103349626Y-162472069D01*
X103339170Y-162486893D01*
X103333079Y-162495783D01*
X103294306Y-162553400D01*
X103825870Y-162553400D01*
X103949119Y-162553365D01*
X104051615Y-162553215D01*
X104135182Y-162552878D01*
X104201646Y-162552286D01*
X104252831Y-162551367D01*
X104290561Y-162550051D01*
X104316662Y-162548269D01*
X104332958Y-162545951D01*
X104341274Y-162543026D01*
X104343434Y-162539424D01*
X104341263Y-162535075D01*
X104340067Y-162533645D01*
X104314917Y-162496573D01*
X104289019Y-162443772D01*
X104265410Y-162381770D01*
X104257141Y-162355357D01*
X104252524Y-162337416D01*
X104248623Y-162316355D01*
X104245354Y-162290089D01*
X104242636Y-162256532D01*
X104240387Y-162213599D01*
X104238525Y-162159204D01*
X104236966Y-162091262D01*
X104235630Y-162007688D01*
X104234433Y-161906395D01*
X104233294Y-161785300D01*
X104232917Y-161740600D01*
X104231900Y-161615449D01*
X104231142Y-161511082D01*
X104230699Y-161425707D01*
X104230632Y-161357533D01*
X104230997Y-161304765D01*
X104231854Y-161265614D01*
X104233261Y-161238285D01*
X104235277Y-161220986D01*
X104237959Y-161211926D01*
X104241366Y-161209312D01*
X104245558Y-161211351D01*
X104250031Y-161215667D01*
X104260386Y-161228602D01*
X104282444Y-161257676D01*
X104314645Y-161300759D01*
X104355428Y-161355718D01*
X104403232Y-161420423D01*
X104456497Y-161492742D01*
X104513662Y-161570544D01*
X104573165Y-161651698D01*
X104633447Y-161734072D01*
X104692947Y-161815536D01*
X104750104Y-161893957D01*
X104803357Y-161967204D01*
X104851145Y-162033147D01*
X104891909Y-162089654D01*
X104924086Y-162134593D01*
X104946117Y-162165834D01*
X104950685Y-162172466D01*
X104973606Y-162209369D01*
X105000414Y-162257359D01*
X105025813Y-162306897D01*
X105029034Y-162313577D01*
X105050712Y-162361772D01*
X105063298Y-162399334D01*
X105069028Y-162435160D01*
X105070146Y-162477200D01*
X105069512Y-162553400D01*
X106223951Y-162553400D01*
X106132787Y-162459669D01*
X106085990Y-162409775D01*
X106035703Y-162353295D01*
X105989658Y-162299026D01*
X105969233Y-162273673D01*
X105938795Y-162234128D01*
X105898740Y-162180916D01*
X105850241Y-162115667D01*
X105794467Y-162040011D01*
X105732591Y-161955577D01*
X105665783Y-161863994D01*
X105595215Y-161766892D01*
X105522057Y-161665901D01*
X105447481Y-161562650D01*
X105372658Y-161458768D01*
X105298759Y-161355885D01*
X105226956Y-161255631D01*
X105158418Y-161159636D01*
X105094318Y-161069527D01*
X105035827Y-160986936D01*
X104984116Y-160913492D01*
X104940355Y-160850824D01*
X104905717Y-160800561D01*
X104881372Y-160764334D01*
X104868491Y-160743771D01*
X104866733Y-160739668D01*
X104874692Y-160728342D01*
X104895487Y-160701162D01*
X104927755Y-160659829D01*
X104970132Y-160606044D01*
X105021255Y-160541506D01*
X105079761Y-160467918D01*
X105144288Y-160386978D01*
X105213471Y-160300388D01*
X105285949Y-160209848D01*
X105360356Y-160117060D01*
X105420085Y-160042702D01*
X106431091Y-160042702D01*
X106437000Y-160055659D01*
X106451330Y-160077908D01*
X106452377Y-160079391D01*
X106471164Y-160109544D01*
X106490811Y-160146375D01*
X106494710Y-160154511D01*
X106498246Y-160162940D01*
X106501372Y-160173059D01*
X106504116Y-160186260D01*
X106506510Y-160203938D01*
X106508583Y-160227484D01*
X106510367Y-160258293D01*
X106511890Y-160297757D01*
X106513183Y-160347269D01*
X106514276Y-160408223D01*
X106515199Y-160482011D01*
X106515983Y-160570028D01*
X106516657Y-160673665D01*
X106517252Y-160794316D01*
X106517797Y-160933374D01*
X106518323Y-161092232D01*
X106518857Y-161271089D01*
X106519396Y-161456207D01*
X106519830Y-161620145D01*
X106520093Y-161764303D01*
X106520118Y-161890079D01*
X106519837Y-161998871D01*
X106519183Y-162092077D01*
X106518088Y-162171097D01*
X106516484Y-162237328D01*
X106514305Y-162292170D01*
X106511483Y-162337021D01*
X106507951Y-162373278D01*
X106503641Y-162402341D01*
X106498485Y-162425609D01*
X106492417Y-162444479D01*
X106485369Y-162460351D01*
X106477273Y-162474622D01*
X106468062Y-162488691D01*
X106459562Y-162501158D01*
X106442426Y-162527452D01*
X106432280Y-162545037D01*
X106431091Y-162548257D01*
X106441998Y-162549334D01*
X106473191Y-162550335D01*
X106522379Y-162551235D01*
X106587269Y-162552010D01*
X106665572Y-162552637D01*
X106754995Y-162553091D01*
X106853246Y-162553349D01*
X106922157Y-162553400D01*
X107027150Y-162553180D01*
X107123992Y-162552548D01*
X107210495Y-162551549D01*
X107284470Y-162550227D01*
X107343728Y-162548626D01*
X107386082Y-162546791D01*
X107409342Y-162544765D01*
X107413224Y-162543493D01*
X107405526Y-162528591D01*
X107397528Y-162520560D01*
X107384356Y-162503434D01*
X107367117Y-162473183D01*
X107355195Y-162448622D01*
X107328557Y-162389711D01*
X107325482Y-161212845D01*
X107322407Y-160035978D01*
X106876749Y-160035978D01*
X106778932Y-160036142D01*
X106688538Y-160036611D01*
X106607972Y-160037347D01*
X106539640Y-160038316D01*
X106485946Y-160039480D01*
X106449297Y-160040803D01*
X106432098Y-160042249D01*
X106431091Y-160042702D01*
X105420085Y-160042702D01*
X105435332Y-160023722D01*
X105509512Y-159931537D01*
X105581533Y-159842204D01*
X105650033Y-159757424D01*
X105713647Y-159678898D01*
X105771014Y-159608326D01*
X105820769Y-159547409D01*
X105861550Y-159497847D01*
X105878714Y-159477178D01*
X105965006Y-159376516D01*
X106041605Y-159293259D01*
X106110419Y-159225438D01*
X106173354Y-159171089D01*
X106182735Y-159163722D01*
X106222246Y-159133117D01*
X105090486Y-159132867D01*
X105095775Y-159180844D01*
X105092472Y-159238188D01*
X105070941Y-159306463D01*
X105030967Y-159386212D01*
X104985659Y-159458495D01*
X104969441Y-159481140D01*
X104941388Y-159518696D01*
X104903172Y-159569021D01*
X104856465Y-159629973D01*
X104802941Y-159699411D01*
X104744271Y-159775194D01*
X104682127Y-159855180D01*
X104618181Y-159937228D01*
X104554107Y-160019196D01*
X104491575Y-160098943D01*
X104432259Y-160174327D01*
X104377831Y-160243207D01*
X104329963Y-160303442D01*
X104290327Y-160352889D01*
X104260596Y-160389408D01*
X104242441Y-160410858D01*
X104239382Y-160414156D01*
X104236523Y-160406149D01*
X104234309Y-160375855D01*
X104232745Y-160323556D01*
X104231835Y-160249531D01*
X104231582Y-160154063D01*
X104231989Y-160037434D01*
X104232898Y-159917445D01*
X104234220Y-159785333D01*
X104235745Y-159673594D01*
X104237721Y-159580025D01*
X104240396Y-159502419D01*
X104244020Y-159438574D01*
X104248841Y-159386283D01*
X104255108Y-159343344D01*
X104263070Y-159307551D01*
X104272975Y-159276700D01*
X104285071Y-159248586D01*
X104299609Y-159221005D01*
X104314291Y-159195966D01*
X104352288Y-159132867D01*
X103292405Y-159132867D01*
X102989568Y-159132867D01*
X102989601Y-159126617D01*
X102990407Y-159024544D01*
X102991432Y-158935633D01*
X102992702Y-158858941D01*
X102994242Y-158793527D01*
X102996078Y-158738449D01*
X102998235Y-158692765D01*
X103000739Y-158655534D01*
X103003615Y-158625813D01*
X103006889Y-158602662D01*
X103010587Y-158585139D01*
X103014733Y-158572301D01*
X103019355Y-158563208D01*
X103024476Y-158556918D01*
X103030124Y-158552488D01*
X103036323Y-158548978D01*
X103043098Y-158545445D01*
X103049094Y-158541876D01*
X103054327Y-158539300D01*
X103062503Y-158536972D01*
X103074716Y-158534878D01*
X103092061Y-158533007D01*
X103115633Y-158531347D01*
X103146525Y-158529884D01*
X103185834Y-158528608D01*
X103234652Y-158527504D01*
X103294075Y-158526561D01*
X103365198Y-158525767D01*
X103449114Y-158525109D01*
X103546919Y-158524575D01*
X103659708Y-158524153D01*
X103788573Y-158523829D01*
X103934611Y-158523592D01*
X104098916Y-158523430D01*
X104282582Y-158523330D01*
X104486705Y-158523280D01*
X104697849Y-158523267D01*
X106318202Y-158523267D01*
X106318202Y-158620054D01*
G36*
X109593031Y-159080071D02*
G01*
X109753172Y-159101245D01*
X109917112Y-159141385D01*
X110086915Y-159200889D01*
X110264645Y-159280154D01*
X110275912Y-159285699D01*
X110333607Y-159313725D01*
X110385154Y-159337802D01*
X110426793Y-159356249D01*
X110454764Y-159367386D01*
X110464335Y-159369933D01*
X110483552Y-159374941D01*
X110488163Y-159379147D01*
X110483060Y-159389580D01*
X110467020Y-159415868D01*
X110441890Y-159455257D01*
X110409516Y-159504991D01*
X110371745Y-159562315D01*
X110330424Y-159624476D01*
X110287400Y-159688718D01*
X110244519Y-159752285D01*
X110203628Y-159812425D01*
X110166573Y-159866380D01*
X110135202Y-159911397D01*
X110111361Y-159944721D01*
X110096896Y-159963597D01*
X110094911Y-159965787D01*
X110084793Y-159961138D01*
X110062452Y-159943962D01*
X110031882Y-159917440D01*
X110016138Y-159902964D01*
X109919649Y-159827682D01*
X109812938Y-159772241D01*
X109697434Y-159737141D01*
X109574564Y-159722880D01*
X109505163Y-159724051D01*
X109384025Y-159741212D01*
X109274807Y-159777094D01*
X109177184Y-159831959D01*
X109090830Y-159906070D01*
X109015417Y-159999688D01*
X108950620Y-160113076D01*
X108913203Y-160199667D01*
X108869350Y-160335366D01*
X108837030Y-160482850D01*
X108816159Y-160638314D01*
X108806653Y-160797956D01*
X108808429Y-160957973D01*
X108821405Y-161114561D01*
X108845496Y-161263918D01*
X108880620Y-161402240D01*
X108926694Y-161525724D01*
X108942975Y-161559978D01*
X109011222Y-161674064D01*
X109091681Y-161770557D01*
X109183172Y-161848670D01*
X109284513Y-161907617D01*
X109394522Y-161946612D01*
X109512017Y-161964868D01*
X109553485Y-161966211D01*
X109675043Y-161955290D01*
X109795480Y-161922474D01*
X109913268Y-161868439D01*
X110026879Y-161793865D01*
X110118287Y-161715539D01*
X110164817Y-161671008D01*
X110346085Y-161968271D01*
X110391182Y-162042433D01*
X110432421Y-162110646D01*
X110468337Y-162170459D01*
X110497468Y-162219420D01*
X110518352Y-162255079D01*
X110529526Y-162274984D01*
X110530977Y-162278079D01*
X110522748Y-162287718D01*
X110497169Y-162304999D01*
X110457475Y-162328283D01*
X110406899Y-162355934D01*
X110348676Y-162386315D01*
X110286039Y-162417790D01*
X110222223Y-162448722D01*
X110160462Y-162477473D01*
X110103990Y-162502408D01*
X110056040Y-162521889D01*
X110032588Y-162530318D01*
X109898823Y-162568133D01*
X109760929Y-162593136D01*
X109613224Y-162606140D01*
X109486435Y-162608468D01*
X109418480Y-162607373D01*
X109352879Y-162605275D01*
X109295449Y-162602434D01*
X109252005Y-162599106D01*
X109237900Y-162597422D01*
X109098886Y-162568587D01*
X108957359Y-162523468D01*
X108819877Y-162464750D01*
X108692996Y-162395120D01*
X108615491Y-162342441D01*
X108488083Y-162234239D01*
X108369780Y-162107671D01*
X108262774Y-161965866D01*
X108169254Y-161811951D01*
X108091412Y-161649053D01*
X108047558Y-161531756D01*
X107997310Y-161348128D01*
X107963811Y-161153581D01*
X107947051Y-160952325D01*
X107947018Y-160748568D01*
X107963703Y-160546521D01*
X107997095Y-160350392D01*
X108047182Y-160164391D01*
X108050999Y-160152803D01*
X108113883Y-159990750D01*
X108190630Y-159842832D01*
X108283844Y-159704865D01*
X108396129Y-159572661D01*
X108439994Y-159527399D01*
X108576136Y-159403457D01*
X108716093Y-159300915D01*
X108862013Y-159218656D01*
X109016044Y-159155564D01*
X109180334Y-159110523D01*
X109275891Y-159093033D01*
X109434625Y-159077466D01*
X109593031Y-159080071D01*
G37*
X109593031Y-159080071D02*
X109753172Y-159101245D01*
X109917112Y-159141385D01*
X110086915Y-159200889D01*
X110264645Y-159280154D01*
X110275912Y-159285699D01*
X110333607Y-159313725D01*
X110385154Y-159337802D01*
X110426793Y-159356249D01*
X110454764Y-159367386D01*
X110464335Y-159369933D01*
X110483552Y-159374941D01*
X110488163Y-159379147D01*
X110483060Y-159389580D01*
X110467020Y-159415868D01*
X110441890Y-159455257D01*
X110409516Y-159504991D01*
X110371745Y-159562315D01*
X110330424Y-159624476D01*
X110287400Y-159688718D01*
X110244519Y-159752285D01*
X110203628Y-159812425D01*
X110166573Y-159866380D01*
X110135202Y-159911397D01*
X110111361Y-159944721D01*
X110096896Y-159963597D01*
X110094911Y-159965787D01*
X110084793Y-159961138D01*
X110062452Y-159943962D01*
X110031882Y-159917440D01*
X110016138Y-159902964D01*
X109919649Y-159827682D01*
X109812938Y-159772241D01*
X109697434Y-159737141D01*
X109574564Y-159722880D01*
X109505163Y-159724051D01*
X109384025Y-159741212D01*
X109274807Y-159777094D01*
X109177184Y-159831959D01*
X109090830Y-159906070D01*
X109015417Y-159999688D01*
X108950620Y-160113076D01*
X108913203Y-160199667D01*
X108869350Y-160335366D01*
X108837030Y-160482850D01*
X108816159Y-160638314D01*
X108806653Y-160797956D01*
X108808429Y-160957973D01*
X108821405Y-161114561D01*
X108845496Y-161263918D01*
X108880620Y-161402240D01*
X108926694Y-161525724D01*
X108942975Y-161559978D01*
X109011222Y-161674064D01*
X109091681Y-161770557D01*
X109183172Y-161848670D01*
X109284513Y-161907617D01*
X109394522Y-161946612D01*
X109512017Y-161964868D01*
X109553485Y-161966211D01*
X109675043Y-161955290D01*
X109795480Y-161922474D01*
X109913268Y-161868439D01*
X110026879Y-161793865D01*
X110118287Y-161715539D01*
X110164817Y-161671008D01*
X110346085Y-161968271D01*
X110391182Y-162042433D01*
X110432421Y-162110646D01*
X110468337Y-162170459D01*
X110497468Y-162219420D01*
X110518352Y-162255079D01*
X110529526Y-162274984D01*
X110530977Y-162278079D01*
X110522748Y-162287718D01*
X110497169Y-162304999D01*
X110457475Y-162328283D01*
X110406899Y-162355934D01*
X110348676Y-162386315D01*
X110286039Y-162417790D01*
X110222223Y-162448722D01*
X110160462Y-162477473D01*
X110103990Y-162502408D01*
X110056040Y-162521889D01*
X110032588Y-162530318D01*
X109898823Y-162568133D01*
X109760929Y-162593136D01*
X109613224Y-162606140D01*
X109486435Y-162608468D01*
X109418480Y-162607373D01*
X109352879Y-162605275D01*
X109295449Y-162602434D01*
X109252005Y-162599106D01*
X109237900Y-162597422D01*
X109098886Y-162568587D01*
X108957359Y-162523468D01*
X108819877Y-162464750D01*
X108692996Y-162395120D01*
X108615491Y-162342441D01*
X108488083Y-162234239D01*
X108369780Y-162107671D01*
X108262774Y-161965866D01*
X108169254Y-161811951D01*
X108091412Y-161649053D01*
X108047558Y-161531756D01*
X107997310Y-161348128D01*
X107963811Y-161153581D01*
X107947051Y-160952325D01*
X107947018Y-160748568D01*
X107963703Y-160546521D01*
X107997095Y-160350392D01*
X108047182Y-160164391D01*
X108050999Y-160152803D01*
X108113883Y-159990750D01*
X108190630Y-159842832D01*
X108283844Y-159704865D01*
X108396129Y-159572661D01*
X108439994Y-159527399D01*
X108576136Y-159403457D01*
X108716093Y-159300915D01*
X108862013Y-159218656D01*
X109016044Y-159155564D01*
X109180334Y-159110523D01*
X109275891Y-159093033D01*
X109434625Y-159077466D01*
X109593031Y-159080071D01*
G36*
X115493425Y-163405533D02*
G01*
X115524804Y-163427776D01*
X115552513Y-163455485D01*
X115552513Y-163764920D01*
X115552440Y-163856799D01*
X115552097Y-163928840D01*
X115551294Y-163983780D01*
X115549843Y-164024360D01*
X115547554Y-164053317D01*
X115544238Y-164073391D01*
X115539707Y-164087321D01*
X115533771Y-164097845D01*
X115529116Y-164104100D01*
X115498385Y-164128673D01*
X115463098Y-164131341D01*
X115430847Y-164116271D01*
X115420190Y-164107374D01*
X115413066Y-164095557D01*
X115408769Y-164076526D01*
X115406593Y-164045992D01*
X115405830Y-163999662D01*
X115405757Y-163963871D01*
X115405757Y-163829045D01*
X114909046Y-163829045D01*
X114909046Y-163951700D01*
X114908533Y-164007787D01*
X114906478Y-164046333D01*
X114902110Y-164072361D01*
X114894658Y-164090897D01*
X114885649Y-164104100D01*
X114854746Y-164128604D01*
X114819798Y-164131506D01*
X114786340Y-164114089D01*
X114777206Y-164104959D01*
X114770754Y-164092855D01*
X114766499Y-164074001D01*
X114763954Y-164044620D01*
X114762631Y-164000937D01*
X114762045Y-163939175D01*
X114761977Y-163925000D01*
X114761493Y-163808631D01*
X114761243Y-163712727D01*
X114761325Y-163635177D01*
X114761833Y-163573869D01*
X114762864Y-163526690D01*
X114764515Y-163491530D01*
X114766881Y-163466276D01*
X114770059Y-163448817D01*
X114774146Y-163437041D01*
X114779236Y-163428835D01*
X114784868Y-163422645D01*
X114816730Y-163402844D01*
X114849959Y-163405533D01*
X114881337Y-163427776D01*
X114894035Y-163442126D01*
X114902128Y-163457978D01*
X114906644Y-163480554D01*
X114908608Y-163515078D01*
X114909046Y-163566776D01*
X114909046Y-163682289D01*
X115405757Y-163682289D01*
X115405757Y-163563756D01*
X115406264Y-163509148D01*
X115408300Y-163472275D01*
X115412637Y-163448307D01*
X115420049Y-163432415D01*
X115428335Y-163422645D01*
X115460196Y-163402844D01*
X115493425Y-163405533D01*
G37*
X115493425Y-163405533D02*
X115524804Y-163427776D01*
X115552513Y-163455485D01*
X115552513Y-163764920D01*
X115552440Y-163856799D01*
X115552097Y-163928840D01*
X115551294Y-163983780D01*
X115549843Y-164024360D01*
X115547554Y-164053317D01*
X115544238Y-164073391D01*
X115539707Y-164087321D01*
X115533771Y-164097845D01*
X115529116Y-164104100D01*
X115498385Y-164128673D01*
X115463098Y-164131341D01*
X115430847Y-164116271D01*
X115420190Y-164107374D01*
X115413066Y-164095557D01*
X115408769Y-164076526D01*
X115406593Y-164045992D01*
X115405830Y-163999662D01*
X115405757Y-163963871D01*
X115405757Y-163829045D01*
X114909046Y-163829045D01*
X114909046Y-163951700D01*
X114908533Y-164007787D01*
X114906478Y-164046333D01*
X114902110Y-164072361D01*
X114894658Y-164090897D01*
X114885649Y-164104100D01*
X114854746Y-164128604D01*
X114819798Y-164131506D01*
X114786340Y-164114089D01*
X114777206Y-164104959D01*
X114770754Y-164092855D01*
X114766499Y-164074001D01*
X114763954Y-164044620D01*
X114762631Y-164000937D01*
X114762045Y-163939175D01*
X114761977Y-163925000D01*
X114761493Y-163808631D01*
X114761243Y-163712727D01*
X114761325Y-163635177D01*
X114761833Y-163573869D01*
X114762864Y-163526690D01*
X114764515Y-163491530D01*
X114766881Y-163466276D01*
X114770059Y-163448817D01*
X114774146Y-163437041D01*
X114779236Y-163428835D01*
X114784868Y-163422645D01*
X114816730Y-163402844D01*
X114849959Y-163405533D01*
X114881337Y-163427776D01*
X114894035Y-163442126D01*
X114902128Y-163457978D01*
X114906644Y-163480554D01*
X114908608Y-163515078D01*
X114909046Y-163566776D01*
X114909046Y-163682289D01*
X115405757Y-163682289D01*
X115405757Y-163563756D01*
X115406264Y-163509148D01*
X115408300Y-163472275D01*
X115412637Y-163448307D01*
X115420049Y-163432415D01*
X115428335Y-163422645D01*
X115460196Y-163402844D01*
X115493425Y-163405533D01*
G36*
X113453216Y-163406877D02*
G01*
X113476929Y-163421647D01*
X113503580Y-163443227D01*
X113503580Y-163764773D01*
X113503495Y-163858830D01*
X113503131Y-163932932D01*
X113502326Y-163989704D01*
X113500915Y-164031768D01*
X113498735Y-164061748D01*
X113495623Y-164082267D01*
X113491416Y-164095949D01*
X113485950Y-164105416D01*
X113482074Y-164110082D01*
X113450636Y-164130575D01*
X113414835Y-164129739D01*
X113383475Y-164112264D01*
X113356824Y-164090684D01*
X113356824Y-163443227D01*
X113383475Y-163421647D01*
X113409196Y-163405949D01*
X113430202Y-163400067D01*
X113453216Y-163406877D01*
G37*
X113453216Y-163406877D02*
X113476929Y-163421647D01*
X113503580Y-163443227D01*
X113503580Y-163764773D01*
X113503495Y-163858830D01*
X113503131Y-163932932D01*
X113502326Y-163989704D01*
X113500915Y-164031768D01*
X113498735Y-164061748D01*
X113495623Y-164082267D01*
X113491416Y-164095949D01*
X113485950Y-164105416D01*
X113482074Y-164110082D01*
X113450636Y-164130575D01*
X113414835Y-164129739D01*
X113383475Y-164112264D01*
X113356824Y-164090684D01*
X113356824Y-163443227D01*
X113383475Y-163421647D01*
X113409196Y-163405949D01*
X113430202Y-163400067D01*
X113453216Y-163406877D01*
G36*
X102993604Y-163476055D02*
G01*
X103001772Y-163442778D01*
X103015046Y-163420759D01*
X103034628Y-163407739D01*
X103061719Y-163401457D01*
X103097520Y-163399653D01*
X103143231Y-163400066D01*
X103182713Y-163400467D01*
X103298402Y-163403259D01*
X103395291Y-163411550D01*
X103476683Y-163426232D01*
X103545879Y-163448193D01*
X103606182Y-163478322D01*
X103660894Y-163517510D01*
X103680435Y-163534532D01*
X103712852Y-163574363D01*
X103742082Y-163628413D01*
X103764611Y-163688323D01*
X103776923Y-163745739D01*
X103778202Y-163766956D01*
X103770185Y-163825769D01*
X103748703Y-163890013D01*
X103717603Y-163950821D01*
X103680736Y-163999330D01*
X103674748Y-164005182D01*
X103624023Y-164046321D01*
X103568477Y-164078435D01*
X103504906Y-164102365D01*
X103430108Y-164118953D01*
X103340880Y-164129041D01*
X103234020Y-164133469D01*
X103185074Y-164133845D01*
X103122840Y-164133545D01*
X103079074Y-164132292D01*
X103049671Y-164129554D01*
X103030523Y-164124801D01*
X103017525Y-164117501D01*
X103010557Y-164111267D01*
X103003976Y-164103694D01*
X102998814Y-164093924D01*
X102994899Y-164079340D01*
X102992059Y-164057326D01*
X102990122Y-164025264D01*
X102989094Y-163987089D01*
X103134735Y-163987089D01*
X103227868Y-163987004D01*
X103283909Y-163985396D01*
X103342603Y-163981256D01*
X103391574Y-163975464D01*
X103393064Y-163975226D01*
X103472210Y-163956090D01*
X103533600Y-163926287D01*
X103580297Y-163883878D01*
X103609967Y-163837961D01*
X103628249Y-163787026D01*
X103626831Y-163739200D01*
X103605614Y-163687933D01*
X103564113Y-163634899D01*
X103506604Y-163595600D01*
X103431852Y-163569331D01*
X103381894Y-163560035D01*
X103325186Y-163553507D01*
X103265083Y-163548782D01*
X103213963Y-163546817D01*
X103210935Y-163546808D01*
X103134735Y-163546822D01*
X103134735Y-163987089D01*
X102989094Y-163987089D01*
X102988918Y-163980536D01*
X102988274Y-163920526D01*
X102988019Y-163842617D01*
X102987980Y-163766956D01*
X102987732Y-163666041D01*
X102987785Y-163585427D01*
X102988745Y-163546822D01*
X102989342Y-163522851D01*
X102993604Y-163476055D01*
G37*
X102993604Y-163476055D02*
X103001772Y-163442778D01*
X103015046Y-163420759D01*
X103034628Y-163407739D01*
X103061719Y-163401457D01*
X103097520Y-163399653D01*
X103143231Y-163400066D01*
X103182713Y-163400467D01*
X103298402Y-163403259D01*
X103395291Y-163411550D01*
X103476683Y-163426232D01*
X103545879Y-163448193D01*
X103606182Y-163478322D01*
X103660894Y-163517510D01*
X103680435Y-163534532D01*
X103712852Y-163574363D01*
X103742082Y-163628413D01*
X103764611Y-163688323D01*
X103776923Y-163745739D01*
X103778202Y-163766956D01*
X103770185Y-163825769D01*
X103748703Y-163890013D01*
X103717603Y-163950821D01*
X103680736Y-163999330D01*
X103674748Y-164005182D01*
X103624023Y-164046321D01*
X103568477Y-164078435D01*
X103504906Y-164102365D01*
X103430108Y-164118953D01*
X103340880Y-164129041D01*
X103234020Y-164133469D01*
X103185074Y-164133845D01*
X103122840Y-164133545D01*
X103079074Y-164132292D01*
X103049671Y-164129554D01*
X103030523Y-164124801D01*
X103017525Y-164117501D01*
X103010557Y-164111267D01*
X103003976Y-164103694D01*
X102998814Y-164093924D01*
X102994899Y-164079340D01*
X102992059Y-164057326D01*
X102990122Y-164025264D01*
X102989094Y-163987089D01*
X103134735Y-163987089D01*
X103227868Y-163987004D01*
X103283909Y-163985396D01*
X103342603Y-163981256D01*
X103391574Y-163975464D01*
X103393064Y-163975226D01*
X103472210Y-163956090D01*
X103533600Y-163926287D01*
X103580297Y-163883878D01*
X103609967Y-163837961D01*
X103628249Y-163787026D01*
X103626831Y-163739200D01*
X103605614Y-163687933D01*
X103564113Y-163634899D01*
X103506604Y-163595600D01*
X103431852Y-163569331D01*
X103381894Y-163560035D01*
X103325186Y-163553507D01*
X103265083Y-163548782D01*
X103213963Y-163546817D01*
X103210935Y-163546808D01*
X103134735Y-163546822D01*
X103134735Y-163987089D01*
X102989094Y-163987089D01*
X102988918Y-163980536D01*
X102988274Y-163920526D01*
X102988019Y-163842617D01*
X102987980Y-163766956D01*
X102987732Y-163666041D01*
X102987785Y-163585427D01*
X102988745Y-163546822D01*
X102989342Y-163522851D01*
X102993604Y-163476055D01*
D11*
%TO.C,D2*%
X61185000Y-106234000D02*
X61185000Y-108084000D01*
X61185000Y-108084000D02*
X62385000Y-108084000D01*
X62385000Y-106234000D02*
X62385000Y-108084000D01*
%TO.C,D3*%
X62417000Y-101284000D02*
X62417000Y-99434000D01*
X62417000Y-99434000D02*
X61217000Y-99434000D01*
X61217000Y-101284000D02*
X61217000Y-99434000D01*
%TO.C,D1*%
X61185000Y-105094000D02*
X61185000Y-103244000D01*
X62385000Y-103244000D02*
X61185000Y-103244000D01*
X62385000Y-105094000D02*
X62385000Y-103244000D01*
%TO.C,J1*%
X52113000Y-100710000D02*
X50213000Y-100710000D01*
X56013000Y-100710000D02*
X54013000Y-100710000D01*
X52113000Y-110110000D02*
X50213000Y-110110000D01*
X56013000Y-110110000D02*
X54013000Y-110110000D01*
X50213000Y-100710000D02*
X50213000Y-110110000D01*
%TO.C,D5*%
X66707500Y-97309000D02*
X66707500Y-98779000D01*
X66707500Y-98779000D02*
X68992500Y-98779000D01*
X68992500Y-97309000D02*
X66707500Y-97309000D01*
%TO.C,R1*%
X57665742Y-99328500D02*
X58140258Y-99328500D01*
X57665742Y-98283500D02*
X58140258Y-98283500D01*
%TO.C,D4*%
X70043000Y-99442000D02*
X64643000Y-99442000D01*
X70043000Y-102742000D02*
X64643000Y-102742000D01*
X70043000Y-102742000D02*
X70043000Y-99442000D01*
%TO.C,C1*%
X70800000Y-99708580D02*
X70800000Y-99427420D01*
X71820000Y-99708580D02*
X71820000Y-99427420D01*
%TO.C,R2*%
X57674742Y-111491500D02*
X58149258Y-111491500D01*
X57674742Y-112536500D02*
X58149258Y-112536500D01*
%TD*%
%LPC*%
%TO.C,G\u002A\u002A\u002A*%
G36*
X96147906Y-163452130D02*
G01*
X95662246Y-163452130D01*
X95662246Y-159874437D01*
X96147906Y-159874437D01*
X96147906Y-163452130D01*
G37*
G36*
X72769854Y-162511421D02*
G01*
X72857890Y-162552513D01*
X72927159Y-162617011D01*
X72974447Y-162701651D01*
X72996541Y-162803171D01*
X72997773Y-162833718D01*
X72983451Y-162936571D01*
X72940562Y-163024937D01*
X72870588Y-163096399D01*
X72816652Y-163129932D01*
X72751076Y-163151299D01*
X72671816Y-163159747D01*
X72592645Y-163155095D01*
X72527338Y-163137162D01*
X72520564Y-163133834D01*
X72432679Y-163071717D01*
X72372444Y-162992851D01*
X72340194Y-162897783D01*
X72334394Y-162828867D01*
X72348860Y-162724945D01*
X72389960Y-162636448D01*
X72454249Y-162566822D01*
X72538282Y-162519510D01*
X72638615Y-162497959D01*
X72666262Y-162496999D01*
X72769854Y-162511421D01*
G37*
G36*
X72845709Y-160534320D02*
G01*
X73015914Y-160563728D01*
X73194173Y-160609276D01*
X73278514Y-160635824D01*
X73539086Y-160739316D01*
X73782161Y-160869065D01*
X74006354Y-161023245D01*
X74210281Y-161200030D01*
X74392557Y-161397594D01*
X74551798Y-161614111D01*
X74686619Y-161847755D01*
X74795636Y-162096701D01*
X74877465Y-162359122D01*
X74930722Y-162633191D01*
X74950879Y-162841650D01*
X74953210Y-162928989D01*
X74951678Y-163027338D01*
X74946839Y-163129077D01*
X74939249Y-163226584D01*
X74929465Y-163312238D01*
X74918044Y-163378417D01*
X74909473Y-163408811D01*
X74893494Y-163429689D01*
X74858494Y-163452195D01*
X74800085Y-163478715D01*
X74733769Y-163504345D01*
X74571584Y-163564323D01*
X74371695Y-163506812D01*
X74296525Y-163485012D01*
X74233721Y-163466472D01*
X74189229Y-163452971D01*
X74169001Y-163446290D01*
X74168419Y-163445979D01*
X74170682Y-163429998D01*
X74179952Y-163391681D01*
X74192304Y-163346214D01*
X74203455Y-163297444D01*
X74211364Y-163238582D01*
X74216452Y-163163822D01*
X74219140Y-163067359D01*
X74219851Y-162966470D01*
X74217885Y-162824996D01*
X74210612Y-162706851D01*
X74196425Y-162603197D01*
X74173720Y-162505199D01*
X74140888Y-162404019D01*
X74097557Y-162293781D01*
X74000123Y-162099852D01*
X73874887Y-161915615D01*
X73725963Y-161745303D01*
X73557461Y-161593150D01*
X73373495Y-161463387D01*
X73200495Y-161370348D01*
X73108579Y-161332745D01*
X73003641Y-161297600D01*
X72895416Y-161267526D01*
X72793641Y-161245136D01*
X72708050Y-161233041D01*
X72684000Y-161231730D01*
X72631301Y-161233462D01*
X72597323Y-161244790D01*
X72568784Y-161270419D01*
X72566124Y-161273476D01*
X72533685Y-161329016D01*
X72531516Y-161381116D01*
X72557509Y-161426370D01*
X72609558Y-161461373D01*
X72685554Y-161482719D01*
X72696544Y-161484246D01*
X72903933Y-161526014D01*
X73100515Y-161596942D01*
X73283921Y-161694934D01*
X73451780Y-161817890D01*
X73601722Y-161963713D01*
X73731379Y-162130306D01*
X73838379Y-162315570D01*
X73920353Y-162517407D01*
X73941159Y-162586037D01*
X73960507Y-162679443D01*
X73974426Y-162799341D01*
X73981214Y-162911128D01*
X73981601Y-163080885D01*
X73967136Y-163230653D01*
X73936312Y-163369944D01*
X73887618Y-163508269D01*
X73885727Y-163512837D01*
X73836918Y-163630205D01*
X73761532Y-163628793D01*
X73709319Y-163624746D01*
X73639004Y-163615298D01*
X73564035Y-163602316D01*
X73548543Y-163599231D01*
X73470508Y-163580560D01*
X73405295Y-163557152D01*
X73339400Y-163523322D01*
X73277383Y-163485106D01*
X73220643Y-163447630D01*
X73175890Y-163416264D01*
X73149004Y-163395231D01*
X73143887Y-163389206D01*
X73151590Y-163370008D01*
X73170386Y-163335988D01*
X73173684Y-163330520D01*
X73230880Y-163206691D01*
X73261531Y-163070202D01*
X73265445Y-162927199D01*
X73242432Y-162783829D01*
X73194752Y-162651390D01*
X73115242Y-162513635D01*
X73017467Y-162400816D01*
X72899730Y-162311743D01*
X72760335Y-162245230D01*
X72597587Y-162200088D01*
X72534869Y-162189129D01*
X72374294Y-162149861D01*
X72230411Y-162083831D01*
X72105094Y-161992164D01*
X72000220Y-161875988D01*
X71990037Y-161861796D01*
X71918111Y-161745943D01*
X71869782Y-161633962D01*
X71840275Y-161514124D01*
X71835323Y-161481877D01*
X71827749Y-161316859D01*
X71849902Y-161158650D01*
X71899738Y-161010456D01*
X71975214Y-160875484D01*
X72074286Y-160756941D01*
X72194912Y-160658034D01*
X72335049Y-160581969D01*
X72430417Y-160547810D01*
X72548262Y-160525874D01*
X72688259Y-160521539D01*
X72845709Y-160534320D01*
G37*
G36*
X83387198Y-159874629D02*
G01*
X83584767Y-159874762D01*
X83752828Y-159875216D01*
X83894255Y-159876220D01*
X84011917Y-159878003D01*
X84108687Y-159880796D01*
X84187434Y-159884826D01*
X84251029Y-159890325D01*
X84302345Y-159897521D01*
X84344251Y-159906643D01*
X84379619Y-159917921D01*
X84411319Y-159931585D01*
X84442223Y-159947863D01*
X84464528Y-159960706D01*
X84522405Y-160002174D01*
X84585842Y-160059299D01*
X84645477Y-160122553D01*
X84691952Y-160182403D01*
X84707192Y-160207807D01*
X84722452Y-160240125D01*
X84734878Y-160274556D01*
X84744770Y-160314711D01*
X84752423Y-160364202D01*
X84758137Y-160426643D01*
X84762208Y-160505644D01*
X84764934Y-160604819D01*
X84766613Y-160727778D01*
X84767542Y-160878135D01*
X84767760Y-160942888D01*
X84768004Y-161097425D01*
X84767673Y-161223241D01*
X84766625Y-161323992D01*
X84764718Y-161403333D01*
X84761810Y-161464918D01*
X84757759Y-161512401D01*
X84752424Y-161549437D01*
X84745661Y-161579681D01*
X84742603Y-161590434D01*
X84691076Y-161714286D01*
X84617132Y-161824410D01*
X84525444Y-161915787D01*
X84420682Y-161983393D01*
X84351200Y-162011172D01*
X84321661Y-162019689D01*
X84291363Y-162026582D01*
X84256640Y-162032024D01*
X84213827Y-162036183D01*
X84159257Y-162039229D01*
X84089266Y-162041331D01*
X84000188Y-162042661D01*
X83888357Y-162043387D01*
X83750108Y-162043679D01*
X83648559Y-162043717D01*
X83051284Y-162043717D01*
X83051284Y-163452130D01*
X82549436Y-163452130D01*
X82549436Y-161608679D01*
X83051284Y-161608679D01*
X83565274Y-161603604D01*
X83709096Y-161602061D01*
X83824299Y-161600419D01*
X83914638Y-161598433D01*
X83983870Y-161595861D01*
X84035753Y-161592460D01*
X84074041Y-161587987D01*
X84102494Y-161582198D01*
X84124867Y-161574850D01*
X84144018Y-161566151D01*
X84204490Y-161521693D01*
X84245197Y-161461542D01*
X84256499Y-161437730D01*
X84265187Y-161413779D01*
X84271604Y-161385224D01*
X84276092Y-161347600D01*
X84278995Y-161296439D01*
X84280655Y-161227276D01*
X84281415Y-161135645D01*
X84281618Y-161017081D01*
X84281622Y-160987098D01*
X84281096Y-160842011D01*
X84279141Y-160725409D01*
X84275189Y-160633411D01*
X84268670Y-160562135D01*
X84259018Y-160507700D01*
X84245663Y-160466227D01*
X84228038Y-160433833D01*
X84205575Y-160406637D01*
X84195147Y-160396382D01*
X84169451Y-160373664D01*
X84143224Y-160355397D01*
X84112750Y-160341099D01*
X84074316Y-160330286D01*
X84024207Y-160322475D01*
X83958707Y-160317184D01*
X83874103Y-160313929D01*
X83766679Y-160312228D01*
X83632722Y-160311597D01*
X83542622Y-160311531D01*
X83051284Y-160311531D01*
X83051284Y-161608679D01*
X82549436Y-161608679D01*
X82549436Y-159874437D01*
X83387198Y-159874629D01*
G37*
G36*
X81918078Y-160327719D02*
G01*
X81217919Y-160327780D01*
X81048575Y-160327856D01*
X80908551Y-160328138D01*
X80794787Y-160328754D01*
X80704227Y-160329834D01*
X80633813Y-160331506D01*
X80580486Y-160333898D01*
X80541188Y-160337139D01*
X80512861Y-160341358D01*
X80492448Y-160346684D01*
X80476890Y-160353245D01*
X80465969Y-160359419D01*
X80439402Y-160378983D01*
X80418689Y-160404027D01*
X80403216Y-160438406D01*
X80392369Y-160485971D01*
X80385532Y-160550579D01*
X80382091Y-160636081D01*
X80381432Y-160746333D01*
X80382867Y-160880490D01*
X80388250Y-161233711D01*
X80441140Y-161286611D01*
X80494030Y-161339510D01*
X81007743Y-161348932D01*
X81156649Y-161351906D01*
X81277015Y-161354959D01*
X81372677Y-161358334D01*
X81447472Y-161362274D01*
X81505236Y-161367023D01*
X81549807Y-161372823D01*
X81585020Y-161379919D01*
X81610494Y-161387162D01*
X81748620Y-161442589D01*
X81858525Y-161511498D01*
X81942417Y-161596309D01*
X82002505Y-161699446D01*
X82040997Y-161823331D01*
X82049207Y-161868348D01*
X82054179Y-161919992D01*
X82057639Y-161997324D01*
X82059673Y-162094659D01*
X82060365Y-162206308D01*
X82059801Y-162326583D01*
X82058067Y-162449798D01*
X82055248Y-162570266D01*
X82051430Y-162682297D01*
X82046698Y-162780205D01*
X82041137Y-162858303D01*
X82034833Y-162910903D01*
X82033434Y-162918128D01*
X81987953Y-163067836D01*
X81921719Y-163194607D01*
X81835646Y-163297228D01*
X81730645Y-163374487D01*
X81667034Y-163404978D01*
X81570022Y-163444035D01*
X79894496Y-163453497D01*
X79894496Y-162998847D01*
X80654601Y-162998847D01*
X80848993Y-162998590D01*
X81012854Y-162997788D01*
X81148028Y-162996397D01*
X81256356Y-162994373D01*
X81339683Y-162991671D01*
X81399850Y-162988247D01*
X81438700Y-162984056D01*
X81457154Y-162979507D01*
X81482743Y-162965945D01*
X81502889Y-162948752D01*
X81518236Y-162924178D01*
X81529431Y-162888474D01*
X81537119Y-162837887D01*
X81541946Y-162768668D01*
X81544557Y-162677066D01*
X81545598Y-162559331D01*
X81545739Y-162464906D01*
X81545361Y-162327430D01*
X81543831Y-162218299D01*
X81540550Y-162133482D01*
X81534923Y-162068951D01*
X81526352Y-162020678D01*
X81514241Y-161984634D01*
X81497994Y-161956789D01*
X81477012Y-161933116D01*
X81465366Y-161922302D01*
X81453377Y-161913111D01*
X81437804Y-161905700D01*
X81415021Y-161899777D01*
X81381405Y-161895047D01*
X81333331Y-161891219D01*
X81267175Y-161887998D01*
X81179312Y-161885092D01*
X81066117Y-161882207D01*
X80932953Y-161879245D01*
X80800072Y-161875828D01*
X80676890Y-161871595D01*
X80567786Y-161866771D01*
X80477138Y-161861579D01*
X80409325Y-161856246D01*
X80368726Y-161850994D01*
X80364671Y-161850082D01*
X80240861Y-161804286D01*
X80128319Y-161735443D01*
X80033631Y-161648566D01*
X79963383Y-161548669D01*
X79959832Y-161541869D01*
X79940894Y-161499686D01*
X79925859Y-161452654D01*
X79914319Y-161396673D01*
X79905862Y-161327643D01*
X79900080Y-161241464D01*
X79896562Y-161134036D01*
X79894898Y-161001260D01*
X79894618Y-160889478D01*
X79895465Y-160725753D01*
X79898137Y-160590493D01*
X79902987Y-160479816D01*
X79910369Y-160389845D01*
X79920635Y-160316698D01*
X79934138Y-160256497D01*
X79951231Y-160205361D01*
X79958416Y-160188232D01*
X79996690Y-160121626D01*
X80049905Y-160054054D01*
X80108742Y-159996052D01*
X80160392Y-159959905D01*
X80193171Y-159943589D01*
X80225180Y-159929845D01*
X80259470Y-159918420D01*
X80299096Y-159909064D01*
X80347111Y-159901524D01*
X80406568Y-159895549D01*
X80480520Y-159890887D01*
X80572021Y-159887287D01*
X80684123Y-159884496D01*
X80819881Y-159882264D01*
X80982346Y-159880338D01*
X81145070Y-159878741D01*
X81918078Y-159871515D01*
X81918078Y-160327719D01*
G37*
G36*
X86065359Y-159890626D02*
G01*
X86263561Y-159890707D01*
X86432234Y-159891136D01*
X86574225Y-159892193D01*
X86692383Y-159894155D01*
X86789555Y-159897302D01*
X86868590Y-159901911D01*
X86932335Y-159908263D01*
X86983637Y-159916636D01*
X87025346Y-159927308D01*
X87060309Y-159940559D01*
X87091373Y-159956666D01*
X87121387Y-159975909D01*
X87150869Y-159996875D01*
X87215747Y-160052221D01*
X87267189Y-160116516D01*
X87307070Y-160194404D01*
X87337264Y-160290529D01*
X87359647Y-160409533D01*
X87375944Y-160554361D01*
X87381872Y-160647192D01*
X87385372Y-160757416D01*
X87386593Y-160878941D01*
X87385683Y-161005673D01*
X87382789Y-161131520D01*
X87378060Y-161250388D01*
X87371644Y-161356183D01*
X87363689Y-161442815D01*
X87354343Y-161504188D01*
X87352681Y-161511451D01*
X87312741Y-161624408D01*
X87253917Y-161711742D01*
X87174494Y-161775278D01*
X87072756Y-161816842D01*
X87063571Y-161819281D01*
X87009845Y-161835902D01*
X86987946Y-161850359D01*
X86997438Y-161863199D01*
X87021986Y-161871383D01*
X87055036Y-161886992D01*
X87099323Y-161916823D01*
X87126532Y-161938572D01*
X87158345Y-161967954D01*
X87186526Y-161999964D01*
X87212132Y-162037655D01*
X87236221Y-162084079D01*
X87259848Y-162142291D01*
X87284071Y-162215343D01*
X87309946Y-162306288D01*
X87338531Y-162418181D01*
X87370882Y-162554073D01*
X87408056Y-162717017D01*
X87430155Y-162815752D01*
X87460610Y-162952850D01*
X87488730Y-163080260D01*
X87513756Y-163194474D01*
X87534927Y-163291986D01*
X87551482Y-163369290D01*
X87562662Y-163422878D01*
X87567705Y-163449244D01*
X87567919Y-163451157D01*
X87551795Y-163458527D01*
X87503556Y-163463852D01*
X87423398Y-163467118D01*
X87311521Y-163468313D01*
X87301954Y-163468318D01*
X87035988Y-163468318D01*
X87017860Y-163375234D01*
X86973431Y-163149378D01*
X86933713Y-162953037D01*
X86898016Y-162783798D01*
X86865649Y-162639254D01*
X86835921Y-162516994D01*
X86808141Y-162414607D01*
X86781617Y-162329686D01*
X86755659Y-162259818D01*
X86729575Y-162202595D01*
X86702675Y-162155607D01*
X86674267Y-162116444D01*
X86648649Y-162087745D01*
X86614402Y-162055768D01*
X86578256Y-162030653D01*
X86535914Y-162011592D01*
X86483077Y-161997784D01*
X86415447Y-161988421D01*
X86328724Y-161982701D01*
X86218612Y-161979817D01*
X86080810Y-161978967D01*
X86067530Y-161978962D01*
X85706223Y-161978962D01*
X85706223Y-163452130D01*
X85236752Y-163452130D01*
X85236752Y-161541869D01*
X85706223Y-161541869D01*
X86212119Y-161540955D01*
X86381208Y-161540072D01*
X86519061Y-161538067D01*
X86626802Y-161534898D01*
X86705554Y-161530525D01*
X86756440Y-161524908D01*
X86774675Y-161520719D01*
X86805758Y-161508395D01*
X86830589Y-161492580D01*
X86849861Y-161469771D01*
X86864268Y-161436466D01*
X86874504Y-161389165D01*
X86881264Y-161324364D01*
X86885242Y-161238563D01*
X86887131Y-161128259D01*
X86887627Y-160989951D01*
X86887614Y-160950983D01*
X86887055Y-160793456D01*
X86884551Y-160665234D01*
X86878467Y-160563244D01*
X86867171Y-160484416D01*
X86849030Y-160425678D01*
X86822410Y-160383959D01*
X86785678Y-160356186D01*
X86737201Y-160339289D01*
X86675344Y-160330196D01*
X86598476Y-160325836D01*
X86554458Y-160324486D01*
X86481218Y-160323156D01*
X86384344Y-160322399D01*
X86272577Y-160322229D01*
X86154655Y-160322660D01*
X86042138Y-160323672D01*
X85706223Y-160327719D01*
X85706223Y-161541869D01*
X85236752Y-161541869D01*
X85236752Y-159890626D01*
X86065359Y-159890626D01*
G37*
G36*
X95030889Y-160327719D02*
G01*
X94330729Y-160327780D01*
X94161386Y-160327856D01*
X94021361Y-160328138D01*
X93907598Y-160328754D01*
X93817038Y-160329834D01*
X93746624Y-160331506D01*
X93693296Y-160333898D01*
X93653998Y-160337139D01*
X93625672Y-160341358D01*
X93605259Y-160346684D01*
X93589701Y-160353245D01*
X93578780Y-160359419D01*
X93552368Y-160378843D01*
X93531773Y-160403682D01*
X93516380Y-160437793D01*
X93505574Y-160485031D01*
X93498741Y-160549254D01*
X93495268Y-160634317D01*
X93494539Y-160744077D01*
X93495900Y-160879672D01*
X93501061Y-161233725D01*
X93553951Y-161286618D01*
X93606841Y-161339510D01*
X94120554Y-161348932D01*
X94269460Y-161351906D01*
X94389826Y-161354959D01*
X94485488Y-161358334D01*
X94560283Y-161362274D01*
X94618047Y-161367023D01*
X94662617Y-161372823D01*
X94697830Y-161379919D01*
X94723304Y-161387162D01*
X94847536Y-161434930D01*
X94945154Y-161490906D01*
X95021683Y-161559382D01*
X95082648Y-161644657D01*
X95102777Y-161682144D01*
X95126148Y-161736942D01*
X95144519Y-161799783D01*
X95158237Y-161874447D01*
X95167646Y-161964714D01*
X95173092Y-162074364D01*
X95174920Y-162207177D01*
X95173475Y-162366932D01*
X95172033Y-162440339D01*
X95167232Y-162603707D01*
X95160248Y-162739055D01*
X95150389Y-162850705D01*
X95136966Y-162942978D01*
X95119286Y-163020199D01*
X95096660Y-163086688D01*
X95068395Y-163146768D01*
X95055411Y-163169880D01*
X94991714Y-163253563D01*
X94906502Y-163330155D01*
X94810574Y-163390545D01*
X94774251Y-163407071D01*
X94753352Y-163415284D01*
X94732779Y-163422198D01*
X94709646Y-163427942D01*
X94681066Y-163432647D01*
X94644153Y-163436442D01*
X94596021Y-163439456D01*
X94533783Y-163441819D01*
X94454553Y-163443660D01*
X94355445Y-163445109D01*
X94233572Y-163446295D01*
X94086049Y-163447348D01*
X93909988Y-163448398D01*
X93845070Y-163448766D01*
X93007307Y-163453497D01*
X93007307Y-162998847D01*
X93757664Y-162998847D01*
X93966154Y-162998466D01*
X94142720Y-162997317D01*
X94287804Y-162995388D01*
X94401850Y-162992671D01*
X94485302Y-162989155D01*
X94538602Y-162984831D01*
X94559494Y-162980904D01*
X94587877Y-162969258D01*
X94610270Y-162953913D01*
X94627378Y-162931195D01*
X94639906Y-162897430D01*
X94648561Y-162848944D01*
X94654046Y-162782062D01*
X94657068Y-162693112D01*
X94658331Y-162578420D01*
X94658550Y-162464906D01*
X94658172Y-162327430D01*
X94656641Y-162218299D01*
X94653361Y-162133482D01*
X94647733Y-162068951D01*
X94639163Y-162020678D01*
X94627052Y-161984634D01*
X94610804Y-161956789D01*
X94589823Y-161933116D01*
X94578176Y-161922302D01*
X94566188Y-161913111D01*
X94550614Y-161905700D01*
X94527832Y-161899777D01*
X94494216Y-161895047D01*
X94446142Y-161891219D01*
X94379986Y-161887998D01*
X94292122Y-161885092D01*
X94178927Y-161882207D01*
X94045764Y-161879245D01*
X93912883Y-161875828D01*
X93789701Y-161871595D01*
X93680597Y-161866771D01*
X93589949Y-161861579D01*
X93522135Y-161856246D01*
X93481536Y-161850994D01*
X93477481Y-161850082D01*
X93342296Y-161799710D01*
X93224857Y-161723474D01*
X93128044Y-161623712D01*
X93057903Y-161509491D01*
X93045708Y-161483359D01*
X93036060Y-161459142D01*
X93028612Y-161432745D01*
X93023015Y-161400072D01*
X93018924Y-161357028D01*
X93015991Y-161299516D01*
X93013868Y-161223440D01*
X93012210Y-161124705D01*
X93010668Y-160999215D01*
X93010054Y-160944860D01*
X93008791Y-160779490D01*
X93009293Y-160642522D01*
X93011889Y-160530013D01*
X93016910Y-160438021D01*
X93024686Y-160362602D01*
X93035547Y-160299812D01*
X93049824Y-160245710D01*
X93067847Y-160196352D01*
X93073971Y-160182021D01*
X93116551Y-160109051D01*
X93175643Y-160038114D01*
X93240942Y-159980643D01*
X93274420Y-159959619D01*
X93306676Y-159943376D01*
X93338337Y-159929690D01*
X93372445Y-159918312D01*
X93412044Y-159908990D01*
X93460176Y-159901474D01*
X93519883Y-159895515D01*
X93594209Y-159890861D01*
X93686195Y-159887264D01*
X93798885Y-159884472D01*
X93935322Y-159882236D01*
X94098547Y-159880304D01*
X94257880Y-159878741D01*
X95030889Y-159871515D01*
X95030889Y-160327719D01*
G37*
G36*
X78680347Y-159878248D02*
G01*
X79416931Y-159882531D01*
X79421429Y-160104183D01*
X79425926Y-160325835D01*
X78722432Y-160330824D01*
X78553059Y-160332069D01*
X78413038Y-160333282D01*
X78299345Y-160334622D01*
X78208956Y-160336247D01*
X78138846Y-160338313D01*
X78085990Y-160340980D01*
X78047365Y-160344403D01*
X78019946Y-160348742D01*
X78000709Y-160354154D01*
X77986629Y-160360796D01*
X77974681Y-160368826D01*
X77973256Y-160369883D01*
X77933303Y-160408029D01*
X77897575Y-160454989D01*
X77895197Y-160458921D01*
X77885312Y-160477870D01*
X77877558Y-160499927D01*
X77871608Y-160529235D01*
X77867137Y-160569938D01*
X77863817Y-160626179D01*
X77861322Y-160702100D01*
X77859326Y-160801844D01*
X77857502Y-160929556D01*
X77857383Y-160938841D01*
X77851946Y-161363793D01*
X79214573Y-161363793D01*
X79214573Y-161800887D01*
X77852670Y-161800887D01*
X77857745Y-162314877D01*
X77859287Y-162458700D01*
X77860930Y-162573902D01*
X77862916Y-162664241D01*
X77865487Y-162733473D01*
X77868889Y-162785356D01*
X77873362Y-162823645D01*
X77879151Y-162852097D01*
X77886498Y-162874470D01*
X77895197Y-162893621D01*
X77909451Y-162921496D01*
X77923820Y-162944738D01*
X77941208Y-162963769D01*
X77964522Y-162979010D01*
X77996667Y-162990882D01*
X78040549Y-162999805D01*
X78099074Y-163006201D01*
X78175147Y-163010491D01*
X78271674Y-163013096D01*
X78391560Y-163014437D01*
X78537712Y-163014935D01*
X78713035Y-163015010D01*
X78732960Y-163015011D01*
X79425025Y-163015036D01*
X79425025Y-163468318D01*
X78684394Y-163467031D01*
X78493799Y-163466454D01*
X78332972Y-163465389D01*
X78199304Y-163463764D01*
X78090187Y-163461506D01*
X78003014Y-163458543D01*
X77935178Y-163454802D01*
X77884071Y-163450209D01*
X77847085Y-163444693D01*
X77841219Y-163443487D01*
X77710146Y-163399733D01*
X77598120Y-163330421D01*
X77506748Y-163237272D01*
X77437638Y-163122007D01*
X77392398Y-162986348D01*
X77386261Y-162956408D01*
X77382555Y-162919114D01*
X77379288Y-162850105D01*
X77376469Y-162750043D01*
X77374105Y-162619588D01*
X77372206Y-162459399D01*
X77370781Y-162270138D01*
X77369838Y-162052465D01*
X77369385Y-161807039D01*
X77369347Y-161664357D01*
X77369464Y-161425665D01*
X77369777Y-161217035D01*
X77370410Y-161036151D01*
X77371483Y-160880699D01*
X77373121Y-160748363D01*
X77375444Y-160636828D01*
X77378576Y-160543780D01*
X77382640Y-160466901D01*
X77387757Y-160403878D01*
X77394050Y-160352396D01*
X77401642Y-160310138D01*
X77410654Y-160274790D01*
X77421211Y-160244036D01*
X77433433Y-160215562D01*
X77447443Y-160187051D01*
X77447493Y-160186954D01*
X77514365Y-160089614D01*
X77606209Y-160005740D01*
X77716931Y-159939679D01*
X77840435Y-159895779D01*
X77862820Y-159890717D01*
X77900903Y-159886501D01*
X77969558Y-159883059D01*
X78066988Y-159880418D01*
X78191397Y-159878607D01*
X78340989Y-159877651D01*
X78513966Y-159877580D01*
X78680347Y-159878248D01*
G37*
G36*
X73111450Y-159592276D02*
G01*
X73416091Y-159660768D01*
X73714516Y-159759641D01*
X74004114Y-159887100D01*
X74282273Y-160041350D01*
X74546384Y-160220595D01*
X74793836Y-160423041D01*
X75022019Y-160646893D01*
X75228321Y-160890355D01*
X75410132Y-161151632D01*
X75432836Y-161188464D01*
X75541646Y-161385160D01*
X75642223Y-161600886D01*
X75730802Y-161825913D01*
X75803617Y-162050514D01*
X75856902Y-162264960D01*
X75864481Y-162303613D01*
X75899440Y-162490661D01*
X75830365Y-162605983D01*
X75785988Y-162674452D01*
X75730383Y-162752391D01*
X75674027Y-162825245D01*
X75661987Y-162839840D01*
X75562683Y-162958376D01*
X75391808Y-162962946D01*
X75220934Y-162967515D01*
X75201892Y-162760587D01*
X75159675Y-162457786D01*
X75090022Y-162171873D01*
X74992402Y-161901723D01*
X74866283Y-161646214D01*
X74711135Y-161404220D01*
X74526425Y-161174617D01*
X74379625Y-161021029D01*
X74172698Y-160839622D01*
X73945952Y-160679744D01*
X73703433Y-160543195D01*
X73449188Y-160431776D01*
X73187264Y-160347288D01*
X72921708Y-160291531D01*
X72686497Y-160267576D01*
X72496281Y-160258201D01*
X72496281Y-159906895D01*
X72629837Y-159800556D01*
X72699971Y-159746901D01*
X72775039Y-159692984D01*
X72842963Y-159647359D01*
X72868620Y-159631430D01*
X72973846Y-159568644D01*
X73111450Y-159592276D01*
G37*
G36*
X72321854Y-159652592D02*
G01*
X72334394Y-159663985D01*
X72358935Y-159696345D01*
X72365983Y-159730910D01*
X72353971Y-159772207D01*
X72321336Y-159824763D01*
X72266513Y-159893107D01*
X72247693Y-159914866D01*
X72073052Y-160137944D01*
X71927910Y-160374206D01*
X71811770Y-160624638D01*
X71724138Y-160890229D01*
X71691960Y-161023832D01*
X71680390Y-161087037D01*
X71672086Y-161156053D01*
X71666628Y-161237345D01*
X71663597Y-161337382D01*
X71662573Y-161462631D01*
X71662565Y-161477114D01*
X71663561Y-161614354D01*
X71667318Y-161727249D01*
X71674991Y-161823790D01*
X71687733Y-161911969D01*
X71706701Y-161999779D01*
X71733048Y-162095210D01*
X71767862Y-162206055D01*
X71866357Y-162459048D01*
X71990195Y-162694107D01*
X72137216Y-162910201D01*
X72305257Y-163106299D01*
X72492156Y-163281368D01*
X72695752Y-163434379D01*
X72913881Y-163564298D01*
X73144383Y-163670095D01*
X73385094Y-163750738D01*
X73633854Y-163805197D01*
X73888500Y-163832438D01*
X74146869Y-163831433D01*
X74406801Y-163801147D01*
X74666133Y-163740552D01*
X74851921Y-163677323D01*
X75082973Y-163573459D01*
X75301773Y-163444726D01*
X75513430Y-163287971D01*
X75593524Y-163219987D01*
X75657526Y-163167114D01*
X75705419Y-163135947D01*
X75742036Y-163123499D01*
X75750501Y-163122960D01*
X75805651Y-163134345D01*
X75837861Y-163168576D01*
X75847332Y-163219834D01*
X75843090Y-163253998D01*
X75826841Y-163286042D01*
X75793308Y-163324302D01*
X75762342Y-163354038D01*
X75539823Y-163539655D01*
X75302152Y-163696693D01*
X75049695Y-163824993D01*
X74782816Y-163924392D01*
X74501881Y-163994730D01*
X74220372Y-164034665D01*
X74127835Y-164042623D01*
X74053542Y-164047061D01*
X73986456Y-164047961D01*
X73915538Y-164045306D01*
X73829749Y-164039078D01*
X73770224Y-164033945D01*
X73491837Y-163993431D01*
X73222397Y-163923062D01*
X72964002Y-163824490D01*
X72718751Y-163699364D01*
X72488742Y-163549335D01*
X72276074Y-163376054D01*
X72082846Y-163181171D01*
X71911157Y-162966336D01*
X71763105Y-162733200D01*
X71640789Y-162483414D01*
X71574032Y-162306821D01*
X71535483Y-162186682D01*
X71505921Y-162080338D01*
X71484222Y-161980121D01*
X71469262Y-161878365D01*
X71459917Y-161767401D01*
X71455063Y-161639562D01*
X71453575Y-161487181D01*
X71453573Y-161485208D01*
X71453863Y-161361138D01*
X71455277Y-161263089D01*
X71458247Y-161184714D01*
X71463206Y-161119664D01*
X71470587Y-161061591D01*
X71480824Y-161004148D01*
X71489074Y-160964779D01*
X71566629Y-160681732D01*
X71672489Y-160412293D01*
X71805626Y-160158521D01*
X71965014Y-159922476D01*
X72077120Y-159785304D01*
X72146594Y-159710470D01*
X72202329Y-159661420D01*
X72247802Y-159636516D01*
X72286485Y-159634119D01*
X72321854Y-159652592D01*
G37*
G36*
X92440704Y-160326750D02*
G01*
X91000624Y-160335814D01*
X90910876Y-160425526D01*
X90906016Y-160812949D01*
X90904755Y-160947593D01*
X90905164Y-161053792D01*
X90907876Y-161135464D01*
X90913526Y-161196526D01*
X90922748Y-161240893D01*
X90936176Y-161272483D01*
X90954445Y-161295212D01*
X90978190Y-161312997D01*
X90987940Y-161318795D01*
X91009830Y-161325385D01*
X91052239Y-161331105D01*
X91117373Y-161336078D01*
X91207438Y-161340423D01*
X91324639Y-161344265D01*
X91471184Y-161347723D01*
X91534139Y-161348946D01*
X91678564Y-161351771D01*
X91794721Y-161354525D01*
X91886718Y-161357506D01*
X91958660Y-161361011D01*
X92014655Y-161365336D01*
X92058811Y-161370779D01*
X92095234Y-161377637D01*
X92128032Y-161386208D01*
X92151763Y-161393624D01*
X92286092Y-161451802D01*
X92395120Y-161530088D01*
X92478750Y-161628390D01*
X92536887Y-161746615D01*
X92546309Y-161775495D01*
X92554156Y-161819409D01*
X92560557Y-161890391D01*
X92565513Y-161983164D01*
X92569025Y-162092450D01*
X92571093Y-162212972D01*
X92571717Y-162339453D01*
X92570898Y-162466615D01*
X92568636Y-162589183D01*
X92564931Y-162701877D01*
X92559785Y-162799422D01*
X92553198Y-162876540D01*
X92546207Y-162923324D01*
X92501493Y-163072919D01*
X92436043Y-163199153D01*
X92350588Y-163301046D01*
X92245860Y-163377619D01*
X92184733Y-163406822D01*
X92163823Y-163415052D01*
X92143329Y-163421986D01*
X92120379Y-163427753D01*
X92092103Y-163432480D01*
X92055630Y-163436297D01*
X92008089Y-163439332D01*
X91946610Y-163441712D01*
X91868322Y-163443566D01*
X91770354Y-163445024D01*
X91649835Y-163446212D01*
X91503894Y-163447260D01*
X91329662Y-163448295D01*
X91246791Y-163448760D01*
X90400933Y-163453485D01*
X90400933Y-162999745D01*
X91970519Y-162990753D01*
X92015395Y-162945895D01*
X92060270Y-162901036D01*
X92065104Y-162487207D01*
X92066467Y-162360160D01*
X92067046Y-162261107D01*
X92066572Y-162185668D01*
X92064773Y-162129466D01*
X92061379Y-162088119D01*
X92056120Y-162057250D01*
X92048726Y-162032478D01*
X92038926Y-162009425D01*
X92035116Y-162001446D01*
X92017250Y-161966743D01*
X91998522Y-161939494D01*
X91974996Y-161918797D01*
X91942736Y-161903753D01*
X91897804Y-161893462D01*
X91836263Y-161887024D01*
X91754177Y-161883540D01*
X91647609Y-161882108D01*
X91512623Y-161881830D01*
X91511831Y-161881830D01*
X91330849Y-161880591D01*
X91178494Y-161876386D01*
X91051098Y-161868487D01*
X90944987Y-161856165D01*
X90856492Y-161838693D01*
X90781940Y-161815340D01*
X90717661Y-161785378D01*
X90659984Y-161748079D01*
X90605236Y-161702714D01*
X90604062Y-161701642D01*
X90551430Y-161648705D01*
X90508059Y-161592705D01*
X90473303Y-161530270D01*
X90446514Y-161458029D01*
X90427048Y-161372608D01*
X90414258Y-161270635D01*
X90407499Y-161148738D01*
X90406123Y-161003544D01*
X90409486Y-160831681D01*
X90413748Y-160708153D01*
X90419218Y-160576135D01*
X90424492Y-160472158D01*
X90429984Y-160391892D01*
X90436111Y-160331006D01*
X90443286Y-160285169D01*
X90451924Y-160250051D01*
X90459772Y-160227743D01*
X90515384Y-160117181D01*
X90585401Y-160030996D01*
X90673277Y-159966824D01*
X90782464Y-159922300D01*
X90916412Y-159895058D01*
X90951348Y-159890961D01*
X91001697Y-159887436D01*
X91079931Y-159884166D01*
X91181558Y-159881242D01*
X91302086Y-159878750D01*
X91437022Y-159876781D01*
X91581875Y-159875422D01*
X91732153Y-159874764D01*
X91772922Y-159874718D01*
X92440704Y-159874437D01*
X92440704Y-160326750D01*
G37*
G36*
X98608581Y-160327719D02*
G01*
X97948894Y-160327745D01*
X97776354Y-160327824D01*
X97633118Y-160328310D01*
X97516112Y-160329592D01*
X97422261Y-160332063D01*
X97348493Y-160336112D01*
X97291733Y-160342131D01*
X97248908Y-160350511D01*
X97216944Y-160361644D01*
X97192767Y-160375919D01*
X97173304Y-160393728D01*
X97155480Y-160415462D01*
X97144659Y-160430052D01*
X97134924Y-160444810D01*
X97127216Y-160462093D01*
X97121250Y-160485729D01*
X97116741Y-160519548D01*
X97113403Y-160567376D01*
X97110952Y-160633043D01*
X97109103Y-160720376D01*
X97107570Y-160833204D01*
X97106383Y-160944042D01*
X97101635Y-161412359D01*
X98414318Y-161412359D01*
X98414318Y-161849453D01*
X97103037Y-161849453D01*
X97103037Y-163452130D01*
X96616747Y-163452130D01*
X96625471Y-160335814D01*
X96664528Y-160238801D01*
X96720290Y-160137913D01*
X96799776Y-160044839D01*
X96894410Y-159968154D01*
X96981741Y-159921700D01*
X97004649Y-159912685D01*
X97026526Y-159905162D01*
X97050435Y-159898974D01*
X97079442Y-159893966D01*
X97116611Y-159889981D01*
X97165007Y-159886863D01*
X97227693Y-159884455D01*
X97307734Y-159882601D01*
X97408195Y-159881144D01*
X97532141Y-159879929D01*
X97682634Y-159878799D01*
X97843668Y-159877722D01*
X98608581Y-159872690D01*
X98608581Y-160327719D01*
G37*
G36*
X74241121Y-159338785D02*
G01*
X74499384Y-159383116D01*
X74744642Y-159457087D01*
X74977066Y-159560767D01*
X75196824Y-159694225D01*
X75404084Y-159857529D01*
X75508012Y-159955298D01*
X75686344Y-160154619D01*
X75835415Y-160367730D01*
X75955022Y-160594138D01*
X76044960Y-160833347D01*
X76105025Y-161084862D01*
X76135012Y-161348189D01*
X76138663Y-161480745D01*
X76138728Y-161686735D01*
X76094209Y-161709383D01*
X76034309Y-161735957D01*
X75991876Y-161746641D01*
X75971975Y-161740838D01*
X75962733Y-161720443D01*
X75945323Y-161678383D01*
X75923266Y-161623189D01*
X75919936Y-161614717D01*
X75838634Y-161428914D01*
X75737323Y-161232061D01*
X75621330Y-161033267D01*
X75495982Y-160841641D01*
X75366606Y-160666291D01*
X75361298Y-160659587D01*
X75224316Y-160500764D01*
X75064171Y-160338201D01*
X74888373Y-160178524D01*
X74704431Y-160028360D01*
X74519857Y-159894336D01*
X74421565Y-159830383D01*
X74340973Y-159783258D01*
X74240749Y-159729103D01*
X74130049Y-159672471D01*
X74018032Y-159617911D01*
X73913855Y-159569977D01*
X73826675Y-159533220D01*
X73813338Y-159528083D01*
X73697700Y-159484401D01*
X73723344Y-159404212D01*
X73748987Y-159324023D01*
X73969686Y-159324023D01*
X74241121Y-159338785D01*
G37*
G36*
X88933851Y-159867877D02*
G01*
X89107472Y-159869349D01*
X89231303Y-159870744D01*
X89931462Y-159879156D01*
X89931462Y-160326740D01*
X88508960Y-160335814D01*
X88460872Y-160381898D01*
X88436772Y-160408503D01*
X88417711Y-160439549D01*
X88403122Y-160478955D01*
X88392435Y-160530640D01*
X88385083Y-160598522D01*
X88380499Y-160686520D01*
X88378114Y-160798554D01*
X88377359Y-160938543D01*
X88377351Y-160958151D01*
X88377351Y-161347605D01*
X89737198Y-161347605D01*
X89737198Y-161784698D01*
X88375711Y-161784698D01*
X88380578Y-162314877D01*
X88382030Y-162460877D01*
X88383568Y-162578099D01*
X88385419Y-162670139D01*
X88387807Y-162740597D01*
X88390960Y-162793069D01*
X88395101Y-162831155D01*
X88400457Y-162858452D01*
X88407254Y-162878558D01*
X88415718Y-162895072D01*
X88417112Y-162897407D01*
X88431842Y-162920943D01*
X88446988Y-162940523D01*
X88465498Y-162956513D01*
X88490318Y-162969276D01*
X88524397Y-162979175D01*
X88570683Y-162986575D01*
X88632124Y-162991838D01*
X88711667Y-162995329D01*
X88812260Y-162997412D01*
X88936851Y-162998450D01*
X89088388Y-162998807D01*
X89239146Y-162998847D01*
X89385054Y-162999000D01*
X89520700Y-162999436D01*
X89642712Y-163000123D01*
X89747719Y-163001029D01*
X89832350Y-163002121D01*
X89893235Y-163003366D01*
X89927003Y-163004732D01*
X89932811Y-163005539D01*
X89934934Y-163023287D01*
X89936057Y-163067282D01*
X89936130Y-163131406D01*
X89935104Y-163209544D01*
X89934633Y-163232180D01*
X89929710Y-163452130D01*
X89157578Y-163451221D01*
X88978071Y-163450938D01*
X88827866Y-163450472D01*
X88703888Y-163449710D01*
X88603062Y-163448535D01*
X88522312Y-163446835D01*
X88458565Y-163444495D01*
X88408744Y-163441399D01*
X88369776Y-163437434D01*
X88338583Y-163432485D01*
X88312092Y-163426437D01*
X88287227Y-163419177D01*
X88285934Y-163418768D01*
X88187757Y-163373379D01*
X88093822Y-163304056D01*
X88013861Y-163218775D01*
X87978908Y-163167181D01*
X87963426Y-163140503D01*
X87949902Y-163115283D01*
X87938206Y-163089244D01*
X87928202Y-163060108D01*
X87919760Y-163025600D01*
X87912745Y-162983443D01*
X87907024Y-162931358D01*
X87902466Y-162867070D01*
X87898937Y-162788302D01*
X87896303Y-162692776D01*
X87894433Y-162578216D01*
X87893193Y-162442345D01*
X87892450Y-162282886D01*
X87892072Y-162097562D01*
X87891926Y-161884096D01*
X87891884Y-161676222D01*
X87891891Y-161435563D01*
X87892066Y-161225006D01*
X87892520Y-161042273D01*
X87893364Y-160885087D01*
X87894710Y-160751173D01*
X87896668Y-160638254D01*
X87899350Y-160544053D01*
X87902868Y-160466294D01*
X87907332Y-160402700D01*
X87912854Y-160350995D01*
X87919546Y-160308903D01*
X87927517Y-160274146D01*
X87936881Y-160244449D01*
X87947747Y-160217535D01*
X87960228Y-160191127D01*
X87964939Y-160181701D01*
X88012940Y-160109382D01*
X88080976Y-160035975D01*
X88158582Y-159971267D01*
X88235296Y-159925046D01*
X88242966Y-159921624D01*
X88278582Y-159907827D01*
X88317420Y-159896349D01*
X88362508Y-159887037D01*
X88416874Y-159879732D01*
X88483546Y-159874280D01*
X88565551Y-159870524D01*
X88665919Y-159868309D01*
X88787676Y-159867479D01*
X88933851Y-159867877D01*
G37*
%TD*%
D13*
%TO.C,J3*%
X60629000Y-140960000D03*
D14*
X60629000Y-138420000D03*
X60629000Y-135880000D03*
X60629000Y-133340000D03*
X60629000Y-130800000D03*
X60629000Y-128260000D03*
X60629000Y-125720000D03*
X60629000Y-123180000D03*
X60629000Y-120640000D03*
X60629000Y-118100000D03*
%TD*%
D15*
%TO.C,R3*%
X63811500Y-98044000D03*
X65461500Y-98044000D03*
%TD*%
D16*
%TO.C,D2*%
X61785000Y-107634000D03*
X61785000Y-106234000D03*
%TD*%
%TO.C,D3*%
X61817000Y-99884000D03*
X61817000Y-101284000D03*
%TD*%
%TO.C,D1*%
X61785000Y-103694000D03*
X61785000Y-105094000D03*
%TD*%
D17*
%TO.C,J1*%
X56713000Y-108300000D03*
X56713000Y-102520000D03*
D18*
X58158000Y-102160000D03*
X58158000Y-102960000D03*
D19*
X58158000Y-104160000D03*
X58158000Y-105160000D03*
X58158000Y-105660000D03*
X58158000Y-106660000D03*
D18*
X58158000Y-107860000D03*
X58158000Y-108660000D03*
X58158000Y-108660000D03*
X58158000Y-107860000D03*
D19*
X58158000Y-107160000D03*
X58158000Y-106160000D03*
X58158000Y-104660000D03*
X58158000Y-103660000D03*
D18*
X58158000Y-102960000D03*
X58158000Y-102160000D03*
D20*
X57243000Y-101090000D03*
D21*
X53063000Y-101090000D03*
D20*
X57243000Y-109730000D03*
D21*
X53063000Y-109730000D03*
%TD*%
D22*
%TO.C,D5*%
X67405000Y-98044000D03*
X68980000Y-98044000D03*
%TD*%
D15*
%TO.C,R1*%
X57078000Y-98806000D03*
X58728000Y-98806000D03*
%TD*%
D23*
%TO.C,D4*%
X68643000Y-101092000D03*
X64643000Y-101092000D03*
%TD*%
D24*
%TO.C,C1*%
X71310000Y-100343000D03*
X71310000Y-98793000D03*
%TD*%
D15*
%TO.C,R2*%
X57087000Y-112014000D03*
X58737000Y-112014000D03*
%TD*%
M02*
