%TF.GenerationSoftware,KiCad,Pcbnew,(6.0.9)*%
%TF.CreationDate,2022-11-14T09:49:53+08:00*%
%TF.ProjectId,YYSJ_2.1''_knob,5959534a-5f32-42e3-9127-275f6b6e6f62,rev?*%
%TF.SameCoordinates,Original*%
%TF.FileFunction,Soldermask,Top*%
%TF.FilePolarity,Negative*%
%FSLAX46Y46*%
G04 Gerber Fmt 4.6, Leading zero omitted, Abs format (unit mm)*
G04 Created by KiCad (PCBNEW (6.0.9)) date 2022-11-14 09:49:53*
%MOMM*%
%LPD*%
G01*
G04 APERTURE LIST*
G04 Aperture macros list*
%AMRoundRect*
0 Rectangle with rounded corners*
0 $1 Rounding radius*
0 $2 $3 $4 $5 $6 $7 $8 $9 X,Y pos of 4 corners*
0 Add a 4 corners polygon primitive as box body*
4,1,4,$2,$3,$4,$5,$6,$7,$8,$9,$2,$3,0*
0 Add four circle primitives for the rounded corners*
1,1,$1+$1,$2,$3*
1,1,$1+$1,$4,$5*
1,1,$1+$1,$6,$7*
1,1,$1+$1,$8,$9*
0 Add four rect primitives between the rounded corners*
20,1,$1+$1,$2,$3,$4,$5,0*
20,1,$1+$1,$4,$5,$6,$7,0*
20,1,$1+$1,$6,$7,$8,$9,0*
20,1,$1+$1,$8,$9,$2,$3,0*%
G04 Aperture macros list end*
%ADD10R,1.700000X1.700000*%
%ADD11O,1.700000X1.700000*%
%ADD12RoundRect,0.200000X-0.200000X-0.275000X0.200000X-0.275000X0.200000X0.275000X-0.200000X0.275000X0*%
%ADD13R,0.700000X0.600000*%
%ADD14C,0.650000*%
%ADD15R,1.450000X0.600000*%
%ADD16R,1.450000X0.300000*%
%ADD17O,2.100000X1.000000*%
%ADD18O,1.600000X1.000000*%
%ADD19RoundRect,0.218750X-0.218750X-0.256250X0.218750X-0.256250X0.218750X0.256250X-0.218750X0.256250X0*%
%ADD20R,2.500000X1.800000*%
%ADD21RoundRect,0.225000X0.250000X-0.225000X0.250000X0.225000X-0.250000X0.225000X-0.250000X-0.225000X0*%
G04 APERTURE END LIST*
%TO.C,G\u002A\u002A\u002A*%
G36*
X96147906Y-163452130D02*
G01*
X95662246Y-163452130D01*
X95662246Y-159874437D01*
X96147906Y-159874437D01*
X96147906Y-163452130D01*
G37*
G36*
X72769854Y-162511421D02*
G01*
X72857890Y-162552513D01*
X72927159Y-162617011D01*
X72974447Y-162701651D01*
X72996541Y-162803171D01*
X72997773Y-162833718D01*
X72983451Y-162936571D01*
X72940562Y-163024937D01*
X72870588Y-163096399D01*
X72816652Y-163129932D01*
X72751076Y-163151299D01*
X72671816Y-163159747D01*
X72592645Y-163155095D01*
X72527338Y-163137162D01*
X72520564Y-163133834D01*
X72432679Y-163071717D01*
X72372444Y-162992851D01*
X72340194Y-162897783D01*
X72334394Y-162828867D01*
X72348860Y-162724945D01*
X72389960Y-162636448D01*
X72454249Y-162566822D01*
X72538282Y-162519510D01*
X72638615Y-162497959D01*
X72666262Y-162496999D01*
X72769854Y-162511421D01*
G37*
G36*
X72845709Y-160534320D02*
G01*
X73015914Y-160563728D01*
X73194173Y-160609276D01*
X73278514Y-160635824D01*
X73539086Y-160739316D01*
X73782161Y-160869065D01*
X74006354Y-161023245D01*
X74210281Y-161200030D01*
X74392557Y-161397594D01*
X74551798Y-161614111D01*
X74686619Y-161847755D01*
X74795636Y-162096701D01*
X74877465Y-162359122D01*
X74930722Y-162633191D01*
X74950879Y-162841650D01*
X74953210Y-162928989D01*
X74951678Y-163027338D01*
X74946839Y-163129077D01*
X74939249Y-163226584D01*
X74929465Y-163312238D01*
X74918044Y-163378417D01*
X74909473Y-163408811D01*
X74893494Y-163429689D01*
X74858494Y-163452195D01*
X74800085Y-163478715D01*
X74733769Y-163504345D01*
X74571584Y-163564323D01*
X74371695Y-163506812D01*
X74296525Y-163485012D01*
X74233721Y-163466472D01*
X74189229Y-163452971D01*
X74169001Y-163446290D01*
X74168419Y-163445979D01*
X74170682Y-163429998D01*
X74179952Y-163391681D01*
X74192304Y-163346214D01*
X74203455Y-163297444D01*
X74211364Y-163238582D01*
X74216452Y-163163822D01*
X74219140Y-163067359D01*
X74219851Y-162966470D01*
X74217885Y-162824996D01*
X74210612Y-162706851D01*
X74196425Y-162603197D01*
X74173720Y-162505199D01*
X74140888Y-162404019D01*
X74097557Y-162293781D01*
X74000123Y-162099852D01*
X73874887Y-161915615D01*
X73725963Y-161745303D01*
X73557461Y-161593150D01*
X73373495Y-161463387D01*
X73200495Y-161370348D01*
X73108579Y-161332745D01*
X73003641Y-161297600D01*
X72895416Y-161267526D01*
X72793641Y-161245136D01*
X72708050Y-161233041D01*
X72684000Y-161231730D01*
X72631301Y-161233462D01*
X72597323Y-161244790D01*
X72568784Y-161270419D01*
X72566124Y-161273476D01*
X72533685Y-161329016D01*
X72531516Y-161381116D01*
X72557509Y-161426370D01*
X72609558Y-161461373D01*
X72685554Y-161482719D01*
X72696544Y-161484246D01*
X72903933Y-161526014D01*
X73100515Y-161596942D01*
X73283921Y-161694934D01*
X73451780Y-161817890D01*
X73601722Y-161963713D01*
X73731379Y-162130306D01*
X73838379Y-162315570D01*
X73920353Y-162517407D01*
X73941159Y-162586037D01*
X73960507Y-162679443D01*
X73974426Y-162799341D01*
X73981214Y-162911128D01*
X73981601Y-163080885D01*
X73967136Y-163230653D01*
X73936312Y-163369944D01*
X73887618Y-163508269D01*
X73885727Y-163512837D01*
X73836918Y-163630205D01*
X73761532Y-163628793D01*
X73709319Y-163624746D01*
X73639004Y-163615298D01*
X73564035Y-163602316D01*
X73548543Y-163599231D01*
X73470508Y-163580560D01*
X73405295Y-163557152D01*
X73339400Y-163523322D01*
X73277383Y-163485106D01*
X73220643Y-163447630D01*
X73175890Y-163416264D01*
X73149004Y-163395231D01*
X73143887Y-163389206D01*
X73151590Y-163370008D01*
X73170386Y-163335988D01*
X73173684Y-163330520D01*
X73230880Y-163206691D01*
X73261531Y-163070202D01*
X73265445Y-162927199D01*
X73242432Y-162783829D01*
X73194752Y-162651390D01*
X73115242Y-162513635D01*
X73017467Y-162400816D01*
X72899730Y-162311743D01*
X72760335Y-162245230D01*
X72597587Y-162200088D01*
X72534869Y-162189129D01*
X72374294Y-162149861D01*
X72230411Y-162083831D01*
X72105094Y-161992164D01*
X72000220Y-161875988D01*
X71990037Y-161861796D01*
X71918111Y-161745943D01*
X71869782Y-161633962D01*
X71840275Y-161514124D01*
X71835323Y-161481877D01*
X71827749Y-161316859D01*
X71849902Y-161158650D01*
X71899738Y-161010456D01*
X71975214Y-160875484D01*
X72074286Y-160756941D01*
X72194912Y-160658034D01*
X72335049Y-160581969D01*
X72430417Y-160547810D01*
X72548262Y-160525874D01*
X72688259Y-160521539D01*
X72845709Y-160534320D01*
G37*
G36*
X83387198Y-159874629D02*
G01*
X83584767Y-159874762D01*
X83752828Y-159875216D01*
X83894255Y-159876220D01*
X84011917Y-159878003D01*
X84108687Y-159880796D01*
X84187434Y-159884826D01*
X84251029Y-159890325D01*
X84302345Y-159897521D01*
X84344251Y-159906643D01*
X84379619Y-159917921D01*
X84411319Y-159931585D01*
X84442223Y-159947863D01*
X84464528Y-159960706D01*
X84522405Y-160002174D01*
X84585842Y-160059299D01*
X84645477Y-160122553D01*
X84691952Y-160182403D01*
X84707192Y-160207807D01*
X84722452Y-160240125D01*
X84734878Y-160274556D01*
X84744770Y-160314711D01*
X84752423Y-160364202D01*
X84758137Y-160426643D01*
X84762208Y-160505644D01*
X84764934Y-160604819D01*
X84766613Y-160727778D01*
X84767542Y-160878135D01*
X84767760Y-160942888D01*
X84768004Y-161097425D01*
X84767673Y-161223241D01*
X84766625Y-161323992D01*
X84764718Y-161403333D01*
X84761810Y-161464918D01*
X84757759Y-161512401D01*
X84752424Y-161549437D01*
X84745661Y-161579681D01*
X84742603Y-161590434D01*
X84691076Y-161714286D01*
X84617132Y-161824410D01*
X84525444Y-161915787D01*
X84420682Y-161983393D01*
X84351200Y-162011172D01*
X84321661Y-162019689D01*
X84291363Y-162026582D01*
X84256640Y-162032024D01*
X84213827Y-162036183D01*
X84159257Y-162039229D01*
X84089266Y-162041331D01*
X84000188Y-162042661D01*
X83888357Y-162043387D01*
X83750108Y-162043679D01*
X83648559Y-162043717D01*
X83051284Y-162043717D01*
X83051284Y-163452130D01*
X82549436Y-163452130D01*
X82549436Y-161608679D01*
X83051284Y-161608679D01*
X83565274Y-161603604D01*
X83709096Y-161602061D01*
X83824299Y-161600419D01*
X83914638Y-161598433D01*
X83983870Y-161595861D01*
X84035753Y-161592460D01*
X84074041Y-161587987D01*
X84102494Y-161582198D01*
X84124867Y-161574850D01*
X84144018Y-161566151D01*
X84204490Y-161521693D01*
X84245197Y-161461542D01*
X84256499Y-161437730D01*
X84265187Y-161413779D01*
X84271604Y-161385224D01*
X84276092Y-161347600D01*
X84278995Y-161296439D01*
X84280655Y-161227276D01*
X84281415Y-161135645D01*
X84281618Y-161017081D01*
X84281622Y-160987098D01*
X84281096Y-160842011D01*
X84279141Y-160725409D01*
X84275189Y-160633411D01*
X84268670Y-160562135D01*
X84259018Y-160507700D01*
X84245663Y-160466227D01*
X84228038Y-160433833D01*
X84205575Y-160406637D01*
X84195147Y-160396382D01*
X84169451Y-160373664D01*
X84143224Y-160355397D01*
X84112750Y-160341099D01*
X84074316Y-160330286D01*
X84024207Y-160322475D01*
X83958707Y-160317184D01*
X83874103Y-160313929D01*
X83766679Y-160312228D01*
X83632722Y-160311597D01*
X83542622Y-160311531D01*
X83051284Y-160311531D01*
X83051284Y-161608679D01*
X82549436Y-161608679D01*
X82549436Y-159874437D01*
X83387198Y-159874629D01*
G37*
G36*
X81918078Y-160327719D02*
G01*
X81217919Y-160327780D01*
X81048575Y-160327856D01*
X80908551Y-160328138D01*
X80794787Y-160328754D01*
X80704227Y-160329834D01*
X80633813Y-160331506D01*
X80580486Y-160333898D01*
X80541188Y-160337139D01*
X80512861Y-160341358D01*
X80492448Y-160346684D01*
X80476890Y-160353245D01*
X80465969Y-160359419D01*
X80439402Y-160378983D01*
X80418689Y-160404027D01*
X80403216Y-160438406D01*
X80392369Y-160485971D01*
X80385532Y-160550579D01*
X80382091Y-160636081D01*
X80381432Y-160746333D01*
X80382867Y-160880490D01*
X80388250Y-161233711D01*
X80441140Y-161286611D01*
X80494030Y-161339510D01*
X81007743Y-161348932D01*
X81156649Y-161351906D01*
X81277015Y-161354959D01*
X81372677Y-161358334D01*
X81447472Y-161362274D01*
X81505236Y-161367023D01*
X81549807Y-161372823D01*
X81585020Y-161379919D01*
X81610494Y-161387162D01*
X81748620Y-161442589D01*
X81858525Y-161511498D01*
X81942417Y-161596309D01*
X82002505Y-161699446D01*
X82040997Y-161823331D01*
X82049207Y-161868348D01*
X82054179Y-161919992D01*
X82057639Y-161997324D01*
X82059673Y-162094659D01*
X82060365Y-162206308D01*
X82059801Y-162326583D01*
X82058067Y-162449798D01*
X82055248Y-162570266D01*
X82051430Y-162682297D01*
X82046698Y-162780205D01*
X82041137Y-162858303D01*
X82034833Y-162910903D01*
X82033434Y-162918128D01*
X81987953Y-163067836D01*
X81921719Y-163194607D01*
X81835646Y-163297228D01*
X81730645Y-163374487D01*
X81667034Y-163404978D01*
X81570022Y-163444035D01*
X79894496Y-163453497D01*
X79894496Y-162998847D01*
X80654601Y-162998847D01*
X80848993Y-162998590D01*
X81012854Y-162997788D01*
X81148028Y-162996397D01*
X81256356Y-162994373D01*
X81339683Y-162991671D01*
X81399850Y-162988247D01*
X81438700Y-162984056D01*
X81457154Y-162979507D01*
X81482743Y-162965945D01*
X81502889Y-162948752D01*
X81518236Y-162924178D01*
X81529431Y-162888474D01*
X81537119Y-162837887D01*
X81541946Y-162768668D01*
X81544557Y-162677066D01*
X81545598Y-162559331D01*
X81545739Y-162464906D01*
X81545361Y-162327430D01*
X81543831Y-162218299D01*
X81540550Y-162133482D01*
X81534923Y-162068951D01*
X81526352Y-162020678D01*
X81514241Y-161984634D01*
X81497994Y-161956789D01*
X81477012Y-161933116D01*
X81465366Y-161922302D01*
X81453377Y-161913111D01*
X81437804Y-161905700D01*
X81415021Y-161899777D01*
X81381405Y-161895047D01*
X81333331Y-161891219D01*
X81267175Y-161887998D01*
X81179312Y-161885092D01*
X81066117Y-161882207D01*
X80932953Y-161879245D01*
X80800072Y-161875828D01*
X80676890Y-161871595D01*
X80567786Y-161866771D01*
X80477138Y-161861579D01*
X80409325Y-161856246D01*
X80368726Y-161850994D01*
X80364671Y-161850082D01*
X80240861Y-161804286D01*
X80128319Y-161735443D01*
X80033631Y-161648566D01*
X79963383Y-161548669D01*
X79959832Y-161541869D01*
X79940894Y-161499686D01*
X79925859Y-161452654D01*
X79914319Y-161396673D01*
X79905862Y-161327643D01*
X79900080Y-161241464D01*
X79896562Y-161134036D01*
X79894898Y-161001260D01*
X79894618Y-160889478D01*
X79895465Y-160725753D01*
X79898137Y-160590493D01*
X79902987Y-160479816D01*
X79910369Y-160389845D01*
X79920635Y-160316698D01*
X79934138Y-160256497D01*
X79951231Y-160205361D01*
X79958416Y-160188232D01*
X79996690Y-160121626D01*
X80049905Y-160054054D01*
X80108742Y-159996052D01*
X80160392Y-159959905D01*
X80193171Y-159943589D01*
X80225180Y-159929845D01*
X80259470Y-159918420D01*
X80299096Y-159909064D01*
X80347111Y-159901524D01*
X80406568Y-159895549D01*
X80480520Y-159890887D01*
X80572021Y-159887287D01*
X80684123Y-159884496D01*
X80819881Y-159882264D01*
X80982346Y-159880338D01*
X81145070Y-159878741D01*
X81918078Y-159871515D01*
X81918078Y-160327719D01*
G37*
G36*
X86065359Y-159890626D02*
G01*
X86263561Y-159890707D01*
X86432234Y-159891136D01*
X86574225Y-159892193D01*
X86692383Y-159894155D01*
X86789555Y-159897302D01*
X86868590Y-159901911D01*
X86932335Y-159908263D01*
X86983637Y-159916636D01*
X87025346Y-159927308D01*
X87060309Y-159940559D01*
X87091373Y-159956666D01*
X87121387Y-159975909D01*
X87150869Y-159996875D01*
X87215747Y-160052221D01*
X87267189Y-160116516D01*
X87307070Y-160194404D01*
X87337264Y-160290529D01*
X87359647Y-160409533D01*
X87375944Y-160554361D01*
X87381872Y-160647192D01*
X87385372Y-160757416D01*
X87386593Y-160878941D01*
X87385683Y-161005673D01*
X87382789Y-161131520D01*
X87378060Y-161250388D01*
X87371644Y-161356183D01*
X87363689Y-161442815D01*
X87354343Y-161504188D01*
X87352681Y-161511451D01*
X87312741Y-161624408D01*
X87253917Y-161711742D01*
X87174494Y-161775278D01*
X87072756Y-161816842D01*
X87063571Y-161819281D01*
X87009845Y-161835902D01*
X86987946Y-161850359D01*
X86997438Y-161863199D01*
X87021986Y-161871383D01*
X87055036Y-161886992D01*
X87099323Y-161916823D01*
X87126532Y-161938572D01*
X87158345Y-161967954D01*
X87186526Y-161999964D01*
X87212132Y-162037655D01*
X87236221Y-162084079D01*
X87259848Y-162142291D01*
X87284071Y-162215343D01*
X87309946Y-162306288D01*
X87338531Y-162418181D01*
X87370882Y-162554073D01*
X87408056Y-162717017D01*
X87430155Y-162815752D01*
X87460610Y-162952850D01*
X87488730Y-163080260D01*
X87513756Y-163194474D01*
X87534927Y-163291986D01*
X87551482Y-163369290D01*
X87562662Y-163422878D01*
X87567705Y-163449244D01*
X87567919Y-163451157D01*
X87551795Y-163458527D01*
X87503556Y-163463852D01*
X87423398Y-163467118D01*
X87311521Y-163468313D01*
X87301954Y-163468318D01*
X87035988Y-163468318D01*
X87017860Y-163375234D01*
X86973431Y-163149378D01*
X86933713Y-162953037D01*
X86898016Y-162783798D01*
X86865649Y-162639254D01*
X86835921Y-162516994D01*
X86808141Y-162414607D01*
X86781617Y-162329686D01*
X86755659Y-162259818D01*
X86729575Y-162202595D01*
X86702675Y-162155607D01*
X86674267Y-162116444D01*
X86648649Y-162087745D01*
X86614402Y-162055768D01*
X86578256Y-162030653D01*
X86535914Y-162011592D01*
X86483077Y-161997784D01*
X86415447Y-161988421D01*
X86328724Y-161982701D01*
X86218612Y-161979817D01*
X86080810Y-161978967D01*
X86067530Y-161978962D01*
X85706223Y-161978962D01*
X85706223Y-163452130D01*
X85236752Y-163452130D01*
X85236752Y-161541869D01*
X85706223Y-161541869D01*
X86212119Y-161540955D01*
X86381208Y-161540072D01*
X86519061Y-161538067D01*
X86626802Y-161534898D01*
X86705554Y-161530525D01*
X86756440Y-161524908D01*
X86774675Y-161520719D01*
X86805758Y-161508395D01*
X86830589Y-161492580D01*
X86849861Y-161469771D01*
X86864268Y-161436466D01*
X86874504Y-161389165D01*
X86881264Y-161324364D01*
X86885242Y-161238563D01*
X86887131Y-161128259D01*
X86887627Y-160989951D01*
X86887614Y-160950983D01*
X86887055Y-160793456D01*
X86884551Y-160665234D01*
X86878467Y-160563244D01*
X86867171Y-160484416D01*
X86849030Y-160425678D01*
X86822410Y-160383959D01*
X86785678Y-160356186D01*
X86737201Y-160339289D01*
X86675344Y-160330196D01*
X86598476Y-160325836D01*
X86554458Y-160324486D01*
X86481218Y-160323156D01*
X86384344Y-160322399D01*
X86272577Y-160322229D01*
X86154655Y-160322660D01*
X86042138Y-160323672D01*
X85706223Y-160327719D01*
X85706223Y-161541869D01*
X85236752Y-161541869D01*
X85236752Y-159890626D01*
X86065359Y-159890626D01*
G37*
G36*
X95030889Y-160327719D02*
G01*
X94330729Y-160327780D01*
X94161386Y-160327856D01*
X94021361Y-160328138D01*
X93907598Y-160328754D01*
X93817038Y-160329834D01*
X93746624Y-160331506D01*
X93693296Y-160333898D01*
X93653998Y-160337139D01*
X93625672Y-160341358D01*
X93605259Y-160346684D01*
X93589701Y-160353245D01*
X93578780Y-160359419D01*
X93552368Y-160378843D01*
X93531773Y-160403682D01*
X93516380Y-160437793D01*
X93505574Y-160485031D01*
X93498741Y-160549254D01*
X93495268Y-160634317D01*
X93494539Y-160744077D01*
X93495900Y-160879672D01*
X93501061Y-161233725D01*
X93553951Y-161286618D01*
X93606841Y-161339510D01*
X94120554Y-161348932D01*
X94269460Y-161351906D01*
X94389826Y-161354959D01*
X94485488Y-161358334D01*
X94560283Y-161362274D01*
X94618047Y-161367023D01*
X94662617Y-161372823D01*
X94697830Y-161379919D01*
X94723304Y-161387162D01*
X94847536Y-161434930D01*
X94945154Y-161490906D01*
X95021683Y-161559382D01*
X95082648Y-161644657D01*
X95102777Y-161682144D01*
X95126148Y-161736942D01*
X95144519Y-161799783D01*
X95158237Y-161874447D01*
X95167646Y-161964714D01*
X95173092Y-162074364D01*
X95174920Y-162207177D01*
X95173475Y-162366932D01*
X95172033Y-162440339D01*
X95167232Y-162603707D01*
X95160248Y-162739055D01*
X95150389Y-162850705D01*
X95136966Y-162942978D01*
X95119286Y-163020199D01*
X95096660Y-163086688D01*
X95068395Y-163146768D01*
X95055411Y-163169880D01*
X94991714Y-163253563D01*
X94906502Y-163330155D01*
X94810574Y-163390545D01*
X94774251Y-163407071D01*
X94753352Y-163415284D01*
X94732779Y-163422198D01*
X94709646Y-163427942D01*
X94681066Y-163432647D01*
X94644153Y-163436442D01*
X94596021Y-163439456D01*
X94533783Y-163441819D01*
X94454553Y-163443660D01*
X94355445Y-163445109D01*
X94233572Y-163446295D01*
X94086049Y-163447348D01*
X93909988Y-163448398D01*
X93845070Y-163448766D01*
X93007307Y-163453497D01*
X93007307Y-162998847D01*
X93757664Y-162998847D01*
X93966154Y-162998466D01*
X94142720Y-162997317D01*
X94287804Y-162995388D01*
X94401850Y-162992671D01*
X94485302Y-162989155D01*
X94538602Y-162984831D01*
X94559494Y-162980904D01*
X94587877Y-162969258D01*
X94610270Y-162953913D01*
X94627378Y-162931195D01*
X94639906Y-162897430D01*
X94648561Y-162848944D01*
X94654046Y-162782062D01*
X94657068Y-162693112D01*
X94658331Y-162578420D01*
X94658550Y-162464906D01*
X94658172Y-162327430D01*
X94656641Y-162218299D01*
X94653361Y-162133482D01*
X94647733Y-162068951D01*
X94639163Y-162020678D01*
X94627052Y-161984634D01*
X94610804Y-161956789D01*
X94589823Y-161933116D01*
X94578176Y-161922302D01*
X94566188Y-161913111D01*
X94550614Y-161905700D01*
X94527832Y-161899777D01*
X94494216Y-161895047D01*
X94446142Y-161891219D01*
X94379986Y-161887998D01*
X94292122Y-161885092D01*
X94178927Y-161882207D01*
X94045764Y-161879245D01*
X93912883Y-161875828D01*
X93789701Y-161871595D01*
X93680597Y-161866771D01*
X93589949Y-161861579D01*
X93522135Y-161856246D01*
X93481536Y-161850994D01*
X93477481Y-161850082D01*
X93342296Y-161799710D01*
X93224857Y-161723474D01*
X93128044Y-161623712D01*
X93057903Y-161509491D01*
X93045708Y-161483359D01*
X93036060Y-161459142D01*
X93028612Y-161432745D01*
X93023015Y-161400072D01*
X93018924Y-161357028D01*
X93015991Y-161299516D01*
X93013868Y-161223440D01*
X93012210Y-161124705D01*
X93010668Y-160999215D01*
X93010054Y-160944860D01*
X93008791Y-160779490D01*
X93009293Y-160642522D01*
X93011889Y-160530013D01*
X93016910Y-160438021D01*
X93024686Y-160362602D01*
X93035547Y-160299812D01*
X93049824Y-160245710D01*
X93067847Y-160196352D01*
X93073971Y-160182021D01*
X93116551Y-160109051D01*
X93175643Y-160038114D01*
X93240942Y-159980643D01*
X93274420Y-159959619D01*
X93306676Y-159943376D01*
X93338337Y-159929690D01*
X93372445Y-159918312D01*
X93412044Y-159908990D01*
X93460176Y-159901474D01*
X93519883Y-159895515D01*
X93594209Y-159890861D01*
X93686195Y-159887264D01*
X93798885Y-159884472D01*
X93935322Y-159882236D01*
X94098547Y-159880304D01*
X94257880Y-159878741D01*
X95030889Y-159871515D01*
X95030889Y-160327719D01*
G37*
G36*
X78680347Y-159878248D02*
G01*
X79416931Y-159882531D01*
X79421429Y-160104183D01*
X79425926Y-160325835D01*
X78722432Y-160330824D01*
X78553059Y-160332069D01*
X78413038Y-160333282D01*
X78299345Y-160334622D01*
X78208956Y-160336247D01*
X78138846Y-160338313D01*
X78085990Y-160340980D01*
X78047365Y-160344403D01*
X78019946Y-160348742D01*
X78000709Y-160354154D01*
X77986629Y-160360796D01*
X77974681Y-160368826D01*
X77973256Y-160369883D01*
X77933303Y-160408029D01*
X77897575Y-160454989D01*
X77895197Y-160458921D01*
X77885312Y-160477870D01*
X77877558Y-160499927D01*
X77871608Y-160529235D01*
X77867137Y-160569938D01*
X77863817Y-160626179D01*
X77861322Y-160702100D01*
X77859326Y-160801844D01*
X77857502Y-160929556D01*
X77857383Y-160938841D01*
X77851946Y-161363793D01*
X79214573Y-161363793D01*
X79214573Y-161800887D01*
X77852670Y-161800887D01*
X77857745Y-162314877D01*
X77859287Y-162458700D01*
X77860930Y-162573902D01*
X77862916Y-162664241D01*
X77865487Y-162733473D01*
X77868889Y-162785356D01*
X77873362Y-162823645D01*
X77879151Y-162852097D01*
X77886498Y-162874470D01*
X77895197Y-162893621D01*
X77909451Y-162921496D01*
X77923820Y-162944738D01*
X77941208Y-162963769D01*
X77964522Y-162979010D01*
X77996667Y-162990882D01*
X78040549Y-162999805D01*
X78099074Y-163006201D01*
X78175147Y-163010491D01*
X78271674Y-163013096D01*
X78391560Y-163014437D01*
X78537712Y-163014935D01*
X78713035Y-163015010D01*
X78732960Y-163015011D01*
X79425025Y-163015036D01*
X79425025Y-163468318D01*
X78684394Y-163467031D01*
X78493799Y-163466454D01*
X78332972Y-163465389D01*
X78199304Y-163463764D01*
X78090187Y-163461506D01*
X78003014Y-163458543D01*
X77935178Y-163454802D01*
X77884071Y-163450209D01*
X77847085Y-163444693D01*
X77841219Y-163443487D01*
X77710146Y-163399733D01*
X77598120Y-163330421D01*
X77506748Y-163237272D01*
X77437638Y-163122007D01*
X77392398Y-162986348D01*
X77386261Y-162956408D01*
X77382555Y-162919114D01*
X77379288Y-162850105D01*
X77376469Y-162750043D01*
X77374105Y-162619588D01*
X77372206Y-162459399D01*
X77370781Y-162270138D01*
X77369838Y-162052465D01*
X77369385Y-161807039D01*
X77369347Y-161664357D01*
X77369464Y-161425665D01*
X77369777Y-161217035D01*
X77370410Y-161036151D01*
X77371483Y-160880699D01*
X77373121Y-160748363D01*
X77375444Y-160636828D01*
X77378576Y-160543780D01*
X77382640Y-160466901D01*
X77387757Y-160403878D01*
X77394050Y-160352396D01*
X77401642Y-160310138D01*
X77410654Y-160274790D01*
X77421211Y-160244036D01*
X77433433Y-160215562D01*
X77447443Y-160187051D01*
X77447493Y-160186954D01*
X77514365Y-160089614D01*
X77606209Y-160005740D01*
X77716931Y-159939679D01*
X77840435Y-159895779D01*
X77862820Y-159890717D01*
X77900903Y-159886501D01*
X77969558Y-159883059D01*
X78066988Y-159880418D01*
X78191397Y-159878607D01*
X78340989Y-159877651D01*
X78513966Y-159877580D01*
X78680347Y-159878248D01*
G37*
G36*
X73111450Y-159592276D02*
G01*
X73416091Y-159660768D01*
X73714516Y-159759641D01*
X74004114Y-159887100D01*
X74282273Y-160041350D01*
X74546384Y-160220595D01*
X74793836Y-160423041D01*
X75022019Y-160646893D01*
X75228321Y-160890355D01*
X75410132Y-161151632D01*
X75432836Y-161188464D01*
X75541646Y-161385160D01*
X75642223Y-161600886D01*
X75730802Y-161825913D01*
X75803617Y-162050514D01*
X75856902Y-162264960D01*
X75864481Y-162303613D01*
X75899440Y-162490661D01*
X75830365Y-162605983D01*
X75785988Y-162674452D01*
X75730383Y-162752391D01*
X75674027Y-162825245D01*
X75661987Y-162839840D01*
X75562683Y-162958376D01*
X75391808Y-162962946D01*
X75220934Y-162967515D01*
X75201892Y-162760587D01*
X75159675Y-162457786D01*
X75090022Y-162171873D01*
X74992402Y-161901723D01*
X74866283Y-161646214D01*
X74711135Y-161404220D01*
X74526425Y-161174617D01*
X74379625Y-161021029D01*
X74172698Y-160839622D01*
X73945952Y-160679744D01*
X73703433Y-160543195D01*
X73449188Y-160431776D01*
X73187264Y-160347288D01*
X72921708Y-160291531D01*
X72686497Y-160267576D01*
X72496281Y-160258201D01*
X72496281Y-159906895D01*
X72629837Y-159800556D01*
X72699971Y-159746901D01*
X72775039Y-159692984D01*
X72842963Y-159647359D01*
X72868620Y-159631430D01*
X72973846Y-159568644D01*
X73111450Y-159592276D01*
G37*
G36*
X72321854Y-159652592D02*
G01*
X72334394Y-159663985D01*
X72358935Y-159696345D01*
X72365983Y-159730910D01*
X72353971Y-159772207D01*
X72321336Y-159824763D01*
X72266513Y-159893107D01*
X72247693Y-159914866D01*
X72073052Y-160137944D01*
X71927910Y-160374206D01*
X71811770Y-160624638D01*
X71724138Y-160890229D01*
X71691960Y-161023832D01*
X71680390Y-161087037D01*
X71672086Y-161156053D01*
X71666628Y-161237345D01*
X71663597Y-161337382D01*
X71662573Y-161462631D01*
X71662565Y-161477114D01*
X71663561Y-161614354D01*
X71667318Y-161727249D01*
X71674991Y-161823790D01*
X71687733Y-161911969D01*
X71706701Y-161999779D01*
X71733048Y-162095210D01*
X71767862Y-162206055D01*
X71866357Y-162459048D01*
X71990195Y-162694107D01*
X72137216Y-162910201D01*
X72305257Y-163106299D01*
X72492156Y-163281368D01*
X72695752Y-163434379D01*
X72913881Y-163564298D01*
X73144383Y-163670095D01*
X73385094Y-163750738D01*
X73633854Y-163805197D01*
X73888500Y-163832438D01*
X74146869Y-163831433D01*
X74406801Y-163801147D01*
X74666133Y-163740552D01*
X74851921Y-163677323D01*
X75082973Y-163573459D01*
X75301773Y-163444726D01*
X75513430Y-163287971D01*
X75593524Y-163219987D01*
X75657526Y-163167114D01*
X75705419Y-163135947D01*
X75742036Y-163123499D01*
X75750501Y-163122960D01*
X75805651Y-163134345D01*
X75837861Y-163168576D01*
X75847332Y-163219834D01*
X75843090Y-163253998D01*
X75826841Y-163286042D01*
X75793308Y-163324302D01*
X75762342Y-163354038D01*
X75539823Y-163539655D01*
X75302152Y-163696693D01*
X75049695Y-163824993D01*
X74782816Y-163924392D01*
X74501881Y-163994730D01*
X74220372Y-164034665D01*
X74127835Y-164042623D01*
X74053542Y-164047061D01*
X73986456Y-164047961D01*
X73915538Y-164045306D01*
X73829749Y-164039078D01*
X73770224Y-164033945D01*
X73491837Y-163993431D01*
X73222397Y-163923062D01*
X72964002Y-163824490D01*
X72718751Y-163699364D01*
X72488742Y-163549335D01*
X72276074Y-163376054D01*
X72082846Y-163181171D01*
X71911157Y-162966336D01*
X71763105Y-162733200D01*
X71640789Y-162483414D01*
X71574032Y-162306821D01*
X71535483Y-162186682D01*
X71505921Y-162080338D01*
X71484222Y-161980121D01*
X71469262Y-161878365D01*
X71459917Y-161767401D01*
X71455063Y-161639562D01*
X71453575Y-161487181D01*
X71453573Y-161485208D01*
X71453863Y-161361138D01*
X71455277Y-161263089D01*
X71458247Y-161184714D01*
X71463206Y-161119664D01*
X71470587Y-161061591D01*
X71480824Y-161004148D01*
X71489074Y-160964779D01*
X71566629Y-160681732D01*
X71672489Y-160412293D01*
X71805626Y-160158521D01*
X71965014Y-159922476D01*
X72077120Y-159785304D01*
X72146594Y-159710470D01*
X72202329Y-159661420D01*
X72247802Y-159636516D01*
X72286485Y-159634119D01*
X72321854Y-159652592D01*
G37*
G36*
X92440704Y-160326750D02*
G01*
X91000624Y-160335814D01*
X90910876Y-160425526D01*
X90906016Y-160812949D01*
X90904755Y-160947593D01*
X90905164Y-161053792D01*
X90907876Y-161135464D01*
X90913526Y-161196526D01*
X90922748Y-161240893D01*
X90936176Y-161272483D01*
X90954445Y-161295212D01*
X90978190Y-161312997D01*
X90987940Y-161318795D01*
X91009830Y-161325385D01*
X91052239Y-161331105D01*
X91117373Y-161336078D01*
X91207438Y-161340423D01*
X91324639Y-161344265D01*
X91471184Y-161347723D01*
X91534139Y-161348946D01*
X91678564Y-161351771D01*
X91794721Y-161354525D01*
X91886718Y-161357506D01*
X91958660Y-161361011D01*
X92014655Y-161365336D01*
X92058811Y-161370779D01*
X92095234Y-161377637D01*
X92128032Y-161386208D01*
X92151763Y-161393624D01*
X92286092Y-161451802D01*
X92395120Y-161530088D01*
X92478750Y-161628390D01*
X92536887Y-161746615D01*
X92546309Y-161775495D01*
X92554156Y-161819409D01*
X92560557Y-161890391D01*
X92565513Y-161983164D01*
X92569025Y-162092450D01*
X92571093Y-162212972D01*
X92571717Y-162339453D01*
X92570898Y-162466615D01*
X92568636Y-162589183D01*
X92564931Y-162701877D01*
X92559785Y-162799422D01*
X92553198Y-162876540D01*
X92546207Y-162923324D01*
X92501493Y-163072919D01*
X92436043Y-163199153D01*
X92350588Y-163301046D01*
X92245860Y-163377619D01*
X92184733Y-163406822D01*
X92163823Y-163415052D01*
X92143329Y-163421986D01*
X92120379Y-163427753D01*
X92092103Y-163432480D01*
X92055630Y-163436297D01*
X92008089Y-163439332D01*
X91946610Y-163441712D01*
X91868322Y-163443566D01*
X91770354Y-163445024D01*
X91649835Y-163446212D01*
X91503894Y-163447260D01*
X91329662Y-163448295D01*
X91246791Y-163448760D01*
X90400933Y-163453485D01*
X90400933Y-162999745D01*
X91970519Y-162990753D01*
X92015395Y-162945895D01*
X92060270Y-162901036D01*
X92065104Y-162487207D01*
X92066467Y-162360160D01*
X92067046Y-162261107D01*
X92066572Y-162185668D01*
X92064773Y-162129466D01*
X92061379Y-162088119D01*
X92056120Y-162057250D01*
X92048726Y-162032478D01*
X92038926Y-162009425D01*
X92035116Y-162001446D01*
X92017250Y-161966743D01*
X91998522Y-161939494D01*
X91974996Y-161918797D01*
X91942736Y-161903753D01*
X91897804Y-161893462D01*
X91836263Y-161887024D01*
X91754177Y-161883540D01*
X91647609Y-161882108D01*
X91512623Y-161881830D01*
X91511831Y-161881830D01*
X91330849Y-161880591D01*
X91178494Y-161876386D01*
X91051098Y-161868487D01*
X90944987Y-161856165D01*
X90856492Y-161838693D01*
X90781940Y-161815340D01*
X90717661Y-161785378D01*
X90659984Y-161748079D01*
X90605236Y-161702714D01*
X90604062Y-161701642D01*
X90551430Y-161648705D01*
X90508059Y-161592705D01*
X90473303Y-161530270D01*
X90446514Y-161458029D01*
X90427048Y-161372608D01*
X90414258Y-161270635D01*
X90407499Y-161148738D01*
X90406123Y-161003544D01*
X90409486Y-160831681D01*
X90413748Y-160708153D01*
X90419218Y-160576135D01*
X90424492Y-160472158D01*
X90429984Y-160391892D01*
X90436111Y-160331006D01*
X90443286Y-160285169D01*
X90451924Y-160250051D01*
X90459772Y-160227743D01*
X90515384Y-160117181D01*
X90585401Y-160030996D01*
X90673277Y-159966824D01*
X90782464Y-159922300D01*
X90916412Y-159895058D01*
X90951348Y-159890961D01*
X91001697Y-159887436D01*
X91079931Y-159884166D01*
X91181558Y-159881242D01*
X91302086Y-159878750D01*
X91437022Y-159876781D01*
X91581875Y-159875422D01*
X91732153Y-159874764D01*
X91772922Y-159874718D01*
X92440704Y-159874437D01*
X92440704Y-160326750D01*
G37*
G36*
X98608581Y-160327719D02*
G01*
X97948894Y-160327745D01*
X97776354Y-160327824D01*
X97633118Y-160328310D01*
X97516112Y-160329592D01*
X97422261Y-160332063D01*
X97348493Y-160336112D01*
X97291733Y-160342131D01*
X97248908Y-160350511D01*
X97216944Y-160361644D01*
X97192767Y-160375919D01*
X97173304Y-160393728D01*
X97155480Y-160415462D01*
X97144659Y-160430052D01*
X97134924Y-160444810D01*
X97127216Y-160462093D01*
X97121250Y-160485729D01*
X97116741Y-160519548D01*
X97113403Y-160567376D01*
X97110952Y-160633043D01*
X97109103Y-160720376D01*
X97107570Y-160833204D01*
X97106383Y-160944042D01*
X97101635Y-161412359D01*
X98414318Y-161412359D01*
X98414318Y-161849453D01*
X97103037Y-161849453D01*
X97103037Y-163452130D01*
X96616747Y-163452130D01*
X96625471Y-160335814D01*
X96664528Y-160238801D01*
X96720290Y-160137913D01*
X96799776Y-160044839D01*
X96894410Y-159968154D01*
X96981741Y-159921700D01*
X97004649Y-159912685D01*
X97026526Y-159905162D01*
X97050435Y-159898974D01*
X97079442Y-159893966D01*
X97116611Y-159889981D01*
X97165007Y-159886863D01*
X97227693Y-159884455D01*
X97307734Y-159882601D01*
X97408195Y-159881144D01*
X97532141Y-159879929D01*
X97682634Y-159878799D01*
X97843668Y-159877722D01*
X98608581Y-159872690D01*
X98608581Y-160327719D01*
G37*
G36*
X74241121Y-159338785D02*
G01*
X74499384Y-159383116D01*
X74744642Y-159457087D01*
X74977066Y-159560767D01*
X75196824Y-159694225D01*
X75404084Y-159857529D01*
X75508012Y-159955298D01*
X75686344Y-160154619D01*
X75835415Y-160367730D01*
X75955022Y-160594138D01*
X76044960Y-160833347D01*
X76105025Y-161084862D01*
X76135012Y-161348189D01*
X76138663Y-161480745D01*
X76138728Y-161686735D01*
X76094209Y-161709383D01*
X76034309Y-161735957D01*
X75991876Y-161746641D01*
X75971975Y-161740838D01*
X75962733Y-161720443D01*
X75945323Y-161678383D01*
X75923266Y-161623189D01*
X75919936Y-161614717D01*
X75838634Y-161428914D01*
X75737323Y-161232061D01*
X75621330Y-161033267D01*
X75495982Y-160841641D01*
X75366606Y-160666291D01*
X75361298Y-160659587D01*
X75224316Y-160500764D01*
X75064171Y-160338201D01*
X74888373Y-160178524D01*
X74704431Y-160028360D01*
X74519857Y-159894336D01*
X74421565Y-159830383D01*
X74340973Y-159783258D01*
X74240749Y-159729103D01*
X74130049Y-159672471D01*
X74018032Y-159617911D01*
X73913855Y-159569977D01*
X73826675Y-159533220D01*
X73813338Y-159528083D01*
X73697700Y-159484401D01*
X73723344Y-159404212D01*
X73748987Y-159324023D01*
X73969686Y-159324023D01*
X74241121Y-159338785D01*
G37*
G36*
X88933851Y-159867877D02*
G01*
X89107472Y-159869349D01*
X89231303Y-159870744D01*
X89931462Y-159879156D01*
X89931462Y-160326740D01*
X88508960Y-160335814D01*
X88460872Y-160381898D01*
X88436772Y-160408503D01*
X88417711Y-160439549D01*
X88403122Y-160478955D01*
X88392435Y-160530640D01*
X88385083Y-160598522D01*
X88380499Y-160686520D01*
X88378114Y-160798554D01*
X88377359Y-160938543D01*
X88377351Y-160958151D01*
X88377351Y-161347605D01*
X89737198Y-161347605D01*
X89737198Y-161784698D01*
X88375711Y-161784698D01*
X88380578Y-162314877D01*
X88382030Y-162460877D01*
X88383568Y-162578099D01*
X88385419Y-162670139D01*
X88387807Y-162740597D01*
X88390960Y-162793069D01*
X88395101Y-162831155D01*
X88400457Y-162858452D01*
X88407254Y-162878558D01*
X88415718Y-162895072D01*
X88417112Y-162897407D01*
X88431842Y-162920943D01*
X88446988Y-162940523D01*
X88465498Y-162956513D01*
X88490318Y-162969276D01*
X88524397Y-162979175D01*
X88570683Y-162986575D01*
X88632124Y-162991838D01*
X88711667Y-162995329D01*
X88812260Y-162997412D01*
X88936851Y-162998450D01*
X89088388Y-162998807D01*
X89239146Y-162998847D01*
X89385054Y-162999000D01*
X89520700Y-162999436D01*
X89642712Y-163000123D01*
X89747719Y-163001029D01*
X89832350Y-163002121D01*
X89893235Y-163003366D01*
X89927003Y-163004732D01*
X89932811Y-163005539D01*
X89934934Y-163023287D01*
X89936057Y-163067282D01*
X89936130Y-163131406D01*
X89935104Y-163209544D01*
X89934633Y-163232180D01*
X89929710Y-163452130D01*
X89157578Y-163451221D01*
X88978071Y-163450938D01*
X88827866Y-163450472D01*
X88703888Y-163449710D01*
X88603062Y-163448535D01*
X88522312Y-163446835D01*
X88458565Y-163444495D01*
X88408744Y-163441399D01*
X88369776Y-163437434D01*
X88338583Y-163432485D01*
X88312092Y-163426437D01*
X88287227Y-163419177D01*
X88285934Y-163418768D01*
X88187757Y-163373379D01*
X88093822Y-163304056D01*
X88013861Y-163218775D01*
X87978908Y-163167181D01*
X87963426Y-163140503D01*
X87949902Y-163115283D01*
X87938206Y-163089244D01*
X87928202Y-163060108D01*
X87919760Y-163025600D01*
X87912745Y-162983443D01*
X87907024Y-162931358D01*
X87902466Y-162867070D01*
X87898937Y-162788302D01*
X87896303Y-162692776D01*
X87894433Y-162578216D01*
X87893193Y-162442345D01*
X87892450Y-162282886D01*
X87892072Y-162097562D01*
X87891926Y-161884096D01*
X87891884Y-161676222D01*
X87891891Y-161435563D01*
X87892066Y-161225006D01*
X87892520Y-161042273D01*
X87893364Y-160885087D01*
X87894710Y-160751173D01*
X87896668Y-160638254D01*
X87899350Y-160544053D01*
X87902868Y-160466294D01*
X87907332Y-160402700D01*
X87912854Y-160350995D01*
X87919546Y-160308903D01*
X87927517Y-160274146D01*
X87936881Y-160244449D01*
X87947747Y-160217535D01*
X87960228Y-160191127D01*
X87964939Y-160181701D01*
X88012940Y-160109382D01*
X88080976Y-160035975D01*
X88158582Y-159971267D01*
X88235296Y-159925046D01*
X88242966Y-159921624D01*
X88278582Y-159907827D01*
X88317420Y-159896349D01*
X88362508Y-159887037D01*
X88416874Y-159879732D01*
X88483546Y-159874280D01*
X88565551Y-159870524D01*
X88665919Y-159868309D01*
X88787676Y-159867479D01*
X88933851Y-159867877D01*
G37*
%TD*%
D10*
%TO.C,J3*%
X60629000Y-140960000D03*
D11*
X60629000Y-138420000D03*
X60629000Y-135880000D03*
X60629000Y-133340000D03*
X60629000Y-130800000D03*
X60629000Y-128260000D03*
X60629000Y-125720000D03*
X60629000Y-123180000D03*
X60629000Y-120640000D03*
X60629000Y-118100000D03*
%TD*%
D12*
%TO.C,R3*%
X63811500Y-98044000D03*
X65461500Y-98044000D03*
%TD*%
D13*
%TO.C,D2*%
X61785000Y-107634000D03*
X61785000Y-106234000D03*
%TD*%
%TO.C,D3*%
X61817000Y-99884000D03*
X61817000Y-101284000D03*
%TD*%
%TO.C,D1*%
X61785000Y-103694000D03*
X61785000Y-105094000D03*
%TD*%
D14*
%TO.C,J1*%
X56713000Y-108300000D03*
X56713000Y-102520000D03*
D15*
X58158000Y-102160000D03*
X58158000Y-102960000D03*
D16*
X58158000Y-104160000D03*
X58158000Y-105160000D03*
X58158000Y-105660000D03*
X58158000Y-106660000D03*
D15*
X58158000Y-107860000D03*
X58158000Y-108660000D03*
X58158000Y-108660000D03*
X58158000Y-107860000D03*
D16*
X58158000Y-107160000D03*
X58158000Y-106160000D03*
X58158000Y-104660000D03*
X58158000Y-103660000D03*
D15*
X58158000Y-102960000D03*
X58158000Y-102160000D03*
D17*
X57243000Y-101090000D03*
D18*
X53063000Y-101090000D03*
D17*
X57243000Y-109730000D03*
D18*
X53063000Y-109730000D03*
%TD*%
D19*
%TO.C,D5*%
X67405000Y-98044000D03*
X68980000Y-98044000D03*
%TD*%
D12*
%TO.C,R1*%
X57078000Y-98806000D03*
X58728000Y-98806000D03*
%TD*%
D20*
%TO.C,D4*%
X68643000Y-101092000D03*
X64643000Y-101092000D03*
%TD*%
D21*
%TO.C,C1*%
X71310000Y-100343000D03*
X71310000Y-98793000D03*
%TD*%
D12*
%TO.C,R2*%
X57087000Y-112014000D03*
X58737000Y-112014000D03*
%TD*%
M02*
