%TF.GenerationSoftware,KiCad,Pcbnew,(6.0.9)*%
%TF.CreationDate,2022-12-05T09:35:11+08:00*%
%TF.ProjectId,Sitronix_2.1''_480x480,53697472-6f6e-4697-985f-322e3127275f,rev?*%
%TF.SameCoordinates,Original*%
%TF.FileFunction,Soldermask,Bot*%
%TF.FilePolarity,Negative*%
%FSLAX46Y46*%
G04 Gerber Fmt 4.6, Leading zero omitted, Abs format (unit mm)*
G04 Created by KiCad (PCBNEW (6.0.9)) date 2022-12-05 09:35:11*
%MOMM*%
%LPD*%
G01*
G04 APERTURE LIST*
G04 Aperture macros list*
%AMRoundRect*
0 Rectangle with rounded corners*
0 $1 Rounding radius*
0 $2 $3 $4 $5 $6 $7 $8 $9 X,Y pos of 4 corners*
0 Add a 4 corners polygon primitive as box body*
4,1,4,$2,$3,$4,$5,$6,$7,$8,$9,$2,$3,0*
0 Add four circle primitives for the rounded corners*
1,1,$1+$1,$2,$3*
1,1,$1+$1,$4,$5*
1,1,$1+$1,$6,$7*
1,1,$1+$1,$8,$9*
0 Add four rect primitives between the rounded corners*
20,1,$1+$1,$2,$3,$4,$5,0*
20,1,$1+$1,$4,$5,$6,$7,0*
20,1,$1+$1,$6,$7,$8,$9,0*
20,1,$1+$1,$8,$9,$2,$3,0*%
G04 Aperture macros list end*
%ADD10R,1.700000X1.700000*%
%ADD11O,1.700000X1.700000*%
%ADD12RoundRect,0.135000X-0.135000X-0.185000X0.135000X-0.185000X0.135000X0.185000X-0.135000X0.185000X0*%
%ADD13RoundRect,0.135000X0.135000X0.185000X-0.135000X0.185000X-0.135000X-0.185000X0.135000X-0.185000X0*%
G04 APERTURE END LIST*
D10*
%TO.C,J1*%
X126339600Y-69494400D03*
D11*
X128879600Y-69494400D03*
X126339600Y-72034400D03*
X128879600Y-72034400D03*
X126339600Y-74574400D03*
X128879600Y-74574400D03*
X126339600Y-77114400D03*
X128879600Y-77114400D03*
X126339600Y-79654400D03*
X128879600Y-79654400D03*
X126339600Y-82194400D03*
X128879600Y-82194400D03*
X126339600Y-84734400D03*
X128879600Y-84734400D03*
X126339600Y-87274400D03*
X128879600Y-87274400D03*
X126339600Y-89814400D03*
X128879600Y-89814400D03*
X126339600Y-92354400D03*
X128879600Y-92354400D03*
X126339600Y-94894400D03*
X128879600Y-94894400D03*
X126339600Y-97434400D03*
X128879600Y-97434400D03*
X126339600Y-99974400D03*
X128879600Y-99974400D03*
X126339600Y-102514400D03*
X128879600Y-102514400D03*
X126339600Y-105054400D03*
X128879600Y-105054400D03*
X126339600Y-107594400D03*
X128879600Y-107594400D03*
X126339600Y-110134400D03*
X128879600Y-110134400D03*
X126339600Y-112674400D03*
X128879600Y-112674400D03*
X126339600Y-115214400D03*
X128879600Y-115214400D03*
X126339600Y-117754400D03*
X128879600Y-117754400D03*
%TD*%
D10*
%TO.C,J2*%
X141292700Y-80111600D03*
D11*
X143832700Y-80111600D03*
%TD*%
D12*
%TO.C,RB7*%
X137277500Y-95487066D03*
X138297500Y-95487066D03*
%TD*%
D13*
%TO.C,RB2*%
X138295500Y-86698668D03*
X137275500Y-86698668D03*
%TD*%
%TO.C,RB1*%
X138295500Y-85233935D03*
X137275500Y-85233935D03*
%TD*%
%TO.C,RB9*%
X138295500Y-98416532D03*
X137275500Y-98416532D03*
%TD*%
%TO.C,RB5*%
X138295500Y-91092867D03*
X137275500Y-91092867D03*
%TD*%
%TO.C,RB12*%
X138295500Y-102810735D03*
X137275500Y-102810735D03*
%TD*%
%TO.C,RB4*%
X138295500Y-89628134D03*
X137275500Y-89628134D03*
%TD*%
%TO.C,RB8*%
X138295500Y-96951799D03*
X137275500Y-96951799D03*
%TD*%
%TO.C,RB6*%
X138295500Y-94022333D03*
X137275500Y-94022333D03*
%TD*%
%TO.C,RA5*%
X138295500Y-92557600D03*
X137275500Y-92557600D03*
%TD*%
%TO.C,RB11*%
X138295500Y-101345998D03*
X137275500Y-101345998D03*
%TD*%
%TO.C,RB10*%
X138295500Y-99881265D03*
X137275500Y-99881265D03*
%TD*%
%TO.C,RB3*%
X138295500Y-88163401D03*
X137275500Y-88163401D03*
%TD*%
M02*
