%TF.GenerationSoftware,KiCad,Pcbnew,(6.0.9)*%
%TF.CreationDate,2022-12-03T22:35:23+08:00*%
%TF.ProjectId,Sitronix_2.1''_480x480,53697472-6f6e-4697-985f-322e3127275f,rev?*%
%TF.SameCoordinates,Original*%
%TF.FileFunction,Legend,Bot*%
%TF.FilePolarity,Positive*%
%FSLAX46Y46*%
G04 Gerber Fmt 4.6, Leading zero omitted, Abs format (unit mm)*
G04 Created by KiCad (PCBNEW (6.0.9)) date 2022-12-03 22:35:23*
%MOMM*%
%LPD*%
G01*
G04 APERTURE LIST*
G04 Aperture macros list*
%AMRoundRect*
0 Rectangle with rounded corners*
0 $1 Rounding radius*
0 $2 $3 $4 $5 $6 $7 $8 $9 X,Y pos of 4 corners*
0 Add a 4 corners polygon primitive as box body*
4,1,4,$2,$3,$4,$5,$6,$7,$8,$9,$2,$3,0*
0 Add four circle primitives for the rounded corners*
1,1,$1+$1,$2,$3*
1,1,$1+$1,$4,$5*
1,1,$1+$1,$6,$7*
1,1,$1+$1,$8,$9*
0 Add four rect primitives between the rounded corners*
20,1,$1+$1,$2,$3,$4,$5,0*
20,1,$1+$1,$4,$5,$6,$7,0*
20,1,$1+$1,$6,$7,$8,$9,0*
20,1,$1+$1,$8,$9,$2,$3,0*%
G04 Aperture macros list end*
%ADD10C,0.120000*%
%ADD11R,1.700000X1.700000*%
%ADD12O,1.700000X1.700000*%
%ADD13RoundRect,0.135000X-0.135000X-0.185000X0.135000X-0.185000X0.135000X0.185000X-0.135000X0.185000X0*%
%ADD14RoundRect,0.135000X0.135000X0.185000X-0.135000X0.185000X-0.135000X-0.185000X0.135000X-0.185000X0*%
G04 APERTURE END LIST*
D10*
%TO.C,RB7*%
X135559733Y-95857435D02*
X135826400Y-95476483D01*
X136016876Y-95857435D02*
X136016876Y-95057435D01*
X135712114Y-95057435D01*
X135635923Y-95095531D01*
X135597828Y-95133626D01*
X135559733Y-95209816D01*
X135559733Y-95324102D01*
X135597828Y-95400292D01*
X135635923Y-95438388D01*
X135712114Y-95476483D01*
X136016876Y-95476483D01*
X134950209Y-95438388D02*
X134835923Y-95476483D01*
X134797828Y-95514578D01*
X134759733Y-95590769D01*
X134759733Y-95705054D01*
X134797828Y-95781245D01*
X134835923Y-95819340D01*
X134912114Y-95857435D01*
X135216876Y-95857435D01*
X135216876Y-95057435D01*
X134950209Y-95057435D01*
X134874019Y-95095531D01*
X134835923Y-95133626D01*
X134797828Y-95209816D01*
X134797828Y-95286007D01*
X134835923Y-95362197D01*
X134874019Y-95400292D01*
X134950209Y-95438388D01*
X135216876Y-95438388D01*
X134493066Y-95057435D02*
X133959733Y-95057435D01*
X134302590Y-95857435D01*
%TO.C,RB2*%
X135559733Y-87069037D02*
X135826400Y-86688085D01*
X136016876Y-87069037D02*
X136016876Y-86269037D01*
X135712114Y-86269037D01*
X135635923Y-86307133D01*
X135597828Y-86345228D01*
X135559733Y-86421418D01*
X135559733Y-86535704D01*
X135597828Y-86611894D01*
X135635923Y-86649990D01*
X135712114Y-86688085D01*
X136016876Y-86688085D01*
X134950209Y-86649990D02*
X134835923Y-86688085D01*
X134797828Y-86726180D01*
X134759733Y-86802371D01*
X134759733Y-86916656D01*
X134797828Y-86992847D01*
X134835923Y-87030942D01*
X134912114Y-87069037D01*
X135216876Y-87069037D01*
X135216876Y-86269037D01*
X134950209Y-86269037D01*
X134874019Y-86307133D01*
X134835923Y-86345228D01*
X134797828Y-86421418D01*
X134797828Y-86497609D01*
X134835923Y-86573799D01*
X134874019Y-86611894D01*
X134950209Y-86649990D01*
X135216876Y-86649990D01*
X134454971Y-86345228D02*
X134416876Y-86307133D01*
X134340685Y-86269037D01*
X134150209Y-86269037D01*
X134074019Y-86307133D01*
X134035923Y-86345228D01*
X133997828Y-86421418D01*
X133997828Y-86497609D01*
X134035923Y-86611894D01*
X134493066Y-87069037D01*
X133997828Y-87069037D01*
%TO.C,RB1*%
X135559733Y-85604304D02*
X135826400Y-85223352D01*
X136016876Y-85604304D02*
X136016876Y-84804304D01*
X135712114Y-84804304D01*
X135635923Y-84842400D01*
X135597828Y-84880495D01*
X135559733Y-84956685D01*
X135559733Y-85070971D01*
X135597828Y-85147161D01*
X135635923Y-85185257D01*
X135712114Y-85223352D01*
X136016876Y-85223352D01*
X134950209Y-85185257D02*
X134835923Y-85223352D01*
X134797828Y-85261447D01*
X134759733Y-85337638D01*
X134759733Y-85451923D01*
X134797828Y-85528114D01*
X134835923Y-85566209D01*
X134912114Y-85604304D01*
X135216876Y-85604304D01*
X135216876Y-84804304D01*
X134950209Y-84804304D01*
X134874019Y-84842400D01*
X134835923Y-84880495D01*
X134797828Y-84956685D01*
X134797828Y-85032876D01*
X134835923Y-85109066D01*
X134874019Y-85147161D01*
X134950209Y-85185257D01*
X135216876Y-85185257D01*
X133997828Y-85604304D02*
X134454971Y-85604304D01*
X134226400Y-85604304D02*
X134226400Y-84804304D01*
X134302590Y-84918590D01*
X134378780Y-84994780D01*
X134454971Y-85032876D01*
%TO.C,RB9*%
X135559733Y-98786901D02*
X135826400Y-98405949D01*
X136016876Y-98786901D02*
X136016876Y-97986901D01*
X135712114Y-97986901D01*
X135635923Y-98024997D01*
X135597828Y-98063092D01*
X135559733Y-98139282D01*
X135559733Y-98253568D01*
X135597828Y-98329758D01*
X135635923Y-98367854D01*
X135712114Y-98405949D01*
X136016876Y-98405949D01*
X134950209Y-98367854D02*
X134835923Y-98405949D01*
X134797828Y-98444044D01*
X134759733Y-98520235D01*
X134759733Y-98634520D01*
X134797828Y-98710711D01*
X134835923Y-98748806D01*
X134912114Y-98786901D01*
X135216876Y-98786901D01*
X135216876Y-97986901D01*
X134950209Y-97986901D01*
X134874019Y-98024997D01*
X134835923Y-98063092D01*
X134797828Y-98139282D01*
X134797828Y-98215473D01*
X134835923Y-98291663D01*
X134874019Y-98329758D01*
X134950209Y-98367854D01*
X135216876Y-98367854D01*
X134378780Y-98786901D02*
X134226400Y-98786901D01*
X134150209Y-98748806D01*
X134112114Y-98710711D01*
X134035923Y-98596425D01*
X133997828Y-98444044D01*
X133997828Y-98139282D01*
X134035923Y-98063092D01*
X134074019Y-98024997D01*
X134150209Y-97986901D01*
X134302590Y-97986901D01*
X134378780Y-98024997D01*
X134416876Y-98063092D01*
X134454971Y-98139282D01*
X134454971Y-98329758D01*
X134416876Y-98405949D01*
X134378780Y-98444044D01*
X134302590Y-98482139D01*
X134150209Y-98482139D01*
X134074019Y-98444044D01*
X134035923Y-98405949D01*
X133997828Y-98329758D01*
%TO.C,RB5*%
X135559733Y-91463236D02*
X135826400Y-91082284D01*
X136016876Y-91463236D02*
X136016876Y-90663236D01*
X135712114Y-90663236D01*
X135635923Y-90701332D01*
X135597828Y-90739427D01*
X135559733Y-90815617D01*
X135559733Y-90929903D01*
X135597828Y-91006093D01*
X135635923Y-91044189D01*
X135712114Y-91082284D01*
X136016876Y-91082284D01*
X134950209Y-91044189D02*
X134835923Y-91082284D01*
X134797828Y-91120379D01*
X134759733Y-91196570D01*
X134759733Y-91310855D01*
X134797828Y-91387046D01*
X134835923Y-91425141D01*
X134912114Y-91463236D01*
X135216876Y-91463236D01*
X135216876Y-90663236D01*
X134950209Y-90663236D01*
X134874019Y-90701332D01*
X134835923Y-90739427D01*
X134797828Y-90815617D01*
X134797828Y-90891808D01*
X134835923Y-90967998D01*
X134874019Y-91006093D01*
X134950209Y-91044189D01*
X135216876Y-91044189D01*
X134035923Y-90663236D02*
X134416876Y-90663236D01*
X134454971Y-91044189D01*
X134416876Y-91006093D01*
X134340685Y-90967998D01*
X134150209Y-90967998D01*
X134074019Y-91006093D01*
X134035923Y-91044189D01*
X133997828Y-91120379D01*
X133997828Y-91310855D01*
X134035923Y-91387046D01*
X134074019Y-91425141D01*
X134150209Y-91463236D01*
X134340685Y-91463236D01*
X134416876Y-91425141D01*
X134454971Y-91387046D01*
%TO.C,RB12*%
X135559733Y-103181100D02*
X135826400Y-102800148D01*
X136016876Y-103181100D02*
X136016876Y-102381100D01*
X135712114Y-102381100D01*
X135635924Y-102419196D01*
X135597828Y-102457291D01*
X135559733Y-102533481D01*
X135559733Y-102647767D01*
X135597828Y-102723957D01*
X135635924Y-102762053D01*
X135712114Y-102800148D01*
X136016876Y-102800148D01*
X134950209Y-102762053D02*
X134835924Y-102800148D01*
X134797828Y-102838243D01*
X134759733Y-102914434D01*
X134759733Y-103028719D01*
X134797828Y-103104910D01*
X134835924Y-103143005D01*
X134912114Y-103181100D01*
X135216876Y-103181100D01*
X135216876Y-102381100D01*
X134950209Y-102381100D01*
X134874019Y-102419196D01*
X134835924Y-102457291D01*
X134797828Y-102533481D01*
X134797828Y-102609672D01*
X134835924Y-102685862D01*
X134874019Y-102723957D01*
X134950209Y-102762053D01*
X135216876Y-102762053D01*
X133997828Y-103181100D02*
X134454971Y-103181100D01*
X134226400Y-103181100D02*
X134226400Y-102381100D01*
X134302590Y-102495386D01*
X134378781Y-102571576D01*
X134454971Y-102609672D01*
X133693067Y-102457291D02*
X133654971Y-102419196D01*
X133578781Y-102381100D01*
X133388305Y-102381100D01*
X133312114Y-102419196D01*
X133274019Y-102457291D01*
X133235924Y-102533481D01*
X133235924Y-102609672D01*
X133274019Y-102723957D01*
X133731162Y-103181100D01*
X133235924Y-103181100D01*
%TO.C,RB4*%
X135559733Y-89998503D02*
X135826400Y-89617551D01*
X136016876Y-89998503D02*
X136016876Y-89198503D01*
X135712114Y-89198503D01*
X135635923Y-89236599D01*
X135597828Y-89274694D01*
X135559733Y-89350884D01*
X135559733Y-89465170D01*
X135597828Y-89541360D01*
X135635923Y-89579456D01*
X135712114Y-89617551D01*
X136016876Y-89617551D01*
X134950209Y-89579456D02*
X134835923Y-89617551D01*
X134797828Y-89655646D01*
X134759733Y-89731837D01*
X134759733Y-89846122D01*
X134797828Y-89922313D01*
X134835923Y-89960408D01*
X134912114Y-89998503D01*
X135216876Y-89998503D01*
X135216876Y-89198503D01*
X134950209Y-89198503D01*
X134874019Y-89236599D01*
X134835923Y-89274694D01*
X134797828Y-89350884D01*
X134797828Y-89427075D01*
X134835923Y-89503265D01*
X134874019Y-89541360D01*
X134950209Y-89579456D01*
X135216876Y-89579456D01*
X134074019Y-89465170D02*
X134074019Y-89998503D01*
X134264495Y-89160408D02*
X134454971Y-89731837D01*
X133959733Y-89731837D01*
%TO.C,RB8*%
X135559733Y-97322168D02*
X135826400Y-96941216D01*
X136016876Y-97322168D02*
X136016876Y-96522168D01*
X135712114Y-96522168D01*
X135635923Y-96560264D01*
X135597828Y-96598359D01*
X135559733Y-96674549D01*
X135559733Y-96788835D01*
X135597828Y-96865025D01*
X135635923Y-96903121D01*
X135712114Y-96941216D01*
X136016876Y-96941216D01*
X134950209Y-96903121D02*
X134835923Y-96941216D01*
X134797828Y-96979311D01*
X134759733Y-97055502D01*
X134759733Y-97169787D01*
X134797828Y-97245978D01*
X134835923Y-97284073D01*
X134912114Y-97322168D01*
X135216876Y-97322168D01*
X135216876Y-96522168D01*
X134950209Y-96522168D01*
X134874019Y-96560264D01*
X134835923Y-96598359D01*
X134797828Y-96674549D01*
X134797828Y-96750740D01*
X134835923Y-96826930D01*
X134874019Y-96865025D01*
X134950209Y-96903121D01*
X135216876Y-96903121D01*
X134302590Y-96865025D02*
X134378780Y-96826930D01*
X134416876Y-96788835D01*
X134454971Y-96712644D01*
X134454971Y-96674549D01*
X134416876Y-96598359D01*
X134378780Y-96560264D01*
X134302590Y-96522168D01*
X134150209Y-96522168D01*
X134074019Y-96560264D01*
X134035923Y-96598359D01*
X133997828Y-96674549D01*
X133997828Y-96712644D01*
X134035923Y-96788835D01*
X134074019Y-96826930D01*
X134150209Y-96865025D01*
X134302590Y-96865025D01*
X134378780Y-96903121D01*
X134416876Y-96941216D01*
X134454971Y-97017406D01*
X134454971Y-97169787D01*
X134416876Y-97245978D01*
X134378780Y-97284073D01*
X134302590Y-97322168D01*
X134150209Y-97322168D01*
X134074019Y-97284073D01*
X134035923Y-97245978D01*
X133997828Y-97169787D01*
X133997828Y-97017406D01*
X134035923Y-96941216D01*
X134074019Y-96903121D01*
X134150209Y-96865025D01*
%TO.C,RB6*%
X135559733Y-94392702D02*
X135826400Y-94011750D01*
X136016876Y-94392702D02*
X136016876Y-93592702D01*
X135712114Y-93592702D01*
X135635923Y-93630798D01*
X135597828Y-93668893D01*
X135559733Y-93745083D01*
X135559733Y-93859369D01*
X135597828Y-93935559D01*
X135635923Y-93973655D01*
X135712114Y-94011750D01*
X136016876Y-94011750D01*
X134950209Y-93973655D02*
X134835923Y-94011750D01*
X134797828Y-94049845D01*
X134759733Y-94126036D01*
X134759733Y-94240321D01*
X134797828Y-94316512D01*
X134835923Y-94354607D01*
X134912114Y-94392702D01*
X135216876Y-94392702D01*
X135216876Y-93592702D01*
X134950209Y-93592702D01*
X134874019Y-93630798D01*
X134835923Y-93668893D01*
X134797828Y-93745083D01*
X134797828Y-93821274D01*
X134835923Y-93897464D01*
X134874019Y-93935559D01*
X134950209Y-93973655D01*
X135216876Y-93973655D01*
X134074019Y-93592702D02*
X134226400Y-93592702D01*
X134302590Y-93630798D01*
X134340685Y-93668893D01*
X134416876Y-93783178D01*
X134454971Y-93935559D01*
X134454971Y-94240321D01*
X134416876Y-94316512D01*
X134378780Y-94354607D01*
X134302590Y-94392702D01*
X134150209Y-94392702D01*
X134074019Y-94354607D01*
X134035923Y-94316512D01*
X133997828Y-94240321D01*
X133997828Y-94049845D01*
X134035923Y-93973655D01*
X134074019Y-93935559D01*
X134150209Y-93897464D01*
X134302590Y-93897464D01*
X134378780Y-93935559D01*
X134416876Y-93973655D01*
X134454971Y-94049845D01*
%TO.C,RA5*%
X135559733Y-92927969D02*
X135826400Y-92547017D01*
X136016876Y-92927969D02*
X136016876Y-92127969D01*
X135712114Y-92127969D01*
X135635923Y-92166065D01*
X135597828Y-92204160D01*
X135559733Y-92280350D01*
X135559733Y-92394636D01*
X135597828Y-92470826D01*
X135635923Y-92508922D01*
X135712114Y-92547017D01*
X136016876Y-92547017D01*
X135254971Y-92699398D02*
X134874019Y-92699398D01*
X135331162Y-92927969D02*
X135064495Y-92127969D01*
X134797828Y-92927969D01*
X134150209Y-92127969D02*
X134531162Y-92127969D01*
X134569257Y-92508922D01*
X134531162Y-92470826D01*
X134454971Y-92432731D01*
X134264495Y-92432731D01*
X134188304Y-92470826D01*
X134150209Y-92508922D01*
X134112114Y-92585112D01*
X134112114Y-92775588D01*
X134150209Y-92851779D01*
X134188304Y-92889874D01*
X134264495Y-92927969D01*
X134454971Y-92927969D01*
X134531162Y-92889874D01*
X134569257Y-92851779D01*
%TO.C,RB11*%
X135559733Y-101716367D02*
X135826400Y-101335415D01*
X136016876Y-101716367D02*
X136016876Y-100916367D01*
X135712114Y-100916367D01*
X135635924Y-100954463D01*
X135597828Y-100992558D01*
X135559733Y-101068748D01*
X135559733Y-101183034D01*
X135597828Y-101259224D01*
X135635924Y-101297320D01*
X135712114Y-101335415D01*
X136016876Y-101335415D01*
X134950209Y-101297320D02*
X134835924Y-101335415D01*
X134797828Y-101373510D01*
X134759733Y-101449701D01*
X134759733Y-101563986D01*
X134797828Y-101640177D01*
X134835924Y-101678272D01*
X134912114Y-101716367D01*
X135216876Y-101716367D01*
X135216876Y-100916367D01*
X134950209Y-100916367D01*
X134874019Y-100954463D01*
X134835924Y-100992558D01*
X134797828Y-101068748D01*
X134797828Y-101144939D01*
X134835924Y-101221129D01*
X134874019Y-101259224D01*
X134950209Y-101297320D01*
X135216876Y-101297320D01*
X133997828Y-101716367D02*
X134454971Y-101716367D01*
X134226400Y-101716367D02*
X134226400Y-100916367D01*
X134302590Y-101030653D01*
X134378781Y-101106843D01*
X134454971Y-101144939D01*
X133235924Y-101716367D02*
X133693067Y-101716367D01*
X133464495Y-101716367D02*
X133464495Y-100916367D01*
X133540686Y-101030653D01*
X133616876Y-101106843D01*
X133693067Y-101144939D01*
%TO.C,RB10*%
X135559733Y-100251634D02*
X135826400Y-99870682D01*
X136016876Y-100251634D02*
X136016876Y-99451634D01*
X135712114Y-99451634D01*
X135635924Y-99489730D01*
X135597828Y-99527825D01*
X135559733Y-99604015D01*
X135559733Y-99718301D01*
X135597828Y-99794491D01*
X135635924Y-99832587D01*
X135712114Y-99870682D01*
X136016876Y-99870682D01*
X134950209Y-99832587D02*
X134835924Y-99870682D01*
X134797828Y-99908777D01*
X134759733Y-99984968D01*
X134759733Y-100099253D01*
X134797828Y-100175444D01*
X134835924Y-100213539D01*
X134912114Y-100251634D01*
X135216876Y-100251634D01*
X135216876Y-99451634D01*
X134950209Y-99451634D01*
X134874019Y-99489730D01*
X134835924Y-99527825D01*
X134797828Y-99604015D01*
X134797828Y-99680206D01*
X134835924Y-99756396D01*
X134874019Y-99794491D01*
X134950209Y-99832587D01*
X135216876Y-99832587D01*
X133997828Y-100251634D02*
X134454971Y-100251634D01*
X134226400Y-100251634D02*
X134226400Y-99451634D01*
X134302590Y-99565920D01*
X134378781Y-99642110D01*
X134454971Y-99680206D01*
X133502590Y-99451634D02*
X133426400Y-99451634D01*
X133350209Y-99489730D01*
X133312114Y-99527825D01*
X133274019Y-99604015D01*
X133235924Y-99756396D01*
X133235924Y-99946872D01*
X133274019Y-100099253D01*
X133312114Y-100175444D01*
X133350209Y-100213539D01*
X133426400Y-100251634D01*
X133502590Y-100251634D01*
X133578781Y-100213539D01*
X133616876Y-100175444D01*
X133654971Y-100099253D01*
X133693067Y-99946872D01*
X133693067Y-99756396D01*
X133654971Y-99604015D01*
X133616876Y-99527825D01*
X133578781Y-99489730D01*
X133502590Y-99451634D01*
%TO.C,RB3*%
X135559733Y-88533770D02*
X135826400Y-88152818D01*
X136016876Y-88533770D02*
X136016876Y-87733770D01*
X135712114Y-87733770D01*
X135635923Y-87771866D01*
X135597828Y-87809961D01*
X135559733Y-87886151D01*
X135559733Y-88000437D01*
X135597828Y-88076627D01*
X135635923Y-88114723D01*
X135712114Y-88152818D01*
X136016876Y-88152818D01*
X134950209Y-88114723D02*
X134835923Y-88152818D01*
X134797828Y-88190913D01*
X134759733Y-88267104D01*
X134759733Y-88381389D01*
X134797828Y-88457580D01*
X134835923Y-88495675D01*
X134912114Y-88533770D01*
X135216876Y-88533770D01*
X135216876Y-87733770D01*
X134950209Y-87733770D01*
X134874019Y-87771866D01*
X134835923Y-87809961D01*
X134797828Y-87886151D01*
X134797828Y-87962342D01*
X134835923Y-88038532D01*
X134874019Y-88076627D01*
X134950209Y-88114723D01*
X135216876Y-88114723D01*
X134493066Y-87733770D02*
X133997828Y-87733770D01*
X134264495Y-88038532D01*
X134150209Y-88038532D01*
X134074019Y-88076627D01*
X134035923Y-88114723D01*
X133997828Y-88190913D01*
X133997828Y-88381389D01*
X134035923Y-88457580D01*
X134074019Y-88495675D01*
X134150209Y-88533770D01*
X134378780Y-88533770D01*
X134454971Y-88495675D01*
X134493066Y-88457580D01*
%TO.C,J1*%
X125009600Y-70764400D02*
X125009600Y-119084400D01*
X130209600Y-68164400D02*
X127609600Y-68164400D01*
X130209600Y-119084400D02*
X125009600Y-119084400D01*
X130209600Y-68164400D02*
X130209600Y-119084400D01*
X127609600Y-68164400D02*
X127609600Y-70764400D01*
X126339600Y-68164400D02*
X125009600Y-68164400D01*
X125009600Y-68164400D02*
X125009600Y-69494400D01*
X127609600Y-70764400D02*
X125009600Y-70764400D01*
%TO.C,RB7*%
X137633859Y-95107066D02*
X137941141Y-95107066D01*
X137633859Y-95867066D02*
X137941141Y-95867066D01*
%TO.C,RB2*%
X137939141Y-86318668D02*
X137631859Y-86318668D01*
X137939141Y-87078668D02*
X137631859Y-87078668D01*
%TO.C,RB1*%
X137939141Y-84853935D02*
X137631859Y-84853935D01*
X137939141Y-85613935D02*
X137631859Y-85613935D01*
%TO.C,RB9*%
X137939141Y-98036532D02*
X137631859Y-98036532D01*
X137939141Y-98796532D02*
X137631859Y-98796532D01*
%TO.C,RB5*%
X137939141Y-91472867D02*
X137631859Y-91472867D01*
X137939141Y-90712867D02*
X137631859Y-90712867D01*
%TO.C,RB12*%
X137939141Y-102430735D02*
X137631859Y-102430735D01*
X137939141Y-103190735D02*
X137631859Y-103190735D01*
%TO.C,RB4*%
X137939141Y-90008134D02*
X137631859Y-90008134D01*
X137939141Y-89248134D02*
X137631859Y-89248134D01*
%TO.C,RB8*%
X137939141Y-97331799D02*
X137631859Y-97331799D01*
X137939141Y-96571799D02*
X137631859Y-96571799D01*
%TO.C,RB6*%
X137939141Y-93642333D02*
X137631859Y-93642333D01*
X137939141Y-94402333D02*
X137631859Y-94402333D01*
%TO.C,RA5*%
X137939141Y-92937600D02*
X137631859Y-92937600D01*
X137939141Y-92177600D02*
X137631859Y-92177600D01*
%TO.C,RB11*%
X137939141Y-100965998D02*
X137631859Y-100965998D01*
X137939141Y-101725998D02*
X137631859Y-101725998D01*
%TO.C,RB10*%
X137939141Y-100261265D02*
X137631859Y-100261265D01*
X137939141Y-99501265D02*
X137631859Y-99501265D01*
%TO.C,RB3*%
X137939141Y-88543401D02*
X137631859Y-88543401D01*
X137939141Y-87783401D02*
X137631859Y-87783401D01*
%TD*%
%LPC*%
D11*
%TO.C,J1*%
X126339600Y-69494400D03*
D12*
X128879600Y-69494400D03*
X126339600Y-72034400D03*
X128879600Y-72034400D03*
X126339600Y-74574400D03*
X128879600Y-74574400D03*
X126339600Y-77114400D03*
X128879600Y-77114400D03*
X126339600Y-79654400D03*
X128879600Y-79654400D03*
X126339600Y-82194400D03*
X128879600Y-82194400D03*
X126339600Y-84734400D03*
X128879600Y-84734400D03*
X126339600Y-87274400D03*
X128879600Y-87274400D03*
X126339600Y-89814400D03*
X128879600Y-89814400D03*
X126339600Y-92354400D03*
X128879600Y-92354400D03*
X126339600Y-94894400D03*
X128879600Y-94894400D03*
X126339600Y-97434400D03*
X128879600Y-97434400D03*
X126339600Y-99974400D03*
X128879600Y-99974400D03*
X126339600Y-102514400D03*
X128879600Y-102514400D03*
X126339600Y-105054400D03*
X128879600Y-105054400D03*
X126339600Y-107594400D03*
X128879600Y-107594400D03*
X126339600Y-110134400D03*
X128879600Y-110134400D03*
X126339600Y-112674400D03*
X128879600Y-112674400D03*
X126339600Y-115214400D03*
X128879600Y-115214400D03*
X126339600Y-117754400D03*
X128879600Y-117754400D03*
%TD*%
D11*
%TO.C,J2*%
X141292700Y-80111600D03*
D12*
X143832700Y-80111600D03*
%TD*%
D13*
%TO.C,RB7*%
X137277500Y-95487066D03*
X138297500Y-95487066D03*
%TD*%
D14*
%TO.C,RB2*%
X138295500Y-86698668D03*
X137275500Y-86698668D03*
%TD*%
%TO.C,RB1*%
X138295500Y-85233935D03*
X137275500Y-85233935D03*
%TD*%
%TO.C,RB9*%
X138295500Y-98416532D03*
X137275500Y-98416532D03*
%TD*%
%TO.C,RB5*%
X138295500Y-91092867D03*
X137275500Y-91092867D03*
%TD*%
%TO.C,RB12*%
X138295500Y-102810735D03*
X137275500Y-102810735D03*
%TD*%
%TO.C,RB4*%
X138295500Y-89628134D03*
X137275500Y-89628134D03*
%TD*%
%TO.C,RB8*%
X138295500Y-96951799D03*
X137275500Y-96951799D03*
%TD*%
%TO.C,RB6*%
X138295500Y-94022333D03*
X137275500Y-94022333D03*
%TD*%
%TO.C,RA5*%
X138295500Y-92557600D03*
X137275500Y-92557600D03*
%TD*%
%TO.C,RB11*%
X138295500Y-101345998D03*
X137275500Y-101345998D03*
%TD*%
%TO.C,RB10*%
X138295500Y-99881265D03*
X137275500Y-99881265D03*
%TD*%
%TO.C,RB3*%
X138295500Y-88163401D03*
X137275500Y-88163401D03*
%TD*%
M02*
