M48
; DRILL file {KiCad (6.0.9)} date 2022年12月05日 星期一 09时35分11秒
; FORMAT={-:-/ absolute / inch / decimal}
; #@! TF.CreationDate,2022-12-05T09:35:11+08:00
; #@! TF.GenerationSoftware,Kicad,Pcbnew,(6.0.9)
; #@! TF.FileFunction,Plated,1,2,PTH
FMAT,2
INCH
; #@! TA.AperFunction,Plated,PTH,ViaDrill
T1C0.0118
; #@! TA.AperFunction,Plated,PTH,ComponentDrill
T2C0.0394
%
G90
G05
T1
X5.164Y-2.728
X5.164Y-2.828
X5.164Y-3.028
X5.164Y-3.228
X5.164Y-4.128
X5.164Y-4.328
X5.164Y-4.528
X5.164Y-4.628
X5.1747Y-3.8587
X5.1767Y-3.818
X5.1787Y-3.7447
X5.2217Y-4.241
X5.226Y-3.378
X5.226Y-3.442
X5.226Y-3.502
X5.226Y-3.56
X5.226Y-3.694
X5.226Y-3.79
X5.226Y-3.908
X5.226Y-3.962
X5.226Y-4.02
X5.2617Y-4.22
X5.264Y-2.728
X5.264Y-2.828
X5.264Y-2.928
X5.264Y-3.128
X5.264Y-4.128
X5.264Y-4.328
X5.264Y-4.528
X5.326Y-3.378
X5.326Y-3.442
X5.326Y-3.502
X5.326Y-3.56
X5.326Y-3.694
X5.326Y-3.79
X5.326Y-3.908
X5.326Y-3.962
X5.326Y-4.02
X5.364Y-2.928
X5.364Y-3.028
X5.364Y-3.228
X5.364Y-4.128
X5.364Y-4.328
X5.364Y-4.528
X5.3757Y-3.3557
X5.3757Y-3.4133
X5.3757Y-3.471
X5.3757Y-3.5287
X5.3757Y-3.5863
X5.3757Y-3.817
X5.3757Y-3.8747
X5.3757Y-3.9323
X5.3757Y-3.99
X5.3757Y-4.0477
X5.464Y-2.928
X5.464Y-3.028
X5.464Y-3.128
X5.464Y-4.128
X5.464Y-4.428
X5.5017Y-3.471
X5.5017Y-3.529
X5.5017Y-3.5873
X5.5017Y-3.644
X5.5017Y-3.7017
X5.504Y-3.8177
X5.564Y-3.028
X5.564Y-3.228
X5.564Y-4.128
X5.564Y-4.328
X5.5867Y-3.312
X5.6467Y-3.4044
X5.664Y-3.028
X5.664Y-4.328
X5.7577Y-4.055
X5.764Y-3.028
X5.764Y-3.128
X5.764Y-3.228
X5.764Y-4.128
X5.764Y-4.328
X5.795Y-3.9556
X5.864Y-3.128
X5.864Y-3.228
X5.864Y-4.128
X5.864Y-4.328
X5.9067Y-3.8375
X5.9067Y-3.8768
X5.916Y-3.576
X5.916Y-3.64
X5.9361Y-3.8375
X5.9361Y-3.8768
X5.9361Y-3.9162
X5.9361Y-3.9556
X5.964Y-3.128
X5.964Y-3.328
X5.964Y-3.428
X5.964Y-4.328
X5.9917Y-3.9949
X6.016Y-3.576
X6.016Y-3.64
X6.0217Y-4.0146
X6.064Y-3.128
X6.064Y-3.228
X6.064Y-3.328
X6.064Y-3.428
X6.064Y-4.328
T2
X4.974Y-2.736
X4.974Y-2.836
X4.974Y-2.936
X4.974Y-3.036
X4.974Y-3.136
X4.974Y-3.236
X4.974Y-3.336
X4.974Y-3.436
X4.974Y-3.536
X4.974Y-3.636
X4.974Y-3.736
X4.974Y-3.836
X4.974Y-3.936
X4.974Y-4.036
X4.974Y-4.136
X4.974Y-4.236
X4.974Y-4.336
X4.974Y-4.436
X4.974Y-4.536
X4.974Y-4.636
X5.074Y-2.736
X5.074Y-2.836
X5.074Y-2.936
X5.074Y-3.036
X5.074Y-3.136
X5.074Y-3.236
X5.074Y-3.336
X5.074Y-3.436
X5.074Y-3.536
X5.074Y-3.636
X5.074Y-3.736
X5.074Y-3.836
X5.074Y-3.936
X5.074Y-4.036
X5.074Y-4.136
X5.074Y-4.236
X5.074Y-4.336
X5.074Y-4.436
X5.074Y-4.536
X5.074Y-4.636
X5.5627Y-3.154
X5.6627Y-3.154
T0
M30
