%TF.GenerationSoftware,KiCad,Pcbnew,(6.0.9)*%
%TF.CreationDate,2022-11-30T21:43:21+08:00*%
%TF.ProjectId,Sitronix_3.97''_480x800,53697472-6f6e-4697-985f-332e39372727,rev?*%
%TF.SameCoordinates,Original*%
%TF.FileFunction,Soldermask,Bot*%
%TF.FilePolarity,Negative*%
%FSLAX46Y46*%
G04 Gerber Fmt 4.6, Leading zero omitted, Abs format (unit mm)*
G04 Created by KiCad (PCBNEW (6.0.9)) date 2022-11-30 21:43:21*
%MOMM*%
%LPD*%
G01*
G04 APERTURE LIST*
G04 Aperture macros list*
%AMRoundRect*
0 Rectangle with rounded corners*
0 $1 Rounding radius*
0 $2 $3 $4 $5 $6 $7 $8 $9 X,Y pos of 4 corners*
0 Add a 4 corners polygon primitive as box body*
4,1,4,$2,$3,$4,$5,$6,$7,$8,$9,$2,$3,0*
0 Add four circle primitives for the rounded corners*
1,1,$1+$1,$2,$3*
1,1,$1+$1,$4,$5*
1,1,$1+$1,$6,$7*
1,1,$1+$1,$8,$9*
0 Add four rect primitives between the rounded corners*
20,1,$1+$1,$2,$3,$4,$5,0*
20,1,$1+$1,$4,$5,$6,$7,0*
20,1,$1+$1,$6,$7,$8,$9,0*
20,1,$1+$1,$8,$9,$2,$3,0*%
G04 Aperture macros list end*
%ADD10RoundRect,0.200000X-0.275000X0.200000X-0.275000X-0.200000X0.275000X-0.200000X0.275000X0.200000X0*%
%ADD11R,1.700000X1.700000*%
%ADD12O,1.700000X1.700000*%
G04 APERTURE END LIST*
D10*
%TO.C,R1*%
X46734000Y-104457000D03*
X46734000Y-102807000D03*
%TD*%
%TO.C,R2*%
X45085000Y-104457000D03*
X45085000Y-102807000D03*
%TD*%
D11*
%TO.C,J4*%
X40762000Y-115443000D03*
D12*
X43302000Y-115443000D03*
%TD*%
D11*
%TO.C,J3*%
X47005000Y-115443000D03*
D12*
X49545000Y-115443000D03*
X52085000Y-115443000D03*
%TD*%
%TO.C,J1*%
X65512000Y-122204000D03*
X62972000Y-122204000D03*
X65512000Y-119664000D03*
X62972000Y-119664000D03*
X65512000Y-117124000D03*
X62972000Y-117124000D03*
X65512000Y-114584000D03*
X62972000Y-114584000D03*
X65512000Y-112044000D03*
X62972000Y-112044000D03*
X65512000Y-109504000D03*
X62972000Y-109504000D03*
X65512000Y-106964000D03*
X62972000Y-106964000D03*
X65512000Y-104424000D03*
X62972000Y-104424000D03*
X65512000Y-101884000D03*
X62972000Y-101884000D03*
X65512000Y-99344000D03*
X62972000Y-99344000D03*
X65512000Y-96804000D03*
X62972000Y-96804000D03*
X65512000Y-94264000D03*
X62972000Y-94264000D03*
X65512000Y-91724000D03*
X62972000Y-91724000D03*
X65512000Y-89184000D03*
X62972000Y-89184000D03*
X65512000Y-86644000D03*
X62972000Y-86644000D03*
X65512000Y-84104000D03*
X62972000Y-84104000D03*
X65512000Y-81564000D03*
X62972000Y-81564000D03*
X65512000Y-79024000D03*
X62972000Y-79024000D03*
X65512000Y-76484000D03*
X62972000Y-76484000D03*
X65512000Y-73944000D03*
D11*
X62972000Y-73944000D03*
%TD*%
M02*
