%TF.GenerationSoftware,KiCad,Pcbnew,(6.0.9)*%
%TF.CreationDate,2022-11-21T18:53:06+08:00*%
%TF.ProjectId,Sitronix_3.97''_480x800,53697472-6f6e-4697-985f-332e39372727,rev?*%
%TF.SameCoordinates,Original*%
%TF.FileFunction,Legend,Top*%
%TF.FilePolarity,Positive*%
%FSLAX46Y46*%
G04 Gerber Fmt 4.6, Leading zero omitted, Abs format (unit mm)*
G04 Created by KiCad (PCBNEW (6.0.9)) date 2022-11-21 18:53:06*
%MOMM*%
%LPD*%
G01*
G04 APERTURE LIST*
G04 Aperture macros list*
%AMRoundRect*
0 Rectangle with rounded corners*
0 $1 Rounding radius*
0 $2 $3 $4 $5 $6 $7 $8 $9 X,Y pos of 4 corners*
0 Add a 4 corners polygon primitive as box body*
4,1,4,$2,$3,$4,$5,$6,$7,$8,$9,$2,$3,0*
0 Add four circle primitives for the rounded corners*
1,1,$1+$1,$2,$3*
1,1,$1+$1,$4,$5*
1,1,$1+$1,$6,$7*
1,1,$1+$1,$8,$9*
0 Add four rect primitives between the rounded corners*
20,1,$1+$1,$2,$3,$4,$5,0*
20,1,$1+$1,$4,$5,$6,$7,0*
20,1,$1+$1,$6,$7,$8,$9,0*
20,1,$1+$1,$8,$9,$2,$3,0*%
G04 Aperture macros list end*
%ADD10C,0.150000*%
%ADD11C,0.300000*%
%ADD12C,0.120000*%
%ADD13R,0.800000X0.260000*%
%ADD14R,0.650000X0.300000*%
%ADD15R,0.850000X0.400000*%
%ADD16RoundRect,0.200000X-0.200000X-0.275000X0.200000X-0.275000X0.200000X0.275000X-0.200000X0.275000X0*%
%ADD17R,1.700000X1.700000*%
%ADD18O,1.700000X1.700000*%
G04 APERTURE END LIST*
D10*
X76002666Y-62380761D02*
X76145523Y-62428380D01*
X76383619Y-62428380D01*
X76478857Y-62380761D01*
X76526476Y-62333142D01*
X76574095Y-62237904D01*
X76574095Y-62142666D01*
X76526476Y-62047428D01*
X76478857Y-61999809D01*
X76383619Y-61952190D01*
X76193142Y-61904571D01*
X76097904Y-61856952D01*
X76050285Y-61809333D01*
X76002666Y-61714095D01*
X76002666Y-61618857D01*
X76050285Y-61523619D01*
X76097904Y-61476000D01*
X76193142Y-61428380D01*
X76431238Y-61428380D01*
X76574095Y-61476000D01*
X77002666Y-62428380D02*
X77002666Y-61761714D01*
X77002666Y-61428380D02*
X76955047Y-61476000D01*
X77002666Y-61523619D01*
X77050285Y-61476000D01*
X77002666Y-61428380D01*
X77002666Y-61523619D01*
X77336000Y-61761714D02*
X77716952Y-61761714D01*
X77478857Y-61428380D02*
X77478857Y-62285523D01*
X77526476Y-62380761D01*
X77621714Y-62428380D01*
X77716952Y-62428380D01*
X78050285Y-62428380D02*
X78050285Y-61761714D01*
X78050285Y-61952190D02*
X78097904Y-61856952D01*
X78145523Y-61809333D01*
X78240761Y-61761714D01*
X78336000Y-61761714D01*
X78812190Y-62428380D02*
X78716952Y-62380761D01*
X78669333Y-62333142D01*
X78621714Y-62237904D01*
X78621714Y-61952190D01*
X78669333Y-61856952D01*
X78716952Y-61809333D01*
X78812190Y-61761714D01*
X78955047Y-61761714D01*
X79050285Y-61809333D01*
X79097904Y-61856952D01*
X79145523Y-61952190D01*
X79145523Y-62237904D01*
X79097904Y-62333142D01*
X79050285Y-62380761D01*
X78955047Y-62428380D01*
X78812190Y-62428380D01*
X79574095Y-61761714D02*
X79574095Y-62428380D01*
X79574095Y-61856952D02*
X79621714Y-61809333D01*
X79716952Y-61761714D01*
X79859809Y-61761714D01*
X79955047Y-61809333D01*
X80002666Y-61904571D01*
X80002666Y-62428380D01*
X80478857Y-62428380D02*
X80478857Y-61761714D01*
X80478857Y-61428380D02*
X80431238Y-61476000D01*
X80478857Y-61523619D01*
X80526476Y-61476000D01*
X80478857Y-61428380D01*
X80478857Y-61523619D01*
X80859809Y-62428380D02*
X81383619Y-61761714D01*
X80859809Y-61761714D02*
X81383619Y-62428380D01*
X81526476Y-62523619D02*
X82288380Y-62523619D01*
X82431238Y-61428380D02*
X83050285Y-61428380D01*
X82716952Y-61809333D01*
X82859809Y-61809333D01*
X82955047Y-61856952D01*
X83002666Y-61904571D01*
X83050285Y-61999809D01*
X83050285Y-62237904D01*
X83002666Y-62333142D01*
X82955047Y-62380761D01*
X82859809Y-62428380D01*
X82574095Y-62428380D01*
X82478857Y-62380761D01*
X82431238Y-62333142D01*
X83478857Y-62333142D02*
X83526476Y-62380761D01*
X83478857Y-62428380D01*
X83431238Y-62380761D01*
X83478857Y-62333142D01*
X83478857Y-62428380D01*
X84002666Y-62428380D02*
X84193142Y-62428380D01*
X84288380Y-62380761D01*
X84336000Y-62333142D01*
X84431238Y-62190285D01*
X84478857Y-61999809D01*
X84478857Y-61618857D01*
X84431238Y-61523619D01*
X84383619Y-61476000D01*
X84288380Y-61428380D01*
X84097904Y-61428380D01*
X84002666Y-61476000D01*
X83955047Y-61523619D01*
X83907428Y-61618857D01*
X83907428Y-61856952D01*
X83955047Y-61952190D01*
X84002666Y-61999809D01*
X84097904Y-62047428D01*
X84288380Y-62047428D01*
X84383619Y-61999809D01*
X84431238Y-61952190D01*
X84478857Y-61856952D01*
X84812190Y-61428380D02*
X85478857Y-61428380D01*
X85050285Y-62428380D01*
X85907428Y-61428380D02*
X85812190Y-61618857D01*
X86383619Y-61428380D02*
X86288380Y-61618857D01*
X86574095Y-62523619D02*
X87336000Y-62523619D01*
X88002666Y-61761714D02*
X88002666Y-62428380D01*
X87764571Y-61380761D02*
X87526476Y-62095047D01*
X88145523Y-62095047D01*
X88669333Y-61856952D02*
X88574095Y-61809333D01*
X88526476Y-61761714D01*
X88478857Y-61666476D01*
X88478857Y-61618857D01*
X88526476Y-61523619D01*
X88574095Y-61476000D01*
X88669333Y-61428380D01*
X88859809Y-61428380D01*
X88955047Y-61476000D01*
X89002666Y-61523619D01*
X89050285Y-61618857D01*
X89050285Y-61666476D01*
X89002666Y-61761714D01*
X88955047Y-61809333D01*
X88859809Y-61856952D01*
X88669333Y-61856952D01*
X88574095Y-61904571D01*
X88526476Y-61952190D01*
X88478857Y-62047428D01*
X88478857Y-62237904D01*
X88526476Y-62333142D01*
X88574095Y-62380761D01*
X88669333Y-62428380D01*
X88859809Y-62428380D01*
X88955047Y-62380761D01*
X89002666Y-62333142D01*
X89050285Y-62237904D01*
X89050285Y-62047428D01*
X89002666Y-61952190D01*
X88955047Y-61904571D01*
X88859809Y-61856952D01*
X89669333Y-61428380D02*
X89764571Y-61428380D01*
X89859809Y-61476000D01*
X89907428Y-61523619D01*
X89955047Y-61618857D01*
X90002666Y-61809333D01*
X90002666Y-62047428D01*
X89955047Y-62237904D01*
X89907428Y-62333142D01*
X89859809Y-62380761D01*
X89764571Y-62428380D01*
X89669333Y-62428380D01*
X89574095Y-62380761D01*
X89526476Y-62333142D01*
X89478857Y-62237904D01*
X89431238Y-62047428D01*
X89431238Y-61809333D01*
X89478857Y-61618857D01*
X89526476Y-61523619D01*
X89574095Y-61476000D01*
X89669333Y-61428380D01*
X90336000Y-62428380D02*
X90859809Y-61761714D01*
X90336000Y-61761714D02*
X90859809Y-62428380D01*
X91383619Y-61856952D02*
X91288380Y-61809333D01*
X91240761Y-61761714D01*
X91193142Y-61666476D01*
X91193142Y-61618857D01*
X91240761Y-61523619D01*
X91288380Y-61476000D01*
X91383619Y-61428380D01*
X91574095Y-61428380D01*
X91669333Y-61476000D01*
X91716952Y-61523619D01*
X91764571Y-61618857D01*
X91764571Y-61666476D01*
X91716952Y-61761714D01*
X91669333Y-61809333D01*
X91574095Y-61856952D01*
X91383619Y-61856952D01*
X91288380Y-61904571D01*
X91240761Y-61952190D01*
X91193142Y-62047428D01*
X91193142Y-62237904D01*
X91240761Y-62333142D01*
X91288380Y-62380761D01*
X91383619Y-62428380D01*
X91574095Y-62428380D01*
X91669333Y-62380761D01*
X91716952Y-62333142D01*
X91764571Y-62237904D01*
X91764571Y-62047428D01*
X91716952Y-61952190D01*
X91669333Y-61904571D01*
X91574095Y-61856952D01*
X92383619Y-61428380D02*
X92478857Y-61428380D01*
X92574095Y-61476000D01*
X92621714Y-61523619D01*
X92669333Y-61618857D01*
X92716952Y-61809333D01*
X92716952Y-62047428D01*
X92669333Y-62237904D01*
X92621714Y-62333142D01*
X92574095Y-62380761D01*
X92478857Y-62428380D01*
X92383619Y-62428380D01*
X92288380Y-62380761D01*
X92240761Y-62333142D01*
X92193142Y-62237904D01*
X92145523Y-62047428D01*
X92145523Y-61809333D01*
X92193142Y-61618857D01*
X92240761Y-61523619D01*
X92288380Y-61476000D01*
X92383619Y-61428380D01*
X93336000Y-61428380D02*
X93431238Y-61428380D01*
X93526476Y-61476000D01*
X93574095Y-61523619D01*
X93621714Y-61618857D01*
X93669333Y-61809333D01*
X93669333Y-62047428D01*
X93621714Y-62237904D01*
X93574095Y-62333142D01*
X93526476Y-62380761D01*
X93431238Y-62428380D01*
X93336000Y-62428380D01*
X93240761Y-62380761D01*
X93193142Y-62333142D01*
X93145523Y-62237904D01*
X93097904Y-62047428D01*
X93097904Y-61809333D01*
X93145523Y-61618857D01*
X93193142Y-61523619D01*
X93240761Y-61476000D01*
X93336000Y-61428380D01*
D11*
X93007571Y-111378714D02*
X93007571Y-112093000D01*
X91507571Y-112093000D01*
X92221857Y-110878714D02*
X92221857Y-110378714D01*
X93007571Y-110164428D02*
X93007571Y-110878714D01*
X91507571Y-110878714D01*
X91507571Y-110164428D01*
X93007571Y-109521571D02*
X91507571Y-109521571D01*
X91507571Y-109164428D01*
X91579000Y-108950142D01*
X91721857Y-108807285D01*
X91864714Y-108735857D01*
X92150428Y-108664428D01*
X92364714Y-108664428D01*
X92650428Y-108735857D01*
X92793285Y-108807285D01*
X92936142Y-108950142D01*
X93007571Y-109164428D01*
X93007571Y-109521571D01*
X93150428Y-108378714D02*
X93150428Y-107235857D01*
X91579000Y-106093000D02*
X91507571Y-106235857D01*
X91507571Y-106450142D01*
X91579000Y-106664428D01*
X91721857Y-106807285D01*
X91864714Y-106878714D01*
X92150428Y-106950142D01*
X92364714Y-106950142D01*
X92650428Y-106878714D01*
X92793285Y-106807285D01*
X92936142Y-106664428D01*
X93007571Y-106450142D01*
X93007571Y-106307285D01*
X92936142Y-106093000D01*
X92864714Y-106021571D01*
X92364714Y-106021571D01*
X92364714Y-106307285D01*
X90213571Y-111378714D02*
X90213571Y-112093000D01*
X88713571Y-112093000D01*
X89427857Y-110878714D02*
X89427857Y-110378714D01*
X90213571Y-110164428D02*
X90213571Y-110878714D01*
X88713571Y-110878714D01*
X88713571Y-110164428D01*
X90213571Y-109521571D02*
X88713571Y-109521571D01*
X88713571Y-109164428D01*
X88785000Y-108950142D01*
X88927857Y-108807285D01*
X89070714Y-108735857D01*
X89356428Y-108664428D01*
X89570714Y-108664428D01*
X89856428Y-108735857D01*
X89999285Y-108807285D01*
X90142142Y-108950142D01*
X90213571Y-109164428D01*
X90213571Y-109521571D01*
X90356428Y-108378714D02*
X90356428Y-107235857D01*
X90213571Y-106021571D02*
X89499285Y-106521571D01*
X90213571Y-106878714D02*
X88713571Y-106878714D01*
X88713571Y-106307285D01*
X88785000Y-106164428D01*
X88856428Y-106093000D01*
X88999285Y-106021571D01*
X89213571Y-106021571D01*
X89356428Y-106093000D01*
X89427857Y-106164428D01*
X89499285Y-106307285D01*
X89499285Y-106878714D01*
X87673571Y-111164428D02*
X87673571Y-111878714D01*
X86173571Y-111878714D01*
X86887857Y-110664428D02*
X86887857Y-110164428D01*
X87673571Y-109950142D02*
X87673571Y-110664428D01*
X86173571Y-110664428D01*
X86173571Y-109950142D01*
X87673571Y-109307285D02*
X86173571Y-109307285D01*
X86173571Y-108950142D01*
X86245000Y-108735857D01*
X86387857Y-108592999D01*
X86530714Y-108521571D01*
X86816428Y-108450142D01*
X87030714Y-108450142D01*
X87316428Y-108521571D01*
X87459285Y-108592999D01*
X87602142Y-108735857D01*
X87673571Y-108950142D01*
X87673571Y-109307285D01*
X87816428Y-108164428D02*
X87816428Y-107021571D01*
X86959285Y-106378714D02*
X87673571Y-106378714D01*
X86173571Y-106878714D02*
X86959285Y-106378714D01*
X86173571Y-105878714D01*
X83204857Y-110021571D02*
X83276285Y-109807286D01*
X83347714Y-109735857D01*
X83490571Y-109664428D01*
X83704857Y-109664428D01*
X83847714Y-109735857D01*
X83919142Y-109807286D01*
X83990571Y-109950143D01*
X83990571Y-110521571D01*
X82490571Y-110521571D01*
X82490571Y-110021571D01*
X82562000Y-109878714D01*
X82633428Y-109807286D01*
X82776285Y-109735857D01*
X82919142Y-109735857D01*
X83062000Y-109807286D01*
X83133428Y-109878714D01*
X83204857Y-110021571D01*
X83204857Y-110521571D01*
X83990571Y-108307286D02*
X83990571Y-109021571D01*
X82490571Y-109021571D01*
X84133428Y-108164428D02*
X84133428Y-107021571D01*
X83562000Y-106735857D02*
X83562000Y-106021571D01*
X83990571Y-106878714D02*
X82490571Y-106378714D01*
X83990571Y-105878714D01*
X80283857Y-110235857D02*
X80355285Y-110021571D01*
X80426714Y-109950143D01*
X80569571Y-109878714D01*
X80783857Y-109878714D01*
X80926714Y-109950143D01*
X80998142Y-110021571D01*
X81069571Y-110164429D01*
X81069571Y-110735857D01*
X79569571Y-110735857D01*
X79569571Y-110235857D01*
X79641000Y-110093000D01*
X79712428Y-110021571D01*
X79855285Y-109950143D01*
X79998142Y-109950143D01*
X80141000Y-110021571D01*
X80212428Y-110093000D01*
X80283857Y-110235857D01*
X80283857Y-110735857D01*
X81069571Y-108521571D02*
X81069571Y-109235857D01*
X79569571Y-109235857D01*
X81212428Y-108378714D02*
X81212428Y-107235857D01*
X81069571Y-106878714D02*
X79569571Y-106878714D01*
X81069571Y-106021571D02*
X80212428Y-106664429D01*
X79569571Y-106021571D02*
X80426714Y-106878714D01*
D10*
%TO.C,J2*%
X80057666Y-96648380D02*
X80057666Y-97362666D01*
X80010047Y-97505523D01*
X79914809Y-97600761D01*
X79771952Y-97648380D01*
X79676714Y-97648380D01*
X80486238Y-96743619D02*
X80533857Y-96696000D01*
X80629095Y-96648380D01*
X80867190Y-96648380D01*
X80962428Y-96696000D01*
X81010047Y-96743619D01*
X81057666Y-96838857D01*
X81057666Y-96934095D01*
X81010047Y-97076952D01*
X80438619Y-97648380D01*
X81057666Y-97648380D01*
%TO.C,R2*%
X86510333Y-89698380D02*
X86177000Y-89222190D01*
X85938904Y-89698380D02*
X85938904Y-88698380D01*
X86319857Y-88698380D01*
X86415095Y-88746000D01*
X86462714Y-88793619D01*
X86510333Y-88888857D01*
X86510333Y-89031714D01*
X86462714Y-89126952D01*
X86415095Y-89174571D01*
X86319857Y-89222190D01*
X85938904Y-89222190D01*
X86891285Y-88793619D02*
X86938904Y-88746000D01*
X87034142Y-88698380D01*
X87272238Y-88698380D01*
X87367476Y-88746000D01*
X87415095Y-88793619D01*
X87462714Y-88888857D01*
X87462714Y-88984095D01*
X87415095Y-89126952D01*
X86843666Y-89698380D01*
X87462714Y-89698380D01*
%TO.C,J4*%
X94281666Y-103465380D02*
X94281666Y-104179666D01*
X94234047Y-104322523D01*
X94138809Y-104417761D01*
X93995952Y-104465380D01*
X93900714Y-104465380D01*
X95186428Y-103798714D02*
X95186428Y-104465380D01*
X94948333Y-103417761D02*
X94710238Y-104132047D01*
X95329285Y-104132047D01*
%TO.C,J3*%
X77517666Y-103465380D02*
X77517666Y-104179666D01*
X77470047Y-104322523D01*
X77374809Y-104417761D01*
X77231952Y-104465380D01*
X77136714Y-104465380D01*
X77898619Y-103465380D02*
X78517666Y-103465380D01*
X78184333Y-103846333D01*
X78327190Y-103846333D01*
X78422428Y-103893952D01*
X78470047Y-103941571D01*
X78517666Y-104036809D01*
X78517666Y-104274904D01*
X78470047Y-104370142D01*
X78422428Y-104417761D01*
X78327190Y-104465380D01*
X78041476Y-104465380D01*
X77946238Y-104417761D01*
X77898619Y-104370142D01*
%TO.C,R1*%
X86510333Y-80698380D02*
X86177000Y-80222190D01*
X85938904Y-80698380D02*
X85938904Y-79698380D01*
X86319857Y-79698380D01*
X86415095Y-79746000D01*
X86462714Y-79793619D01*
X86510333Y-79888857D01*
X86510333Y-80031714D01*
X86462714Y-80126952D01*
X86415095Y-80174571D01*
X86319857Y-80222190D01*
X85938904Y-80222190D01*
X87462714Y-80698380D02*
X86891285Y-80698380D01*
X87177000Y-80698380D02*
X87177000Y-79698380D01*
X87081761Y-79841238D01*
X86986523Y-79936476D01*
X86891285Y-79984095D01*
D12*
%TO.C,J2*%
X77928000Y-79526000D02*
X77928000Y-87376000D01*
X78838000Y-95226000D02*
X77928000Y-95226000D01*
X78588000Y-95516000D02*
X78838000Y-95516000D01*
X82578000Y-94876000D02*
X82790132Y-94726000D01*
X78838000Y-79236000D02*
X78838000Y-79526000D01*
X78838000Y-95516000D02*
X78838000Y-95226000D01*
X82790132Y-95026000D02*
X82578000Y-94876000D01*
X82338000Y-79216000D02*
X82338000Y-78716000D01*
X82338000Y-96036000D02*
X78588000Y-96036000D01*
X77928000Y-95226000D02*
X77928000Y-87376000D01*
X82338000Y-95536000D02*
X82338000Y-96036000D01*
X82338000Y-78716000D02*
X78588000Y-78716000D01*
X78838000Y-79526000D02*
X77928000Y-79526000D01*
X78588000Y-78716000D02*
X78588000Y-79236000D01*
X82790132Y-94726000D02*
X82790132Y-95026000D01*
X78588000Y-79236000D02*
X78838000Y-79236000D01*
X78588000Y-96036000D02*
X78588000Y-95516000D01*
%TO.C,R2*%
X86439742Y-91198500D02*
X86914258Y-91198500D01*
X86439742Y-90153500D02*
X86914258Y-90153500D01*
%TO.C,J4*%
X84378000Y-102556000D02*
X84378000Y-103886000D01*
X83048000Y-102556000D02*
X84378000Y-102556000D01*
X79178000Y-102556000D02*
X79178000Y-105216000D01*
X81778000Y-105216000D02*
X79178000Y-105216000D01*
X81778000Y-102556000D02*
X81778000Y-105216000D01*
X81778000Y-102556000D02*
X79178000Y-102556000D01*
%TO.C,J3*%
X88138000Y-102556000D02*
X93278000Y-102556000D01*
X88138000Y-105216000D02*
X88138000Y-102556000D01*
X88138000Y-105216000D02*
X93278000Y-105216000D01*
X93278000Y-105216000D02*
X93278000Y-102556000D01*
X85538000Y-105216000D02*
X85538000Y-103886000D01*
X86868000Y-105216000D02*
X85538000Y-105216000D01*
%TO.C,R1*%
X86439742Y-82198500D02*
X86914258Y-82198500D01*
X86439742Y-81153500D02*
X86914258Y-81153500D01*
%TD*%
%LPC*%
D13*
%TO.C,J2*%
X81918000Y-94876000D03*
D14*
X79043000Y-94576000D03*
D13*
X81918000Y-94276000D03*
D14*
X79043000Y-93976000D03*
D13*
X81918000Y-93676000D03*
D14*
X79043000Y-93376000D03*
D13*
X81918000Y-93076000D03*
D14*
X79043000Y-92776000D03*
D13*
X81918000Y-92476000D03*
D14*
X79043000Y-92176000D03*
D13*
X81918000Y-91876000D03*
D14*
X79043000Y-91576000D03*
D13*
X81918000Y-91276000D03*
D14*
X79043000Y-90976000D03*
D13*
X81918000Y-90676000D03*
D14*
X79043000Y-90376000D03*
D13*
X81918000Y-90076000D03*
D14*
X79043000Y-89776000D03*
D13*
X81918000Y-89476000D03*
D14*
X79043000Y-89176000D03*
D13*
X81918000Y-88876000D03*
D14*
X79043000Y-88576000D03*
D13*
X81918000Y-88276000D03*
D14*
X79043000Y-87976000D03*
D13*
X81918000Y-87676000D03*
D14*
X79043000Y-87376000D03*
D13*
X81918000Y-87076000D03*
D14*
X79043000Y-86776000D03*
D13*
X81918000Y-86476000D03*
D14*
X79043000Y-86176000D03*
D13*
X81918000Y-85876000D03*
D14*
X79043000Y-85576000D03*
D13*
X81918000Y-85276000D03*
D14*
X79043000Y-84976000D03*
D13*
X81918000Y-84676000D03*
D14*
X79043000Y-84376000D03*
D13*
X81918000Y-84076000D03*
D14*
X79043000Y-83776000D03*
D13*
X81918000Y-83476000D03*
D14*
X79043000Y-83176000D03*
D13*
X81918000Y-82876000D03*
D14*
X79043000Y-82576000D03*
D13*
X81918000Y-82276000D03*
D14*
X79043000Y-81976000D03*
D13*
X81918000Y-81676000D03*
D14*
X79043000Y-81376000D03*
D13*
X81918000Y-81076000D03*
D14*
X79043000Y-80776000D03*
D13*
X81918000Y-80476000D03*
D14*
X79043000Y-80176000D03*
D13*
X81918000Y-79876000D03*
D15*
X81593000Y-95576000D03*
X81593000Y-79176000D03*
%TD*%
D16*
%TO.C,R2*%
X85852000Y-90676000D03*
X87502000Y-90676000D03*
%TD*%
D17*
%TO.C,J4*%
X83048000Y-103886000D03*
D18*
X80508000Y-103886000D03*
%TD*%
D17*
%TO.C,J3*%
X86868000Y-103886000D03*
D18*
X89408000Y-103886000D03*
X91948000Y-103886000D03*
%TD*%
D16*
%TO.C,R1*%
X85852000Y-81676000D03*
X87502000Y-81676000D03*
%TD*%
D17*
%TO.C,J1*%
X100564000Y-63276000D03*
D18*
X103104000Y-63276000D03*
X100564000Y-65816000D03*
X103104000Y-65816000D03*
X100564000Y-68356000D03*
X103104000Y-68356000D03*
X100564000Y-70896000D03*
X103104000Y-70896000D03*
X100564000Y-73436000D03*
X103104000Y-73436000D03*
X100564000Y-75976000D03*
X103104000Y-75976000D03*
X100564000Y-78516000D03*
X103104000Y-78516000D03*
X100564000Y-81056000D03*
X103104000Y-81056000D03*
X100564000Y-83596000D03*
X103104000Y-83596000D03*
X100564000Y-86136000D03*
X103104000Y-86136000D03*
X100564000Y-88676000D03*
X103104000Y-88676000D03*
X100564000Y-91216000D03*
X103104000Y-91216000D03*
X100564000Y-93756000D03*
X103104000Y-93756000D03*
X100564000Y-96296000D03*
X103104000Y-96296000D03*
X100564000Y-98836000D03*
X103104000Y-98836000D03*
X100564000Y-101376000D03*
X103104000Y-101376000D03*
X100564000Y-103916000D03*
X103104000Y-103916000D03*
X100564000Y-106456000D03*
X103104000Y-106456000D03*
X100564000Y-108996000D03*
X103104000Y-108996000D03*
X100564000Y-111536000D03*
X103104000Y-111536000D03*
%TD*%
M02*
