%TF.GenerationSoftware,KiCad,Pcbnew,(6.0.9)*%
%TF.CreationDate,2022-11-21T18:53:06+08:00*%
%TF.ProjectId,Sitronix_3.97''_480x800,53697472-6f6e-4697-985f-332e39372727,rev?*%
%TF.SameCoordinates,Original*%
%TF.FileFunction,Paste,Top*%
%TF.FilePolarity,Positive*%
%FSLAX46Y46*%
G04 Gerber Fmt 4.6, Leading zero omitted, Abs format (unit mm)*
G04 Created by KiCad (PCBNEW (6.0.9)) date 2022-11-21 18:53:06*
%MOMM*%
%LPD*%
G01*
G04 APERTURE LIST*
G04 Aperture macros list*
%AMRoundRect*
0 Rectangle with rounded corners*
0 $1 Rounding radius*
0 $2 $3 $4 $5 $6 $7 $8 $9 X,Y pos of 4 corners*
0 Add a 4 corners polygon primitive as box body*
4,1,4,$2,$3,$4,$5,$6,$7,$8,$9,$2,$3,0*
0 Add four circle primitives for the rounded corners*
1,1,$1+$1,$2,$3*
1,1,$1+$1,$4,$5*
1,1,$1+$1,$6,$7*
1,1,$1+$1,$8,$9*
0 Add four rect primitives between the rounded corners*
20,1,$1+$1,$2,$3,$4,$5,0*
20,1,$1+$1,$4,$5,$6,$7,0*
20,1,$1+$1,$6,$7,$8,$9,0*
20,1,$1+$1,$8,$9,$2,$3,0*%
G04 Aperture macros list end*
%ADD10R,0.800000X0.260000*%
%ADD11R,0.650000X0.300000*%
%ADD12R,0.850000X0.400000*%
%ADD13RoundRect,0.200000X-0.200000X-0.275000X0.200000X-0.275000X0.200000X0.275000X-0.200000X0.275000X0*%
G04 APERTURE END LIST*
D10*
%TO.C,J2*%
X81918000Y-94876000D03*
D11*
X79043000Y-94576000D03*
D10*
X81918000Y-94276000D03*
D11*
X79043000Y-93976000D03*
D10*
X81918000Y-93676000D03*
D11*
X79043000Y-93376000D03*
D10*
X81918000Y-93076000D03*
D11*
X79043000Y-92776000D03*
D10*
X81918000Y-92476000D03*
D11*
X79043000Y-92176000D03*
D10*
X81918000Y-91876000D03*
D11*
X79043000Y-91576000D03*
D10*
X81918000Y-91276000D03*
D11*
X79043000Y-90976000D03*
D10*
X81918000Y-90676000D03*
D11*
X79043000Y-90376000D03*
D10*
X81918000Y-90076000D03*
D11*
X79043000Y-89776000D03*
D10*
X81918000Y-89476000D03*
D11*
X79043000Y-89176000D03*
D10*
X81918000Y-88876000D03*
D11*
X79043000Y-88576000D03*
D10*
X81918000Y-88276000D03*
D11*
X79043000Y-87976000D03*
D10*
X81918000Y-87676000D03*
D11*
X79043000Y-87376000D03*
D10*
X81918000Y-87076000D03*
D11*
X79043000Y-86776000D03*
D10*
X81918000Y-86476000D03*
D11*
X79043000Y-86176000D03*
D10*
X81918000Y-85876000D03*
D11*
X79043000Y-85576000D03*
D10*
X81918000Y-85276000D03*
D11*
X79043000Y-84976000D03*
D10*
X81918000Y-84676000D03*
D11*
X79043000Y-84376000D03*
D10*
X81918000Y-84076000D03*
D11*
X79043000Y-83776000D03*
D10*
X81918000Y-83476000D03*
D11*
X79043000Y-83176000D03*
D10*
X81918000Y-82876000D03*
D11*
X79043000Y-82576000D03*
D10*
X81918000Y-82276000D03*
D11*
X79043000Y-81976000D03*
D10*
X81918000Y-81676000D03*
D11*
X79043000Y-81376000D03*
D10*
X81918000Y-81076000D03*
D11*
X79043000Y-80776000D03*
D10*
X81918000Y-80476000D03*
D11*
X79043000Y-80176000D03*
D10*
X81918000Y-79876000D03*
D12*
X81593000Y-95576000D03*
X81593000Y-79176000D03*
%TD*%
D13*
%TO.C,R2*%
X85852000Y-90676000D03*
X87502000Y-90676000D03*
%TD*%
%TO.C,R1*%
X85852000Y-81676000D03*
X87502000Y-81676000D03*
%TD*%
M02*
