M48
; DRILL file {KiCad (6.0.9)} date 2022年11月21日 星期一 18时53分06秒
; FORMAT={-:-/ absolute / inch / decimal}
; #@! TF.CreationDate,2022-11-21T18:53:06+08:00
; #@! TF.GenerationSoftware,Kicad,Pcbnew,(6.0.9)
; #@! TF.FileFunction,Plated,1,2,PTH
FMAT,2
INCH
; #@! TA.AperFunction,Plated,PTH,ViaDrill
T1C0.0157
; #@! TA.AperFunction,Plated,PTH,ComponentDrill
T2C0.0394
%
G90
G05
T1
X2.98Y-3.66
X2.98Y-3.76
X2.98Y-3.86
X2.98Y-3.96
X2.98Y-4.06
X3.015Y-3.53
X3.02Y-3.251
X3.02Y-3.3219
X3.02Y-3.4164
X3.02Y-3.4872
X3.025Y-2.595
X3.025Y-2.695
X3.025Y-2.795
X3.025Y-2.895
X3.025Y-2.995
X3.045Y-3.2
X3.065Y-3.251
X3.065Y-3.3219
X3.065Y-3.4164
X3.065Y-3.4872
X3.0678Y-3.593
X3.1119Y-3.76
X3.155Y-3.62
X3.155Y-3.6998
X3.165Y-3.3455
X3.175Y-3.5109
X3.215Y-3.075
X3.215Y-4.235
X3.295Y-2.6
X3.3Y-3.1
X3.3Y-3.82
X3.315Y-4.235
X3.355Y-3.1
X3.365Y-3.88
X3.395Y-2.6
X3.395Y-2.9
X3.405Y-3.1
X3.415Y-4.235
X3.425Y-3.94
X3.495Y-2.6
X3.495Y-2.9
X3.505Y-3.4991
X3.51Y-3.2156
X3.515Y-4.235
X3.525Y-3.035
X3.555Y-2.9912
X3.595Y-2.6
X3.595Y-2.9
X3.615Y-4.235
X3.62Y-3.035
X3.635Y-3.62
X3.67Y-2.9912
X3.685Y-3.665
X3.695Y-2.6
X3.74Y-3.72
X3.765Y-4.185
X3.81Y-3.46
X3.825Y-4.24
X3.845Y-3.845
X3.87Y-4.315
X4.125Y-3.24
X4.15Y-4.225
X4.15Y-4.345
T2
X3.1696Y-4.09
X3.2696Y-4.09
X3.42Y-4.09
X3.52Y-4.09
X3.62Y-4.09
X3.9592Y-2.4912
X3.9592Y-2.5912
X3.9592Y-2.6912
X3.9592Y-2.7912
X3.9592Y-2.8912
X3.9592Y-2.9912
X3.9592Y-3.0912
X3.9592Y-3.1912
X3.9592Y-3.2912
X3.9592Y-3.3912
X3.9592Y-3.4912
X3.9592Y-3.5912
X3.9592Y-3.6912
X3.9592Y-3.7912
X3.9592Y-3.8912
X3.9592Y-3.9912
X3.9592Y-4.0912
X3.9592Y-4.1912
X3.9592Y-4.2912
X3.9592Y-4.3912
X4.0592Y-2.4912
X4.0592Y-2.5912
X4.0592Y-2.6912
X4.0592Y-2.7912
X4.0592Y-2.8912
X4.0592Y-2.9912
X4.0592Y-3.0912
X4.0592Y-3.1912
X4.0592Y-3.2912
X4.0592Y-3.3912
X4.0592Y-3.4912
X4.0592Y-3.5912
X4.0592Y-3.6912
X4.0592Y-3.7912
X4.0592Y-3.8912
X4.0592Y-3.9912
X4.0592Y-4.0912
X4.0592Y-4.1912
X4.0592Y-4.2912
X4.0592Y-4.3912
T0
M30
