M48
; DRILL file {KiCad (6.0.9)} date 2022年11月30日 星期三 21时43分21秒
; FORMAT={-:-/ absolute / inch / decimal}
; #@! TF.CreationDate,2022-11-30T21:43:21+08:00
; #@! TF.GenerationSoftware,Kicad,Pcbnew,(6.0.9)
; #@! TF.FileFunction,Plated,1,2,PTH
FMAT,2
INCH
; #@! TA.AperFunction,Plated,PTH,ViaDrill
T1C0.0157
; #@! TA.AperFunction,Plated,PTH,ComponentDrill
T2C0.0394
%
G90
G05
T1
X1.422Y-3.668
X1.422Y-3.718
X1.422Y-3.768
X1.422Y-3.818
X1.422Y-3.868
X1.45Y-4.01
X1.45Y-4.06
X1.45Y-4.11
X1.45Y-4.16
X1.45Y-4.21
X1.478Y-3.502
X1.528Y-3.452
X1.53Y-3.6592
X1.53Y-3.7065
X1.53Y-3.7537
X1.53Y-3.8009
X1.53Y-3.9191
X1.578Y-3.402
X1.578Y-4.232
X1.578Y-4.282
X1.578Y-4.332
X1.615Y-4.036
X1.62Y-3.6356
X1.62Y-3.7065
X1.628Y-3.352
X1.632Y-3.906
X1.6337Y-3.9899
X1.6356Y-3.5396
X1.645Y-4.105
X1.645Y-4.26
X1.65Y-3.7537
X1.65Y-3.8482
X1.678Y-3.302
X1.726Y-4.026
X1.738Y-3.608
X1.775Y-4.66
X1.816Y-3.42
X1.866Y-3.42
X1.89Y-4.18
X1.894Y-3.336
X1.916Y-3.42
X1.916Y-4.314
X1.916Y-4.364
X1.916Y-4.414
X1.944Y-3.336
X1.966Y-3.42
X1.994Y-3.336
X2.016Y-3.42
X2.044Y-3.336
X2.054Y-3.768
X2.054Y-3.876
X2.072Y-3.068
X2.072Y-3.166
X2.094Y-3.336
X2.104Y-3.768
X2.104Y-3.876
X2.122Y-3.068
X2.122Y-3.166
X2.154Y-3.768
X2.154Y-3.876
X2.172Y-3.068
X2.172Y-3.166
X2.204Y-3.768
X2.204Y-3.876
X2.21Y-3.6011
X2.222Y-3.068
X2.222Y-3.166
X2.2401Y-3.4601
X2.254Y-3.768
X2.254Y-3.876
X2.272Y-3.068
X2.272Y-3.166
X2.37Y-4.26
T2
X1.6048Y-4.545
X1.7048Y-4.545
X1.8506Y-4.545
X1.9506Y-4.545
X2.0506Y-4.545
X2.4792Y-2.9112
X2.4792Y-3.0112
X2.4792Y-3.1112
X2.4792Y-3.2112
X2.4792Y-3.3112
X2.4792Y-3.4112
X2.4792Y-3.5112
X2.4792Y-3.6112
X2.4792Y-3.7112
X2.4792Y-3.8112
X2.4792Y-3.9112
X2.4792Y-4.0112
X2.4792Y-4.1112
X2.4792Y-4.2112
X2.4792Y-4.3112
X2.4792Y-4.4112
X2.4792Y-4.5112
X2.4792Y-4.6112
X2.4792Y-4.7112
X2.4792Y-4.8112
X2.5792Y-2.9112
X2.5792Y-3.0112
X2.5792Y-3.1112
X2.5792Y-3.2112
X2.5792Y-3.3112
X2.5792Y-3.4112
X2.5792Y-3.5112
X2.5792Y-3.6112
X2.5792Y-3.7112
X2.5792Y-3.8112
X2.5792Y-3.9112
X2.5792Y-4.0112
X2.5792Y-4.1112
X2.5792Y-4.2112
X2.5792Y-4.3112
X2.5792Y-4.4112
X2.5792Y-4.5112
X2.5792Y-4.6112
X2.5792Y-4.7112
X2.5792Y-4.8112
T0
M30
